<?xml version="1.0" encoding="UTF-8" standalone="no"?>
<svg
   viewBox="0 0 700 700"
   version="1.1"
   id="svg1"
   sodipodi:docname="activity_active_makeup_small_black.svg"
   width="700"
   height="700"
   inkscape:version="1.3.2 (091e20ef0f, 2023-11-25)"
   xml:space="preserve"
   xmlns:inkscape="http://www.inkscape.org/namespaces/inkscape"
   xmlns:sodipodi="http://sodipodi.sourceforge.net/DTD/sodipodi-0.dtd"
   xmlns="http://www.w3.org/2000/svg"
   xmlns:svg="http://www.w3.org/2000/svg"><defs
     id="defs1" /><sodipodi:namedview
     id="namedview1"
     pagecolor="#ffffff"
     bordercolor="#000000"
     borderopacity="0.25"
     inkscape:showpageshadow="2"
     inkscape:pageopacity="0.0"
     inkscape:pagecheckerboard="0"
     inkscape:deskcolor="#d1d1d1"
     inkscape:zoom="1.40625"
     inkscape:cx="252.8"
     inkscape:cy="338.84444"
     inkscape:window-width="1895"
     inkscape:window-height="1347"
     inkscape:window-x="0"
     inkscape:window-y="0"
     inkscape:window-maximized="1"
     inkscape:current-layer="svg1" /><!--! Font Awesome Pro 6.4.2 by @fontawesome - https://fontawesome.com License - https://fontawesome.com/license (Commercial License) Copyright 2023 Fonticons, Inc. --><text
     xml:space="preserve"
     style="font-weight:bold;font-size:72.8165px;font-family:'Noto Sans';-inkscape-font-specification:'Noto Sans, Bold';text-align:center;text-anchor:middle;fill:#000000;fill-opacity:1;stroke-width:0.758506"
     x="350"
     y="632.11481"
     id="text1"><tspan
       sodipodi:role="line"
       id="tspan1"
       x="350"
       y="632.11481"
       style="font-style:normal;font-variant:normal;font-weight:bold;font-stretch:normal;font-size:145.633px;font-family:'Noto Sans';-inkscape-font-specification:'Noto Sans, Bold';font-variant-ligatures:normal;font-variant-caps:normal;font-variant-numeric:normal;font-variant-east-asian:normal;fill:#000000;fill-opacity:1;stroke-width:0.758506">MAKEUP</tspan></text><path
     d="m 329.38894,128.36902 c 12.07517,9.57686 29.25105,9.57686 41.32621,0 24.25443,-19.2578 48.30067,-31.645261 70.88955,-31.645261 14.88577,0 32.16575,5.725291 51.42356,16.343111 19.15371,10.51372 37.47465,24.35853 54.75463,37.78695 18.73732,14.57347 35.91321,30.18791 48.40476,44.24091 l 24.879,-22.17251 -24.879,22.17251 c 14.36528,16.13492 20.29877,26.85683 20.29877,34.87224 0,11.86698 -5.93349,26.33635 -15.30215,45.28187 -10.20144,20.29877 -25.29539,44.24091 -45.07368,67.14209 -39.55657,45.80235 -97.85048,87.44086 -172.79979,87.44086 h -66.6216 c -74.94931,0 -133.24321,-41.63851 -172.79979,-87.44086 -24.67081,-28.62647 -45.38597,-60.79222 -56.52427,-94.31121 -2.49831,-7.70312 -3.85156,-13.9489 -3.85156,-18.11275 0,-8.01541 5.93349,-18.73732 20.29877,-34.87224 l -24.35852,-21.65203 24.35852,21.65203 c 12.49155,-14.053 29.66743,-29.66744 48.40476,-44.24091 17.17588,-13.32432 35.60092,-27.16913 54.75463,-37.78695 19.25781,-10.61782 36.53779,-16.343111 51.42355,-16.343111 22.58889,0 46.63513,12.387461 70.99365,31.645261 z m 320.40828,101.59795 c 0,-21.96431 -14.78167,-41.32621 -28.73057,-57.04475 C 606.90957,156.9955 588.06814,139.92371 568.18575,124.51746 533.72989,97.764722 487.40706,63.412959 441.6047,63.412959 c -34.03947,0 -65.58063,18.216844 -91.6047,38.827901 -26.02407,-20.611057 -57.56523,-38.827901 -91.60471,-38.827901 -45.80235,0 -92.12519,34.351763 -126.58105,61.104501 -19.88238,15.40625 -38.61971,32.47804 -52.88089,48.40476 -13.94891,15.71854 -28.73057,35.08044 -28.73057,57.04475 0,9.57686 2.7065,19.88238 5.5171,28.62647 12.90794,38.82791 36.32959,74.84521 62.87414,105.55361 43.19995,49.9662 109.92565,98.99554 198.09518,98.99554 h 66.6216 c 88.16953,0 154.89523,-49.02934 197.99109,-98.99554 21.75611,-25.1913 38.30741,-51.42355 49.65391,-74.01244 9.05638,-18.21684 18.84142,-39.34838 18.84142,-60.16764 z m -228.69948,-7.39084 c 2.08193,-0.62457 3.95566,-0.93686 5.6212,-0.93686 39.66068,0.41639 68.80763,5.82939 87.54495,11.55468 4.89253,1.45735 8.84818,3.01879 12.17927,4.37205 -0.41639,0.41638 -0.93687,0.93687 -1.35325,1.35325 -7.80723,7.70312 -19.77829,17.59227 -35.70502,27.48141 -31.74936,19.57009 -78.69677,38.51562 -139.38489,38.51562 -60.68812,0 -107.63553,-18.94553 -139.38489,-38.51562 -15.92673,-9.78505 -27.8978,-19.77829 -35.70502,-27.48141 -0.52048,-0.52048 -0.93686,-0.93687 -1.35325,-1.35325 3.33108,-1.35326 7.28674,-2.8106 12.17927,-4.37205 18.73732,-5.72529 47.88427,-11.13829 87.54495,-11.55468 1.66554,0 3.53927,0.20819 5.62119,0.93686 12.07517,3.74747 45.80236,13.63661 71.09775,13.63661 25.29539,0 59.02258,-9.88914 71.09774,-13.63661 z m 5.93349,-34.24766 c -5.62119,-0.1041 -10.93011,0.83277 -15.92672,2.39421 -12.59565,3.95566 -41.63851,12.17926 -61.20861,12.17926 -19.57009,0 -48.61295,-8.2236 -61.20859,-12.17926 -4.89253,-1.56144 -10.30553,-2.49831 -15.92673,-2.39421 -42.36718,0.52048 -74.63702,6.14168 -96.91362,13.01203 -11.0342,3.43517 -19.98648,7.18264 -26.54454,11.0342 -3.22699,1.87374 -6.45397,4.05976 -9.05638,6.66217 -1.56144,1.66554 -6.76626,6.97444 -6.76626,15.09395 0,3.22699 0.93687,5.7253 1.35326,6.87035 0.52048,1.35325 1.14505,2.60241 1.66554,3.53928 1.04096,1.87373 2.39421,3.74746 3.74746,5.62119 2.8106,3.64338 6.66216,8.01542 11.45059,12.59565 9.57685,9.36867 23.52575,20.81925 41.53441,31.95756 36.0173,22.27659 88.8982,43.51223 156.76896,43.51223 67.87076,0 120.75166,-21.23564 156.87306,-43.51223 18.00865,-11.13831 31.95755,-22.58889 41.53441,-31.95756 4.78842,-4.68433 8.63999,-8.95227 11.45059,-12.69974 1.35325,-1.76964 2.7065,-3.74746 3.74746,-5.6212 0.52048,-0.93686 1.14506,-2.18602 1.66554,-3.53927 0.41639,-1.14506 1.35325,-3.64337 1.35325,-6.87035 0,-8.11952 -5.20481,-13.42842 -6.97445,-15.09396 -2.6024,-2.60241 -5.82939,-4.78843 -9.05637,-6.66217 -6.55807,-3.85155 -15.51035,-7.59902 -26.54454,-11.03419 -22.27661,-6.87036 -54.54644,-12.49156 -96.91362,-13.01204 z"
     id="path1-5"
     style="stroke-width:1.04096" /></svg>
