<?xml version="1.0" encoding="UTF-8" standalone="no"?>
<svg
   viewBox="0 0 700 700"
   version="1.1"
   id="svg1"
   sodipodi:docname="location_desk.svg"
   width="700"
   height="700"
   inkscape:version="1.3.2 (091e20ef0f, 2023-11-25)"
   xmlns:inkscape="http://www.inkscape.org/namespaces/inkscape"
   xmlns:sodipodi="http://sodipodi.sourceforge.net/DTD/sodipodi-0.dtd"
   xmlns="http://www.w3.org/2000/svg"
   xmlns:svg="http://www.w3.org/2000/svg">
  <defs
     id="defs1" />
  <sodipodi:namedview
     id="namedview1"
     pagecolor="#ffffff"
     bordercolor="#000000"
     borderopacity="0.25"
     inkscape:showpageshadow="2"
     inkscape:pageopacity="0.0"
     inkscape:pagecheckerboard="0"
     inkscape:deskcolor="#d1d1d1"
     inkscape:zoom="1.6071429"
     inkscape:cx="223.68889"
     inkscape:cy="256.04444"
     inkscape:window-width="1895"
     inkscape:window-height="1347"
     inkscape:window-x="0"
     inkscape:window-y="0"
     inkscape:window-maximized="1"
     inkscape:current-layer="svg1" />
  <!--! Font Awesome Pro 6.4.2 by @fontawesome - https://fontawesome.com License - https://fontawesome.com/license (Commercial License) Copyright 2023 Fonticons, Inc. -->
  <path
     d="m 414,126 c 17.7,0 32,14.3 32,32 v 160 h 32 V 158 C 478,122.7 449.3,94 414,94 H 286 c -35.3,0 -64,28.7 -64,64 v 160 h 32 V 158 c 0,-17.7 14.3,-32 32,-32 z M 190,238 c 0,-8.8 -7.2,-16 -16,-16 -8.8,0 -16,7.2 -16,16 v 80 c 0,8.8 7.2,16 16,16 8.8,0 16,-7.2 16,-16 z m 352,0 c 0,-8.8 -7.2,-16 -16,-16 -8.8,0 -16,7.2 -16,16 v 80 c 0,8.8 7.2,16 16,16 8.8,0 16,-7.2 16,-16 z m -64,144 32,64 H 350 190 l 32,-64 z m -112,96 h 144 c 11.1,0 21.4,-5.7 27.2,-15.2 5.8,-9.5 6.4,-21.2 1.4,-31.1 l -32,-64 C 501.2,356.8 490.1,350 478,350 H 222 c -12.1,0 -23.2,6.8 -28.6,17.7 l -32,64 c -5,9.9 -4.4,21.7 1.4,31.1 5.8,9.4 16.1,15.2 27.2,15.2 h 144 v 48 h -16 c -35.3,0 -64,28.7 -64,64 0,8.8 7.2,16 16,16 8.8,0 16,-7.2 16,-16 0,-17.7 14.3,-32 32,-32 h 16 v 32 c 0,8.8 7.2,16 16,16 8.8,0 16,-7.2 16,-16 v -32 h 16 c 17.7,0 32,14.3 32,32 0,8.8 7.2,16 16,16 8.8,0 16,-7.2 16,-16 0,-35.3 -28.7,-64 -64,-64 h -16 z"
     id="path1" />
</svg>
