<?xml version="1.0" encoding="UTF-8" standalone="no"?>
<svg
   viewBox="0 0 700 700"
   version="1.1"
   id="svg1"
   sodipodi:docname="activity_active_q_and_a_small_black.svg"
   width="700"
   height="700"
   inkscape:version="1.3.2 (091e20ef0f, 2023-11-25)"
   xml:space="preserve"
   xmlns:inkscape="http://www.inkscape.org/namespaces/inkscape"
   xmlns:sodipodi="http://sodipodi.sourceforge.net/DTD/sodipodi-0.dtd"
   xmlns="http://www.w3.org/2000/svg"
   xmlns:svg="http://www.w3.org/2000/svg"><defs
     id="defs1" /><sodipodi:namedview
     id="namedview1"
     pagecolor="#ffffff"
     bordercolor="#000000"
     borderopacity="0.25"
     inkscape:showpageshadow="2"
     inkscape:pageopacity="0.0"
     inkscape:pagecheckerboard="0"
     inkscape:deskcolor="#d1d1d1"
     inkscape:zoom="1.40625"
     inkscape:cx="252.8"
     inkscape:cy="338.84444"
     inkscape:window-width="1895"
     inkscape:window-height="1347"
     inkscape:window-x="0"
     inkscape:window-y="0"
     inkscape:window-maximized="1"
     inkscape:current-layer="svg1" /><!--! Font Awesome Pro 6.4.2 by @fontawesome - https://fontawesome.com License - https://fontawesome.com/license (Commercial License) Copyright 2023 Fonticons, Inc. --><text
     xml:space="preserve"
     style="font-weight:bold;font-size:72.8165px;font-family:'Noto Sans';-inkscape-font-specification:'Noto Sans, Bold';text-align:center;text-anchor:middle;fill:#000000;fill-opacity:1;stroke-width:0.758506"
     x="345.45447"
     y="632.11481"
     id="text1"><tspan
       sodipodi:role="line"
       id="tspan1"
       x="345.45447"
       y="632.11481"
       style="font-style:normal;font-variant:normal;font-weight:bold;font-stretch:normal;font-size:145.633px;font-family:'Noto Sans';-inkscape-font-specification:'Noto Sans, Bold';font-variant-ligatures:normal;font-variant-caps:normal;font-variant-numeric:normal;font-variant-east-asian:normal;fill:#000000;fill-opacity:1;stroke-width:0.758506">Q &amp; A</tspan></text><path
     d="m 262.41301,87.494289 c -80.00132,0 -137.63668,54.116241 -137.63668,112.611851 0,29.01318 14.07648,53.33421 35.26939,75.54376 3.75373,3.91014 4.53576,9.77534 1.95508,14.5457 -8.5241,15.79694 -17.75201,31.90668 -29.40421,46.8434 24.47744,-2.34608 49.42409,-10.32276 71.55544,-20.3327 4.69216,-2.11147 9.30612,-4.37934 14.07648,-6.80363 2.50248,-1.25124 5.31778,-1.64225 7.97667,-1.09484 12.19962,2.42429 24.16462,3.91014 36.20783,3.91014 80.00133,0 137.63669,-54.11624 137.63669,-112.61183 0,-58.49561 -57.63536,-112.611851 -137.63669,-112.611851 z M 99.751477,200.10614 c 0,-75.9348 72.806673,-137.636696 162.661533,-137.636696 89.85486,0 162.66155,61.701896 162.66155,137.636696 0,75.93478 -72.80669,137.63668 -162.66155,137.63668 -12.59062,0 -24.79024,-1.40765 -36.75524,-3.59732 -3.59733,1.79866 -7.35106,3.59732 -11.18299,5.31778 -28.30936,12.90344 -62.32752,23.30439 -95.95467,23.30439 -7.50745,0 -14.23288,-4.45755 -17.20458,-11.33939 -2.971701,-6.80363 -1.564053,-14.7803 3.44092,-20.17628 l 0.0782,-0.0782 v 0 C 116.95607,317.87931 126.57499,302.62979 135.7247,286.12903 115.2356,262.74647 99.751477,234.67171 99.751477,200.10614 Z M 445.25084,162.72526 c 86.33575,3.36271 154.99768,63.65696 154.99768,137.48028 0,34.56558 -15.48412,62.64033 -35.97322,86.02293 9.14971,16.42257 18.76864,31.75028 30.89005,44.96654 v 0 l 0.0782,0.0782 c 5.08317,5.47419 6.41261,13.37266 3.44092,20.17629 -2.97171,6.88183 -9.77534,11.33938 -17.20459,11.33938 -33.62715,0 -67.64531,-10.40095 -95.95467,-23.22618 -3.83194,-1.72046 -7.50746,-3.51912 -11.18298,-5.31779 -11.96502,2.18968 -24.16462,3.59733 -36.75526,3.59733 -64.20438,0 -119.65007,-31.43747 -146.08258,-77.02963 8.99331,-1.25124 17.83022,-3.0499 26.43251,-5.31778 22.99158,33.31434 66.31585,57.32255 119.65007,57.32255 11.96502,0 23.93002,-1.48585 36.20784,-3.91013 2.73709,-0.54742 5.55239,-0.15641 7.97667,1.09483 4.77036,2.42429 9.38432,4.69217 14.07648,6.80364 22.20956,10.08814 47.07801,18.06481 71.55544,20.3327 -11.6522,-14.85851 -20.95832,-31.04646 -29.4042,-46.8434 -2.5807,-4.77037 -1.79867,-10.63557 1.95506,-14.5457 21.19293,-22.20956 35.26941,-46.53059 35.26941,-75.54378 0,-55.52389 -51.92657,-107.13765 -125.59349,-112.22082 -0.70382,-8.6805 -2.18967,-17.12639 -4.37935,-25.25946 z M 215.41322,143.87842 c 4.30114,-12.04321 15.71873,-20.09809 28.46576,-20.09809 h 32.2977 c 18.92505,0 34.17457,15.32773 34.17457,34.17457 0,12.27781 -6.56903,23.539 -17.20459,29.63881 l -18.22122,10.47915 v 0.23461 c 0,6.88184 -5.63059,12.51242 -12.51243,12.51242 -6.88183,0 -12.51241,-5.63058 -12.51241,-12.51242 v -7.42926 c 0,-4.45755 2.42427,-8.60229 6.2562,-10.87016 l 24.55564,-14.07648 c 2.8153,-1.64225 4.61395,-4.69217 4.61395,-7.97667 0,-5.08318 -4.14474,-9.14971 -9.14971,-9.14971 h -32.2977 c -2.18967,0 -4.14474,1.40764 -4.92677,3.44092 l -0.2346,0.70381 c -2.34608,6.49083 -9.46253,9.93175 -15.95335,7.58566 -6.49082,-2.34608 -9.93173,-9.46252 -7.58566,-15.95334 z m 29.24779,103.14931 a 17.752005,17.752005 0 1 1 35.42581,0 17.752005,17.752005 0 1 1 -35.42581,0 z"
     id="path1"
     style="stroke-width:0.782026" /></svg>
