<?xml version="1.0" encoding="UTF-8" standalone="no"?>
<svg
   viewBox="0 0 700 700"
   version="1.1"
   id="svg1"
   sodipodi:docname="activity_active_exercise_small_black.svg"
   width="700"
   height="700"
   inkscape:version="1.3.2 (091e20ef0f, 2023-11-25)"
   xml:space="preserve"
   xmlns:inkscape="http://www.inkscape.org/namespaces/inkscape"
   xmlns:sodipodi="http://sodipodi.sourceforge.net/DTD/sodipodi-0.dtd"
   xmlns="http://www.w3.org/2000/svg"
   xmlns:svg="http://www.w3.org/2000/svg"><defs
     id="defs1" /><sodipodi:namedview
     id="namedview1"
     pagecolor="#ffffff"
     bordercolor="#000000"
     borderopacity="0.25"
     inkscape:showpageshadow="2"
     inkscape:pageopacity="0.0"
     inkscape:pagecheckerboard="0"
     inkscape:deskcolor="#d1d1d1"
     inkscape:zoom="1.40625"
     inkscape:cx="395.02222"
     inkscape:cy="338.84444"
     inkscape:window-width="1895"
     inkscape:window-height="1347"
     inkscape:window-x="0"
     inkscape:window-y="0"
     inkscape:window-maximized="1"
     inkscape:current-layer="svg1" /><!--! Font Awesome Pro 6.4.2 by @fontawesome - https://fontawesome.com License - https://fontawesome.com/license (Commercial License) Copyright 2023 Fonticons, Inc. --><text
     xml:space="preserve"
     style="font-weight:bold;font-size:72.8165px;font-family:'Noto Sans';-inkscape-font-specification:'Noto Sans, Bold';text-align:center;text-anchor:middle;fill:#000000;fill-opacity:1;stroke-width:0.758506"
     x="347.74265"
     y="632.11481"
     id="text1"><tspan
       sodipodi:role="line"
       id="tspan1"
       x="347.74265"
       y="632.11481"
       style="font-style:normal;font-variant:normal;font-weight:bold;font-stretch:normal;font-size:145.633px;font-family:'Noto Sans';-inkscape-font-specification:'Noto Sans, Bold';font-variant-ligatures:normal;font-variant-caps:normal;font-variant-numeric:normal;font-variant-east-asian:normal;fill:#000000;fill-opacity:1;stroke-width:0.758506">EXERCISE</tspan></text><path
     d="m 249.69965,90.778071 c 7.88074,0 14.32863,6.447884 14.32863,14.328619 v 157.61483 157.61483 c 0,7.88074 -6.44789,14.32863 -14.32863,14.32863 h -28.65724 c -7.88073,0 -14.32862,-6.44789 -14.32862,-14.32863 v -57.31448 -200.6007 -57.31448 c 0,-7.880735 6.44789,-14.328619 14.32862,-14.328619 z m -71.6431,312.811709 v 16.74657 c 0,23.73179 19.25408,42.98587 42.98586,42.98587 h 28.65724 c 23.73179,0 42.98587,-19.25408 42.98587,-42.98587 V 277.05014 h 114.62897 v 143.28621 c 0,23.73179 19.25408,42.98587 42.98585,42.98587 h 28.65725 c 23.73178,0 42.98587,-19.25408 42.98587,-42.98587 v -16.74657 c 4.47769,1.61197 9.3136,2.41796 14.32861,2.41796 h 28.65724 c 23.73179,0 42.98587,-19.25409 42.98587,-42.98587 v -85.97173 h 14.32862 c 7.88074,0 14.32862,-6.44787 14.32862,-14.32862 0,-7.88074 -6.44788,-14.32862 -14.32862,-14.32862 h -14.32862 v -85.97173 c 0,-23.73177 -19.25408,-42.98586 -42.98587,-42.98586 h -28.65724 c -5.01501,0 -9.85092,0.89554 -14.32861,2.41796 v -16.74658 c 0,-23.731779 -19.25409,-42.985861 -42.98587,-42.985861 h -28.65725 c -23.73177,0 -42.98585,19.254082 -42.98585,42.985861 V 248.3929 H 292.68552 V 105.10669 c 0,-23.731779 -19.25408,-42.985861 -42.98587,-42.985861 h -28.65724 c -23.73178,0 -42.98586,19.254082 -42.98586,42.985861 v 16.74658 c -4.47769,-1.52242 -9.3136,-2.41796 -14.32863,-2.41796 h -28.65723 c -23.73179,0 -42.985871,19.25409 -42.985871,42.98586 V 248.3929 H 77.756202 c -7.880741,0 -14.328621,6.44788 -14.328621,14.32862 0,7.88075 6.44788,14.32862 14.328621,14.32862 h 14.328617 v 85.97173 c 0,23.73178 19.254081,42.98587 42.985871,42.98587 h 28.65723 c 5.01503,0 9.85094,-0.89554 14.32863,-2.41796 z M 521.94346,162.42117 c 0,-7.88073 6.44787,-14.32861 14.32861,-14.32861 h 28.65724 c 7.88075,0 14.32863,6.44788 14.32863,14.32861 v 100.30035 100.30035 c 0,7.88074 -6.44788,14.32862 -14.32863,14.32862 h -28.65724 c -7.88074,0 -14.32861,-6.44788 -14.32861,-14.32862 z m -28.65725,200.6007 v 57.31448 c 0,7.88074 -6.44788,14.32863 -14.32862,14.32863 h -28.65725 c -7.88074,0 -14.32861,-6.44789 -14.32861,-14.32863 V 262.72152 105.10669 c 0,-7.880735 6.44787,-14.328619 14.32861,-14.328619 h 28.65725 c 7.88074,0 14.32862,6.447884 14.32862,14.328619 v 57.31448 z M 178.05655,162.42117 v 200.6007 c 0,7.88074 -6.44789,14.32862 -14.32863,14.32862 h -28.65723 c -7.88074,0 -14.32863,-6.44788 -14.32863,-14.32862 V 262.72152 162.42117 c 0,-7.88073 6.44789,-14.32861 14.32863,-14.32861 h 28.65723 c 7.88074,0 14.32863,6.44788 14.32863,14.32861 z"
     id="path1"
     style="stroke-width:0.895539" /></svg>
