<?xml version="1.0" encoding="UTF-8" standalone="no"?>
<svg
   viewBox="0 0 700 700"
   version="1.1"
   id="svg1"
   sodipodi:docname="activity_cooking.svg"
   width="700"
   height="700"
   inkscape:version="1.3.2 (091e20ef0f, 2023-11-25)"
   xmlns:inkscape="http://www.inkscape.org/namespaces/inkscape"
   xmlns:sodipodi="http://sodipodi.sourceforge.net/DTD/sodipodi-0.dtd"
   xmlns="http://www.w3.org/2000/svg"
   xmlns:svg="http://www.w3.org/2000/svg">
  <defs
     id="defs1" />
  <sodipodi:namedview
     id="namedview1"
     pagecolor="#ffffff"
     bordercolor="#000000"
     borderopacity="0.25"
     inkscape:showpageshadow="2"
     inkscape:pageopacity="0.0"
     inkscape:pagecheckerboard="0"
     inkscape:deskcolor="#d1d1d1"
     inkscape:zoom="1.40625"
     inkscape:cx="255.64444"
     inkscape:cy="255.64444"
     inkscape:window-width="1895"
     inkscape:window-height="1347"
     inkscape:window-x="0"
     inkscape:window-y="0"
     inkscape:window-maximized="1"
     inkscape:current-layer="svg1" />
  <!--! Font Awesome Pro 6.4.2 by @fontawesome - https://fontawesome.com License - https://fontawesome.com/license (Commercial License) Copyright 2023 Fonticons, Inc. -->
  <path
     d="m 264.95,177.4 c 16.1,-30.6 48.2,-51.4 85.1,-51.4 36.9,0 69,20.8 85,51.4 2.5,4.7 7.1,7.9 12.4,8.5 5.3,0.6 10.5,-1.5 13.9,-5.5 11.8,-13.7 29.2,-22.4 48.7,-22.4 35.3,0 64,28.7 64,64 0,4 -0.4,7.8 -1,11.6 l -0.1,0.5 c -3.5,22.8 -14.2,58.4 -26.1,93.5 -11.8,34.7 -24.3,67.7 -31,84.7 -0.4,1 -1.4,1.8 -2.8,1.8 h -45.2 L 493.75,273 c 1.6,-8.7 -4.2,-17 -12.8,-18.6 -8.6,-1.6 -17,4.2 -18.6,12.8 l -26.4,144 c -0.2,1 -0.3,1.9 -0.3,2.9 h -69.6 V 238 c 0,-8.8 -7.2,-16 -16,-16 -8.8,0 -16,7.2 -16,16 v 176 h -69.6 c 0,-1 -0.1,-1.9 -0.3,-2.9 l -26.4,-144 c -1.6,-8.7 -9.9,-14.4 -18.6,-12.8 -8.7,1.6 -14.4,9.9 -12.8,18.6 l 25.9,141.1 h -45.2 c -1.4,0 -2.4,-0.8 -2.8,-1.8 -6.6,-17 -19.2,-50 -31,-84.7 -11.9,-35.1 -22.6,-70.7 -26.1,-93.5 l -0.1,-0.5 c -0.7,-3.7 -1,-7.6 -1,-11.6 0,-35.3 28.7,-64 64,-64 19.5,0 36.9,8.7 48.6,22.4 3.5,4 8.7,6.1 13.9,5.5 5.2,-0.6 9.9,-3.8 12.4,-8.5 z M 350.05,94 c -41.9,0 -79.1,20.1 -102.4,51.2 -16,-12 -36,-19.2 -57.6,-19.2 -53,0 -96,43 -96,96 0,5.8 0.5,11.5 1.5,17.1 4,25.9 15.6,63.8 27.4,98.7 12,35.3 24.7,68.8 31.4,86 5.3,13.6 18.4,22.2 32.7,22.2 h 326 c 14.3,0 27.4,-8.6 32.6,-22.2 6.7,-17.2 19.4,-50.7 31.4,-86 11.8,-34.9 23.4,-72.8 27.4,-98.7 1,-5.5 1.5,-11.2 1.5,-17.1 0,-53 -43,-96 -96,-96 -21.6,0 -41.6,7.2 -57.6,19.2 C 429.15,114.1 391.95,94 350.05,94 Z m -192,384 v 64 c 0,35.3 28.7,64 64,64 h 256 c 35.3,0 64,-28.7 64,-64 v -64 h -32 v 64 c 0,17.7 -14.3,32 -32,32 h -256 c -17.7,0 -32,-14.3 -32,-32 v -64 z"
     id="path1" />
</svg>
