<?xml version="1.0" encoding="UTF-8" standalone="no"?>
<svg
   viewBox="0 0 700 700"
   version="1.1"
   id="svg1"
   sodipodi:docname="activity_active_self-help_small_black.svg"
   width="700"
   height="700"
   inkscape:version="1.3.2 (091e20ef0f, 2023-11-25)"
   xml:space="preserve"
   xmlns:inkscape="http://www.inkscape.org/namespaces/inkscape"
   xmlns:sodipodi="http://sodipodi.sourceforge.net/DTD/sodipodi-0.dtd"
   xmlns="http://www.w3.org/2000/svg"
   xmlns:svg="http://www.w3.org/2000/svg"><defs
     id="defs1" /><sodipodi:namedview
     id="namedview1"
     pagecolor="#ffffff"
     bordercolor="#000000"
     borderopacity="0.25"
     inkscape:showpageshadow="2"
     inkscape:pageopacity="0.0"
     inkscape:pagecheckerboard="0"
     inkscape:deskcolor="#d1d1d1"
     inkscape:zoom="1.40625"
     inkscape:cx="252.8"
     inkscape:cy="338.84444"
     inkscape:window-width="1895"
     inkscape:window-height="1347"
     inkscape:window-x="0"
     inkscape:window-y="0"
     inkscape:window-maximized="1"
     inkscape:current-layer="svg1" /><!--! Font Awesome Pro 6.4.2 by @fontawesome - https://fontawesome.com License - https://fontawesome.com/license (Commercial License) Copyright 2023 Fonticons, Inc. --><text
     xml:space="preserve"
     style="font-weight:bold;font-size:72.8165px;font-family:'Noto Sans';-inkscape-font-specification:'Noto Sans, Bold';text-align:center;text-anchor:middle;fill:#000000;fill-opacity:1;stroke-width:0.758506"
     x="345.45447"
     y="632.11481"
     id="text1"><tspan
       sodipodi:role="line"
       id="tspan1"
       x="345.45447"
       y="632.11481"
       style="font-style:normal;font-variant:normal;font-weight:bold;font-stretch:normal;font-size:145.633px;font-family:'Noto Sans';-inkscape-font-specification:'Noto Sans, Bold';font-variant-ligatures:normal;font-variant-caps:normal;font-variant-numeric:normal;font-variant-east-asian:normal;fill:#000000;fill-opacity:1;stroke-width:0.758506">SELF-HEL</tspan></text><path
     d="m 174.7647,237.99641 c 0,-82.92385 67.27784,-150.201686 150.20169,-150.201686 h 12.5168 c 51.71006,0 99.43038,31.292016 120.3178,75.804916 2.50336,5.39787 5.08496,11.10866 7.74477,16.97592 v 0 0 c 4.85027,10.87396 9.93522,22.29555 15.48955,32.85661 8.68354,16.663 19.40105,33.0913 34.42122,46.46864 l 2.50336,2.19044 c 4.69381,4.1462 7.43185,10.16991 7.43185,16.50655 0,12.20388 -9.85698,22.06087 -22.06087,22.06087 h -15.64601 c -6.88424,0 -12.5168,5.63255 -12.5168,12.51679 v 50.06723 c 0,13.84672 -11.1869,25.03362 -25.03362,25.03362 h -62.58403 c -6.88424,0 -12.51681,5.63256 -12.51681,12.5168 v 50.06723 c 0,6.88424 5.63257,12.51681 12.51681,12.51681 6.88425,0 12.51681,-5.63257 12.51681,-12.51681 v -37.62865 h 50.06722 c 27.61521,0 50.06723,-22.45202 50.06723,-50.06723 v -37.55042 h 2.97274 c 25.97237,0 47.09449,-21.04387 47.09449,-47.09447 0,-13.45558 -5.78903,-26.2853 -15.80247,-35.20352 l -2.50336,-2.19045 c -11.81274,-10.56106 -20.80919,-23.93839 -28.86689,-39.34971 -5.24141,-9.93521 -9.62229,-19.94866 -14.23786,-30.27503 v 0 c -2.73806,-6.10194 -5.47611,-12.28211 -8.44885,-18.61874 C 455.45408,99.763921 398.972,62.761111 337.48319,62.761111 h -12.5168 c -96.77057,0 -175.23529,78.464729 -175.23529,175.235299 0,41.38369 14.39432,79.48171 38.41094,109.52205 7.35362,9.07468 11.65628,19.24459 11.65628,29.25804 v 74.00561 c 0,6.88424 5.63256,12.51681 12.5168,12.51681 6.88424,0 12.51681,-5.63257 12.51681,-12.51681 V 376.7765 c 0,-17.28885 -7.43185,-32.7784 -17.13238,-44.90405 C 187.04682,306.13477 174.7647,273.51284 174.7647,237.99641 Z M 324.96639,137.86195 c -13.84672,0 -25.03362,11.1869 -25.03362,25.03362 v 25.03361 h -25.03361 c -13.84672,0 -25.03362,11.18689 -25.03362,25.03361 v 25.03362 c 0,13.8467 11.1869,25.03361 25.03362,25.03361 h 25.03361 v 25.0336 c 0,13.84672 11.1869,25.03362 25.03362,25.03362 H 350 c 13.84671,0 25.0336,-11.1869 25.0336,-25.03362 v -25.0336 h 25.03362 c 13.84672,0 25.03361,-11.18691 25.03361,-25.03361 v -25.03362 c 0,-13.84672 -11.18689,-25.03361 -25.03361,-25.03361 H 375.0336 v -25.03361 c 0,-13.84672 -11.18689,-25.03362 -25.0336,-25.03362 z m 0,62.58404 V 162.89557 H 350 v 37.55042 c 0,6.88424 5.63256,12.5168 12.5168,12.5168 h 37.55042 v 25.03362 H 362.5168 c -6.88424,0 -12.5168,5.63255 -12.5168,12.5168 v 37.55041 h -25.03361 v -37.55041 c 0,-6.88425 -5.63257,-12.5168 -12.51681,-12.5168 h -37.55042 v -25.03362 h 37.55042 c 3.28566,0 6.49308,-1.32991 8.83999,-3.67681 2.3469,-2.34691 3.67682,-5.55434 3.67682,-8.83999 z"
     id="path1"
     style="stroke-width:0.782301" /></svg>
