<?xml version="1.0" encoding="UTF-8" standalone="no"?>
<svg
   viewBox="0 0 700 700"
   version="1.1"
   id="svg1"
   sodipodi:docname="activity_active_research_small_black.svg"
   width="700"
   height="700"
   inkscape:version="1.3.2 (091e20ef0f, 2023-11-25)"
   xml:space="preserve"
   xmlns:inkscape="http://www.inkscape.org/namespaces/inkscape"
   xmlns:sodipodi="http://sodipodi.sourceforge.net/DTD/sodipodi-0.dtd"
   xmlns="http://www.w3.org/2000/svg"
   xmlns:svg="http://www.w3.org/2000/svg"><defs
     id="defs1" /><sodipodi:namedview
     id="namedview1"
     pagecolor="#ffffff"
     bordercolor="#000000"
     borderopacity="0.25"
     inkscape:showpageshadow="2"
     inkscape:pageopacity="0.0"
     inkscape:pagecheckerboard="0"
     inkscape:deskcolor="#d1d1d1"
     inkscape:zoom="1.40625"
     inkscape:cx="393.6"
     inkscape:cy="273.42222"
     inkscape:window-width="1895"
     inkscape:window-height="1347"
     inkscape:window-x="0"
     inkscape:window-y="0"
     inkscape:window-maximized="1"
     inkscape:current-layer="svg1" /><!--! Font Awesome Pro 6.4.2 by @fontawesome - https://fontawesome.com License - https://fontawesome.com/license (Commercial License) Copyright 2023 Fonticons, Inc. --><text
     xml:space="preserve"
     style="font-weight:bold;font-size:72.8165px;font-family:'Noto Sans';-inkscape-font-specification:'Noto Sans, Bold';text-align:center;text-anchor:middle;fill:#000000;fill-opacity:1;stroke-width:0.758506"
     x="345.99503"
     y="632.11481"
     id="text1"><tspan
       sodipodi:role="line"
       id="tspan1"
       x="345.995"
       y="632.11481"
       style="font-style:normal;font-variant:normal;font-weight:bold;font-stretch:normal;font-size:145.633px;font-family:'Noto Sans';-inkscape-font-specification:'Noto Sans, Bold';font-variant-ligatures:normal;font-variant-caps:normal;font-variant-numeric:normal;font-variant-east-asian:normal;fill:#000000;fill-opacity:1;stroke-width:0.758506">RESEARC</tspan></text><path
     d="m 223.92968,61.316666 c -27.81426,0 -50.42812,22.613855 -50.42812,50.428124 v 302.56875 0 c 0,27.81426 22.61386,50.42812 50.42812,50.42812 h 289.96174 c 6.93385,0 12.60701,-5.67316 12.60701,-12.60703 0,-6.93386 -5.67316,-12.60704 -12.60701,-12.60704 h -12.60703 v -52.55555 c 14.65566,-5.2004 25.21404,-19.22572 25.21404,-35.69366 V 99.13776 c 0,-20.880399 -16.94069,-37.821094 -37.82109,-37.821094 z M 476.07031,389.09948 v 50.42811 H 223.92968 c -13.94653,0 -25.21405,-11.26752 -25.21405,-25.21405 0,-13.94654 11.26752,-25.21406 25.21405,-25.21406 z M 223.92968,363.88541 c -9.21888,0 -17.80742,2.44261 -25.21405,6.77628 v -258.9169 c 0,-13.946535 11.26752,-25.214063 25.21405,-25.214063 h 264.74766 c 6.93386,0 12.60704,5.673161 12.60704,12.607033 v 252.14062 c 0,6.93387 -5.67318,12.60703 -12.60704,12.60703 z m 159.08498,-167.9099 -13.001,30.41447 -30.41447,13.001 c -15.28602,6.53989 -15.28602,28.20823 0,34.74813 l 30.41447,13.001 13.001,30.41446 c 6.53989,15.28603 28.20823,15.28603 34.74813,0 l 13.001,-30.41446 30.41446,-13.001 c 15.28603,-6.5399 15.28603,-28.20824 0,-34.74813 l -30.41446,-13.001 -13.001,-30.41447 c -6.5399,-15.28602 -28.20824,-15.28602 -34.74813,0 z m 17.41347,23.40181 9.21888,21.51074 c 1.26072,2.99417 3.62453,5.35799 6.6187,6.61869 l 21.51074,9.21889 -21.51074,9.2189 c -2.99417,1.2607 -5.35798,3.62452 -6.6187,6.61869 l -9.21888,21.51074 -9.2189,-21.51074 c -1.2607,-2.99417 -3.62452,-5.35799 -6.61869,-6.61869 l -21.51074,-9.2189 21.51074,-9.21889 c 2.99417,-1.2607 5.35799,-3.62452 6.61869,-6.61869 z m -106.37183,-62.08964 5.51558,-11.03115 5.51558,11.03115 c 1.18191,2.44262 3.23055,4.41247 5.67316,5.67317 l 11.03116,5.51558 -11.03116,5.51557 c -2.44261,1.18191 -4.41246,3.23055 -5.67316,5.67317 l -5.51558,11.03115 -5.51558,-11.03115 c -1.18191,-2.44262 -3.23056,-4.41247 -5.67317,-5.67317 l -11.03115,-5.51557 11.03115,-5.51558 c 2.44261,-1.18191 4.41246,-3.23055 5.67317,-5.67317 z m 22.45628,-33.64501 c -6.93387,-13.94652 -26.86874,-13.94652 -33.8026,0 l -9.29769,18.59537 -18.59536,9.29769 c -13.94654,6.93387 -13.94654,26.86873 0,33.8026 l 18.59536,9.29769 9.29769,18.59537 c 6.93386,13.94652 26.86873,13.94652 33.8026,0 l 9.29768,-18.59537 18.59538,-9.29769 c 13.94652,-6.93387 13.94652,-26.86873 0,-33.8026 l -18.59538,-9.29769 -9.29768,-18.51657 z"
     id="path1"
     style="stroke-width:0.787939" /></svg>
