<?xml version="1.0" encoding="UTF-8" standalone="no"?>
<svg
   viewBox="0 0 700 700"
   version="1.1"
   id="svg1"
   sodipodi:docname="activity_crafts.svg"
   width="700"
   height="700"
   inkscape:version="1.3.2 (091e20ef0f, 2023-11-25)"
   xmlns:inkscape="http://www.inkscape.org/namespaces/inkscape"
   xmlns:sodipodi="http://sodipodi.sourceforge.net/DTD/sodipodi-0.dtd"
   xmlns="http://www.w3.org/2000/svg"
   xmlns:svg="http://www.w3.org/2000/svg">
  <defs
     id="defs1" />
  <sodipodi:namedview
     id="namedview1"
     pagecolor="#ffffff"
     bordercolor="#000000"
     borderopacity="0.25"
     inkscape:showpageshadow="2"
     inkscape:pageopacity="0.0"
     inkscape:pagecheckerboard="0"
     inkscape:deskcolor="#d1d1d1"
     inkscape:zoom="1.25"
     inkscape:cx="287.6"
     inkscape:cy="255.6"
     inkscape:window-width="1895"
     inkscape:window-height="1347"
     inkscape:window-x="0"
     inkscape:window-y="0"
     inkscape:window-maximized="1"
     inkscape:current-layer="svg1" />
  <!--! Font Awesome Pro 6.4.2 by @fontawesome - https://fontawesome.com License - https://fontawesome.com/license (Commercial License) Copyright 2023 Fonticons, Inc. -->
  <path
     d="m 596.525,180.53941 -164.6,164.7 -45.3,-45.3 164.7,-164.6 c 12.5,-12.5 32.8,-12.5 45.3,0 12.5,12.5 12.5,32.8 0,45.3 z m -187.2,187.3 -36.6,36.6 -36.1,36.1 v 0 l -4.6,4.6 -45.4,-45.2 40.7,-40.7 v 0 l 36.7,-36.7 z m -171.3,46.1 c 6.9,0 13.5,0.9 19.9,2.5 l 57.7,57.7 c 1.6,6.3 2.5,13 2.5,19.9 0,44.2 -35.8,80 -80,80 h -139.3 c 21.2,-0.1 37.5,-11.6 47.2,-25 9.5,-13.1 14.2,-30 12.5,-46.7 -0.3,-2.7 -0.4,-5.5 -0.4,-8.3 0,-44.2 35.8,-80 80,-80 z m 110.3,60.2 270.9,-270.9 c 25,-25 25,-65.5 0,-90.5 -25,-24.999996 -65.5,-24.999996 -90.5,0 l -271,271 c -6.4,-1.1 -13,-1.7 -19.7,-1.7 -61.9,0 -112,50.1 -112,112 0,3.9 0.2,7.8 0.6,11.6 1.8,17.4 -10.2,36.3 -27.8,36.3 h -4.8 c -17.7,0 -32,14.3 -32,32 0,17.7 14.3,32 32,32 h 144 c 61.9,0 112,-50.1 112,-112 0,-6.8 -0.6,-13.4 -1.7,-19.8 z m -115.5,-363.2 c -21.9,-21.899996 -57.3,-21.899996 -79.2,0 l -42.6,42.6 c -21.9,21.9 -21.9,57.3 0,79.2 l 117.5,117.5 c 3.1,-0.2 6.3,-0.3 9.5,-0.3 2.7,0 5.3,0.1 7.9,0.2 l 13.9,-13.9 -48.8,-48.7 76.6,-76.6 48.8,48.8 22.6,-22.6 z m 239.3,284.6 50.8,50.8 c 7.6,7.6 13.1,16.9 16.1,27.2 l 27.3,92.8 -92.8,-27.3 c -10.3,-3 -19.6,-8.6 -27.2,-16.1 l -50.8,-50.8 -13.8,13.8 c 0.1,2.7 0.2,5.4 0.2,8.1 0,3.2 -0.1,6.4 -0.3,9.5 l 42,42 c 11.4,11.4 25.4,19.7 40.8,24.2 l 121,35.6 c 5.6,1.7 11.7,0.1 15.8,-4 4.1,-4.1 5.7,-10.2 4,-15.8 l -35.6,-121 c -4.5,-15.4 -12.9,-29.4 -24.2,-40.8 l -50.8,-50.8 -22.6,22.6 z m -295.9,-262 c 9.4,-9.4 24.6,-9.4 33.9,0 l 54.9,54.8 -76.6,76.6 -54.8,-54.8 c -9.4,-9.4 -9.4,-24.6 0,-33.9 l 42.6,-42.6 z"
     id="path1" />
</svg>
