<?xml version="1.0" encoding="UTF-8" standalone="no"?>
<svg
   viewBox="0 0 700 700"
   version="1.1"
   id="svg1"
   sodipodi:docname="activity_active_health_small_black.svg"
   width="700"
   height="700"
   inkscape:version="1.3.2 (091e20ef0f, 2023-11-25)"
   xml:space="preserve"
   xmlns:inkscape="http://www.inkscape.org/namespaces/inkscape"
   xmlns:sodipodi="http://sodipodi.sourceforge.net/DTD/sodipodi-0.dtd"
   xmlns="http://www.w3.org/2000/svg"
   xmlns:svg="http://www.w3.org/2000/svg"><defs
     id="defs1" /><sodipodi:namedview
     id="namedview1"
     pagecolor="#ffffff"
     bordercolor="#000000"
     borderopacity="0.25"
     inkscape:showpageshadow="2"
     inkscape:pageopacity="0.0"
     inkscape:pagecheckerboard="0"
     inkscape:deskcolor="#d1d1d1"
     inkscape:zoom="1.40625"
     inkscape:cx="252.8"
     inkscape:cy="338.84444"
     inkscape:window-width="1895"
     inkscape:window-height="1347"
     inkscape:window-x="0"
     inkscape:window-y="0"
     inkscape:window-maximized="1"
     inkscape:current-layer="svg1" /><!--! Font Awesome Pro 6.4.2 by @fontawesome - https://fontawesome.com License - https://fontawesome.com/license (Commercial License) Copyright 2023 Fonticons, Inc. --><text
     xml:space="preserve"
     style="font-weight:bold;font-size:72.8165px;font-family:'Noto Sans';-inkscape-font-specification:'Noto Sans, Bold';text-align:center;text-anchor:middle;fill:#000000;fill-opacity:1;stroke-width:0.758506"
     x="349.99994"
     y="632.11481"
     id="text1"><tspan
       sodipodi:role="line"
       id="tspan1"
       x="349.99991"
       y="632.11481"
       style="font-style:normal;font-variant:normal;font-weight:bold;font-stretch:normal;font-size:145.633px;font-family:'Noto Sans';-inkscape-font-specification:'Noto Sans, Bold';font-variant-ligatures:normal;font-variant-caps:normal;font-variant-numeric:normal;font-variant-east-asian:normal;fill:#000000;fill-opacity:1;stroke-width:0.758506">HEALTH</tspan></text><path
     d="m 338.36973,87.84444 c 28.9586,0 53.78027,17.71862 64.23971,42.93056 2.18556,5.15166 7.49334,8.27389 13.03528,7.57139 3.04417,-0.39028 6.08834,-0.54639 9.21056,-0.54639 5.77611,0 11.39611,0.62444 16.78194,1.87332 C 448.42806,138.42444 455.375,137.8 462.4,137.8 c 11.94249,0 23.41667,1.87332 34.18834,5.30777 -18.18695,-18.65528 -43.555,-30.28555 -71.65501,-30.28555 -1.01472,0 -2.1075,0 -3.12222,0.0781 -15.92332,-29.739172 -47.30166,-50.033614 -83.44138,-50.033614 -36.13972,0 -67.51807,20.294442 -83.44139,50.033614 -1.63918,-0.0781 -3.20029,-0.0781 -4.83945,-0.0781 -55.18528,0 -99.91111,44.72583 -99.91111,99.91111 0,18.18694 4.83944,35.28111 13.3475,49.95556 h 30.67583 c -11.86444,-13.26945 -19.04555,-30.75389 -19.04555,-49.95556 0,-41.36945 33.56389,-74.93333 74.93333,-74.93333 3.59056,0 7.18111,0.23416 10.61555,0.78056 5.62,0.78055 11.16195,-2.34168 13.26945,-7.5714 10.45944,-25.36805 35.35915,-43.16472 64.39584,-43.16472 z M 462.4,187.75555 c 34.50056,0 62.44444,27.94389 62.44444,62.44446 0,4.29304 -0.46833,8.42999 -1.24888,12.48888 h 25.36805 c 0.54639,-4.05889 0.85861,-8.27389 0.85861,-12.48888 0,-48.31641 -39.10583,-87.42224 -87.42222,-87.42224 -48.31638,0 -87.42222,39.10583 -87.42222,87.42224 0,4.21499 0.31222,8.42999 0.85862,12.48888 h 25.36804 c -0.78055,-4.05889 -1.24889,-8.19584 -1.24889,-12.48888 0,-34.50057 27.94389,-62.44446 62.44445,-62.44446 z M 251.10361,419.6586 c -2.10749,-7.02499 -7.18111,-12.8011 -13.89388,-15.76722 -35.59334,-15.53305 -60.57112,-50.42389 -61.97612,-91.24694 h 349.53278 c -1.405,40.82305 -26.46083,75.71389 -61.97611,91.24694 -6.71279,2.96612 -11.86444,8.74223 -13.89389,15.76722 -3.12223,10.38141 -12.645,17.87472 -23.96306,17.87472 H 275.06667 c -11.31806,0 -20.84083,-7.49331 -23.96306,-17.87472 z M 171.565,287.66667 c -11.78639,0 -21.38722,9.60083 -21.38722,21.38722 0,52.60945 31.69056,97.88166 76.96278,117.70777 6.16638,20.68473 25.29,35.74944 47.92611,35.74944 h 149.86666 c 22.63612,0 41.75973,-15.06471 47.92611,-35.67138 45.35028,-19.82612 76.96278,-65.09834 76.96278,-117.70777 0,-11.7864 -9.60083,-21.38723 -21.38722,-21.38723 H 171.565 Z M 350.00001,150.28888 c 0,-6.86889 -5.62001,-12.48888 -12.48889,-12.48888 -6.86889,0 -12.48889,5.61999 -12.48889,12.48888 v 99.91113 c 0,6.86887 5.62,12.48888 12.48889,12.48888 6.86888,0 12.48889,-5.62001 12.48889,-12.48888 z m -116.06862,28.6464 c -4.83944,-4.83946 -12.80111,-4.83946 -17.64055,0 -4.83945,4.83944 -4.83945,12.80111 0,17.64054 l 62.44445,62.44445 c 4.83944,4.83945 12.80111,4.83945 17.64054,0 4.83946,-4.83945 4.83946,-12.80111 0,-17.64055 z"
     id="path1"
     style="stroke-width:0.780557" /></svg>
