<?xml version="1.0" encoding="UTF-8" standalone="no"?>
<svg
   viewBox="0 0 700 700"
   version="1.1"
   id="svg1"
   sodipodi:docname="activity_active_chatting_small_black.svg"
   width="700"
   height="700"
   inkscape:version="1.3.2 (091e20ef0f, 2023-11-25)"
   xml:space="preserve"
   xmlns:inkscape="http://www.inkscape.org/namespaces/inkscape"
   xmlns:sodipodi="http://sodipodi.sourceforge.net/DTD/sodipodi-0.dtd"
   xmlns="http://www.w3.org/2000/svg"
   xmlns:svg="http://www.w3.org/2000/svg"><defs
     id="defs1" /><sodipodi:namedview
     id="namedview1"
     pagecolor="#ffffff"
     bordercolor="#000000"
     borderopacity="0.25"
     inkscape:showpageshadow="2"
     inkscape:pageopacity="0.0"
     inkscape:pagecheckerboard="0"
     inkscape:deskcolor="#d1d1d1"
     inkscape:zoom="1.40625"
     inkscape:cx="253.51111"
     inkscape:cy="338.84444"
     inkscape:window-width="1895"
     inkscape:window-height="1347"
     inkscape:window-x="0"
     inkscape:window-y="0"
     inkscape:window-maximized="1"
     inkscape:current-layer="svg1" /><!--! Font Awesome Pro 6.4.2 by @fontawesome - https://fontawesome.com License - https://fontawesome.com/license (Commercial License) Copyright 2023 Fonticons, Inc. --><text
     xml:space="preserve"
     style="font-weight:bold;font-size:72.8165px;font-family:'Noto Sans';-inkscape-font-specification:'Noto Sans, Bold';text-align:center;text-anchor:middle;fill:#000000;fill-opacity:1;stroke-width:0.758506"
     x="345.45447"
     y="632.11481"
     id="text1"><tspan
       sodipodi:role="line"
       id="tspan1"
       x="345.45444"
       y="632.11481"
       style="font-style:normal;font-variant:normal;font-weight:bold;font-stretch:normal;font-size:145.633px;font-family:'Noto Sans';-inkscape-font-specification:'Noto Sans, Bold';font-variant-ligatures:normal;font-variant-caps:normal;font-variant-numeric:normal;font-variant-east-asian:normal;fill:#000000;fill-opacity:1;stroke-width:0.758506">CHATTIN</tspan></text><path
     d="m 274.45191,364.17001 c 13.92918,0 25.1827,11.25351 25.1827,25.18268 v 37.77404 l 77.20069,-57.92019 c 4.32828,-3.30523 9.6796,-5.03653 15.10962,-5.03653 h 109.15123 c 13.92918,0 25.1827,-11.25353 25.1827,-25.1827 V 112.34308 c 0,-13.929185 -11.25352,-25.1827 -25.1827,-25.1827 H 198.90384 c -13.92919,0 -25.1827,11.253515 -25.1827,25.1827 v 226.64423 c 0,13.92917 11.25351,25.1827 25.1827,25.1827 z M 148.53845,112.34308 c 0,-27.77966 22.58573,-50.36539 50.36539,-50.36539 h 302.19231 c 27.77967,0 50.3654,22.58573 50.3654,50.36539 v 226.64423 c 0,27.77966 -22.58573,50.36538 -50.36539,50.36538 H 391.94492 l -97.34685,73.02981 c -3.7774,2.83306 -8.89265,3.30523 -13.22091,1.18044 -4.32828,-2.12479 -6.92525,-6.45306 -6.92525,-11.25352 v -37.77403 -25.1827 h -25.18269 -50.36538 c -27.77966,0 -50.36539,-22.58572 -50.36539,-50.36538 z"
     id="path1-5"
     style="stroke-width:0.786959" /></svg>
