<?xml version="1.0" encoding="UTF-8" standalone="no"?>
<svg
   viewBox="0 0 700 700"
   version="1.1"
   id="svg1"
   sodipodi:docname="activity_active_politics_small_black.svg"
   width="700"
   height="700"
   inkscape:version="1.3.2 (091e20ef0f, 2023-11-25)"
   xml:space="preserve"
   xmlns:inkscape="http://www.inkscape.org/namespaces/inkscape"
   xmlns:sodipodi="http://sodipodi.sourceforge.net/DTD/sodipodi-0.dtd"
   xmlns="http://www.w3.org/2000/svg"
   xmlns:svg="http://www.w3.org/2000/svg"><defs
     id="defs1" /><sodipodi:namedview
     id="namedview1"
     pagecolor="#ffffff"
     bordercolor="#000000"
     borderopacity="0.25"
     inkscape:showpageshadow="2"
     inkscape:pageopacity="0.0"
     inkscape:pagecheckerboard="0"
     inkscape:deskcolor="#d1d1d1"
     inkscape:zoom="1.40625"
     inkscape:cx="394.31111"
     inkscape:cy="338.84444"
     inkscape:window-width="1895"
     inkscape:window-height="1347"
     inkscape:window-x="0"
     inkscape:window-y="0"
     inkscape:window-maximized="1"
     inkscape:current-layer="svg1" /><!--! Font Awesome Pro 6.4.2 by @fontawesome - https://fontawesome.com License - https://fontawesome.com/license (Commercial License) Copyright 2023 Fonticons, Inc. --><text
     xml:space="preserve"
     style="font-weight:bold;font-size:72.8165px;font-family:'Noto Sans';-inkscape-font-specification:'Noto Sans, Bold';text-align:center;text-anchor:middle;fill:#000000;fill-opacity:1;stroke-width:0.758506"
     x="345.45447"
     y="632.11481"
     id="text1"><tspan
       sodipodi:role="line"
       id="tspan1"
       x="345.45447"
       y="632.11481"
       style="font-style:normal;font-variant:normal;font-weight:bold;font-stretch:normal;font-size:145.633px;font-family:'Noto Sans';-inkscape-font-specification:'Noto Sans, Bold';font-variant-ligatures:normal;font-variant-caps:normal;font-variant-numeric:normal;font-variant-east-asian:normal;fill:#000000;fill-opacity:1;stroke-width:0.758506">POLITICS</tspan></text><path
     d="m 362.58472,87.461112 v 25.169448 h 50.33889 V 87.461112 Z M 425.50833,137.8 h -62.92361 v 25.16945 h 151.01667 c 6.92159,0 12.58472,5.66313 12.58472,12.58472 0,6.9216 -5.66313,12.58472 -12.58472,12.58472 H 186.39861 c -6.92161,0 -12.58473,-5.66312 -12.58473,-12.58472 0,-6.92159 5.66312,-12.58472 12.58473,-12.58472 H 337.41528 V 137.8 112.63056 81.168751 74.876389 c 0,-6.921597 5.66312,-12.584722 12.58472,-12.584722 h 6.29235 6.29237 62.92361 c 6.9216,0 12.58472,5.663125 12.58472,12.584722 v 50.338891 c 0,6.9216 -5.66312,12.58472 -12.58472,12.58472 z M 186.39861,351.74028 c 0,-6.92159 5.66311,-12.58472 12.58472,-12.58472 V 213.30834 h 25.16944 v 125.84722 h 62.92362 V 213.30834 h 25.16944 v 125.84722 h 75.50833 V 213.30834 h 25.16945 v 125.84722 h 62.92361 V 213.30834 h 25.16945 v 125.84722 c 6.92159,0 12.58472,5.66313 12.58472,12.58472 0,6.9216 -5.66313,12.58473 -12.58472,12.58473 H 198.98333 c -6.92161,0 -12.58472,-5.66313 -12.58472,-12.58473 z m -18.87709,50.33889 c 0,-6.9216 5.66312,-12.58472 12.58472,-12.58472 h 339.7875 c 6.9216,0 12.58473,5.66312 12.58473,12.58472 0,6.9216 -5.66313,12.58473 -12.58473,12.58473 h -339.7875 c -6.9216,0 -12.58472,-5.66313 -12.58472,-12.58473 z m -18.87708,50.33889 c 0,-6.9216 5.66312,-12.58472 12.58472,-12.58472 h 377.54167 c 6.9216,0 12.58473,5.66312 12.58473,12.58472 0,6.9216 -5.66313,12.58473 -12.58473,12.58473 H 161.22916 c -6.9216,0 -12.58472,-5.66313 -12.58472,-12.58473 z"
     id="path1-5"
     style="stroke-width:0.786545" /></svg>
