<?xml version="1.0" encoding="UTF-8" standalone="no"?>
<svg
   viewBox="0 0 700 700"
   version="1.1"
   id="svg1"
   sodipodi:docname="activity_active_evening_small_black.svg"
   width="700"
   height="700"
   inkscape:version="1.3.2 (091e20ef0f, 2023-11-25)"
   xml:space="preserve"
   xmlns:inkscape="http://www.inkscape.org/namespaces/inkscape"
   xmlns:sodipodi="http://sodipodi.sourceforge.net/DTD/sodipodi-0.dtd"
   xmlns="http://www.w3.org/2000/svg"
   xmlns:svg="http://www.w3.org/2000/svg"><defs
     id="defs1" /><sodipodi:namedview
     id="namedview1"
     pagecolor="#ffffff"
     bordercolor="#000000"
     borderopacity="0.25"
     inkscape:showpageshadow="2"
     inkscape:pageopacity="0.0"
     inkscape:pagecheckerboard="0"
     inkscape:deskcolor="#d1d1d1"
     inkscape:zoom="1.40625"
     inkscape:cx="252.8"
     inkscape:cy="338.84444"
     inkscape:window-width="1895"
     inkscape:window-height="1347"
     inkscape:window-x="0"
     inkscape:window-y="0"
     inkscape:window-maximized="1"
     inkscape:current-layer="svg1" /><!--! Font Awesome Pro 6.4.2 by @fontawesome - https://fontawesome.com License - https://fontawesome.com/license (Commercial License) Copyright 2023 Fonticons, Inc. --><text
     xml:space="preserve"
     style="font-weight:bold;font-size:72.8165px;font-family:'Noto Sans';-inkscape-font-specification:'Noto Sans, Bold';text-align:center;text-anchor:middle;fill:#000000;fill-opacity:1;stroke-width:0.758506"
     x="349.27191"
     y="632.11481"
     id="text1"><tspan
       sodipodi:role="line"
       id="tspan1"
       x="349.27191"
       y="632.11481"
       style="font-style:normal;font-variant:normal;font-weight:bold;font-stretch:normal;font-size:145.633px;font-family:'Noto Sans';-inkscape-font-specification:'Noto Sans, Bold';font-variant-ligatures:normal;font-variant-caps:normal;font-variant-numeric:normal;font-variant-east-asian:normal;fill:#000000;fill-opacity:1;stroke-width:0.758506">EVENING</tspan></text><path
     d="m 387.50875,62.916623 c 6.8766,0 12.50291,5.626313 12.50291,12.502918 v 25.005829 h 25.00584 c 6.87661,0 12.50292,5.62631 12.50292,12.50293 0,6.8766 -5.62631,12.50291 -12.50292,12.50291 h -25.00584 v 25.00584 c 0,6.8766 -5.62631,12.50291 -12.50291,12.50291 -6.8766,0 -12.50292,-5.62631 -12.50292,-12.50291 V 125.43121 H 350 c -6.87662,0 -12.50293,-5.62631 -12.50293,-12.50291 0,-6.87662 5.62631,-12.50293 12.50293,-12.50293 h 25.00583 V 75.419541 c 0,-6.876605 5.62632,-12.502918 12.50292,-12.502918 z M 272.32562,190.99339 c -55.71612,12.58105 -97.36647,62.43644 -97.36647,122.13787 0,69.15677 55.95056,125.18547 124.87289,125.18547 20.08281,0 39.07161,-4.76675 55.87241,-13.20621 -68.45347,-8.83018 -121.20016,-67.51575 -121.20016,-138.46981 0,-37.0399 14.37836,-70.64149 37.82133,-95.64732 z m -122.3723,122.13787 c 0,-82.90997 67.04689,-150.1913 149.87872,-150.1913 4.29787,0 8.51761,0.15629 12.73735,0.547 5.47002,0.46887 10.00233,4.45417 11.17448,9.76791 1.17215,5.31374 -1.2503,10.86191 -6.01704,13.51878 -34.69558,19.6921 -58.13856,57.04457 -58.13856,99.86706 0,63.29602 51.18382,114.55798 114.24541,114.55798 6.72031,0 13.28435,-0.547 19.61395,-1.71915 5.39189,-0.93772 10.78377,1.71915 13.28435,6.64217 2.50059,4.92303 1.48472,10.78377 -2.42244,14.61279 -26.95941,26.25613 -63.84303,42.50992 -104.39936,42.50992 -82.90997,0.0781 -149.95686,-67.20319 -149.95686,-150.11316 z M 487.53208,187.9458 v 50.01167 h 50.01168 c 6.8766,0 12.50292,5.62631 12.50292,12.50291 0,6.87662 -5.62632,12.50293 -12.50292,12.50293 h -50.01168 v 50.01166 c 0,6.87661 -5.62631,12.50293 -12.50291,12.50293 -6.8766,0 -12.50291,-5.62632 -12.50291,-12.50293 v -50.01166 h -50.01168 c -6.8766,0 -12.50292,-5.62631 -12.50292,-12.50293 0,-6.8766 5.62632,-12.50291 12.50292,-12.50291 h 50.01168 V 187.9458 c 0,-6.8766 5.62631,-12.50292 12.50291,-12.50292 6.8766,0 12.50291,5.62632 12.50291,12.50292 z"
     id="path1-5"
     style="stroke-width:0.781433" /></svg>
