<?xml version="1.0" encoding="UTF-8" standalone="no"?>
<svg
   viewBox="0 0 700 700"
   version="1.1"
   id="svg1"
   sodipodi:docname="activity_active_panopticon_black.svg"
   width="700"
   height="700"
   inkscape:version="1.3.2 (091e20ef0f, 2023-11-25)"
   xml:space="preserve"
   xmlns:inkscape="http://www.inkscape.org/namespaces/inkscape"
   xmlns:sodipodi="http://sodipodi.sourceforge.net/DTD/sodipodi-0.dtd"
   xmlns="http://www.w3.org/2000/svg"
   xmlns:svg="http://www.w3.org/2000/svg"><defs
     id="defs1" /><sodipodi:namedview
     id="namedview1"
     pagecolor="#ffffff"
     bordercolor="#000000"
     borderopacity="0.25"
     inkscape:showpageshadow="2"
     inkscape:pageopacity="0.0"
     inkscape:pagecheckerboard="0"
     inkscape:deskcolor="#d1d1d1"
     inkscape:zoom="1.40625"
     inkscape:cx="253.51111"
     inkscape:cy="350.22222"
     inkscape:window-width="1895"
     inkscape:window-height="1347"
     inkscape:window-x="0"
     inkscape:window-y="0"
     inkscape:window-maximized="1"
     inkscape:current-layer="g1" /><!--! Font Awesome Pro 6.4.2 by @fontawesome - https://fontawesome.com License - https://fontawesome.com/license (Commercial License) Copyright 2023 Fonticons, Inc. --><g
     id="g1"
     transform="translate(54.43217,-5.5711238)"><text
       xml:space="preserve"
       style="font-weight:bold;font-size:72.8165px;font-family:'Noto Sans';-inkscape-font-specification:'Noto Sans, Bold';text-align:center;text-anchor:middle;fill:#000000;fill-opacity:1;stroke-width:0.758506"
       x="295.56778"
       y="637.68591"
       id="text1"><tspan
         sodipodi:role="line"
         id="tspan1"
         x="295.56778"
         y="637.68591"
         style="font-style:normal;font-variant:normal;font-weight:bold;font-stretch:normal;font-size:145.633px;font-family:'Noto Sans';-inkscape-font-specification:'Noto Sans, Bold';font-variant-ligatures:normal;font-variant-caps:normal;font-variant-numeric:normal;font-variant-east-asian:normal;fill:#000000;fill-opacity:1;stroke-width:0.758506">PANOPTI</tspan></text><path
       d="m 380.99342,96.199108 v 85.425582 h 113.90079 v -56.9504 c 0,-15.75033 -12.72485,-28.475182 -28.4752,-28.475182 z m -28.4752,0 H 238.61743 v 85.425582 h 113.90079 z m -142.37599,0 h -85.42559 c -15.75034,0 -28.475197,12.724852 -28.475197,28.475182 v 56.9504 H 210.14223 Z M 96.241443,210.09989 v 113.9008 H 210.14223 v -113.9008 z m 0,142.37599 v 56.9504 c 0,15.75034 12.724857,28.47519 28.475197,28.47519 h 85.42559 V 352.47588 Z M 238.61743,437.90147 H 352.51822 V 352.47588 H 238.61743 Z m 142.37599,0 h 85.42559 c 15.75035,0 28.4752,-12.72485 28.4752,-28.47519 v -56.9504 H 380.99342 Z M 494.89421,324.00069 V 210.09989 H 380.99342 v 113.9008 z M 67.766244,124.67429 c 0,-31.411686 25.538694,-56.950383 56.950396,-56.950383 h 341.70237 c 31.41171,0 56.9504,25.538697 56.9504,56.950383 v 284.75199 c 0,31.4117 -25.53869,56.95039 -56.9504,56.95039 H 124.71664 c -31.411702,0 -56.950396,-25.53869 -56.950396,-56.95039 z M 238.61743,324.00069 H 352.51822 V 210.09989 H 238.61743 Z"
       id="path1-5"
       style="stroke-width:0.889848" /></g></svg>
