<?xml version="1.0" encoding="UTF-8" standalone="no"?>
<svg
   viewBox="0 0 700 700"
   version="1.1"
   id="svg1"
   sodipodi:docname="activity_active_crafts_electronics_small_black.svg"
   width="700"
   height="700"
   inkscape:version="1.3.2 (091e20ef0f, 2023-11-25)"
   xml:space="preserve"
   xmlns:inkscape="http://www.inkscape.org/namespaces/inkscape"
   xmlns:sodipodi="http://sodipodi.sourceforge.net/DTD/sodipodi-0.dtd"
   xmlns="http://www.w3.org/2000/svg"
   xmlns:svg="http://www.w3.org/2000/svg"><defs
     id="defs1" /><sodipodi:namedview
     id="namedview1"
     pagecolor="#ffffff"
     bordercolor="#000000"
     borderopacity="0.25"
     inkscape:showpageshadow="2"
     inkscape:pageopacity="0.0"
     inkscape:pagecheckerboard="0"
     inkscape:deskcolor="#d1d1d1"
     inkscape:zoom="1.40625"
     inkscape:cx="395.02222"
     inkscape:cy="338.84444"
     inkscape:window-width="1895"
     inkscape:window-height="1347"
     inkscape:window-x="0"
     inkscape:window-y="0"
     inkscape:window-maximized="1"
     inkscape:current-layer="svg1" /><!--! Font Awesome Pro 6.4.2 by @fontawesome - https://fontawesome.com License - https://fontawesome.com/license (Commercial License) Copyright 2023 Fonticons, Inc. --><text
     xml:space="preserve"
     style="font-weight:bold;font-size:72.8165px;font-family:'Noto Sans';-inkscape-font-specification:'Noto Sans, Bold';text-align:center;text-anchor:middle;fill:#000000;fill-opacity:1;stroke-width:0.758506"
     x="347.66983"
     y="632.11481"
     id="text1"><tspan
       sodipodi:role="line"
       id="tspan1"
       x="347.66983"
       y="632.11481"
       style="font-style:normal;font-variant:normal;font-weight:bold;font-stretch:normal;font-size:145.633px;font-family:'Noto Sans';-inkscape-font-specification:'Noto Sans, Bold';font-variant-ligatures:normal;font-variant-caps:normal;font-variant-numeric:normal;font-variant-east-asian:normal;fill:#000000;fill-opacity:1;stroke-width:0.758506">ELECTRO</tspan></text><path
     d="m 199.8797,89.259975 74.77149,57.510495 v 40.87718 h -40.87718 l -57.51049,-74.77149 z m 99.87838,105.684365 c 0,-0.31384 0,-0.70614 0,-1.01997 v -50.21381 c 0,-5.88443 -2.74606,-11.37656 -7.37514,-14.90722 L 210.78551,66.036097 c -7.45361,-5.805971 -18.04559,-5.099839 -24.79307,1.56918 l -31.38362,31.383624 c -6.66902,6.669019 -7.37516,17.260989 -1.64764,24.793059 l 62.76725,81.59743 c 3.53066,4.62908 9.10125,7.37515 14.90722,7.37515 h 50.21381 c 0.31383,0 0.70613,0 1.01996,0 l 80.02825,79.94978 c -15.29952,23.53773 -12.71037,55.31365 7.92437,75.94839 l 87.87415,87.87415 c 9.80738,9.80738 25.73457,9.80738 35.54195,0 l 50.21381,-50.21381 c 9.80737,-9.80737 9.80737,-25.73457 0,-35.54195 l -87.87416,-87.87415 c -20.63473,-20.63474 -52.41065,-23.30235 -75.94837,-7.92437 z m 87.87416,105.68435 c 13.88726,-13.88725 36.32655,-13.88725 50.21381,0 l 87.87414,87.87416 -50.2138,50.2138 -87.87415,-87.87416 c -13.88726,-13.88724 -13.88726,-36.32654 0,-50.2138 z m -156.91813,94.15089 a 12.553453,12.553453 0 1 0 -25.1069,0 12.553453,12.553453 0 1 0 25.1069,0 z M 167.31919,357.7469 c -11.6904,11.6904 -18.2025,27.46067 -18.2025,43.93707 0,34.28661 27.85296,62.13958 62.13957,62.13958 16.47641,0 32.24668,-6.51211 43.93708,-18.20251 l 81.04821,-81.04821 c -4.47217,-8.78742 -7.29669,-18.12404 -8.55204,-27.69605 L 237.0693,427.497 c -6.82595,6.82594 -16.16257,10.67044 -25.81304,10.67044 -20.16397,0 -36.56192,-16.31949 -36.56192,-36.56193 0,-9.65046 3.8445,-18.98709 10.67043,-25.81303 l 112.118,-112.03955 -18.12404,-18.12404 z M 525.24944,187.64765 c 0,35.14966 -18.12404,65.98407 -45.50626,83.79427 l 18.43788,18.43788 c 31.93284,-22.75312 52.72449,-60.09964 52.72449,-102.23215 0,-19.45786 -4.47216,-37.89573 -12.31807,-54.37214 -3.4522,-7.21823 -12.94575,-8.2382 -18.59479,-2.58915 l -53.27371,53.2737 c -2.35378,2.35378 -5.5706,3.68759 -8.86587,3.68759 h -20.00706 c -6.90441,0 -12.55345,-5.64906 -12.55345,-12.55346 v -19.9286 c 0,-3.29528 1.3338,-6.5121 3.68757,-8.86587 l 53.2737,-53.273711 c 5.64906,-5.649056 4.62909,-15.142598 -2.58915,-18.594792 -16.4764,-7.845907 -34.91428,-12.318073 -54.37212,-12.318073 -43.85862,0 -82.46048,22.439287 -104.89978,56.568986 l 20.39936,15.69181 c 17.65329,-28.08835 48.95846,-46.68315 84.50042,-46.68315 8.08128,0 15.84873,0.941511 23.30233,2.746071 l -37.7388,37.738809 c -7.13978,7.13978 -11.14119,16.8687 -11.14119,26.98992 v 19.9286 c 0,21.10549 17.10407,38.1311 38.13111,38.1311 h 19.9286 c 10.12121,0 19.85014,-4.00141 26.98992,-11.14118 l 37.7388,-37.73881 c 1.80456,7.45362 2.74607,15.29952 2.74607,23.30235 z"
     id="path1-5"
     style="stroke-width:0.78459" /></svg>
