<?xml version="1.0" encoding="UTF-8" standalone="no"?>
<svg
   viewBox="0 0 700 700"
   version="1.1"
   id="svg1"
   sodipodi:docname="activity_active_science_and_technology_black.svg"
   width="700"
   height="700"
   inkscape:version="1.3.2 (091e20ef0f, 2023-11-25)"
   xml:space="preserve"
   xmlns:inkscape="http://www.inkscape.org/namespaces/inkscape"
   xmlns:sodipodi="http://sodipodi.sourceforge.net/DTD/sodipodi-0.dtd"
   xmlns="http://www.w3.org/2000/svg"
   xmlns:svg="http://www.w3.org/2000/svg"><defs
     id="defs1" /><sodipodi:namedview
     id="namedview1"
     pagecolor="#ffffff"
     bordercolor="#000000"
     borderopacity="0.25"
     inkscape:showpageshadow="2"
     inkscape:pageopacity="0.0"
     inkscape:pagecheckerboard="0"
     inkscape:deskcolor="#d1d1d1"
     inkscape:zoom="1.40625"
     inkscape:cx="393.6"
     inkscape:cy="273.42222"
     inkscape:window-width="1895"
     inkscape:window-height="1347"
     inkscape:window-x="0"
     inkscape:window-y="0"
     inkscape:window-maximized="1"
     inkscape:current-layer="svg1" /><!--! Font Awesome Pro 6.4.2 by @fontawesome - https://fontawesome.com License - https://fontawesome.com/license (Commercial License) Copyright 2023 Fonticons, Inc. --><text
     xml:space="preserve"
     style="font-weight:bold;font-size:72.8165px;font-family:'Noto Sans';-inkscape-font-specification:'Noto Sans, Bold';text-align:center;text-anchor:middle;fill:#000000;fill-opacity:1;stroke-width:0.758506"
     x="345.99503"
     y="632.11481"
     id="text1"><tspan
       sodipodi:role="line"
       id="tspan1"
       x="345.99503"
       y="632.11481"
       style="font-style:normal;font-variant:normal;font-weight:bold;font-stretch:normal;font-size:145.633px;font-family:'Noto Sans';-inkscape-font-specification:'Noto Sans, Bold';font-variant-ligatures:normal;font-variant-caps:normal;font-variant-numeric:normal;font-variant-east-asian:normal;fill:#000000;fill-opacity:1;stroke-width:0.758506">TECH SCI</tspan></text><path
     d="m 274.55521,62.477777 c 6.91577,0 12.57413,5.658359 12.57413,12.574132 V 112.7743 h 50.29653 V 75.051909 c 0,-6.915773 5.65836,-12.574132 12.57413,-12.574132 6.91577,0 12.57413,5.658359 12.57413,12.574132 V 112.7743 h 50.29653 V 75.051909 c 0,-6.915773 5.65836,-12.574132 12.57413,-12.574132 6.91577,0 12.57413,5.658359 12.57413,12.574132 V 112.7743 h 12.57414 c 27.74167,0 50.29652,22.55485 50.29652,50.29653 v 12.57413 h 37.7224 c 6.91577,0 12.57413,5.65836 12.57413,12.57413 0,6.91577 -5.65836,12.57413 -12.57413,12.57413 h -37.7224 v 50.29653 h 37.7224 c 6.91577,0 12.57413,5.65836 12.57413,12.57413 0,6.91577 -5.65836,12.57413 -12.57413,12.57413 h -37.7224 v 50.29653 h 37.7224 c 6.91577,0 12.57413,5.65836 12.57413,12.57413 0,6.91578 -5.65836,12.57414 -12.57413,12.57414 h -37.7224 v 12.57413 c 0,27.74168 -22.55485,50.29652 -50.29652,50.29652 h -12.57414 v 37.7224 c 0,6.91577 -5.65836,12.57413 -12.57413,12.57413 -6.91577,0 -12.57413,-5.65836 -12.57413,-12.57413 v -37.7224 h -50.29653 v 37.7224 c 0,6.91577 -5.65836,12.57413 -12.57413,12.57413 -6.91577,0 -12.57413,-5.65836 -12.57413,-12.57413 v -37.7224 h -50.29653 v 37.7224 c 0,6.91577 -5.65836,12.57413 -12.57413,12.57413 -6.91577,0 -12.57413,-5.65836 -12.57413,-12.57413 v -37.7224 h -12.57413 c -27.74168,0 -50.29653,-22.55484 -50.29653,-50.29652 v -12.57413 h -37.7224 c -6.91577,0 -12.57413,-5.65836 -12.57413,-12.57414 0,-6.91577 5.65836,-12.57413 12.57413,-12.57413 h 37.7224 v -50.29653 h -37.7224 c -6.91577,0 -12.57413,-5.65836 -12.57413,-12.57413 0,-6.91577 5.65836,-12.57413 12.57413,-12.57413 h 37.7224 v -50.29653 h -37.7224 c -6.91577,0 -12.57413,-5.65836 -12.57413,-12.57413 0,-6.91577 5.65836,-12.57413 12.57413,-12.57413 h 37.7224 v -12.57413 c 0,-27.74168 22.55485,-50.29653 50.29653,-50.29653 h 12.57413 V 75.051909 c 0,-6.915773 5.65836,-12.574132 12.57413,-12.574132 z m -25.14826,75.444783 c -13.91014,0 -25.14827,11.23813 -25.14827,25.14827 v 201.18611 c 0,13.91013 11.23813,25.14826 25.14827,25.14826 h 201.18611 c 13.91013,0 25.14826,-11.23813 25.14826,-25.14826 V 163.07083 c 0,-13.91014 -11.23813,-25.14827 -25.14826,-25.14827 z m 74.42314,70.41514 44.00946,100.59306 c 2.75059,6.36565 -0.0786,13.75295 -6.44424,16.58213 -6.36566,2.82918 -13.75296,-0.15717 -16.58214,-6.44424 l -7.78024,-17.68237 h -49.51065 l -7.70165,17.60378 c -2.75059,6.36566 -10.21649,9.27342 -16.58214,6.44424 -6.36565,-2.82917 -9.27342,-10.21648 -6.44424,-16.58213 l 44.00946,-100.59306 c 1.96471,-4.55812 6.52283,-7.54448 11.55248,-7.54448 5.02966,0 9.50919,2.98636 11.55249,7.54448 z m -11.55249,36.3864 -13.75295,31.51391 h 27.5845 z m 113.16719,-31.35675 v 100.59306 c 0,6.91577 -5.65836,12.57413 -12.57413,12.57413 -6.91577,0 -12.57413,-5.65836 -12.57413,-12.57413 V 213.36735 c 0,-6.91577 5.65836,-12.57413 12.57413,-12.57413 6.91577,0 12.57413,5.65836 12.57413,12.57413 z"
     id="path1-5"
     style="stroke-width:0.785883" /></svg>
