<?xml version="1.0" encoding="UTF-8" standalone="no"?>
<svg
   viewBox="0 0 700 700"
   version="1.1"
   id="svg1"
   sodipodi:docname="activity_active_crafts_drawing_small_black.svg"
   width="700"
   height="700"
   inkscape:version="1.3.2 (091e20ef0f, 2023-11-25)"
   xml:space="preserve"
   xmlns:inkscape="http://www.inkscape.org/namespaces/inkscape"
   xmlns:sodipodi="http://sodipodi.sourceforge.net/DTD/sodipodi-0.dtd"
   xmlns="http://www.w3.org/2000/svg"
   xmlns:svg="http://www.w3.org/2000/svg"><defs
     id="defs1" /><sodipodi:namedview
     id="namedview1"
     pagecolor="#ffffff"
     bordercolor="#000000"
     borderopacity="0.25"
     inkscape:showpageshadow="2"
     inkscape:pageopacity="0.0"
     inkscape:pagecheckerboard="0"
     inkscape:deskcolor="#d1d1d1"
     inkscape:zoom="1.40625"
     inkscape:cx="394.31111"
     inkscape:cy="338.84444"
     inkscape:window-width="1895"
     inkscape:window-height="1347"
     inkscape:window-x="0"
     inkscape:window-y="0"
     inkscape:window-maximized="1"
     inkscape:current-layer="svg1" /><!--! Font Awesome Pro 6.4.2 by @fontawesome - https://fontawesome.com License - https://fontawesome.com/license (Commercial License) Copyright 2023 Fonticons, Inc. --><text
     xml:space="preserve"
     style="font-weight:bold;font-size:72.8165px;font-family:'Noto Sans';-inkscape-font-specification:'Noto Sans, Bold';text-align:center;text-anchor:middle;fill:#000000;fill-opacity:1;stroke-width:0.758506"
     x="349.99997"
     y="632.11481"
     id="text1"><tspan
       sodipodi:role="line"
       id="tspan1"
       x="349.99997"
       y="632.11481"
       style="font-style:normal;font-variant:normal;font-weight:bold;font-stretch:normal;font-size:145.633px;font-family:'Noto Sans';-inkscape-font-specification:'Noto Sans, Bold';font-variant-ligatures:normal;font-variant-caps:normal;font-variant-numeric:normal;font-variant-east-asian:normal;fill:#000000;fill-opacity:1;stroke-width:0.758506">DRAWIN</tspan></text><path
     d="m 460.83314,91.41109 c 7.43778,-7.437773 19.46482,-7.437773 26.82346,0 l 33.70734,33.70735 c 7.43778,7.43777 7.43778,19.46481 0,26.82345 l -43.2815,43.43975 -60.60992,-60.60992 z m -61.24293,61.24292 60.60993,60.60993 -173.28425,173.28425 v -9.96978 c 0,-6.96301 -5.69701,-12.66003 -12.66004,-12.66003 h -25.32007 v -25.32007 c 0,-6.96303 -5.69702,-12.66004 -12.66004,-12.66004 h -9.96977 z M 200.59027,360.35774 c 0.94949,-3.16501 2.13637,-6.25089 3.71888,-9.0994 h 19.30656 v 25.32007 c 0,6.96302 5.69701,12.66004 12.66003,12.66004 h 25.32008 v 19.30656 c -2.92764,1.50337 -5.9344,2.76938 -9.17853,3.71888 l -73.42822,21.60119 21.6012,-73.42822 z M 505.61803,73.528787 c -17.32843,-17.328425 -45.33876,-17.328425 -62.66718,0 L 195.44713,320.95337 c -9.02028,9.02028 -15.58767,20.09781 -19.14831,32.2831 L 148.20937,448.978 c -1.34513,4.43101 -0.0791,9.25765 3.16501,12.50178 3.24413,3.24414 8.07077,4.51014 12.50178,3.16501 l 95.74152,-28.16858 c 12.18529,-3.56063 23.26282,-10.20716 32.2831,-19.1483 l 247.42459,-247.4246 c 17.32843,-17.32842 17.32843,-45.33875 0,-62.66717 z M 409.79737,220.46433 c 4.90577,-4.90576 4.90577,-12.97654 0,-17.88229 -4.90576,-4.90577 -12.97654,-4.90577 -17.8823,0 L 290.63478,303.86233 c -4.90577,4.90576 -4.90577,12.97654 0,17.88229 4.90576,4.90577 12.97654,4.90577 17.8823,0 z"
     id="path1-5"
     style="stroke-width:0.791252" /></svg>
