<?xml version="1.0" encoding="UTF-8" standalone="no"?>
<svg
   viewBox="0 0 700 700"
   version="1.1"
   id="svg1"
   sodipodi:docname="activity_active_crafts_sewing_small_black.svg"
   width="700"
   height="700"
   inkscape:version="1.3.2 (091e20ef0f, 2023-11-25)"
   xml:space="preserve"
   xmlns:inkscape="http://www.inkscape.org/namespaces/inkscape"
   xmlns:sodipodi="http://sodipodi.sourceforge.net/DTD/sodipodi-0.dtd"
   xmlns="http://www.w3.org/2000/svg"
   xmlns:svg="http://www.w3.org/2000/svg"><defs
     id="defs1" /><sodipodi:namedview
     id="namedview1"
     pagecolor="#ffffff"
     bordercolor="#000000"
     borderopacity="0.25"
     inkscape:showpageshadow="2"
     inkscape:pageopacity="0.0"
     inkscape:pagecheckerboard="0"
     inkscape:deskcolor="#d1d1d1"
     inkscape:zoom="1.40625"
     inkscape:cx="395.02222"
     inkscape:cy="338.84444"
     inkscape:window-width="1895"
     inkscape:window-height="1347"
     inkscape:window-x="0"
     inkscape:window-y="0"
     inkscape:window-maximized="1"
     inkscape:current-layer="svg1" /><!--! Font Awesome Pro 6.4.2 by @fontawesome - https://fontawesome.com License - https://fontawesome.com/license (Commercial License) Copyright 2023 Fonticons, Inc. --><text
     xml:space="preserve"
     style="font-weight:bold;font-size:72.8165px;font-family:'Noto Sans';-inkscape-font-specification:'Noto Sans, Bold';text-align:center;text-anchor:middle;fill:#000000;fill-opacity:1;stroke-width:0.758506"
     x="352.47583"
     y="632.11481"
     id="text1"><tspan
       sodipodi:role="line"
       id="tspan1"
       x="352.47583"
       y="632.11481"
       style="font-style:normal;font-variant:normal;font-weight:bold;font-stretch:normal;font-size:145.633px;font-family:'Noto Sans';-inkscape-font-specification:'Noto Sans, Bold';font-variant-ligatures:normal;font-variant-caps:normal;font-variant-numeric:normal;font-variant-east-asian:normal;fill:#000000;fill-opacity:1;stroke-width:0.758506">SEWING</tspan></text><path
     d="m 274.33647,74.03559 c 0,-6.935824 -5.67478,-12.61059 -12.6106,-12.61059 -6.93582,0 -12.61059,5.674766 -12.61059,12.61059 0,105.85013 -23.09314,151.79998 -35.94018,169.13954 -7.01464,9.37913 -14.50218,22.54143 -14.50218,37.5165 v 140.13519 c 0,24.35421 19.78286,44.13706 44.13706,44.13706 h 214.38004 c 24.3542,0 44.13706,-19.78285 44.13706,-44.13706 V 280.69163 c 0,-14.97507 -7.48753,-28.13737 -14.50217,-37.5165 -12.84705,-17.33956 -35.94019,-63.28941 -35.94019,-169.13954 0,-6.935824 -5.67476,-12.61059 -12.61058,-12.61059 -6.93583,0 -12.61059,5.674766 -12.61059,12.61059 v 37.83177 c 0,41.77257 -33.89097,75.66354 -75.66355,75.66354 -41.77258,0 -75.66353,-33.89097 -75.66353,-75.66354 z m -7.48755,94.9735 c 18.20654,26.40343 48.6296,43.74299 83.15108,43.74299 34.5215,0 64.94454,-17.33956 83.15108,-43.74299 8.43333,47.13209 22.3838,74.16604 33.41807,89.14111 5.99003,8.03926 9.53676,15.76324 9.53676,22.54143 v 140.13519 c 0,10.48255 -8.43333,18.91588 -18.91589,18.91588 H 242.80998 c -10.48255,0 -18.91587,-8.43333 -18.91587,-18.91588 V 280.69163 c 0,-6.77819 3.62554,-14.50217 9.53675,-22.54143 11.03426,-14.97507 24.98473,-42.00902 33.41806,-89.14111 z"
     id="path1"
     style="stroke-width:0.788162" /></svg>
