<?xml version="1.0" encoding="UTF-8" standalone="no"?>
<svg
   viewBox="0 0 700 700"
   version="1.1"
   id="svg1"
   sodipodi:docname="activity_active_coding_small_black.svg"
   width="700"
   height="700"
   inkscape:version="1.3.2 (091e20ef0f, 2023-11-25)"
   xml:space="preserve"
   xmlns:inkscape="http://www.inkscape.org/namespaces/inkscape"
   xmlns:sodipodi="http://sodipodi.sourceforge.net/DTD/sodipodi-0.dtd"
   xmlns="http://www.w3.org/2000/svg"
   xmlns:svg="http://www.w3.org/2000/svg"><defs
     id="defs1" /><sodipodi:namedview
     id="namedview1"
     pagecolor="#ffffff"
     bordercolor="#000000"
     borderopacity="0.25"
     inkscape:showpageshadow="2"
     inkscape:pageopacity="0.0"
     inkscape:pagecheckerboard="0"
     inkscape:deskcolor="#d1d1d1"
     inkscape:zoom="1.40625"
     inkscape:cx="395.02222"
     inkscape:cy="338.84444"
     inkscape:window-width="1895"
     inkscape:window-height="1347"
     inkscape:window-x="0"
     inkscape:window-y="0"
     inkscape:window-maximized="1"
     inkscape:current-layer="svg1" /><!--! Font Awesome Pro 6.4.2 by @fontawesome - https://fontawesome.com License - https://fontawesome.com/license (Commercial License) Copyright 2023 Fonticons, Inc. --><text
     xml:space="preserve"
     style="font-weight:bold;font-size:72.8165px;font-family:'Noto Sans';-inkscape-font-specification:'Noto Sans, Bold';text-align:center;text-anchor:middle;fill:#000000;fill-opacity:1;stroke-width:0.758506"
     x="345.45447"
     y="632.11481"
     id="text1"><tspan
       sodipodi:role="line"
       id="tspan1"
       x="345.45447"
       y="632.11481"
       style="font-style:normal;font-variant:normal;font-weight:bold;font-stretch:normal;font-size:145.633px;font-family:'Noto Sans';-inkscape-font-specification:'Noto Sans, Bold';font-variant-ligatures:normal;font-variant-caps:normal;font-variant-numeric:normal;font-variant-east-asian:normal;fill:#000000;fill-opacity:1;stroke-width:0.758506">CODING</tspan></text><path
     d="m 494.29266,89.686309 c 15.96237,0 28.85854,12.896151 28.85854,28.858521 v 288.58532 c 0,15.96237 -12.89617,28.85854 -28.85854,28.85854 H 205.70734 c -15.96237,0 -28.85852,-12.89617 -28.85852,-28.85854 V 118.54483 c 0,-15.96237 12.89615,-28.858521 28.85852,-28.858521 z M 205.70734,60.827773 c -31.83456,0 -57.71706,25.882496 -57.71706,57.717057 v 288.58532 c 0,31.83457 25.8825,57.71706 57.71706,57.71706 h 288.58532 c 31.83457,0 57.71706,-25.88249 57.71706,-57.71706 V 118.54483 c 0,-31.834561 -25.88249,-57.717057 -57.71706,-57.717057 z m 17.9464,106.055097 c -5.2306,6.04226 -4.50914,15.15074 1.53312,20.38134 l 88.19888,75.57328 -88.19888,75.66346 c -6.04226,5.23061 -6.76372,14.2489 -1.53312,20.38134 5.23061,6.13244 14.33909,6.76373 20.38134,1.53311 l 101.00486,-86.57559 c 3.1564,-2.70549 5.05025,-6.76372 5.05025,-10.91213 0,-4.14842 -1.80366,-8.20665 -5.05025,-10.91214 l -101.00486,-86.5756 c -6.04225,-5.2306 -15.15073,-4.50914 -20.38134,1.53312 z m 111.91699,182.53022 c -7.93609,0 -14.42925,6.49317 -14.42925,14.42927 0,7.93609 6.49316,14.42925 14.42925,14.42925 h 144.29266 c 7.9361,0 14.42927,-6.49316 14.42927,-14.42925 0,-7.9361 -6.49317,-14.42927 -14.42927,-14.42927 z"
     id="path1-5"
     style="stroke-width:0.901829" /></svg>
