<?xml version="1.0" encoding="UTF-8" standalone="no"?>
<svg
   viewBox="0 0 700 700"
   version="1.1"
   id="svg1"
   sodipodi:docname="bed-front.svg"
   width="700"
   height="700"
   inkscape:version="1.3.2 (091e20ef0f, 2023-11-25)"
   xmlns:inkscape="http://www.inkscape.org/namespaces/inkscape"
   xmlns:sodipodi="http://sodipodi.sourceforge.net/DTD/sodipodi-0.dtd"
   xmlns="http://www.w3.org/2000/svg"
   xmlns:svg="http://www.w3.org/2000/svg">
  <defs
     id="defs1" />
  <sodipodi:namedview
     id="namedview1"
     pagecolor="#ffffff"
     bordercolor="#000000"
     borderopacity="0.25"
     inkscape:showpageshadow="2"
     inkscape:pageopacity="0.0"
     inkscape:pagecheckerboard="0"
     inkscape:deskcolor="#d1d1d1"
     inkscape:zoom="1.40625"
     inkscape:cx="255.64444"
     inkscape:cy="255.64444"
     inkscape:window-width="1895"
     inkscape:window-height="1347"
     inkscape:window-x="0"
     inkscape:window-y="0"
     inkscape:window-maximized="1"
     inkscape:current-layer="svg1" />
  <!--! Font Awesome Pro 6.4.2 by @fontawesome - https://fontawesome.com License - https://fontawesome.com/license (Commercial License) Copyright 2023 Fonticons, Inc. -->
  <path
     d="m 158,190 v 40.6 c 9.4,-5.4 20.3,-8.6 32,-8.6 h 112 c 19.1,0 36.3,8.4 48,21.7 11.7,-13.3 28.9,-21.7 48,-21.7 h 112 c 11.7,0 22.6,3.1 32,8.6 V 190 c 0,-17.7 -14.3,-32 -32,-32 H 190 c -17.7,0 -32,14.3 -32,32 z m 416,96 v 48 c 19.4,14.6 32,37.8 32,64 v 96 64 c 0,8.8 -7.2,16 -16,16 -8.8,0 -16,-7.2 -16,-16 V 510 H 126 v 48 c 0,8.8 -7.2,16 -16,16 -8.8,0 -16,-7.2 -16,-16 v -64 -96 c 0,-26.2 12.6,-49.4 32,-64 v -48 -96 c 0,-35.3 28.7,-64 64,-64 h 320 c 35.3,0 64,28.7 64,64 z m -32,33.6 V 286 c 0,-17.7 -14.3,-32 -32,-32 H 398 c -17.7,0 -32,14.3 -32,32 v 32 h 160 c 5.5,0 10.8,0.6 16,1.6 z M 334,318 v -32 c 0,-17.7 -14.3,-32 -32,-32 H 190 c -17.7,0 -32,14.3 -32,32 v 33.6 c 5.2,-1 10.5,-1.6 16,-1.6 z m 240,80 c 0,-26.5 -21.5,-48 -48,-48 H 174 c -26.5,0 -48,21.5 -48,48 v 80 h 448 z"
     id="path1" />
</svg>
