<?xml version="1.0" encoding="UTF-8" standalone="no"?>
<svg
   viewBox="0 0 700 700"
   version="1.1"
   id="svg1"
   sodipodi:docname="activity_eating_small_black.svg"
   width="700"
   height="700"
   inkscape:version="1.3.2 (091e20ef0f, 2023-11-25)"
   xml:space="preserve"
   xmlns:inkscape="http://www.inkscape.org/namespaces/inkscape"
   xmlns:sodipodi="http://sodipodi.sourceforge.net/DTD/sodipodi-0.dtd"
   xmlns="http://www.w3.org/2000/svg"
   xmlns:svg="http://www.w3.org/2000/svg"><defs
     id="defs1" /><sodipodi:namedview
     id="namedview1"
     pagecolor="#ffffff"
     bordercolor="#000000"
     borderopacity="0.25"
     inkscape:showpageshadow="2"
     inkscape:pageopacity="0.0"
     inkscape:pagecheckerboard="0"
     inkscape:deskcolor="#d1d1d1"
     inkscape:zoom="1.40625"
     inkscape:cx="254.93333"
     inkscape:cy="179.55556"
     inkscape:window-width="1895"
     inkscape:window-height="1347"
     inkscape:window-x="0"
     inkscape:window-y="0"
     inkscape:window-maximized="1"
     inkscape:current-layer="svg1" /><!--! Font Awesome Pro 6.4.2 by @fontawesome - https://fontawesome.com License - https://fontawesome.com/license (Commercial License) Copyright 2023 Fonticons, Inc. --><path
     d="m 490.05045,68.887794 c 6.25262,8.284709 4.53316,20.008354 -3.75157,26.260964 l -95.8994,71.905012 c -2.0321,1.56315 -3.98604,3.20447 -5.78366,5.00209 l -1.485,1.48501 c -9.22261,9.22258 -14.38101,21.72782 -14.38101,34.78014 0,13.05232 5.1584,25.55755 14.38101,34.78013 l 5.08025,5.08024 v 0 0 l 5.08024,5.08025 c 9.30076,9.30076 21.80598,14.45917 34.8583,14.45917 13.05233,0 25.55755,-5.15841 34.78016,-14.381 l 1.48498,-1.48499 c 1.79763,-1.79763 3.51709,-3.75158 5.00209,-5.78367 l 71.90502,-95.89941 c 6.25262,-8.28471 17.97627,-10.00418 26.26096,-3.75157 8.28472,6.25261 10.00417,17.97624 3.75157,26.26097 l -71.90501,95.8994 c -2.57922,3.43894 -5.47104,6.72157 -8.51919,9.84786 l -1.48499,1.48501 c -16.25678,16.25678 -38.29723,25.40121 -61.27559,25.40121 -19.14861,0 -37.59382,-6.33077 -52.60008,-17.81994 l -168.586,168.58602 c -7.34682,7.34682 -19.22678,7.34682 -26.49544,0 -7.26865,-7.34683 -7.34681,-19.22678 0,-26.49543 L 349.0541,260.92108 c -11.48917,-15.00626 -17.81995,-33.52963 -17.81995,-52.60007 0,-22.97834 9.14445,-45.0188 25.40124,-61.27558 l 1.48498,-1.485 c 3.04816,-3.04815 6.33078,-5.93999 9.84785,-8.51918 l 95.89944,-71.905023 c 8.28469,-6.252609 20.00834,-4.533141 26.26095,3.751567 z m 42.04881,35.483566 c 7.34682,7.34683 7.34682,19.22677 0,26.49544 l -90.66285,90.74099 c -7.34681,7.34683 -19.22677,7.34683 -26.49544,0 -7.26865,-7.34681 -7.3468,-19.22677 0,-26.49543 l 90.5847,-90.74101 c 7.34681,-7.346812 19.22678,-7.346812 26.49543,0 z m -108.48279,225.7974 96.13388,99.57281 c 7.19051,7.42497 6.95602,19.30493 -0.46894,26.49543 -7.42498,7.19051 -19.30493,6.95603 -26.49543,-0.46894 l -122.94196,-127.24063 9.45708,-9.45707 c 13.75574,6.64339 28.76201,10.47313 44.31537,11.0984 z M 309.0374,265.53239 162.41368,113.59396 v 13.13048 c 0,41.26723 16.33493,80.89315 45.48773,110.20225 l 54.86666,55.17928 c 3.59524,3.67343 8.05024,5.93999 12.7397,6.87787 l -28.37123,28.37123 c -3.90788,-2.50105 -7.58129,-5.39289 -10.94206,-8.83181 L 181.24967,263.42213 C 145.14084,227.07883 124.89802,177.91769 124.89802,126.72444 V 88.896148 c 0,-15.16258 12.3489,-27.511485 27.51149,-27.511485 7.50313,0 14.61546,3.048148 19.77388,8.441024 L 306.22371,208.55547 c 0,16.96021 3.90789,33.52963 11.2547,48.53589 l -8.36287,8.36288 z"
     id="path1-2"
     style="stroke-width:0.781576" /></svg>
