<?xml version="1.0" encoding="UTF-8" standalone="no"?>
<svg
   viewBox="0 0 700 700"
   version="1.1"
   id="svg1"
   sodipodi:docname="activity_active_morning_small_black.svg"
   width="700"
   height="700"
   inkscape:version="1.3.2 (091e20ef0f, 2023-11-25)"
   xml:space="preserve"
   xmlns:inkscape="http://www.inkscape.org/namespaces/inkscape"
   xmlns:sodipodi="http://sodipodi.sourceforge.net/DTD/sodipodi-0.dtd"
   xmlns="http://www.w3.org/2000/svg"
   xmlns:svg="http://www.w3.org/2000/svg"><defs
     id="defs1" /><sodipodi:namedview
     id="namedview1"
     pagecolor="#ffffff"
     bordercolor="#000000"
     borderopacity="0.25"
     inkscape:showpageshadow="2"
     inkscape:pageopacity="0.0"
     inkscape:pagecheckerboard="0"
     inkscape:deskcolor="#d1d1d1"
     inkscape:zoom="1.40625"
     inkscape:cx="252.8"
     inkscape:cy="338.84444"
     inkscape:window-width="1895"
     inkscape:window-height="1347"
     inkscape:window-x="0"
     inkscape:window-y="0"
     inkscape:window-maximized="1"
     inkscape:current-layer="svg1" /><!--! Font Awesome Pro 6.4.2 by @fontawesome - https://fontawesome.com License - https://fontawesome.com/license (Commercial License) Copyright 2023 Fonticons, Inc. --><text
     xml:space="preserve"
     style="font-weight:bold;font-size:72.8165px;font-family:'Noto Sans';-inkscape-font-specification:'Noto Sans, Bold';text-align:center;text-anchor:middle;fill:#000000;fill-opacity:1;stroke-width:0.758506"
     x="350"
     y="632.11481"
     id="text1"><tspan
       sodipodi:role="line"
       id="tspan1"
       x="350"
       y="632.11481"
       style="font-style:normal;font-variant:normal;font-weight:bold;font-stretch:normal;font-size:145.633px;font-family:'Noto Sans';-inkscape-font-specification:'Noto Sans, Bold';font-variant-ligatures:normal;font-variant-caps:normal;font-variant-numeric:normal;font-variant-east-asian:normal;fill:#000000;fill-opacity:1;stroke-width:0.758506">MORNIN</tspan></text><path
     d="m 212.54106,63.280555 c -6.87295,0 -12.49626,5.623321 -12.49626,12.496267 0,19.291106 7.65396,37.879308 21.32175,51.468998 l 14.60501,14.60501 c 8.98169,9.0598 14.0583,21.24366 14.0583,33.89613 0,6.87294 5.62332,12.49627 12.49627,12.49627 6.87294,0 12.49627,-5.62333 12.49627,-12.49627 0,-19.29112 -7.65397,-37.87931 -21.32176,-51.469 l -14.68311,-14.68311 c -8.90359,-8.9817 -13.9802,-21.165558 -13.9802,-33.818028 0,-6.872946 -5.62331,-12.496267 -12.49627,-12.496267 z m -37.4888,174.947735 h 237.42908 12.49627 V 388.1835 c 0,27.56989 -22.41518,49.98507 -49.98508,49.98507 h -149.9552 c -27.56988,0 -49.98507,-22.41518 -49.98507,-49.98507 z m 274.91787,0 h 12.49627 c 34.52094,0 62.48134,27.9604 62.48134,62.48134 0,34.52094 -27.9604,62.48133 -62.48134,62.48133 h -12.49627 z m 0,149.95521 h 12.49627 c 48.34494,0 87.47387,-39.12894 87.47387,-87.47387 0,-48.34494 -39.12893,-87.47387 -87.47387,-87.47387 H 424.97761 412.48134 175.05226 c -13.824,0 -24.99253,11.16854 -24.99253,24.99253 V 388.1835 c 0,41.39388 33.58371,74.9776 74.9776,74.9776 h 149.9552 c 41.39389,0 74.9776,-33.58372 74.9776,-74.9776 z M 325.00746,75.776822 c 0,-6.872946 -5.62331,-12.496267 -12.49626,-12.496267 -6.87295,0 -12.49627,5.623321 -12.49627,12.496267 0,19.291106 7.65396,37.879308 21.32175,51.468998 l 14.60501,14.60501 C 344.92338,150.91063 350,163.09449 350,175.74696 c 0,6.87294 5.62332,12.49627 12.49626,12.49627 6.87295,0 12.49627,-5.62333 12.49627,-12.49627 0,-19.29112 -7.65396,-37.87931 -21.32176,-51.469 l -14.68311,-14.68311 c -8.90359,-8.9817 -13.9802,-21.165558 -13.9802,-33.818028 z"
     id="path1"
     style="stroke-width:0.781017" /></svg>
