<?xml version="1.0" encoding="UTF-8" standalone="no"?>
<svg
   viewBox="0 0 700 700"
   version="1.1"
   id="svg1"
   sodipodi:docname="activity_active_eating_breakfast_black.svg"
   width="700"
   height="700"
   inkscape:version="1.3.2 (091e20ef0f, 2023-11-25)"
   xml:space="preserve"
   xmlns:inkscape="http://www.inkscape.org/namespaces/inkscape"
   xmlns:sodipodi="http://sodipodi.sourceforge.net/DTD/sodipodi-0.dtd"
   xmlns="http://www.w3.org/2000/svg"
   xmlns:svg="http://www.w3.org/2000/svg"><defs
     id="defs1" /><sodipodi:namedview
     id="namedview1"
     pagecolor="#ffffff"
     bordercolor="#000000"
     borderopacity="0.25"
     inkscape:showpageshadow="2"
     inkscape:pageopacity="0.0"
     inkscape:pagecheckerboard="0"
     inkscape:deskcolor="#d1d1d1"
     inkscape:zoom="1.40625"
     inkscape:cx="254.22222"
     inkscape:cy="350.22222"
     inkscape:window-width="1895"
     inkscape:window-height="1347"
     inkscape:window-x="0"
     inkscape:window-y="0"
     inkscape:window-maximized="1"
     inkscape:current-layer="svg1" /><!--! Font Awesome Pro 6.4.2 by @fontawesome - https://fontawesome.com License - https://fontawesome.com/license (Commercial License) Copyright 2023 Fonticons, Inc. --><g
     id="g1"
     transform="translate(0.18749805,-5.5711238)"><text
       xml:space="preserve"
       style="font-weight:bold;font-size:72.8165px;font-family:'Noto Sans';-inkscape-font-specification:'Noto Sans, Bold';text-align:center;text-anchor:middle;fill:#000000;fill-opacity:1;stroke-width:0.758506"
       x="345.26697"
       y="637.68591"
       id="text1"><tspan
         sodipodi:role="line"
         id="tspan1"
         x="345.26697"
         y="637.68591"
         style="font-style:normal;font-variant:normal;font-weight:bold;font-stretch:normal;font-size:145.633px;font-family:'Noto Sans';-inkscape-font-specification:'Noto Sans, Bold';font-variant-ligatures:normal;font-variant-caps:normal;font-variant-numeric:normal;font-variant-east-asian:normal;fill:#000000;fill-opacity:1;stroke-width:0.758506">BREAKFA</tspan></text></g><path
     d="M 175.22593,69.305041 338.81825,244.59924 321.18741,262.23008 158.76527,88.262094 c -3.51056,11.701886 -8.50336,33.623416 -8.50336,60.849786 0,31.98515 9.82958,56.32507 28.55259,81.60113 16.38264,22.07755 39.08429,44.38914 68.10496,72.7077 v 0 0 c 5.14883,4.99279 10.45369,10.21964 15.99257,15.68052 v 0 l 0.0781,0.078 0.6241,0.62409 -17.63083,17.63085 -0.62411,-0.6241 c -5.3049,-5.22679 -10.53174,-10.37562 -15.60256,-15.29042 v 0 0 C 200.89206,293.27907 176.47412,269.40723 158.76527,245.5354 137.46785,216.82678 125.2979,187.41604 125.2979,149.11188 c 0,-33.07732 6.70908,-59.133507 10.6097,-71.459496 3.1205,-9.985598 12.32599,-15.91456 21.92153,-15.91456 6.63107,0 12.87207,2.73044 17.3968,7.567217 z M 503.11267,457.18344 372.28563,317.0729 389.91646,299.44206 521.36761,440.1767 c 4.68075,5.07082 4.44671,12.95008 -0.6241,17.63084 -5.07082,4.68075 -12.95009,4.44671 -17.63084,-0.6241 z M 491.09874,66.808644 c 4.05665,5.538895 2.88646,13.340149 -2.65243,17.474814 l -89.24635,65.374512 c -2.41839,1.79429 -4.75877,3.7446 -6.86511,5.92895 l -1.24819,1.24821 c -10.29767,10.37567 -16.1486,24.41792 -16.1486,39.08428 0,14.66636 5.85093,28.70862 16.2266,39.08429 l 10.21965,10.21964 c 10.37567,10.37567 24.41792,16.22661 39.08428,16.22661 14.66636,0 28.70862,-5.85094 39.08429,-16.22661 l 1.24821,-1.24819 c 2.10633,-2.10634 4.13466,-4.44673 5.92894,-6.86511 l 65.37452,-89.16834 c 4.05665,-5.5389 11.85791,-6.78709 17.47482,-2.65243 5.6169,4.13466 6.78709,11.8579 2.65242,17.47481 l -65.37451,89.16834 c -2.57442,3.43256 -5.38287,6.70909 -8.34735,9.75157 l -1.2482,1.2482 c -15.05642,15.05643 -35.49571,23.48177 -56.79314,23.48177 -19.50314,0 -38.30416,-7.09913 -52.89251,-19.8932 L 196.52335,457.49549 c -4.83678,4.83677 -12.79405,4.83677 -17.63083,0 -4.83678,-4.83678 -4.83678,-12.79406 0,-17.63084 L 369.86724,248.81192 c -12.79406,-14.58835 -19.89321,-33.38937 -19.89321,-52.89251 0,-21.29742 8.42536,-41.73671 23.48178,-56.79313 l 1.24821,-1.2482 c 3.04248,-3.04249 6.31901,-5.85095 9.75156,-8.34735 l 89.16834,-65.374517 c 5.5389,-4.056653 13.34015,-2.886464 17.47482,2.652431 z m 30.50291,24.183891 c 4.52472,5.226841 3.97864,13.106115 -1.17019,17.630835 l -99.85607,87.37406 c -5.14882,4.52472 -13.10611,3.97863 -17.63083,-1.17019 -4.52472,-5.14883 -3.97864,-13.10611 1.17019,-17.63084 l 99.85606,-87.374055 c 5.22684,-4.524725 13.10611,-3.978637 17.63084,1.17019 z m 23.79382,23.793825 c 5.22684,4.52473 5.69492,12.40399 1.17019,17.63083 l -87.37405,99.85607 c -4.52473,5.22684 -12.404,5.69491 -17.63084,1.17019 -5.22684,-4.52473 -5.69491,-12.40399 -1.17019,-17.63083 l 87.37406,-99.85607 c 4.52472,-5.22684 12.40399,-5.69492 17.63083,-1.17019 z"
     id="path1"
     style="stroke-width:0.780125" /></svg>
