<?xml version="1.0" encoding="UTF-8" standalone="no"?>
<svg
   viewBox="0 0 700 700"
   version="1.1"
   id="svg1"
   sodipodi:docname="activity_active_psychology_small_black.svg"
   width="700"
   height="700"
   inkscape:version="1.3.2 (091e20ef0f, 2023-11-25)"
   xml:space="preserve"
   xmlns:inkscape="http://www.inkscape.org/namespaces/inkscape"
   xmlns:sodipodi="http://sodipodi.sourceforge.net/DTD/sodipodi-0.dtd"
   xmlns="http://www.w3.org/2000/svg"
   xmlns:svg="http://www.w3.org/2000/svg"><defs
     id="defs1" /><sodipodi:namedview
     id="namedview1"
     pagecolor="#ffffff"
     bordercolor="#000000"
     borderopacity="0.25"
     inkscape:showpageshadow="2"
     inkscape:pageopacity="0.0"
     inkscape:pagecheckerboard="0"
     inkscape:deskcolor="#d1d1d1"
     inkscape:zoom="1.40625"
     inkscape:cx="395.02222"
     inkscape:cy="338.84444"
     inkscape:window-width="1895"
     inkscape:window-height="1347"
     inkscape:window-x="0"
     inkscape:window-y="0"
     inkscape:window-maximized="1"
     inkscape:current-layer="svg1" /><!--! Font Awesome Pro 6.4.2 by @fontawesome - https://fontawesome.com License - https://fontawesome.com/license (Commercial License) Copyright 2023 Fonticons, Inc. --><text
     xml:space="preserve"
     style="font-weight:bold;font-size:72.8165px;font-family:'Noto Sans';-inkscape-font-specification:'Noto Sans, Bold';text-align:center;text-anchor:middle;fill:#000000;fill-opacity:1;stroke-width:0.758506"
     x="345.45447"
     y="632.11481"
     id="text1"><tspan
       sodipodi:role="line"
       id="tspan1"
       x="345.45447"
       y="632.11481"
       style="font-style:normal;font-variant:normal;font-weight:bold;font-stretch:normal;font-size:145.633px;font-family:'Noto Sans';-inkscape-font-specification:'Noto Sans, Bold';font-variant-ligatures:normal;font-variant-caps:normal;font-variant-numeric:normal;font-variant-east-asian:normal;fill:#000000;fill-opacity:1;stroke-width:0.758506">PSYCHOL</tspan></text><path
     d="m 173.37705,237.43683 c 0,-83.58049 67.81059,-151.3911 151.3911,-151.3911 h 12.61592 c 52.11954,0 100.21776,31.53982 121.27058,76.4052 2.52319,5.44061 5.12522,11.19664 7.80611,17.11035 v 0 0 c 4.88867,10.96009 10.01388,22.47211 15.6122,33.1168 8.7523,16.79495 19.55469,33.35335 34.6938,46.83663 l 2.52318,2.20778 c 4.73097,4.17903 7.4907,10.25044 7.4907,16.63725 0,12.30053 -9.93503,22.23556 -22.23556,22.23556 h -15.76991 c -6.93875,0 -12.61593,5.67717 -12.61593,12.61593 v 50.4637 c 0,13.95637 -11.27548,25.23185 -25.23184,25.23185 h -63.07962 c -6.93877,0 -12.61593,5.67717 -12.61593,12.61593 v 50.46369 c 0,6.93877 5.67716,12.61593 12.61593,12.61593 6.93876,0 12.61591,-5.67716 12.61591,-12.61593 v -37.92661 h 50.46371 c 27.83388,0 50.4637,-22.62983 50.4637,-50.46371 v -37.84777 h 2.99628 c 26.17804,0 47.46741,-21.21053 47.46741,-47.46742 0,-13.56212 -5.83486,-26.49344 -15.9276,-35.48229 l -2.52318,-2.20778 c -11.90628,-10.64469 -20.97398,-24.12797 -29.09548,-39.66132 -5.28292,-10.01389 -9.69849,-20.10663 -14.35061,-30.51476 v 0 c -2.75974,-6.15027 -5.51947,-12.37939 -8.51576,-18.7662 C 456.28917,98.109713 399.3598,60.813888 337.38407,60.813888 h -12.61592 c -97.53687,0 -176.62295,79.086072 -176.62295,176.622942 0,41.7114 14.50831,80.11112 38.71512,110.38934 7.41186,9.14655 11.74858,19.397 11.74858,29.48973 v 74.59166 c 0,6.93876 5.67716,12.61592 12.61592,12.61592 6.93876,0 12.61593,-5.67716 12.61593,-12.61592 V 377.3159 c 0,-17.42574 -7.4907,-33.03796 -17.26805,-45.25963 -20.81627,-25.94149 -33.19565,-58.82175 -33.19565,-94.61944 z M 308.2886,158.74501 c 3.23283,-5.75603 9.46194,-9.61965 16.47955,-9.61965 7.0176,0 13.24672,3.86362 16.47955,9.61965 3.39053,5.99256 10.96008,8.20035 17.0315,4.88866 2.20779,-1.18274 4.73097,-1.89239 7.4907,-1.89239 5.51948,0 10.40815,2.83859 13.24673,7.17531 2.68088,4.10018 7.4907,6.30796 12.37937,5.59832 0.86735,-0.1577 1.81354,-0.23655 2.75975,-0.23655 10.48698,0 18.92388,8.4369 18.92388,18.92388 0,10.48699 -8.4369,18.92389 -18.92388,18.92389 H 360.0139 c -4.25787,0 -8.20036,2.12894 -10.56583,5.67717 -2.36549,3.54823 -2.68089,8.04265 -1.02505,11.98513 1.02505,2.28664 1.57699,4.88867 1.57699,7.56956 0,9.14654 -6.46566,16.79494 -15.13911,18.52963 -6.85991,1.41929 -11.27549,8.04265 -9.8562,14.90257 1.41929,6.8599 8.04265,11.27548 14.90256,9.85619 20.18548,-4.10018 35.32459,-21.92018 35.32459,-43.28839 h 18.9239 c 24.3645,0 44.15573,-19.79123 44.15573,-44.15575 0,-23.97025 -19.08158,-43.52493 -42.97299,-44.15573 -7.4907,-7.8061 -17.97769,-12.61593 -29.56858,-12.61593 -3.15398,0 -6.15025,0.3154 -9.06769,1.02505 -8.04267,-8.35805 -19.397,-13.56212 -31.93406,-13.56212 -12.53708,0 -23.89141,5.20407 -31.93406,13.64097 -2.91743,-0.70965 -5.91372,-1.02505 -9.0677,-1.02505 -17.5046,0 -32.40716,10.96008 -38.32087,26.33575 -19.55468,4.49442 -34.2207,22.07787 -34.2207,43.05184 0,15.13911 7.64841,28.46468 19.16045,36.42849 2.44432,22.07787 21.13167,39.26706 43.91918,39.26706 v 18.92389 c 0,6.93876 5.67716,12.61592 12.61592,12.61592 6.93876,0 12.61593,-5.67716 12.61593,-12.61592 v -34.14185 c 0,-4.25787 -2.12894,-8.20035 -5.67717,-10.56584 -3.54822,-2.36549 -8.04265,-2.68087 -11.98512,-1.02504 -2.28664,1.02504 -4.88868,1.57699 -7.56956,1.57699 -10.48699,0 -18.92388,-8.4369 -18.92388,-18.92389 0,-0.55195 0,-1.02504 0.0788,-1.57699 0.47311,-5.36177 -2.60204,-10.48698 -7.56955,-12.61592 -6.78105,-2.91744 -11.43318,-9.61965 -11.43318,-17.3469 0,-10.48698 8.4369,-18.92388 18.92389,-18.92388 h 0.1577 c 6.46566,0 11.82742,-4.80983 12.53707,-11.19664 0.86735,-7.88496 7.56956,-14.03522 15.69106,-14.03522 2.75974,0 5.28292,0.70965 7.4907,1.89239 6.07142,3.31169 13.64098,1.1039 17.0315,-4.88866 z"
     id="path1-5"
     style="stroke-width:0.788495" /></svg>
