<?xml version="1.0" encoding="UTF-8" standalone="no"?>
<svg
   viewBox="0 0 700 700"
   version="1.1"
   id="svg1"
   sodipodi:docname="activity_cooking_small_black.svg"
   width="700"
   height="700"
   inkscape:version="1.3.2 (091e20ef0f, 2023-11-25)"
   xml:space="preserve"
   xmlns:inkscape="http://www.inkscape.org/namespaces/inkscape"
   xmlns:sodipodi="http://sodipodi.sourceforge.net/DTD/sodipodi-0.dtd"
   xmlns="http://www.w3.org/2000/svg"
   xmlns:svg="http://www.w3.org/2000/svg"><defs
     id="defs1" /><sodipodi:namedview
     id="namedview1"
     pagecolor="#ffffff"
     bordercolor="#000000"
     borderopacity="0.25"
     inkscape:showpageshadow="2"
     inkscape:pageopacity="0.0"
     inkscape:pagecheckerboard="0"
     inkscape:deskcolor="#d1d1d1"
     inkscape:zoom="1.40625"
     inkscape:cx="254.93333"
     inkscape:cy="179.55556"
     inkscape:window-width="1895"
     inkscape:window-height="1347"
     inkscape:window-x="0"
     inkscape:window-y="0"
     inkscape:window-maximized="1"
     inkscape:current-layer="svg1" /><!--! Font Awesome Pro 6.4.2 by @fontawesome - https://fontawesome.com License - https://fontawesome.com/license (Commercial License) Copyright 2023 Fonticons, Inc. --><path
     d="m 291.08663,140.93129 c 8.87628,-24.03666 31.97033,-41.08227 58.99194,-41.08227 27.02161,0 50.11566,17.04561 58.99195,41.08227 2.51363,6.83395 8.79773,11.62558 16.10299,12.25399 7.30526,0.62841 14.29632,-2.98495 17.90967,-9.3476 6.51975,-11.31137 18.77374,-18.85228 32.6773,-18.85228 20.81606,0 37.70457,16.88851 37.70457,37.70458 0,8.56208 -2.27798,22.07288 -6.36265,38.64718 -4.00611,16.18155 -9.34759,33.93412 -14.76762,50.58697 -5.42003,16.65285 -10.84006,31.89178 -14.92473,43.04605 -0.78551,2.12088 -1.49247,4.16322 -2.19943,5.96989 h -42.9675 l 18.22387,-104.70874 c 1.17827,-6.83395 -3.3777,-13.3537 -10.21165,-14.53197 -6.83395,-1.17826 -13.3537,3.37771 -14.53197,10.21166 L 406.71398,300.94007 H 362.64676 V 187.82636 c 0,-6.91251 -5.65568,-12.56819 -12.56819,-12.56819 -6.9125,0 -12.56819,5.65568 -12.56819,12.56819 v 113.11371 h -44.06722 l -18.93084,-108.9505 c -1.17826,-6.83395 -7.69801,-11.38992 -14.53197,-10.21165 -6.83395,1.17826 -11.38992,7.69801 -10.21165,14.53197 l 18.14532,104.63018 h -43.04605 c -0.70696,-1.80667 -1.41392,-3.84901 -2.19943,-5.96989 -4.08466,-11.15427 -9.5047,-26.47175 -14.92473,-43.04605 -5.42003,-16.65285 -10.76151,-34.40542 -14.76762,-50.58697 -4.00611,-16.5743 -6.2841,-30.0851 -6.2841,-38.64718 0,-20.81607 16.88851,-37.70458 37.70457,-37.70458 13.90356,0 26.15755,7.54091 32.6773,18.85228 3.69191,6.36265 10.68296,9.97601 17.90967,9.3476 7.22671,-0.62841 13.58936,-5.42004 16.103,-12.25399 z m 214.83751,185.69502 -17.59547,-6.83395 c 17.59547,6.83395 17.59547,6.83395 17.59547,6.83395 v 0 0 -0.0786 l 0.0785,-0.23565 0.39275,-1.02117 c 0.31421,-0.86406 0.78551,-2.12088 1.41392,-3.77045 1.25682,-3.2206 2.98495,-7.93367 5.02728,-13.58936 4.16321,-11.46847 9.74035,-27.17871 15.31748,-44.30287 5.57714,-17.12416 11.23282,-35.8979 15.47459,-53.25771 4.16321,-17.04561 7.38381,-34.16977 7.38381,-47.60202 0,-41.63214 -33.77701,-75.409152 -75.40913,-75.409152 -16.96707,0 -32.6773,5.655685 -45.2455,15.081832 -18.14528,-24.507925 -47.36631,-40.296716 -80.27927,-40.296716 -32.91295,0 -62.13398,15.788791 -80.43642,40.218206 -12.56819,-9.426138 -28.27843,-15.081824 -45.24547,-15.081824 -41.63213,0 -75.40916,33.777014 -75.40916,75.409154 0,13.43225 3.2206,30.55641 7.38383,47.60202 4.24177,17.43836 9.89743,36.13355 15.47459,53.25771 5.57713,17.12416 11.15427,32.91295 15.31746,44.30287 2.12088,5.73424 3.84901,10.36876 5.02728,13.58935 0.6284,1.64958 1.09971,2.9064 1.41392,3.77046 l 0.39275,1.02117 0.0786,0.23565 v 0.0786 0 0 c 0,0 0,0 17.59547,-6.83395 l -17.59547,6.83395 c 2.98495,7.30526 9.97601,12.09689 17.75257,12.09689 h 276.5002 c 7.77657,0 14.76762,-4.79163 17.59547,-12.01834 z m -306.66386,37.15472 v 50.27276 c 0,27.72857 22.54419,50.27276 50.27277,50.27276 H 450.6241 c 27.72857,0 50.27276,-22.54419 50.27276,-50.27276 v -50.27276 h -37.70457 v 50.27276 c 0,6.9125 -5.65569,12.56819 -12.56819,12.56819 H 249.53305 c -6.91251,0 -12.5682,-5.65569 -12.5682,-12.56819 v -50.27276 z"
     id="path1-5"
     style="stroke-width:0.785512" /></svg>
