<?xml version="1.0" encoding="UTF-8" standalone="no"?>
<svg
   viewBox="0 0 700 700"
   version="1.1"
   id="svg1"
   sodipodi:docname="activity_active_crafts_painting_small_black.svg"
   width="700"
   height="700"
   inkscape:version="1.3.2 (091e20ef0f, 2023-11-25)"
   xml:space="preserve"
   xmlns:inkscape="http://www.inkscape.org/namespaces/inkscape"
   xmlns:sodipodi="http://sodipodi.sourceforge.net/DTD/sodipodi-0.dtd"
   xmlns="http://www.w3.org/2000/svg"
   xmlns:svg="http://www.w3.org/2000/svg"><defs
     id="defs1" /><sodipodi:namedview
     id="namedview1"
     pagecolor="#ffffff"
     bordercolor="#000000"
     borderopacity="0.25"
     inkscape:showpageshadow="2"
     inkscape:pageopacity="0.0"
     inkscape:pagecheckerboard="0"
     inkscape:deskcolor="#d1d1d1"
     inkscape:zoom="1.40625"
     inkscape:cx="476.8"
     inkscape:cy="338.84444"
     inkscape:window-width="1895"
     inkscape:window-height="1347"
     inkscape:window-x="0"
     inkscape:window-y="0"
     inkscape:window-maximized="1"
     inkscape:current-layer="svg1" /><!--! Font Awesome Pro 6.4.2 by @fontawesome - https://fontawesome.com License - https://fontawesome.com/license (Commercial License) Copyright 2023 Fonticons, Inc. --><text
     xml:space="preserve"
     style="font-weight:bold;font-size:72.8165px;font-family:'Noto Sans';-inkscape-font-specification:'Noto Sans, Bold';text-align:center;text-anchor:middle;fill:#000000;fill-opacity:1;stroke-width:0.758506"
     x="350"
     y="632.11481"
     id="text1"><tspan
       sodipodi:role="line"
       id="tspan1"
       x="350"
       y="632.11481"
       style="font-style:normal;font-variant:normal;font-weight:bold;font-stretch:normal;font-size:145.633px;font-family:'Noto Sans';-inkscape-font-specification:'Noto Sans, Bold';font-variant-ligatures:normal;font-variant-caps:normal;font-variant-numeric:normal;font-variant-east-asian:normal;fill:#000000;fill-opacity:1;stroke-width:0.758506">PAINTIN</tspan></text><path
     d="m 544.29559,93.575056 c -9.85172,-9.851719 -25.85091,-9.851719 -35.70263,0 L 378.86553,223.30249 414.56816,259.00511 544.29559,129.19887 c 9.85172,-9.85172 9.85172,-25.85091 0,-35.702628 z M 361.05363,241.11439 332.2078,269.96022 v 0 l -32.15601,32.15601 35.70262,35.70263 3.62543,-3.62543 v 0 l 28.45177,-28.45177 28.84583,-28.84583 z m -83.62139,74.00611 c -4.96526,-1.26102 -10.24579,-1.97034 -15.68393,-1.97034 -34.83568,0 -63.051,28.21531 -63.051,63.05099 0,2.20679 0.0788,4.41358 0.31525,6.54154 1.33983,13.1619 -2.36441,26.48142 -9.85172,36.80602 -7.56611,10.63986 -20.41276,19.70344 -37.12127,19.70344 h 109.70874 c 34.83567,0 63.05099,-28.21532 63.05099,-63.051 0,-5.43815 -0.70932,-10.63985 -1.97034,-15.68393 L 277.35343,315.04168 Z M 562.18631,147.08959 348.67987,360.59603 c 0.86695,5.04408 1.33983,10.3246 1.33983,15.60512 0,48.78571 -39.48569,88.2714 -88.27139,88.2714 h -113.4918 c -13.95004,0 -25.2204,-11.27036 -25.2204,-25.2204 0,-13.95003 11.27036,-25.2204 25.2204,-25.2204 h 3.78306 c 13.87122,0 23.32887,-14.8958 21.91022,-28.6882 -0.31525,-2.99493 -0.47288,-6.06866 -0.47288,-9.1424 0,-48.78571 39.48569,-88.27139 88.2714,-88.27139 5.28052,0 10.48222,0.47288 15.5263,1.33983 L 490.85986,75.684334 c 19.70345,-19.703433 51.62301,-19.703433 71.32645,0 19.70343,19.703441 19.70343,51.623006 0,71.326436 z"
     id="path1"
     style="stroke-width:0.788134" /></svg>
