<?xml version="1.0" encoding="UTF-8" standalone="no"?>
<svg
   viewBox="0 0 700 700"
   version="1.1"
   id="svg1"
   sodipodi:docname="activity_active_quiz_small_black.svg"
   width="700"
   height="700"
   inkscape:version="1.3.2 (091e20ef0f, 2023-11-25)"
   xml:space="preserve"
   xmlns:inkscape="http://www.inkscape.org/namespaces/inkscape"
   xmlns:sodipodi="http://sodipodi.sourceforge.net/DTD/sodipodi-0.dtd"
   xmlns="http://www.w3.org/2000/svg"
   xmlns:svg="http://www.w3.org/2000/svg"><defs
     id="defs1" /><sodipodi:namedview
     id="namedview1"
     pagecolor="#ffffff"
     bordercolor="#000000"
     borderopacity="0.25"
     inkscape:showpageshadow="2"
     inkscape:pageopacity="0.0"
     inkscape:pagecheckerboard="0"
     inkscape:deskcolor="#d1d1d1"
     inkscape:zoom="1.40625"
     inkscape:cx="252.08889"
     inkscape:cy="338.84444"
     inkscape:window-width="1895"
     inkscape:window-height="1347"
     inkscape:window-x="0"
     inkscape:window-y="0"
     inkscape:window-maximized="1"
     inkscape:current-layer="svg1" /><!--! Font Awesome Pro 6.4.2 by @fontawesome - https://fontawesome.com License - https://fontawesome.com/license (Commercial License) Copyright 2023 Fonticons, Inc. --><text
     xml:space="preserve"
     style="font-weight:bold;font-size:72.8165px;font-family:'Noto Sans';-inkscape-font-specification:'Noto Sans, Bold';text-align:center;text-anchor:middle;fill:#000000;fill-opacity:1;stroke-width:0.758506"
     x="347.52426"
     y="632.11481"
     id="text1"><tspan
       sodipodi:role="line"
       id="tspan1"
       x="347.52426"
       y="632.11481"
       style="font-style:normal;font-variant:normal;font-weight:bold;font-stretch:normal;font-size:145.633px;font-family:'Noto Sans';-inkscape-font-specification:'Noto Sans, Bold';font-variant-ligatures:normal;font-variant-caps:normal;font-variant-numeric:normal;font-variant-east-asian:normal;fill:#000000;fill-opacity:1;stroke-width:0.758506">QUIZ</tspan></text><path
     d="m 274.99555,75.13963 c 0,-6.875407 5.62533,-12.500741 12.50074,-12.500741 H 412.5037 c 6.87541,0 12.50074,5.625334 12.50074,12.500741 0,6.875408 -5.62533,12.500742 -12.50074,12.500742 h -50.00296 v 50.471738 c 38.59604,2.96894 73.44185,19.37615 99.77154,44.5339 l 28.90796,-28.90796 c 4.84404,-4.84405 12.81326,-4.84405 17.6573,0 4.84403,4.84403 4.84403,12.81325 0,17.65729 l -29.84552,29.84552 c 21.01687,27.50163 33.51761,61.72241 33.51761,98.91211 0,89.77095 -72.73869,162.50963 -162.50963,162.50963 -89.77094,0 -162.50964,-72.73868 -162.50964,-162.50963 0,-85.55194 66.09767,-155.63422 150.00891,-162.04086 V 87.640372 H 287.4963 c -6.87541,0 -12.50074,-5.625334 -12.50075,-12.500742 z m -62.50371,225.01334 a 137.50815,137.50815 0 1 0 275.01631,0 137.50815,137.50815 0 1 0 -275.01631,0 z m 150.0089,-75.00444 v 87.50519 c 0,6.8754 -5.62534,12.50074 -12.50074,12.50074 -6.87541,0 -12.50074,-5.62534 -12.50074,-12.50074 v -87.50519 c 0,-6.87541 5.62533,-12.50074 12.50074,-12.50074 6.8754,0 12.50074,5.62533 12.50074,12.50074 z"
     id="path1-5"
     style="stroke-width:0.781297" /><text
     xml:space="preserve"
     style="font-weight:bold;font-size:72.8165px;font-family:'Noto Sans';-inkscape-font-specification:'Noto Sans, Bold';text-align:center;text-anchor:middle;fill:#000000;fill-opacity:1;stroke-width:0.758506"
     x="347.52426"
     y="632.11481"
     id="text2"><tspan
       sodipodi:role="line"
       id="tspan2"
       x="347.52426"
       y="632.11481"
       style="font-style:normal;font-variant:normal;font-weight:bold;font-stretch:normal;font-size:145.633px;font-family:'Noto Sans';-inkscape-font-specification:'Noto Sans, Bold';font-variant-ligatures:normal;font-variant-caps:normal;font-variant-numeric:normal;font-variant-east-asian:normal;fill:#000000;fill-opacity:1;stroke-width:0.758506">QUIZ</tspan></text></svg>
