<?xml version="1.0" encoding="UTF-8" standalone="no"?>
<svg
   viewBox="0 0 700 700"
   version="1.1"
   id="svg1"
   sodipodi:docname="activity_active_relationship-advice_small_black.svg"
   width="700"
   height="700"
   inkscape:version="1.3.2 (091e20ef0f, 2023-11-25)"
   xml:space="preserve"
   xmlns:inkscape="http://www.inkscape.org/namespaces/inkscape"
   xmlns:sodipodi="http://sodipodi.sourceforge.net/DTD/sodipodi-0.dtd"
   xmlns="http://www.w3.org/2000/svg"
   xmlns:svg="http://www.w3.org/2000/svg"><defs
     id="defs1" /><sodipodi:namedview
     id="namedview1"
     pagecolor="#ffffff"
     bordercolor="#000000"
     borderopacity="0.25"
     inkscape:showpageshadow="2"
     inkscape:pageopacity="0.0"
     inkscape:pagecheckerboard="0"
     inkscape:deskcolor="#d1d1d1"
     inkscape:zoom="1.40625"
     inkscape:cx="252.8"
     inkscape:cy="338.84444"
     inkscape:window-width="1895"
     inkscape:window-height="1347"
     inkscape:window-x="0"
     inkscape:window-y="0"
     inkscape:window-maximized="1"
     inkscape:current-layer="svg1" /><!--! Font Awesome Pro 6.4.2 by @fontawesome - https://fontawesome.com License - https://fontawesome.com/license (Commercial License) Copyright 2023 Fonticons, Inc. --><text
     xml:space="preserve"
     style="font-weight:bold;font-size:72.8165px;font-family:'Noto Sans';-inkscape-font-specification:'Noto Sans, Bold';text-align:center;text-anchor:middle;fill:#000000;fill-opacity:1;stroke-width:0.758506"
     x="345.45447"
     y="632.11481"
     id="text1"><tspan
       sodipodi:role="line"
       id="tspan1"
       x="345.45447"
       y="632.11481"
       style="font-style:normal;font-variant:normal;font-weight:bold;font-stretch:normal;font-size:145.633px;font-family:'Noto Sans';-inkscape-font-specification:'Noto Sans, Bold';font-variant-ligatures:normal;font-variant-caps:normal;font-variant-numeric:normal;font-variant-east-asian:normal;fill:#000000;fill-opacity:1;stroke-width:0.758506">RELATIO</tspan></text><path
     d="m 175.05726,237.22885 c 0,-82.7854 67.16552,-149.950922 149.95092,-149.950922 h 12.49591 c 51.62373,0 99.26439,31.239782 120.11694,75.678362 2.49918,5.38886 5.07646,11.09012 7.73184,16.94757 v 0 0 c 4.84217,10.85583 9.91863,22.25834 15.46369,32.80177 8.66904,16.63518 19.36866,33.03606 34.36375,46.39106 l 2.49919,2.18679 c 4.68596,4.13927 7.41944,10.15293 7.41944,16.47898 0,12.18351 -9.84053,22.02404 -22.02404,22.02404 h -15.61989 c -6.87275,0 -12.49591,5.62316 -12.49591,12.49591 v 49.98364 c 0,13.8236 -11.16822,24.99182 -24.99182,24.99182 h -62.47955 c -6.87275,0 -12.49591,5.62316 -12.49591,12.49591 v 49.98364 c 0,6.87275 5.62316,12.49591 12.49591,12.49591 6.87275,0 12.49591,-5.62316 12.49591,-12.49591 v -37.56583 h 49.98364 c 27.5691,0 49.98364,-22.41454 49.98364,-49.98364 v -37.48773 h 2.96778 c 25.92901,0 47.01586,-21.00875 47.01586,-47.01586 0,-13.4331 -5.77936,-26.24141 -15.77608,-35.14475 l -2.49919,-2.18678 C 519.86628,229.8094 510.88484,216.4544 502.8406,201.06881 c -5.23266,-9.91863 -9.60623,-19.91536 -14.2141,-30.22448 v 0 c -2.73348,-6.09176 -5.46696,-12.26161 -8.43474,-18.58767 C 455.27804,99.227144 398.89025,62.286111 337.50409,62.286111 h -12.49591 c -96.609,0 -174.94274,78.333739 -174.94274,174.942739 0,41.3146 14.3703,79.34903 38.34683,109.33921 7.34134,9.05954 11.63681,19.21247 11.63681,29.20919 v 73.88207 c 0,6.87275 5.62316,12.49591 12.49591,12.49591 6.87275,0 12.49591,-5.62316 12.49591,-12.49591 v -73.88207 c 0,-17.25997 -7.41945,-32.72366 -17.10377,-44.82907 -20.61826,-25.69472 -32.87987,-58.26218 -32.87987,-93.71933 z m 87.47137,-27.1005 c 0,-12.65211 10.23103,-22.88314 22.88314,-22.88314 6.09175,0 11.87111,2.42108 16.16658,6.71655 l 14.6046,14.6046 c 4.84216,4.84216 12.8083,4.84216 17.65047,0 l 14.60459,-14.6046 c 4.29547,-4.29547 10.07483,-6.71655 16.16659,-6.71655 12.65211,0 22.88313,10.23103 22.88313,22.88314 0,6.09175 -2.42108,11.87111 -6.71655,16.16658 l -55.763,55.763 -55.763,-55.763 c -4.29547,-4.29547 -6.71655,-10.07483 -6.71655,-16.16658 z m 22.88314,-47.87496 c -26.39761,0 -47.87496,21.39925 -47.87496,47.87496 0,12.65211 5.07646,24.83562 13.9798,33.81705 l 64.58824,64.58824 c 4.84216,4.84216 12.8083,4.84216 17.65047,0 l 64.58823,-64.58824 c 8.98144,-8.98143 13.9798,-21.16494 13.9798,-33.81705 0,-26.39761 -21.39924,-47.87496 -47.87495,-47.87496 -12.65211,0 -24.83562,5.07646 -33.81706,13.9798 l -5.77936,5.77936 -5.77936,-5.77936 c -8.98143,-8.98144 -21.16494,-13.9798 -33.81705,-13.9798 z"
     id="path1-5"
     style="stroke-width:0.780994" /></svg>
