<?xml version="1.0" encoding="UTF-8" standalone="no"?>
<svg
   viewBox="0 0 700 700"
   version="1.1"
   id="svg1"
   sodipodi:docname="activity_politics_small_black.svg"
   width="700"
   height="700"
   inkscape:version="1.3.2 (091e20ef0f, 2023-11-25)"
   xml:space="preserve"
   xmlns:inkscape="http://www.inkscape.org/namespaces/inkscape"
   xmlns:sodipodi="http://sodipodi.sourceforge.net/DTD/sodipodi-0.dtd"
   xmlns="http://www.w3.org/2000/svg"
   xmlns:svg="http://www.w3.org/2000/svg"><defs
     id="defs1" /><sodipodi:namedview
     id="namedview1"
     pagecolor="#ffffff"
     bordercolor="#000000"
     borderopacity="0.25"
     inkscape:showpageshadow="2"
     inkscape:pageopacity="0.0"
     inkscape:pagecheckerboard="0"
     inkscape:deskcolor="#d1d1d1"
     inkscape:zoom="1.40625"
     inkscape:cx="395.73333"
     inkscape:cy="338.84444"
     inkscape:window-width="1677"
     inkscape:window-height="1347"
     inkscape:window-x="0"
     inkscape:window-y="0"
     inkscape:window-maximized="1"
     inkscape:current-layer="svg1" /><!--! Font Awesome Pro 6.4.2 by @fontawesome - https://fontawesome.com License - https://fontawesome.com/license (Commercial License) Copyright 2023 Fonticons, Inc. --><text
     xml:space="preserve"
     style="font-weight:bold;font-size:72.8165px;font-family:'Noto Sans';-inkscape-font-specification:'Noto Sans, Bold';text-align:center;text-anchor:middle;fill:#000000;fill-opacity:1;stroke-width:0.758506"
     x="345.45447"
     y="632.11481"
     id="text1"><tspan
       sodipodi:role="line"
       id="tspan1"
       x="345.45447"
       y="632.11481"
       style="font-style:normal;font-variant:normal;font-weight:bold;font-stretch:normal;font-size:145.633px;font-family:'Noto Sans';-inkscape-font-specification:'Noto Sans, Bold';font-variant-ligatures:normal;font-variant-caps:normal;font-variant-numeric:normal;font-variant-east-asian:normal;fill:#000000;fill-opacity:1;stroke-width:0.758506">POLITICS</tspan></text><path
     d="m 311.37487,389.65519 c 0,-20.91898 -16.97201,-37.89098 -37.891,-37.89098 h -75.78199 c -6.94668,0 -12.63034,-5.68365 -12.63034,-12.63034 V 111.7879 c 0,-6.94667 5.68366,-12.630319 12.63034,-12.630319 h 303.12796 c 6.94668,0 12.63033,5.683649 12.63033,12.630319 v 227.34597 c 0,6.94669 -5.68365,12.63034 -12.63033,12.63034 h -109.4892 c -8.20971,0 -16.18261,2.68394 -22.73459,7.57819 l -57.23118,42.94314 z m -0.15789,60.15196 0.15789,-0.15788 79.96577,-59.99408 h 109.4892 c 27.86567,0 50.52132,-22.65565 50.52132,-50.52132 V 111.7879 c 0,-27.865666 -22.65565,-50.521321 -50.52132,-50.521321 H 197.70188 c -27.86567,0 -50.52132,22.655655 -50.52132,50.521321 v 227.34597 c 0,27.86567 22.65565,50.52132 50.52132,50.52132 h 37.89099 37.891 v 37.89101 3.15758 0.23681 5.05214 16.81413 c 0,4.81532 2.68394,9.15699 6.94668,11.28836 4.26273,2.13136 9.3938,1.65773 13.26184,-1.1841 l 13.49868,-10.10426 z"
     id="path1-5"
     style="stroke-width:0.789396"
     sodipodi:nodetypes="sssssssssssccscccssssssssccccccssccc" /><path
     d="m 347.15049,129.95278 h 5.70328 c 4.74085,0 8.55492,3.81406 8.55492,8.55492 v 3.81406 c 28.65898,4.7765 51.29388,27.4114 56.07038,56.07038 h 0.96242 c 6.30926,0 11.40657,5.0973 11.40657,11.40656 0,6.30926 -5.09731,11.40656 -11.40657,11.40656 H 281.56277 c -6.30926,0 -11.40657,-5.0973 -11.40657,-11.40656 0,-6.30926 5.09731,-11.40656 11.40657,-11.40656 h 0.96243 c 4.77649,-28.65898 27.41139,-51.29388 56.07037,-56.07038 v -3.81406 c 0,-4.74086 3.81406,-8.55492 8.55492,-8.55492 z m -65.58772,102.65905 h 22.81312 v 45.62624 h 14.2582 v -45.62624 h 22.81312 v 45.62624 h 17.10984 v -45.62624 h 22.81312 v 45.62624 h 14.2582 v -45.62624 h 22.81312 v 47.15899 c 0.21388,0.10695 0.42776,0.24952 0.60598,0.3921 l 17.10984,11.40657 c 4.17052,2.78034 6.05974,7.98459 4.59828,12.79674 -1.46147,4.81213 -5.88152,8.09153 -10.90753,8.09153 H 270.1562 c -5.02601,0 -9.44606,-3.2794 -10.90753,-8.09153 -1.46146,-4.81215 0.39211,-10.0164 4.59828,-12.79674 l 17.10984,-11.40657 c 0.21388,-0.14258 0.42775,-0.24951 0.64162,-0.3921 v -47.15899 z"
     id="path1"
     style="stroke-width:0.356455" /></svg>
