<?xml version="1.0" encoding="UTF-8" standalone="no"?>
<svg
   viewBox="0 0 700 700"
   version="1.1"
   id="svg1"
   sodipodi:docname="location_studio.svg"
   width="700"
   height="700"
   inkscape:version="1.3.2 (091e20ef0f, 2023-11-25)"
   xmlns:inkscape="http://www.inkscape.org/namespaces/inkscape"
   xmlns:sodipodi="http://sodipodi.sourceforge.net/DTD/sodipodi-0.dtd"
   xmlns="http://www.w3.org/2000/svg"
   xmlns:svg="http://www.w3.org/2000/svg">
  <defs
     id="defs1" />
  <sodipodi:namedview
     id="namedview1"
     pagecolor="#ffffff"
     bordercolor="#000000"
     borderopacity="0.25"
     inkscape:showpageshadow="2"
     inkscape:pageopacity="0.0"
     inkscape:pagecheckerboard="0"
     inkscape:deskcolor="#d1d1d1"
     inkscape:zoom="1.125"
     inkscape:cx="319.55556"
     inkscape:cy="255.55556"
     inkscape:window-width="1895"
     inkscape:window-height="1347"
     inkscape:window-x="0"
     inkscape:window-y="0"
     inkscape:window-maximized="1"
     inkscape:current-layer="svg1" />
  <!--! Font Awesome Pro 6.4.2 by @fontawesome - https://fontawesome.com License - https://fontawesome.com/license (Commercial License) Copyright 2023 Fonticons, Inc. -->
  <path
     d="m 254.03566,126 -64,160 h 320 l -64,-160 z m -29.7,-11.9 c 4.8,-12.1 16.6,-20.1 29.7,-20.1 h 192 c 13.1,0 24.9,8 29.7,20.1 l 64,160 c 3.9,9.9 2.7,21 -3.2,29.8 -5.9,8.8 -15.9,14.1 -26.5,14.1 h -320 c -10.6,0 -20.5,-5.3 -26.5,-14.1 -6,-8.8 -7.2,-20 -3.2,-29.8 z m 13.7,459.9 h 96 V 350 h 32 v 224 h 96 c 8.8,0 16,7.2 16,16 0,8.8 -7.2,16 -16,16 h -112 -112 c -8.8,0 -16,-7.2 -16,-16 0,-8.8 7.2,-16 16,-16 z"
     id="path1" />
</svg>
