<?xml version="1.0" encoding="UTF-8" standalone="no"?>
<svg
   viewBox="0 0 700 700"
   version="1.1"
   id="svg1"
   sodipodi:docname="activity_active_cooking_breakfast_black.svg"
   width="700"
   height="700"
   inkscape:version="1.3.2 (091e20ef0f, 2023-11-25)"
   xml:space="preserve"
   xmlns:inkscape="http://www.inkscape.org/namespaces/inkscape"
   xmlns:sodipodi="http://sodipodi.sourceforge.net/DTD/sodipodi-0.dtd"
   xmlns="http://www.w3.org/2000/svg"
   xmlns:svg="http://www.w3.org/2000/svg"><defs
     id="defs1" /><sodipodi:namedview
     id="namedview1"
     pagecolor="#ffffff"
     bordercolor="#000000"
     borderopacity="0.25"
     inkscape:showpageshadow="2"
     inkscape:pageopacity="0.0"
     inkscape:pagecheckerboard="0"
     inkscape:deskcolor="#d1d1d1"
     inkscape:zoom="1.40625"
     inkscape:cx="254.22222"
     inkscape:cy="350.22222"
     inkscape:window-width="1895"
     inkscape:window-height="1347"
     inkscape:window-x="0"
     inkscape:window-y="0"
     inkscape:window-maximized="1"
     inkscape:current-layer="g1" /><!--! Font Awesome Pro 6.4.2 by @fontawesome - https://fontawesome.com License - https://fontawesome.com/license (Commercial License) Copyright 2023 Fonticons, Inc. --><g
     id="g1"
     transform="translate(0.18749805,-5.5711238)"><text
       xml:space="preserve"
       style="font-weight:bold;font-size:72.8165px;font-family:'Noto Sans';-inkscape-font-specification:'Noto Sans, Bold';text-align:center;text-anchor:middle;fill:#000000;fill-opacity:1;stroke-width:0.758506"
       x="343.25903"
       y="637.68591"
       id="text1"><tspan
         sodipodi:role="line"
         id="tspan1"
         x="343.25903"
         y="637.68591"
         style="font-style:normal;font-variant:normal;font-weight:bold;font-stretch:normal;font-size:145.633px;font-family:'Noto Sans';-inkscape-font-specification:'Noto Sans, Bold';font-variant-ligatures:normal;font-variant-caps:normal;font-variant-numeric:normal;font-variant-east-asian:normal;fill:#000000;fill-opacity:1;stroke-width:0.758506">BREAKFA</tspan></text><path
       d="m 283.03475,130.22152 c 12.64106,-24.02586 37.84466,-40.357158 66.81701,-40.357158 28.97236,0 54.17596,16.331298 66.7385,40.357158 1.9629,3.69025 5.57463,6.20275 9.73597,6.67385 4.16134,0.4711 8.24417,-1.17773 10.91371,-4.31837 9.26487,-10.75667 22.92663,-17.58756 38.23723,-17.58756 27.7161,0 50.25016,22.53406 50.25016,50.25016 0,3.14063 -0.31407,6.12424 -0.78516,9.10784 l -0.0785,0.39257 c -2.74806,17.90163 -11.14926,45.85328 -20.49265,73.41235 -9.26487,27.24501 -19.07936,53.15525 -24.33992,66.50295 -0.31407,0.78516 -1.09922,1.41328 -2.19844,1.41328 h -35.48918 l 20.33561,-110.7859 c 1.25626,-6.83088 -3.29767,-13.34769 -10.05003,-14.60395 -6.75237,-1.25625 -13.3477,3.29767 -14.60396,10.05004 l -20.72818,113.06285 c -0.15704,0.78517 -0.23555,1.49181 -0.23555,2.27696 H 362.4143 V 177.80214 c 0,-6.9094 -5.65314,-12.56254 -12.56254,-12.56254 -6.90939,0 -12.56254,5.65314 -12.56254,12.56254 v 138.18794 h -54.64705 c 0,-0.78516 -0.0785,-1.4918 -0.23555,-2.27696 L 261.67844,200.65026 c -1.25626,-6.83089 -7.77308,-11.30629 -14.60396,-10.05003 -6.83089,1.25625 -11.30629,7.77307 -10.05003,14.60395 l 20.33561,110.7859 h -35.48918 c -1.09922,0 -1.88438,-0.62813 -2.19844,-1.41328 -5.18205,-13.34771 -15.07505,-39.25794 -24.33992,-66.50296 -9.34339,-27.55907 -17.74459,-55.51072 -20.49265,-73.41234 l -0.0785,-0.39258 c -0.54961,-2.90508 -0.78516,-5.96721 -0.78516,-9.10784 0,-27.7161 22.53406,-50.25016 50.25017,-50.25016 15.31059,0 28.97236,6.83089 38.15872,17.58756 2.74805,3.14064 6.83088,4.78947 10.91371,4.31838 4.08282,-0.4711 7.77306,-2.98361 9.73596,-6.67386 z m 66.81701,-65.48224 c -32.89815,0 -62.10606,15.781693 -80.40025,40.20013 -12.56254,-9.421904 -28.26572,-15.075048 -45.22515,-15.075048 -41.61342,0 -75.37524,33.761828 -75.37524,75.375238 0,4.55392 0.39258,9.02932 1.17774,13.42621 3.14063,20.33561 12.24847,50.09313 21.51335,77.49517 9.4219,27.71611 19.39342,54.01892 24.65398,67.52365 4.16134,10.67816 14.44692,17.43053 25.67469,17.43053 h 255.96177 c 11.22776,0 21.51335,-6.75237 25.59617,-17.43053 5.26056,-13.50473 15.23208,-39.80754 24.65398,-67.52365 9.26488,-27.40204 18.37272,-57.15956 21.51335,-77.49517 0.78516,-4.31837 1.17774,-8.79378 1.17774,-13.42621 0,-41.61341 -33.76182,-75.375238 -75.37524,-75.375238 -16.95943,0 -32.6626,5.653144 -45.22514,15.075048 C 411.95782,80.520973 382.74992,64.73928 349.85176,64.73928 Z M 199.10128,366.24024 v 50.25016 c 0,27.71611 22.53405,50.25016 50.25016,50.25016 h 201.00065 c 27.7161,0 50.25016,-22.53405 50.25016,-50.25016 v -50.25016 h -25.12508 v 50.25016 c 0,13.89731 -11.22777,25.12508 -25.12508,25.12508 H 249.35144 c -13.89731,0 -25.12508,-11.22777 -25.12508,-25.12508 v -50.25016 z"
       id="path1"
       style="stroke-width:0.785155" /></g></svg>
