<?xml version="1.0" encoding="UTF-8" standalone="no"?>
<svg
   viewBox="0 0 700 700"
   version="1.1"
   id="svg1"
   sodipodi:docname="camera_crafts_anja_overhead_black.svg"
   width="700"
   height="700"
   inkscape:version="1.3.2 (091e20ef0f, 2023-11-25)"
   xml:space="preserve"
   xmlns:inkscape="http://www.inkscape.org/namespaces/inkscape"
   xmlns:sodipodi="http://sodipodi.sourceforge.net/DTD/sodipodi-0.dtd"
   xmlns="http://www.w3.org/2000/svg"
   xmlns:svg="http://www.w3.org/2000/svg"><defs
     id="defs1" /><sodipodi:namedview
     id="namedview1"
     pagecolor="#ffffff"
     bordercolor="#000000"
     borderopacity="0.25"
     inkscape:showpageshadow="2"
     inkscape:pageopacity="0.0"
     inkscape:pagecheckerboard="0"
     inkscape:deskcolor="#d1d1d1"
     inkscape:zoom="1.40625"
     inkscape:cx="393.6"
     inkscape:cy="338.84444"
     inkscape:window-width="1895"
     inkscape:window-height="1347"
     inkscape:window-x="0"
     inkscape:window-y="0"
     inkscape:window-maximized="1"
     inkscape:current-layer="svg1" /><!--! Font Awesome Pro 6.4.2 by @fontawesome - https://fontawesome.com License - https://fontawesome.com/license (Commercial License) Copyright 2023 Fonticons, Inc. --><text
     xml:space="preserve"
     style="font-weight:bold;font-size:72.8165px;font-family:'Noto Sans';-inkscape-font-specification:'Noto Sans, Bold';text-align:center;text-anchor:middle;fill:#000000;fill-opacity:1;stroke-width:0.758506"
     x="345.45447"
     y="632.11481"
     id="text1"><tspan
       sodipodi:role="line"
       id="tspan1"
       x="345.45447"
       y="632.11481"
       style="font-style:normal;font-variant:normal;font-weight:bold;font-stretch:normal;font-size:145.633px;font-family:'Noto Sans';-inkscape-font-specification:'Noto Sans, Bold';font-variant-ligatures:normal;font-variant-caps:normal;font-variant-numeric:normal;font-variant-east-asian:normal;fill:#000000;fill-opacity:1;stroke-width:0.758506">A OVERH</tspan></text><path
     d="M 544.01125,128.90211 414.47368,258.51838 378.8233,222.86801 508.43957,93.330431 c 9.83731,-9.837304 25.81308,-9.837304 35.65038,0 9.8373,9.837309 9.8373,25.813079 0,35.650369 z m -147.32341,147.40212 -28.80362,28.80361 -28.41013,28.41012 v 0 l -3.62012,3.62014 -35.72907,-35.57169 32.03024,-32.03025 v 0 l 28.88232,-28.88232 z m -134.81037,36.27996 c 5.43018,0 10.62428,0.70829 15.66098,1.96746 l 45.40897,45.40898 c 1.25917,4.958 1.96747,10.23079 1.96747,15.66099 0,34.78469 -28.17404,62.95871 -62.95872,62.95871 H 152.32928 c 16.68407,-0.0787 29.5119,-9.12901 37.14565,-19.67459 7.47635,-10.3095 11.17518,-23.60953 9.8373,-36.75216 -0.23609,-2.12486 -0.31479,-4.32842 -0.31479,-6.53196 0,-34.78471 28.17403,-62.95873 62.95873,-62.95873 z m 86.80434,47.37644 213.19398,-213.19398 c 19.6746,-19.67461 19.6746,-51.547454 0,-71.222063 -19.67461,-19.674597 -51.54745,-19.674597 -71.22206,0 L 277.38105,288.81727 c -5.03671,-0.86568 -10.23079,-1.33788 -15.50358,-1.33788 -48.71432,0 -88.14222,39.42791 -88.14222,88.14223 0,3.06923 0.15739,6.13847 0.47219,9.129 1.41657,13.69353 -8.02724,28.56753 -21.87816,28.56753 h -3.77752 c -13.92961,0 -25.18349,11.25387 -25.18349,25.18349 0,13.92961 11.25388,25.18349 25.18349,25.18349 h 113.32571 c 48.71431,0 88.1422,-39.4279 88.1422,-88.14221 0,-5.3515 -0.47219,-10.54559 -1.33786,-15.58229 z M 257.78514,74.128014 c -17.23495,-17.234943 -45.09419,-17.234943 -62.32914,0 l -33.52552,33.525526 c -17.23495,17.23495 -17.23495,45.09418 0,62.32914 l 92.47063,92.47063 c 2.43964,-0.1574 4.95801,-0.2361 7.47636,-0.2361 2.12484,0 4.17101,0.0787 6.21717,0.1574 l 10.93907,-10.93908 -38.40482,-38.32613 60.28299,-60.28298 38.40481,38.40483 17.78585,-17.78585 z m 188.32528,223.975666 39.9788,39.9788 c 5.98107,5.98107 10.30949,13.30003 12.67044,21.40596 l 21.48467,73.03212 -73.03213,-21.48466 c -8.10594,-2.36096 -15.42489,-6.76807 -21.40596,-12.67044 l -39.9788,-39.9788 -10.86036,10.86038 c 0.0787,2.12486 0.1574,4.24972 0.1574,6.37458 0,2.51834 -0.0787,5.03669 -0.23611,7.47635 l 33.05332,33.05332 c 8.97162,8.97162 19.98941,15.50359 32.10896,19.04502 l 95.22507,28.01663 c 4.40711,1.33787 9.20771,0.0787 12.43435,-3.14794 3.22663,-3.22663 4.4858,-8.02723 3.14793,-12.43435 l -28.01663,-95.22506 c -3.54142,-12.11956 -10.15209,-23.13734 -19.04501,-32.10896 l -39.97879,-39.97879 -17.78585,17.78584 z M 213.24184,91.913858 c 7.39765,-7.39765 19.35981,-7.39765 26.67877,0 l 43.20542,43.126722 -60.28298,60.28298 -43.12673,-43.12673 c -7.39765,-7.39765 -7.39765,-19.3598 0,-26.67875 l 33.52552,-33.525524 z"
     id="path1"
     style="stroke-width:0.786984" /></svg>
