<?xml version="1.0" encoding="UTF-8" standalone="no"?>
<svg
   viewBox="0 0 700 700"
   version="1.1"
   id="svg1"
   sodipodi:docname="camera_screen_anja_dp2_black.svg"
   width="700"
   height="700"
   inkscape:version="1.3.2 (091e20ef0f, 2023-11-25)"
   xml:space="preserve"
   xmlns:inkscape="http://www.inkscape.org/namespaces/inkscape"
   xmlns:sodipodi="http://sodipodi.sourceforge.net/DTD/sodipodi-0.dtd"
   xmlns="http://www.w3.org/2000/svg"
   xmlns:svg="http://www.w3.org/2000/svg"><defs
     id="defs1" /><sodipodi:namedview
     id="namedview1"
     pagecolor="#ffffff"
     bordercolor="#000000"
     borderopacity="0.25"
     inkscape:showpageshadow="2"
     inkscape:pageopacity="0.0"
     inkscape:pagecheckerboard="0"
     inkscape:deskcolor="#d1d1d1"
     inkscape:zoom="1.40625"
     inkscape:cx="393.6"
     inkscape:cy="338.84444"
     inkscape:window-width="1895"
     inkscape:window-height="1347"
     inkscape:window-x="0"
     inkscape:window-y="0"
     inkscape:window-maximized="1"
     inkscape:current-layer="svg1" /><!--! Font Awesome Pro 6.4.2 by @fontawesome - https://fontawesome.com License - https://fontawesome.com/license (Commercial License) Copyright 2023 Fonticons, Inc. --><text
     xml:space="preserve"
     style="font-weight:bold;font-size:72.8165px;font-family:'Noto Sans';-inkscape-font-specification:'Noto Sans, Bold';text-align:center;text-anchor:middle;fill:#000000;fill-opacity:1;stroke-width:0.758506"
     x="361.57785"
     y="632.11481"
     id="text1"><tspan
       sodipodi:role="line"
       id="tspan1"
       x="361.57785"
       y="632.11481"
       style="font-style:normal;font-variant:normal;font-weight:bold;font-stretch:normal;font-size:145.633px;font-family:'Noto Sans';-inkscape-font-specification:'Noto Sans, Bold';font-variant-ligatures:normal;font-variant-caps:normal;font-variant-numeric:normal;font-variant-east-asian:normal;fill:#000000;fill-opacity:1;stroke-width:0.758506">ANJA 2</tspan></text><path
     d="m 175.02673,87.362848 c -13.82601,0 -24.99618,11.170173 -24.99618,24.996182 v 224.96563 c 0,13.82601 11.17017,24.99618 24.99618,24.99618 h 130.99561 c 0.15623,0 0.31245,0 0.46868,0 h 87.01795 c 0.15623,0 0.31245,0 0.46868,0 h 130.99561 c 13.82601,0 24.99618,-11.17017 24.99618,-24.99618 V 112.35903 c 0,-13.826009 -11.17017,-24.996182 -24.99618,-24.996182 z M 291.49331,387.31702 H 175.02673 c -27.5739,0 -49.99235,-22.41845 -49.99235,-49.99236 V 112.35903 c 0,-27.57391 22.41845,-49.992363 49.99235,-49.992363 h 349.94653 c 27.57391,0 49.99236,22.418453 49.99236,49.992363 v 224.96563 c 0,27.57391 -22.41845,49.99236 -49.99236,49.99236 H 408.50668 l 8.3581,49.99236 h 45.61803 c 6.87395,0 12.49809,5.62414 12.49809,12.49809 0,6.87395 -5.62414,12.49809 -12.49809,12.49809 H 406.2414 293.7586 237.51718 c -6.87395,0 -12.49808,-5.62414 -12.49808,-12.49809 0,-6.87395 5.62414,-12.49809 12.49808,-12.49809 h 45.61804 z m 25.30865,0 -8.35812,49.99236 h 83.03419 l -8.3581,-49.99236 h -66.23987 z"
     id="path1-3"
     style="stroke-width:0.781131" /></svg>
