<?xml version="1.0" encoding="UTF-8" standalone="no"?>
<svg
   viewBox="0 0 700 700"
   version="1.1"
   id="svg1"
   sodipodi:docname="camera_kitchen_overhead_black.svg"
   width="700"
   height="700"
   inkscape:version="1.3.2 (091e20ef0f, 2023-11-25)"
   xml:space="preserve"
   xmlns:inkscape="http://www.inkscape.org/namespaces/inkscape"
   xmlns:sodipodi="http://sodipodi.sourceforge.net/DTD/sodipodi-0.dtd"
   xmlns="http://www.w3.org/2000/svg"
   xmlns:svg="http://www.w3.org/2000/svg"><defs
     id="defs1" /><sodipodi:namedview
     id="namedview1"
     pagecolor="#ffffff"
     bordercolor="#000000"
     borderopacity="0.25"
     inkscape:showpageshadow="2"
     inkscape:pageopacity="0.0"
     inkscape:pagecheckerboard="0"
     inkscape:deskcolor="#d1d1d1"
     inkscape:zoom="1.40625"
     inkscape:cx="393.6"
     inkscape:cy="338.84444"
     inkscape:window-width="1895"
     inkscape:window-height="1347"
     inkscape:window-x="0"
     inkscape:window-y="0"
     inkscape:window-maximized="1"
     inkscape:current-layer="svg1" /><!--! Font Awesome Pro 6.4.2 by @fontawesome - https://fontawesome.com License - https://fontawesome.com/license (Commercial License) Copyright 2023 Fonticons, Inc. --><text
     xml:space="preserve"
     style="font-weight:bold;font-size:72.8165px;font-family:'Noto Sans';-inkscape-font-specification:'Noto Sans, Bold';text-align:center;text-anchor:middle;fill:#000000;fill-opacity:1;stroke-width:0.758506"
     x="345.45447"
     y="632.11481"
     id="text1"><tspan
       sodipodi:role="line"
       id="tspan1"
       x="345.45444"
       y="632.11481"
       style="font-style:normal;font-variant:normal;font-weight:bold;font-stretch:normal;font-size:145.633px;font-family:'Noto Sans';-inkscape-font-specification:'Noto Sans, Bold';font-variant-ligatures:normal;font-variant-caps:normal;font-variant-numeric:normal;font-variant-east-asian:normal;fill:#000000;fill-opacity:1;stroke-width:0.758506">OVERHEA</tspan></text><path
     d="m 249.44584,86.166319 c -27.73096,0 -50.27708,22.546121 -50.27708,50.277081 v 50.27708 H 500.83125 V 136.4434 c 0,-27.73096 -22.54613,-50.277081 -50.27708,-50.277081 z M 199.16876,211.85902 v 201.10834 c 0,13.90475 11.23378,25.13853 25.13853,25.13853 h 251.38542 c 13.90475,0 25.13854,-11.23378 25.13854,-25.13853 V 211.85902 Z M 174.03021,136.4434 c 0,-41.635711 33.77992,-75.415623 75.41563,-75.415623 h 201.10833 c 41.63571,0 75.41562,33.779912 75.41562,75.415623 v 276.52396 c 0,27.73094 -22.54613,50.27708 -50.27708,50.27708 H 224.30729 c -27.73095,0 -50.27708,-22.54614 -50.27708,-50.27708 z m 81.70026,-12.56927 a 18.853907,18.853907 0 1 1 0,37.7078 18.853907,18.853907 0 1 1 0,-37.7078 z m 43.99245,18.8539 a 18.853907,18.853907 0 1 1 37.70781,0 18.853907,18.853907 0 1 1 -37.70781,0 z m 81.70026,-18.8539 a 18.853907,18.853907 0 1 1 0,37.7078 18.853907,18.853907 0 1 1 0,-37.7078 z m 43.99245,18.8539 a 18.853907,18.853907 0 1 1 37.70781,0 18.853907,18.853907 0 1 1 -37.70781,0 z M 249.44584,262.1361 V 387.82881 H 450.55417 V 262.1361 Z m -25.13855,0 c 0,-13.90475 11.23379,-25.13854 25.13855,-25.13854 h 201.10833 c 13.90476,0 25.13854,11.23379 25.13854,25.13854 v 125.69271 c 0,13.90476 -11.23378,25.13855 -25.13854,25.13855 H 249.44584 c -13.90476,0 -25.13855,-11.23379 -25.13855,-25.13855 z m 50.27708,37.70782 c 0,-6.9131 5.65618,-12.56927 12.56928,-12.56927 h 125.69271 c 6.9131,0 12.56927,5.65617 12.56927,12.56927 0,6.9131 -5.65617,12.56927 -12.56927,12.56927 H 287.15365 c -6.9131,0 -12.56928,-5.65617 -12.56928,-12.56927 z"
     id="path1-5"
     style="stroke-width:0.78558" /></svg>
