<?xml version="1.0" encoding="UTF-8" standalone="no"?>
<svg
   viewBox="0 0 700 700"
   version="1.1"
   id="svg1"
   sodipodi:docname="camera_kitchen_overhead_black.svg"
   width="700"
   height="700"
   inkscape:version="1.3.2 (091e20ef0f, 2023-11-25)"
   xml:space="preserve"
   xmlns:inkscape="http://www.inkscape.org/namespaces/inkscape"
   xmlns:sodipodi="http://sodipodi.sourceforge.net/DTD/sodipodi-0.dtd"
   xmlns="http://www.w3.org/2000/svg"
   xmlns:svg="http://www.w3.org/2000/svg"><defs
     id="defs1" /><sodipodi:namedview
     id="namedview1"
     pagecolor="#ffffff"
     bordercolor="#000000"
     borderopacity="0.25"
     inkscape:showpageshadow="2"
     inkscape:pageopacity="0.0"
     inkscape:pagecheckerboard="0"
     inkscape:deskcolor="#d1d1d1"
     inkscape:zoom="1.40625"
     inkscape:cx="393.6"
     inkscape:cy="338.84444"
     inkscape:window-width="1895"
     inkscape:window-height="1347"
     inkscape:window-x="0"
     inkscape:window-y="0"
     inkscape:window-maximized="1"
     inkscape:current-layer="svg1" /><!--! Font Awesome Pro 6.4.2 by @fontawesome - https://fontawesome.com License - https://fontawesome.com/license (Commercial License) Copyright 2023 Fonticons, Inc. --><text
     xml:space="preserve"
     style="font-weight:bold;font-size:72.8165px;font-family:'Noto Sans';-inkscape-font-specification:'Noto Sans, Bold';text-align:center;text-anchor:middle;fill:#000000;fill-opacity:1;stroke-width:0.758506"
     x="345.45447"
     y="632.11481"
     id="text1"><tspan
       sodipodi:role="line"
       id="tspan1"
       x="345.45444"
       y="632.11481"
       style="font-style:normal;font-variant:normal;font-weight:bold;font-stretch:normal;font-size:145.633px;font-family:'Noto Sans';-inkscape-font-specification:'Noto Sans, Bold';font-variant-ligatures:normal;font-variant-caps:normal;font-variant-numeric:normal;font-variant-east-asian:normal;fill:#000000;fill-opacity:1;stroke-width:0.758506">OVERHEA</tspan></text><path
     d="m 249.4611,262.34444 a 87.971528,87.971528 0 1 0 0,-175.943054 87.971528,87.971528 0 1 0 0,175.943054 z m 112.39935,-75.40417 c -6.28369,56.55312 -54.19674,100.53889 -112.39935,100.53889 -62.44407,0 -113.10624,-50.66217 -113.10624,-113.10624 0,-62.44409 50.66217,-113.106254 113.10624,-113.106254 58.20261,0 106.19421,43.985764 112.39935,100.538884 h 53.0971 c 5.18403,-14.60956 19.16523,-25.13473 35.58134,-25.13473 h 75.40416 c 20.81469,0 37.70209,16.8874 37.70209,37.7021 0,20.81468 -16.8874,37.70208 -37.70209,37.70208 h -75.40416 c -16.41611,0 -30.39731,-10.52517 -35.58134,-25.13473 z M 350,312.61388 h 12.56736 25.13473 v -25.13472 c 0,-13.90265 11.23207,-25.13472 25.13471,-25.13472 h 75.40417 c 13.90264,0 25.13473,11.23207 25.13473,25.13472 v 25.13472 h 25.13471 12.56737 c 6.91204,0 12.56736,5.65531 12.56736,12.56736 0,6.91205 -5.65532,12.56737 -12.56736,12.56737 h -12.56737 v 87.97152 c 0,20.8147 -16.88738,37.70208 -37.70208,37.70208 H 400.26944 c -20.81469,0 -37.70208,-16.88738 -37.70208,-37.70208 V 337.74861 H 350 c -6.91205,0 -12.56736,-5.65532 -12.56736,-12.56737 0,-6.91205 5.65531,-12.56736 12.56736,-12.56736 z m 62.8368,0 h 75.40417 V 287.47916 H 412.8368 Z m -25.13471,25.13473 v 87.97152 c 0,6.91205 5.6553,12.56737 12.56735,12.56737 h 100.53889 c 6.91205,0 12.56737,-5.65532 12.56737,-12.56737 V 337.74861 Z M 525.94305,161.80555 h -75.40416 c -6.91205,0 -12.56737,5.65531 -12.56737,12.56737 0,6.91204 5.65532,12.56735 12.56737,12.56735 h 75.40416 c 6.91206,0 12.56736,-5.65531 12.56736,-12.56735 0,-6.91206 -5.6553,-12.56737 -12.56736,-12.56737 z M 287.1632,174.37292 a 37.70209,37.70209 0 1 0 -75.40418,0 37.70209,37.70209 0 1 0 75.40418,0 z m -100.53889,0 a 62.836805,62.836805 0 1 1 125.6736,0 62.836805,62.836805 0 1 1 -125.6736,0 z m -50.26945,276.48193 c 0,-6.91205 5.65532,-12.56735 12.56736,-12.56735 h 150.80833 c 6.91206,0 12.56736,5.6553 12.56736,12.56735 0,6.91206 -5.6553,12.56736 -12.56736,12.56736 H 148.92222 c -6.91204,0 -12.56736,-5.6553 -12.56736,-12.56736 z M 262.02847,337.74861 v 25.13471 h 12.56736 c 6.91205,0 12.56737,-5.6553 12.56737,-12.56735 0,-6.91205 -5.65532,-12.56736 -12.56737,-12.56736 z m 0,-25.13473 h 12.56736 c 20.8147,0 37.70208,16.8874 37.70208,37.70209 0,20.81468 -16.88738,37.70208 -37.70208,37.70208 h -12.56736 c 0,13.90264 -11.23208,25.13472 -25.13472,25.13472 h -50.26944 c -13.90265,0 -25.13473,-11.23208 -25.13473,-25.13472 v -62.83681 c 0,-6.91205 5.65531,-12.56736 12.56736,-12.56736 h 62.83681 12.56735 z m -25.13472,50.26944 v -25.13471 h -50.26944 v 50.26944 h 50.26944 z"
     id="path1"
     style="stroke-width:0.78546" /></svg>
