<?xml version="1.0" encoding="UTF-8" standalone="no"?>
<svg
   viewBox="0 0 700 700"
   version="1.1"
   id="svg1"
   sodipodi:docname="camera_bathroom_black.svg"
   width="700"
   height="700"
   inkscape:version="1.3.2 (091e20ef0f, 2023-11-25)"
   xml:space="preserve"
   xmlns:inkscape="http://www.inkscape.org/namespaces/inkscape"
   xmlns:sodipodi="http://sodipodi.sourceforge.net/DTD/sodipodi-0.dtd"
   xmlns="http://www.w3.org/2000/svg"
   xmlns:svg="http://www.w3.org/2000/svg"><defs
     id="defs1" /><sodipodi:namedview
     id="namedview1"
     pagecolor="#ffffff"
     bordercolor="#000000"
     borderopacity="0.25"
     inkscape:showpageshadow="2"
     inkscape:pageopacity="0.0"
     inkscape:pagecheckerboard="0"
     inkscape:deskcolor="#d1d1d1"
     inkscape:zoom="1.40625"
     inkscape:cx="394.31111"
     inkscape:cy="338.84444"
     inkscape:window-width="1895"
     inkscape:window-height="1347"
     inkscape:window-x="0"
     inkscape:window-y="0"
     inkscape:window-maximized="1"
     inkscape:current-layer="svg1" /><!--! Font Awesome Pro 6.4.2 by @fontawesome - https://fontawesome.com License - https://fontawesome.com/license (Commercial License) Copyright 2023 Fonticons, Inc. --><text
     xml:space="preserve"
     style="font-weight:bold;font-size:72.8165px;font-family:'Noto Sans';-inkscape-font-specification:'Noto Sans, Bold';text-align:center;text-anchor:middle;fill:#000000;fill-opacity:1;stroke-width:0.758506"
     x="347.66983"
     y="632.11481"
     id="text1"><tspan
       sodipodi:role="line"
       id="tspan1"
       x="347.66983"
       y="632.11481"
       style="font-style:normal;font-variant:normal;font-weight:bold;font-stretch:normal;font-size:145.633px;font-family:'Noto Sans';-inkscape-font-specification:'Noto Sans, Bold';font-variant-ligatures:normal;font-variant-caps:normal;font-variant-numeric:normal;font-variant-east-asian:normal;fill:#000000;fill-opacity:1;stroke-width:0.758506">BATHRO</tspan></text><path
     d="m 362.47422,124.57109 c 0,-20.66042 16.76223,-37.422652 37.42265,-37.422652 20.66043,0 37.42266,16.762232 37.42266,37.422652 v 24.94844 c 0,6.86082 5.6134,12.47422 12.47422,12.47422 6.86082,0 12.47422,-5.6134 12.47422,-12.47422 V 124.57109 C 462.26797,90.111065 434.3569,62.2 399.89687,62.2 c -34.46002,0 -62.37109,27.911065 -62.37109,62.37109 v 162.16485 h -62.37109 v -12.47422 c 0,-20.66043 -16.76223,-37.42266 -37.42266,-37.42266 h -49.89687 c -6.86082,0 -12.47422,5.6134 -12.47422,12.47422 0,6.86082 5.6134,12.47422 12.47422,12.47422 h 49.89687 c 6.86082,0 12.47422,5.6134 12.47422,12.47422 v 12.47422 h -87.31953 c -6.86082,0 -12.47422,5.6134 -12.47422,12.47422 0,6.86082 5.6134,12.47422 12.47422,12.47422 H 262.68047 350 h 87.31953 99.79375 c 6.86082,0 12.47422,-5.6134 12.47422,-12.47422 0,-6.86082 -5.6134,-12.47422 -12.47422,-12.47422 h -87.31953 v -12.47422 c 0,-6.86082 5.6134,-12.47422 12.47422,-12.47422 h 49.89687 c 6.86082,0 12.47422,-5.6134 12.47422,-12.47422 0,-6.86082 -5.6134,-12.47422 -12.47422,-12.47422 h -49.89687 c -20.66043,0 -37.42266,16.76223 -37.42266,37.42266 v 12.47422 H 362.47422 Z M 175.36094,336.63281 v 37.42266 c 0,48.25963 39.05989,87.31953 87.31953,87.31953 h 174.63906 c 48.25963,0 87.31953,-39.0599 87.31953,-87.31953 v -37.42266 h -24.94844 v 37.42266 c 0,34.46003 -27.91106,62.37109 -62.37109,62.37109 H 262.68047 c -34.46003,0 -62.3711,-27.91106 -62.3711,-62.37109 v -37.42266 z"
     id="path1-5"
     style="stroke-width:0.779639" /></svg>
