<?xml version="1.0" encoding="UTF-8" standalone="no"?>
<svg
   viewBox="0 0 700 700"
   version="1.1"
   id="svg1"
   sodipodi:docname="camera_shower_black.svg"
   width="700"
   height="700"
   inkscape:version="1.3.2 (091e20ef0f, 2023-11-25)"
   xml:space="preserve"
   xmlns:inkscape="http://www.inkscape.org/namespaces/inkscape"
   xmlns:sodipodi="http://sodipodi.sourceforge.net/DTD/sodipodi-0.dtd"
   xmlns="http://www.w3.org/2000/svg"
   xmlns:svg="http://www.w3.org/2000/svg"><defs
     id="defs1" /><sodipodi:namedview
     id="namedview1"
     pagecolor="#ffffff"
     bordercolor="#000000"
     borderopacity="0.25"
     inkscape:showpageshadow="2"
     inkscape:pageopacity="0.0"
     inkscape:pagecheckerboard="0"
     inkscape:deskcolor="#d1d1d1"
     inkscape:zoom="1.40625"
     inkscape:cx="394.31111"
     inkscape:cy="338.84444"
     inkscape:window-width="1895"
     inkscape:window-height="1347"
     inkscape:window-x="0"
     inkscape:window-y="0"
     inkscape:window-maximized="1"
     inkscape:current-layer="svg1" /><!--! Font Awesome Pro 6.4.2 by @fontawesome - https://fontawesome.com License - https://fontawesome.com/license (Commercial License) Copyright 2023 Fonticons, Inc. --><text
     xml:space="preserve"
     style="font-weight:bold;font-size:72.8165px;font-family:'Noto Sans';-inkscape-font-specification:'Noto Sans, Bold';text-align:center;text-anchor:middle;fill:#000000;fill-opacity:1;stroke-width:0.758506"
     x="361.57785"
     y="632.11481"
     id="text1"><tspan
       sodipodi:role="line"
       id="tspan1"
       x="361.57782"
       y="632.11481"
       style="font-style:normal;font-variant:normal;font-weight:bold;font-stretch:normal;font-size:145.633px;font-family:'Noto Sans';-inkscape-font-specification:'Noto Sans, Bold';font-variant-ligatures:normal;font-variant-caps:normal;font-variant-numeric:normal;font-variant-east-asian:normal;fill:#000000;fill-opacity:1;stroke-width:0.758506">SHOWER</tspan></text><path
     d="m 150.15104,136.84858 c 0,-25.60564 20.69865,-46.304294 46.30429,-46.304294 12.31213,0 24.08894,4.907016 32.74311,13.561184 l 25.07034,25.07034 c 0.4461,0.44608 0.9814,0.89218 1.51671,1.33828 -29.44204,39.16682 -26.31939,95.01748 9.2787,130.61556 l 4.19326,4.19326 -14.98867,14.98867 c -5.53154,5.53154 -5.53154,14.63181 0,20.16334 5.53153,5.53153 14.6318,5.53153 20.16333,0 l 171.2991,-171.29911 c 5.53154,-5.53154 5.53154,-14.63179 0,-20.16333 -5.53153,-5.53154 -14.6318,-5.53154 -20.16333,0 l -14.98867,14.98867 -4.19325,-4.19327 c -35.5981,-35.598093 -91.44874,-38.720731 -130.61558,-9.2787 -0.35686,-0.5353 -0.80296,-1.07061 -1.33827,-1.5167 L 249.36177,83.942141 C 235.3545,69.845646 216.26179,61.99444 196.45533,61.99444 c -41.30806,0 -74.85414,33.546074 -74.85414,74.85414 v 310.56885 c 0,7.85121 6.4237,14.27493 14.27493,14.27493 7.8512,0 14.27492,-6.42372 14.27492,-14.27493 z m 135.07649,3.12264 c 27.8361,-27.8361 73.06977,-27.8361 100.90587,0 l 4.19327,4.19326 -100.90589,100.9951 -4.19325,-4.19325 c -27.83612,-27.83611 -27.83612,-73.06978 0,-100.90589 z m 207.52173,71.90994 a 21.41239,21.41239 0 1 0 -42.82478,0 21.41239,21.41239 0 1 0 42.82478,0 z m -78.51209,78.51208 a 21.412389,21.412389 0 1 0 0,-42.82477 21.412389,21.412389 0 1 0 0,42.82477 z m -35.68731,35.68731 a 21.412396,21.412396 0 1 0 -42.82479,0 21.412396,21.412396 0 1 0 42.82479,0 z m 64.23715,49.96225 a 21.41239,21.41239 0 1 0 0,-42.82478 21.41239,21.41239 0 1 0 0,42.82478 z m -57.09971,57.09971 a 21.41239,21.41239 0 1 0 0,-42.82478 21.41239,21.41239 0 1 0 0,42.82478 z m 114.19941,-114.1994 a 21.412396,21.412396 0 1 0 0,-42.82479 21.412396,21.412396 0 1 0 0,42.82479 z m 78.51209,-78.5121 a 21.412388,21.412388 0 1 0 -42.82477,0 21.412388,21.412388 0 1 0 42.82477,0 z"
     id="path1"
     style="stroke-width:0.892184" /></svg>
