<?xml version="1.0" encoding="UTF-8" standalone="no"?>
<svg
   viewBox="0 0 700 700"
   version="1.1"
   id="svg1"
   sodipodi:docname="camera_window_black.svg"
   width="700"
   height="700"
   inkscape:version="1.3.2 (091e20ef0f, 2023-11-25)"
   xml:space="preserve"
   xmlns:inkscape="http://www.inkscape.org/namespaces/inkscape"
   xmlns:sodipodi="http://sodipodi.sourceforge.net/DTD/sodipodi-0.dtd"
   xmlns="http://www.w3.org/2000/svg"
   xmlns:svg="http://www.w3.org/2000/svg"><defs
     id="defs1" /><sodipodi:namedview
     id="namedview1"
     pagecolor="#ffffff"
     bordercolor="#000000"
     borderopacity="0.25"
     inkscape:showpageshadow="2"
     inkscape:pageopacity="0.0"
     inkscape:pagecheckerboard="0"
     inkscape:deskcolor="#d1d1d1"
     inkscape:zoom="1.40625"
     inkscape:cx="394.31111"
     inkscape:cy="338.84444"
     inkscape:window-width="1895"
     inkscape:window-height="1347"
     inkscape:window-x="0"
     inkscape:window-y="0"
     inkscape:window-maximized="1"
     inkscape:current-layer="svg1" /><!--! Font Awesome Pro 6.4.2 by @fontawesome - https://fontawesome.com License - https://fontawesome.com/license (Commercial License) Copyright 2023 Fonticons, Inc. --><text
     xml:space="preserve"
     style="font-weight:bold;font-size:72.8165px;font-family:'Noto Sans';-inkscape-font-specification:'Noto Sans, Bold';text-align:center;text-anchor:middle;fill:#000000;fill-opacity:1;stroke-width:0.758506"
     x="345.45447"
     y="632.11481"
     id="text1"><tspan
       sodipodi:role="line"
       id="tspan1"
       x="345.45447"
       y="632.11481"
       style="font-style:normal;font-variant:normal;font-weight:bold;font-stretch:normal;font-size:145.633px;font-family:'Noto Sans';-inkscape-font-specification:'Noto Sans, Bold';font-variant-ligatures:normal;font-variant-caps:normal;font-variant-numeric:normal;font-variant-east-asian:normal;fill:#000000;fill-opacity:1;stroke-width:0.758506">WINDOW</tspan></text><path
     d="m 174.26039,73.91394 v 37.65849 h 50.21132 V 73.91394 c 0,-6.904056 5.64877,-12.552829 12.55283,-12.552829 6.90406,0 12.55283,5.648773 12.55283,12.552829 v 37.65849 12.55283 12.55283 h -12.55283 -87.86981 c -13.88657,0 -25.10566,11.21909 -25.10566,25.10566 v 251.05659 c 0,13.88657 11.21909,25.10567 25.10566,25.10567 H 253.8924 c 3.29512,9.33616 8.39471,17.88778 14.90649,25.10566 H 149.15473 c -27.69468,0 -50.211325,-22.51664 -50.211325,-50.21133 V 161.78375 c 0,-27.69468 22.516645,-50.21132 50.211325,-50.21132 V 73.91394 c 0,-6.904056 5.64877,-12.552829 12.55283,-12.552829 6.90406,0 12.55283,5.648773 12.55283,12.552829 z m 326.37358,138.08113 c -13.88657,0 -25.10566,-11.21909 -25.10566,-25.10566 v -75.31698 c 0,-13.886569 -11.2191,-25.105667 -25.10567,-25.105667 H 324.89435 c -13.88657,0 -25.10567,11.219098 -25.10567,25.105667 v 301.26791 c 0,13.88657 11.2191,25.10567 25.10567,25.10567 h 25.10566 100.42263 100.42264 c 13.88657,0 25.10567,-11.2191 25.10567,-25.10567 V 237.10073 c 0,-13.88657 -11.2191,-25.10566 -25.10567,-25.10566 z m 0,-100.42264 v 50.21132 25.10566 h 25.10564 25.10566 c 27.69468,0 50.21133,22.51663 50.21133,50.21132 v 175.73961 c 0,27.69469 -22.51665,50.21133 -50.21133,50.21133 H 450.42264 350.00001 324.89435 c -27.69468,0 -50.21132,-22.51664 -50.21132,-50.21133 V 111.57243 c 0,-27.694683 22.51664,-50.211319 50.21132,-50.211319 h 125.52829 c 27.69469,0 50.21133,22.516636 50.21133,50.211319 z M 350.00001,368.90544 v -37.65849 c 0,-10.43454 8.3947,-18.82924 18.82924,-18.82924 h 37.65849 c 10.43454,0 18.82925,8.3947 18.82925,18.82924 v 37.65849 c 0,10.43454 -8.39471,18.82925 -18.82925,18.82925 h -37.65849 c -10.43454,0 -18.82924,-8.39471 -18.82924,-18.82925 z m 25.10565,-6.27641 h 25.10567 v -25.10567 h -25.10567 z m -6.27641,-251.0566 h 37.65849 c 10.43454,0 18.82925,8.3947 18.82925,18.82924 v 37.6585 c 0,10.43454 -8.39471,18.82924 -18.82925,18.82924 h -37.65849 c -10.43454,0 -18.82924,-8.3947 -18.82924,-18.82924 v -37.6585 c 0,-10.43454 8.3947,-18.82924 18.82924,-18.82924 z m 6.27641,50.21132 h 25.10567 V 136.67809 H 375.10566 Z M 350.00001,268.4828 v -37.65848 c 0,-10.43454 8.3947,-18.82925 18.82924,-18.82925 h 37.65849 c 10.43454,0 18.82925,8.39471 18.82925,18.82925 v 37.65848 c 0,10.43454 -8.39471,18.82925 -18.82925,18.82925 h -37.65849 c -10.43454,0 -18.82924,-8.39471 -18.82924,-18.82925 z m 25.10565,-6.27641 h 25.10567 v -25.10566 h -25.10567 z m 119.25189,150.63395 c -10.43454,0 -18.82924,-8.39469 -18.82924,-18.82923 v -37.6585 c 0,-10.43454 8.3947,-18.82925 18.82924,-18.82925 h 37.65849 c 10.43454,0 18.82924,8.39471 18.82924,18.82925 v 37.6585 c 0,10.43454 -8.3947,18.82923 -18.82924,18.82923 z m 6.27642,-50.21131 v 25.10566 h 25.10565 v -25.10566 z m -25.10566,-69.04057 v -37.65849 c 0,-10.43454 8.3947,-18.82924 18.82924,-18.82924 h 37.65849 c 10.43454,0 18.82924,8.3947 18.82924,18.82924 v 37.65849 c 0,10.43454 -8.3947,18.82925 -18.82924,18.82925 h -37.65849 c -10.43454,0 -18.82924,-8.39471 -18.82924,-18.82925 z m 25.10566,-6.27641 h 25.10565 v -25.10566 h -25.10565 z m -332.65,50.21131 c -10.43454,0 -18.82924,-8.39469 -18.82924,-18.82923 v -37.6585 c 0,-10.43454 8.3947,-18.82924 18.82924,-18.82924 h 37.6585 c 10.43454,0 18.82924,8.3947 18.82924,18.82924 v 37.6585 c 0,10.43454 -8.3947,18.82923 -18.82924,18.82923 z m 6.27642,-50.21131 v 25.10566 h 25.10566 v -25.10566 z m -25.10566,-69.04057 v -37.65849 c 0,-10.43454 8.3947,-18.82924 18.82924,-18.82924 h 37.6585 c 10.43454,0 18.82924,8.3947 18.82924,18.82924 v 37.65849 c 0,10.43454 -8.3947,18.82925 -18.82924,18.82925 h -37.6585 c -10.43454,0 -18.82924,-8.39471 -18.82924,-18.82925 z m 25.10566,-6.27641 h 25.10566 v -25.10566 h -25.10566 z"
     id="path1-5"
     style="stroke-width:0.784551" /></svg>
