<?xml version="1.0" encoding="UTF-8" standalone="no"?>
<svg
   viewBox="0 0 700 700"
   version="1.1"
   id="svg1"
   sodipodi:docname="camera_couch_black.svg"
   width="700"
   height="700"
   inkscape:version="1.3.2 (091e20ef0f, 2023-11-25)"
   xml:space="preserve"
   xmlns:inkscape="http://www.inkscape.org/namespaces/inkscape"
   xmlns:sodipodi="http://sodipodi.sourceforge.net/DTD/sodipodi-0.dtd"
   xmlns="http://www.w3.org/2000/svg"
   xmlns:svg="http://www.w3.org/2000/svg"><defs
     id="defs1" /><sodipodi:namedview
     id="namedview1"
     pagecolor="#ffffff"
     bordercolor="#000000"
     borderopacity="0.25"
     inkscape:showpageshadow="2"
     inkscape:pageopacity="0.0"
     inkscape:pagecheckerboard="0"
     inkscape:deskcolor="#d1d1d1"
     inkscape:zoom="1.40625"
     inkscape:cx="394.31111"
     inkscape:cy="338.84444"
     inkscape:window-width="1895"
     inkscape:window-height="1347"
     inkscape:window-x="0"
     inkscape:window-y="0"
     inkscape:window-maximized="1"
     inkscape:current-layer="svg1" /><!--! Font Awesome Pro 6.4.2 by @fontawesome - https://fontawesome.com License - https://fontawesome.com/license (Commercial License) Copyright 2023 Fonticons, Inc. --><text
     xml:space="preserve"
     style="font-weight:bold;font-size:72.8165px;font-family:'Noto Sans';-inkscape-font-specification:'Noto Sans, Bold';text-align:center;text-anchor:middle;fill:#000000;fill-opacity:1;stroke-width:0.758506"
     x="345.45447"
     y="632.11481"
     id="text1"><tspan
       sodipodi:role="line"
       id="tspan1"
       x="345.45444"
       y="632.11481"
       style="font-style:normal;font-variant:normal;font-weight:bold;font-stretch:normal;font-size:145.633px;font-family:'Noto Sans';-inkscape-font-specification:'Noto Sans, Bold';font-variant-ligatures:normal;font-variant-caps:normal;font-variant-numeric:normal;font-variant-east-asian:normal;fill:#000000;fill-opacity:1;stroke-width:0.758506">COUCH</tspan></text><path
     d="m 464.47793,90.419485 c 47.40102,0 85.85846,38.457435 85.85846,85.858455 v 33.53846 c 8.94359,-3.13026 18.60266,-4.91897 28.61948,-4.91897 v -28.61949 c 0,-63.23118 -51.24676,-114.477944 -114.47794,-114.477944 H 235.52206 c -63.23117,0 -114.47793,51.246764 -114.47793,114.477944 v 28.61949 c 10.01681,0 19.6759,1.69928 28.61949,4.91897 v -33.53846 c 0,-47.40102 38.45742,-85.858455 85.85844,-85.858455 z M 149.66362,319.37536 v 85.85845 14.30974 c 0,7.87036 -6.43939,14.30975 -14.30975,14.30975 h -28.61949 c -7.87035,0 -14.30974,-6.43939 -14.30974,-14.30975 V 290.75587 c 0,-15.83015 12.78934,-28.61948 28.61949,-28.61948 15.83015,0 28.61949,12.78933 28.61949,28.61948 z m -14.30975,143.09741 c 18.6921,0 34.61169,-11.9844 40.51446,-28.61947 h 348.26334 c 5.90278,16.63507 21.82236,28.61947 40.51447,28.61947 h 28.61947 c 23.70052,0 42.92923,-19.2287 42.92923,-42.92922 V 290.75587 c 0,-31.57087 -25.6681,-57.23897 -57.23897,-57.23897 -31.57086,0 -57.23897,25.6681 -57.23897,57.23897 H 178.2831 c 0,-31.57087 -25.6681,-57.23897 -57.23897,-57.23897 -31.57087,0 -57.23897,25.6681 -57.23897,57.23897 v 128.78768 c 0,23.70052 19.22872,42.92922 42.92922,42.92922 z m 42.92923,-57.23896 v -85.85845 h 343.4338 v 85.85845 z m 372.05329,14.30974 v -14.30974 -85.85845 -28.61949 c 0,-15.83015 12.78933,-28.61948 28.61948,-28.61948 15.83016,0 28.61949,12.78933 28.61949,28.61948 v 128.78768 c 0,7.87036 -6.43939,14.30975 -14.30975,14.30975 h -28.61947 c -7.87037,0 -14.30975,-6.43939 -14.30975,-14.30975 z"
     id="path1"
     style="stroke-width:0.894359" /></svg>
