<?xml version="1.0" encoding="UTF-8" standalone="no"?>
<svg
   viewBox="0 0 700 700"
   version="1.1"
   id="svg1"
   sodipodi:docname="category_unrestricted_active_back.svg"
   width="700"
   height="700"
   xml:space="preserve"
   inkscape:version="1.3.2 (091e20ef0f, 2023-11-25)"
   xmlns:inkscape="http://www.inkscape.org/namespaces/inkscape"
   xmlns:sodipodi="http://sodipodi.sourceforge.net/DTD/sodipodi-0.dtd"
   xmlns="http://www.w3.org/2000/svg"
   xmlns:svg="http://www.w3.org/2000/svg"><defs
     id="defs1" /><sodipodi:namedview
     id="namedview1"
     pagecolor="#ffffff"
     bordercolor="#000000"
     borderopacity="0.25"
     inkscape:showpageshadow="2"
     inkscape:pageopacity="0.0"
     inkscape:pagecheckerboard="0"
     inkscape:deskcolor="#d1d1d1"
     inkscape:zoom="0.703125"
     inkscape:cx="511.28889"
     inkscape:cy="393.24444"
     inkscape:window-width="1895"
     inkscape:window-height="1347"
     inkscape:window-x="0"
     inkscape:window-y="0"
     inkscape:window-maximized="1"
     inkscape:current-layer="svg1" /><!--! Font Awesome Pro 6.4.2 by @fontawesome - https://fontawesome.com License - https://fontawesome.com/license (Commercial License) Copyright 2023 Fonticons, Inc. --><path
     d="m 512,246 a 104,104 0 1 1 0,208 104,104 0 1 1 0,-208 z m 0,232 a 128,128 0 1 0 0,-256 128,128 0 1 0 0,256 z M 469.75,290.95 c -3.05,-4.2 -8.45,-6 -13.4,-4.4 -4.95,1.6 -8.3,6.2 -8.3,11.4 V 402 c 0,6.65 5.35,12 12,12 6.65,0 12,-5.35 12,-12 V 335.1 L 502.3,377 c 2.25,3.1 5.85,4.95 9.75,4.95 3.9,0 7.45,-1.85 9.75,-4.95 L 552,335.1 V 402 c 0,6.65 5.35,12 12,12 6.65,0 12,-5.35 12,-12 V 298 c 0,-5.2 -3.35,-9.8 -8.3,-11.4 -4.95,-1.6 -10.35,0.15 -13.4,4.4 L 512,349.5 Z"
     id="path1"
     style="stroke-width:0.5;fill:#ffffff;fill-opacity:1" /><path
     d="m 63.7,358.73465 c -2.35,-2.3 -3.7,-5.4 -3.7,-8.7 0,-3.3 1.35,-6.4 3.7,-8.7 l 88,-84 c 4.8,-4.6 12.4,-4.4 16.95,0.4 4.55,4.8 4.4,12.4 -0.4,16.95 l -66.3,63.35 H 272 c 6.65,0 12,5.35 12,12 0,6.65 -5.35,12 -12,12 H 101.95 l 66.35,63.3 c 4.8,4.6 4.95,12.15 0.4,16.95 -4.55,4.8 -12.15,4.95 -16.95,0.4 l -88,-84 z"
     id="path1-5"
     style="stroke-width:0.5;fill:#ffffff;fill-opacity:1" /><text
     xml:space="preserve"
     style="font-weight:bold;font-size:72.8165px;font-family:'Noto Sans';-inkscape-font-specification:'Noto Sans, Bold';text-align:center;text-anchor:middle;fill:#ffffff;fill-opacity:1;stroke-width:0.758506"
     x="345.26697"
     y="637.68591"
     id="text1"><tspan
       sodipodi:role="line"
       id="tspan1"
       x="345.26697"
       y="637.68591"
       style="font-style:normal;font-variant:normal;font-weight:bold;font-stretch:normal;font-size:145.633px;font-family:'Noto Sans';-inkscape-font-specification:'Noto Sans, Bold';font-variant-ligatures:normal;font-variant-caps:normal;font-variant-numeric:normal;font-variant-east-asian:normal;fill:#ffffff;fill-opacity:1;stroke-width:0.758506">ACTIVE</tspan></text><text
     xml:space="preserve"
     style="font-weight:bold;font-size:72.8165px;font-family:'Noto Sans';-inkscape-font-specification:'Noto Sans, Bold';text-align:center;text-anchor:middle;fill:#ffffff;stroke-width:0.758506;fill-opacity:1"
     x="345.26697"
     y="177.43829"
     id="text1-9"><tspan
       sodipodi:role="line"
       id="tspan1-7"
       x="345.26697"
       y="177.43829"
       style="font-style:normal;font-variant:normal;font-weight:bold;font-stretch:normal;font-size:145.633px;font-family:'Noto Sans';-inkscape-font-specification:'Noto Sans, Bold';font-variant-ligatures:normal;font-variant-caps:normal;font-variant-numeric:normal;font-variant-east-asian:normal;fill:#ffffff;stroke-width:0.758506;fill-opacity:1">UNCUT</tspan></text></svg>
