<?xml version="1.0" encoding="UTF-8" standalone="no"?>
<svg
   viewBox="0 0 700 700"
   version="1.1"
   id="svg1"
   sodipodi:docname="category_restricted_passive_forward_black.svg"
   width="700"
   height="700"
   xml:space="preserve"
   inkscape:version="1.3.2 (091e20ef0f, 2023-11-25)"
   xmlns:inkscape="http://www.inkscape.org/namespaces/inkscape"
   xmlns:sodipodi="http://sodipodi.sourceforge.net/DTD/sodipodi-0.dtd"
   xmlns="http://www.w3.org/2000/svg"
   xmlns:svg="http://www.w3.org/2000/svg"><defs
     id="defs1" /><sodipodi:namedview
     id="namedview1"
     pagecolor="#ffffff"
     bordercolor="#000000"
     borderopacity="0.25"
     inkscape:showpageshadow="2"
     inkscape:pageopacity="0.0"
     inkscape:pagecheckerboard="0"
     inkscape:deskcolor="#d1d1d1"
     inkscape:zoom="0.703125"
     inkscape:cx="249.6"
     inkscape:cy="344.88889"
     inkscape:window-width="1895"
     inkscape:window-height="1347"
     inkscape:window-x="0"
     inkscape:window-y="0"
     inkscape:window-maximized="1"
     inkscape:current-layer="svg1" /><!--! Font Awesome Pro 6.4.2 by @fontawesome - https://fontawesome.com License - https://fontawesome.com/license (Commercial License) Copyright 2023 Fonticons, Inc. --><path
     d="m 635.9,358.73465 c 2.35,-2.3 3.7,-5.4 3.7,-8.7 0,-3.3 -1.35,-6.4 -3.7,-8.7 l -88,-84 c -4.8,-4.6 -12.4,-4.4 -16.95,0.4 -4.55,4.8 -4.4,12.4 0.4,16.95 l 66.3,63.35 H 427.6 c -6.65,0 -12,5.35 -12,12 0,6.65 5.35,12 12,12 h 170.05 l -66.35,63.3 c -4.8,4.6 -4.95,12.15 -0.4,16.95 4.55,4.8 12.15,4.95 16.95,0.4 l 88,-84 z"
     id="path1-5"
     style="fill:#000000;fill-opacity:1;stroke-width:0.5" /><text
     xml:space="preserve"
     style="font-weight:bold;font-size:72.8165px;font-family:'Noto Sans';-inkscape-font-specification:'Noto Sans, Bold';text-align:center;text-anchor:middle;fill:#000000;fill-opacity:1;stroke-width:0.758506"
     x="345.26697"
     y="637.68591"
     id="text1"><tspan
       sodipodi:role="line"
       id="tspan1"
       x="345.26697"
       y="637.68591"
       style="font-style:normal;font-variant:normal;font-weight:bold;font-stretch:normal;font-size:145.633px;font-family:'Noto Sans';-inkscape-font-specification:'Noto Sans, Bold';font-variant-ligatures:normal;font-variant-caps:normal;font-variant-numeric:normal;font-variant-east-asian:normal;fill:#000000;fill-opacity:1;stroke-width:0.758506">PASSIVE</tspan></text><text
     xml:space="preserve"
     style="font-weight:bold;font-size:72.8165px;font-family:'Noto Sans';-inkscape-font-specification:'Noto Sans, Bold';text-align:center;text-anchor:middle;fill:#000000;stroke-width:0.758506;fill-opacity:1"
     x="345.26697"
     y="177.43829"
     id="text1-9"><tspan
       sodipodi:role="line"
       id="tspan1-7"
       x="345.26697"
       y="177.43829"
       style="font-style:normal;font-variant:normal;font-weight:bold;font-stretch:normal;font-size:145.633px;font-family:'Noto Sans';-inkscape-font-specification:'Noto Sans, Bold';font-variant-ligatures:normal;font-variant-caps:normal;font-variant-numeric:normal;font-variant-east-asian:normal;fill:#000000;stroke-width:0.758506;fill-opacity:1">UNCUT</tspan></text><path
     d="m 188.34007,245.81208 a 104.22689,104.22689 0 1 1 0,208.45377 104.22689,104.22689 0 1 1 0,-208.45377 z m 0,232.50613 a 128.27925,128.27925 0 1 0 0,-256.55849 128.27925,128.27925 0 1 0 0,256.55849 z M 153.41404,290.15862 c -4.30938,-5.06103 -11.87585,-5.71244 -16.93688,-1.40306 -5.06101,4.30939 -5.71243,11.87586 -1.40305,16.93688 l 37.53171,44.34652 -37.53171,44.34654 c -4.30938,5.06101 -3.65796,12.67759 1.40305,16.93687 5.06103,4.25928 12.67761,3.65796 16.93688,-1.40305 l 34.92603,-41.23978 34.92603,41.23978 c 4.30937,5.06101 11.87584,5.71243 16.93687,1.40305 5.06101,-4.30938 5.71242,-11.87586 1.40306,-16.93687 l -37.53171,-44.34654 37.53171,-44.34652 c 4.30936,-5.06102 3.65795,-12.67761 -1.40306,-16.93688 -5.06103,-4.25927 -12.6776,-3.65797 -16.93687,1.40306 l -34.92603,41.23976 z"
     id="path1"
     style="fill:#000000;fill-opacity:1;stroke-width:0.501092" /></svg>
