<?xml version="1.0" encoding="UTF-8" standalone="no"?>
<svg
   viewBox="0 0 700 700"
   version="1.1"
   id="svg1"
   sodipodi:docname="category_restricted_passive2.svg"
   width="700"
   height="700"
   xml:space="preserve"
   inkscape:version="1.3.2 (091e20ef0f, 2023-11-25)"
   xmlns:inkscape="http://www.inkscape.org/namespaces/inkscape"
   xmlns:sodipodi="http://sodipodi.sourceforge.net/DTD/sodipodi-0.dtd"
   xmlns="http://www.w3.org/2000/svg"
   xmlns:svg="http://www.w3.org/2000/svg"><defs
     id="defs1" /><sodipodi:namedview
     id="namedview1"
     pagecolor="#ffffff"
     bordercolor="#000000"
     borderopacity="0.25"
     inkscape:showpageshadow="2"
     inkscape:pageopacity="0.0"
     inkscape:pagecheckerboard="0"
     inkscape:deskcolor="#d1d1d1"
     inkscape:zoom="0.703125"
     inkscape:cx="630.75556"
     inkscape:cy="381.86667"
     inkscape:window-width="1895"
     inkscape:window-height="1347"
     inkscape:window-x="0"
     inkscape:window-y="0"
     inkscape:window-maximized="1"
     inkscape:current-layer="svg1" /><!--! Font Awesome Pro 6.4.2 by @fontawesome - https://fontawesome.com License - https://fontawesome.com/license (Commercial License) Copyright 2023 Fonticons, Inc. --><text
     xml:space="preserve"
     style="font-weight:bold;font-size:72.8165px;font-family:'Noto Sans';-inkscape-font-specification:'Noto Sans, Bold';text-align:center;text-anchor:middle;fill:#ffffff;fill-opacity:1;stroke-width:0.758506"
     x="345.26697"
     y="637.68591"
     id="text1"><tspan
       sodipodi:role="line"
       id="tspan1"
       x="345.26697"
       y="637.68591"
       style="font-style:normal;font-variant:normal;font-weight:bold;font-stretch:normal;font-size:145.633px;font-family:'Noto Sans';-inkscape-font-specification:'Noto Sans, Bold';font-variant-ligatures:normal;font-variant-caps:normal;font-variant-numeric:normal;font-variant-east-asian:normal;fill:#ffffff;fill-opacity:1;stroke-width:0.758506">PASSIVE</tspan></text><text
     xml:space="preserve"
     style="font-weight:bold;font-size:72.8165px;font-family:'Noto Sans';-inkscape-font-specification:'Noto Sans, Bold';text-align:center;text-anchor:middle;fill:#ffffff;stroke-width:0.758506;fill-opacity:1"
     x="345.26697"
     y="177.43829"
     id="text1-9"><tspan
       sodipodi:role="line"
       id="tspan1-7"
       x="345.26697"
       y="177.43829"
       style="font-style:normal;font-variant:normal;font-weight:bold;font-stretch:normal;font-size:145.633px;font-family:'Noto Sans';-inkscape-font-specification:'Noto Sans, Bold';font-variant-ligatures:normal;font-variant-caps:normal;font-variant-numeric:normal;font-variant-east-asian:normal;fill:#ffffff;stroke-width:0.758506;fill-opacity:1">UNCUT</tspan></text><path
     d="m 381.70001,291.31282 c 3.7,2.15 6,6.1 6,10.4 v 92 h 20 c 6.65,0 12,5.35 12,12 0,6.65 -5.35,12 -12,12 h -32 H 343.7 c -6.65,0 -12,-5.35 -12,-12 0,-6.65 5.35,-12 12,-12 h 20.00001 v -71.3 l -10.05,5.75 c -5.75,3.3 -13.10001,1.3 -16.35001,-4.45 -3.25,-5.75 -1.3,-13.1 4.45,-16.35 l 28.00001,-16 c 3.7,-2.1 8.3,-2.1 12,0.05 z"
     id="path1-1"
     style="stroke-width:0.5;fill:#ffffff;fill-opacity:1" /><path
     d="m 474.89448,291.06666 c 19.90001,0 36.00001,16.1 36.00001,36 0,7.85 -2.5,15.05 -6.75,21 9,7.35 14.75,18.5 14.75,31 0,22.1 -17.9,40 -40.00001,40 h -16 c -22.10002,0 -40.00002,-17.9 -40.00002,-40 0,-12.5 5.75,-23.7 14.75,-31 -4.25,-5.95 -6.75,-13.15 -6.75,-21 0,-19.9 16.10002,-36 36.00002,-36 z m -8,48 v 0 h 8 v 0 c 6.6,0 12,-5.4 12,-12 0,-6.6 -5.35,-12 -12,-12 h -8 c -6.65,0 -12,5.35 -12,12 0,6.65 5.35,12 12,12 z m 8,24 h -8 -4 c -8.85,0 -16,7.15 -16,16 0,8.85 7.15,16 16,16 h 16 c 8.85,0 16.00001,-7.15 16.00001,-16 0,-8.85 -7.15001,-16 -16.00001,-16 z"
     id="path1-15"
     style="stroke-width:0.5;fill:#ffffff;fill-opacity:1" /><path
     d="m 571.71664,404.24445 c 0,6.65 5.35,12 12,12 6.65,0 12,-5.35 12,-12 v -32 h 32 c 6.65,0 12,-5.35 12,-12 0,-6.65 -5.35,-12 -12,-12 h -32 v -32 c 0,-6.65 -5.35,-12 -12,-12 -6.65,0 -12,5.35 -12,12 v 32 h -32 c -6.65,0 -12,5.35 -12,12 0,6.65 5.35,12 12,12 h 32 z"
     id="path1-6"
     style="stroke-width:0.5;fill:#ffffff;fill-opacity:1" /><path
     d="m 189.97769,245.71769 a 104.22689,104.22689 0 1 1 0,208.45377 104.22689,104.22689 0 1 1 0,-208.45377 z m 0,232.50613 a 128.27925,128.27925 0 1 0 0,-256.55849 128.27925,128.27925 0 1 0 0,256.55849 z M 155.05166,290.06423 c -4.30938,-5.06103 -11.87585,-5.71244 -16.93688,-1.40306 -5.06101,4.30939 -5.71243,11.87586 -1.40305,16.93688 l 37.53171,44.34652 -37.53171,44.34654 c -4.30938,5.06101 -3.65796,12.67759 1.40305,16.93687 5.06103,4.25928 12.67761,3.65796 16.93688,-1.40305 l 34.92603,-41.23978 34.92603,41.23978 c 4.30937,5.06101 11.87584,5.71243 16.93687,1.40305 5.06101,-4.30938 5.71242,-11.87586 1.40306,-16.93687 l -37.53171,-44.34654 37.53171,-44.34652 c 4.30936,-5.06102 3.65795,-12.67761 -1.40306,-16.93688 -5.06103,-4.25927 -12.6776,-3.65797 -16.93687,1.40306 l -34.92603,41.23976 z"
     id="path1-2"
     style="fill:#ffffff;fill-opacity:1;stroke-width:0.501092" /></svg>
