<?xml version="1.0" encoding="UTF-8" standalone="no"?>
<svg
   viewBox="0 0 700 700"
   version="1.1"
   id="svg1"
   sodipodi:docname="censor_all_pink_dark.svg"
   width="700"
   height="700"
   inkscape:version="1.3.2 (091e20ef0f, 2023-11-25)"
   xml:space="preserve"
   xmlns:inkscape="http://www.inkscape.org/namespaces/inkscape"
   xmlns:sodipodi="http://sodipodi.sourceforge.net/DTD/sodipodi-0.dtd"
   xmlns="http://www.w3.org/2000/svg"
   xmlns:svg="http://www.w3.org/2000/svg"><defs
     id="defs1"><inkscape:path-effect
       effect="powerclip"
       id="path-effect6"
       is_visible="true"
       lpeversion="1"
       inverse="true"
       flatten="false"
       hide_clip="false"
       message="Use fill-rule evenodd on &lt;b&gt;fill and stroke&lt;/b&gt; dialog if no flatten result after convert clip to paths." /><clipPath
       clipPathUnits="userSpaceOnUse"
       id="clipPath6"><path
         d="m 68.517525,158.94133 c -10.4,-8.2 -25.5,-6.3 -33.7,4.1 -8.2,10.40001 -6.3,25.5 4.1,33.7 L 630.91752,660.74129 c 10.4,8.2 25.5,6.29999 33.7,-4.1 8.2,-10.4 6.3,-25.5 -4.1,-33.70001 z"
         id="path6"
         style="display:none;fill:#ffffff;fill-opacity:1" /><path
         id="lpe_path-effect6"
         style="fill:#ffffff;fill-opacity:1"
         class="powerclip"
         d="M 56.725437,89.0125 H 673.00562 V 611.0056 H 56.725437 Z m 11.792088,69.92883 c -10.4,-8.2 -25.5,-6.3 -33.7,4.1 -8.2,10.40001 -6.3,25.5 4.1,33.7 L 630.91752,660.74129 c 10.4,8.2 25.5,6.29999 33.7,-4.1 8.2,-10.4 6.3,-25.5 -4.1,-33.70001 z" /></clipPath></defs><sodipodi:namedview
     id="namedview1"
     pagecolor="#ffffff"
     bordercolor="#000000"
     borderopacity="0.25"
     inkscape:showpageshadow="2"
     inkscape:pageopacity="0.0"
     inkscape:pagecheckerboard="0"
     inkscape:deskcolor="#d1d1d1"
     inkscape:zoom="0.88388348"
     inkscape:cx="153.30075"
     inkscape:cy="315.08678"
     inkscape:window-width="1895"
     inkscape:window-height="1347"
     inkscape:window-x="0"
     inkscape:window-y="0"
     inkscape:window-maximized="1"
     inkscape:current-layer="svg1" /><!--! Font Awesome Pro 6.4.2 by @fontawesome - https://fontawesome.com License - https://fontawesome.com/license (Commercial License) Copyright 2023 Fonticons, Inc. --><g
     id="g6"
     clip-path="url(#clipPath6)"
     inkscape:path-effect="#path-effect6"
     transform="translate(-14.865528,-0.00904816)"
     style="fill:#a162b6;fill-opacity:1"><path
       d="m 339.37985,97.9875 c 6,-5.3 15.1,-5.3 21.2,0 l 85.4,75.4 v -23.4 c 0,-13.3 10.7,-24 24,-24 h 80 c 13.3,0 24,10.7 24,24 v 136.3 l 58.6,51.7 c 6.6,5.8 7.3,16 1.4,22.6 -5.9,6.6 -16,7.3 -22.6,1.4 l -37.4,-33 v 197 c 0,44.2 -35.8,80 -80,80 h -288 c -44.2,0 -80,-35.8 -80,-80 v -197 l -37.400006,33 c -6.6,5.8 -16.8,5.2 -22.6,-1.4 -5.8,-6.6 -5.2,-16.8 1.4,-22.6 z m 202.6,160.1 v -100.1 h -64 v 43.6 z m -384,42.6 v 225.3 c 0,26.5 21.5,48 48,48 h 64 v -160 c 0,-17.7 14.3,-32 32,-32 h 96 c 17.7,0 32,14.3 32,32 v 160 h 64 c 26.5,0 48,-21.5 48,-48 v -225.3 l -192,-169.4 z m 240,113.3 h -96 v 160 h 96 z"
       id="path1"
       inkscape:original-d="m 339.37985,97.9875 c 6,-5.3 15.1,-5.3 21.2,0 l 85.4,75.4 v -23.4 c 0,-13.3 10.7,-24 24,-24 h 80 c 13.3,0 24,10.7 24,24 v 136.3 l 58.6,51.7 c 6.6,5.8 7.3,16 1.4,22.6 -5.9,6.6 -16,7.3 -22.6,1.4 l -37.4,-33 v 197 c 0,44.2 -35.8,80 -80,80 h -288 c -44.2,0 -80,-35.8 -80,-80 v -197 l -37.400006,33 c -6.6,5.8 -16.8,5.2 -22.6,-1.4 -5.8,-6.6 -5.2,-16.8 1.4,-22.6 z m 202.6,160.1 v -100.1 h -64 v 43.6 z m -384,42.6 v 225.3 c 0,26.5 21.5,48 48,48 h 64 v -160 c 0,-17.7 14.3,-32 32,-32 h 96 c 17.7,0 32,14.3 32,32 v 160 h 64 c 26.5,0 48,-21.5 48,-48 v -225.3 l -192,-169.4 z m 240,113.3 h -96 v 160 h 96 z"
       style="fill:#a162b6;fill-opacity:1" /><path
       d="m 98.48585,125.8159 c -9.851877,-7.76783 -24.156049,-5.96796 -31.923878,3.88391 -7.767828,9.85189 -5.967965,24.15605 3.883914,31.92388 L 631.24521,601.16907 c 9.85188,7.76782 24.15605,5.96795 31.92388,-3.88392 7.76782,-9.85188 5.96796,-24.15605 -3.88392,-31.92389 z"
       id="path1-1"
       style="stroke-width:0.947296;fill:#a162b6;fill-opacity:1"
       inkscape:original-d="m 98.48585,125.8159 c -9.851877,-7.76783 -24.156049,-5.96796 -31.923878,3.88391 -7.767828,9.85189 -5.967965,24.15605 3.883914,31.92388 L 631.24521,601.16907 c 9.85188,7.76782 24.15605,5.96795 31.92388,-3.88392 7.76782,-9.85188 5.96796,-24.15605 -3.88392,-31.92389 z" /></g></svg>
