<?xml version="1.0" encoding="UTF-8" standalone="no"?>
<svg
   viewBox="0 0 700 700"
   version="1.1"
   id="svg1"
   sodipodi:docname="censor_bathroom.svg"
   width="700"
   height="700"
   inkscape:version="1.3.2 (091e20ef0f, 2023-11-25)"
   xml:space="preserve"
   xmlns:inkscape="http://www.inkscape.org/namespaces/inkscape"
   xmlns:sodipodi="http://sodipodi.sourceforge.net/DTD/sodipodi-0.dtd"
   xmlns="http://www.w3.org/2000/svg"
   xmlns:svg="http://www.w3.org/2000/svg"><defs
     id="defs1"><inkscape:path-effect
       effect="powerclip"
       id="path-effect2"
       is_visible="true"
       lpeversion="1"
       inverse="true"
       flatten="false"
       hide_clip="false"
       message="Use fill-rule evenodd on &lt;b&gt;fill and stroke&lt;/b&gt; dialog if no flatten result after convert clip to paths." /><clipPath
       clipPathUnits="userSpaceOnUse"
       id="clipPath1"><path
         d="m 59.575207,152.8452 c -10.4,-8.2 -25.5,-6.3 -33.7,4.1 -8.2,10.4 -6.3,25.5 4.1,33.7 l 592.000013,464 c 10.4,8.2 25.5,6.3 33.7,-4.1 8.2,-10.4 6.3,-25.5 -4.1,-33.7 -320.91409,-251.31948 20.2836,15.86837 -592.000013,-464 z"
         id="path2"
         sodipodi:nodetypes="csccscc"
         style="display:none;fill:#ffffff;fill-opacity:1" /><path
         id="lpe_path-effect2"
         style="fill:#ffffff;fill-opacity:1"
         class="powerclip"
         d="M 24.994379,88.994379 H 675.00562 V 611.00562 H 24.994379 Z M 59.575207,152.8452 c -10.4,-8.2 -25.5,-6.3 -33.7,4.1 -8.2,10.4 -6.3,25.5 4.1,33.7 l 592.000013,464 c 10.4,8.2 25.5,6.3 33.7,-4.1 8.2,-10.4 6.3,-25.5 -4.1,-33.7 -320.91409,-251.31948 20.2836,15.86837 -592.000013,-464 z" /></clipPath></defs><sodipodi:namedview
     id="namedview1"
     pagecolor="#ffffff"
     bordercolor="#000000"
     borderopacity="0.25"
     inkscape:showpageshadow="2"
     inkscape:pageopacity="0.0"
     inkscape:pagecheckerboard="0"
     inkscape:deskcolor="#d1d1d1"
     inkscape:zoom="1"
     inkscape:cx="161.5"
     inkscape:cy="377.5"
     inkscape:window-width="1895"
     inkscape:window-height="1347"
     inkscape:window-x="0"
     inkscape:window-y="0"
     inkscape:window-maximized="1"
     inkscape:current-layer="svg1" /><!--! Font Awesome Pro 6.4.2 by @fontawesome - https://fontawesome.com License - https://fontawesome.com/license (Commercial License) Copyright 2023 Fonticons, Inc. --><g
     id="g1"
     clip-path="url(#clipPath1)"
     inkscape:path-effect="#path-effect2"
     style="fill:#ff62b6;fill-opacity:1"><path
       d="M 187.3,126 C 171.1,126 158,139.1 158,155.3 V 350 h 384 32 16 c 8.8,0 16,7.2 16,16 0,8.8 -7.2,16 -16,16 H 574 542 158 126 110 c -8.8,0 -16,-7.2 -16,-16 0,-8.8 7.2,-16 16,-16 h 16 V 155.3 c 0,-33.9 27.4,-61.3 61.3,-61.3 16.2,0 31.8,6.5 43.3,17.9 l 25.1,25.1 c 11.1,-7 24.2,-11 38.3,-11 20.2,0 38.5,8.3 51.6,21.8 l 1.1,-1.1 c 6.2,-6.2 16.4,-6.2 22.6,0 6.2,6.2 6.2,16.4 0,22.6 l -104,104 c -6.2,6.2 -16.4,6.2 -22.6,0 -6.2,-6.2 -6.2,-16.4 0,-22.6 l 1.1,-1.1 C 230.3,236.5 222,218.2 222,198 c 0,-14.1 4,-27.2 11,-38.3 L 207.9,134.6 C 202.5,129.1 195,126 187.3,126 Z M 126,414 h 32 v 48 c 0,26.2 12.6,49.4 32,64 v 0 0 c 13.4,10 30,16 48,16 h 224 c 18,0 34.6,-6 48,-16 v 0 0 c 19.4,-14.6 32,-37.8 32,-64 v -48 h 32 v 48 c 0,30.5 -12.2,58.2 -32,78.4 V 590 c 0,8.8 -7.2,16 -16,16 -8.8,0 -16,-7.2 -16,-16 V 563.2 C 495.5,570.1 479.2,574 462,574 H 238 c -17.2,0 -33.5,-3.9 -48,-10.8 V 590 c 0,8.8 -7.2,16 -16,16 -8.8,0 -16,-7.2 -16,-16 V 540.4 C 138.2,520.2 126,492.5 126,462 Z M 294,158 c -22.1,0 -40,17.9 -40,40 0,11.4 4.8,21.7 12.4,29 L 323,170.4 C 315.7,162.8 305.4,158 294,158 Z"
       id="path1-2"
       inkscape:original-d="M 187.3,126 C 171.1,126 158,139.1 158,155.3 V 350 h 384 32 16 c 8.8,0 16,7.2 16,16 0,8.8 -7.2,16 -16,16 H 574 542 158 126 110 c -8.8,0 -16,-7.2 -16,-16 0,-8.8 7.2,-16 16,-16 h 16 V 155.3 c 0,-33.9 27.4,-61.3 61.3,-61.3 16.2,0 31.8,6.5 43.3,17.9 l 25.1,25.1 c 11.1,-7 24.2,-11 38.3,-11 20.2,0 38.5,8.3 51.6,21.8 l 1.1,-1.1 c 6.2,-6.2 16.4,-6.2 22.6,0 6.2,6.2 6.2,16.4 0,22.6 l -104,104 c -6.2,6.2 -16.4,6.2 -22.6,0 -6.2,-6.2 -6.2,-16.4 0,-22.6 l 1.1,-1.1 C 230.3,236.5 222,218.2 222,198 c 0,-14.1 4,-27.2 11,-38.3 L 207.9,134.6 C 202.5,129.1 195,126 187.3,126 Z M 126,414 h 32 v 48 c 0,26.2 12.6,49.4 32,64 v 0 0 c 13.4,10 30,16 48,16 h 224 c 18,0 34.6,-6 48,-16 v 0 0 c 19.4,-14.6 32,-37.8 32,-64 v -48 h 32 v 48 c 0,30.5 -12.2,58.2 -32,78.4 V 590 c 0,8.8 -7.2,16 -16,16 -8.8,0 -16,-7.2 -16,-16 V 563.2 C 495.5,570.1 479.2,574 462,574 H 238 c -17.2,0 -33.5,-3.9 -48,-10.8 V 590 c 0,8.8 -7.2,16 -16,16 -8.8,0 -16,-7.2 -16,-16 V 540.4 C 138.2,520.2 126,492.5 126,462 Z M 294,158 c -22.1,0 -40,17.9 -40,40 0,11.4 4.8,21.7 12.4,29 L 323,170.4 C 315.7,162.8 305.4,158 294,158 Z"
       style="fill:#ff62b6;fill-opacity:1" /><path
       d="m 68.8,99.1 c -10.4,-8.2 -25.5,-6.3 -33.7,4.1 -8.2,10.4 -6.3,25.5 4.1,33.7 l 592,464 c 10.4,8.2 25.5,6.3 33.7,-4.1 8.2,-10.4 6.3,-25.5 -4.1,-33.7 -320.91411,-251.31948 20.28359,15.86837 -592,-464 z"
       id="path1"
       sodipodi:nodetypes="csccscc"
       inkscape:original-d="m 68.8,99.1 c -10.4,-8.2 -25.5,-6.3 -33.7,4.1 -8.2,10.4 -6.3,25.5 4.1,33.7 l 592,464 c 10.4,8.2 25.5,6.3 33.7,-4.1 8.2,-10.4 6.3,-25.5 -4.1,-33.7 -320.91411,-251.31948 20.28359,15.86837 -592,-464 z"
       style="fill:#ff62b6;fill-opacity:1" /></g></svg>
