<?xml version="1.0" encoding="UTF-8" standalone="no"?>
<svg
   viewBox="0 0 700 700"
   version="1.1"
   id="svg1"
   sodipodi:docname="censor_uncensor_all_black.svg"
   width="700"
   height="700"
   inkscape:version="1.3.2 (091e20ef0f, 2023-11-25)"
   xml:space="preserve"
   xmlns:inkscape="http://www.inkscape.org/namespaces/inkscape"
   xmlns:sodipodi="http://sodipodi.sourceforge.net/DTD/sodipodi-0.dtd"
   xmlns="http://www.w3.org/2000/svg"
   xmlns:svg="http://www.w3.org/2000/svg"><defs
     id="defs1" /><sodipodi:namedview
     id="namedview1"
     pagecolor="#ffffff"
     bordercolor="#000000"
     borderopacity="0.25"
     inkscape:showpageshadow="2"
     inkscape:pageopacity="0.0"
     inkscape:pagecheckerboard="0"
     inkscape:deskcolor="#d1d1d1"
     inkscape:zoom="1.40625"
     inkscape:cx="394.31111"
     inkscape:cy="338.84444"
     inkscape:window-width="1895"
     inkscape:window-height="1347"
     inkscape:window-x="0"
     inkscape:window-y="0"
     inkscape:window-maximized="1"
     inkscape:current-layer="svg1" /><!--! Font Awesome Pro 6.4.2 by @fontawesome - https://fontawesome.com License - https://fontawesome.com/license (Commercial License) Copyright 2023 Fonticons, Inc. --><text
     xml:space="preserve"
     style="font-weight:bold;font-size:72.8165px;font-family:'Noto Sans';-inkscape-font-specification:'Noto Sans, Bold';text-align:center;text-anchor:middle;fill:#000000;fill-opacity:1;stroke-width:0.758506"
     x="346.7233"
     y="632.11481"
     id="text1"><tspan
       sodipodi:role="line"
       id="tspan1"
       x="346.72327"
       y="632.11481"
       style="font-style:normal;font-variant:normal;font-weight:bold;font-stretch:normal;font-size:145.633px;font-family:'Noto Sans';-inkscape-font-specification:'Noto Sans, Bold';font-variant-ligatures:normal;font-variant-caps:normal;font-variant-numeric:normal;font-variant-east-asian:normal;fill:#000000;fill-opacity:1;stroke-width:0.758506">UNCENS</tspan></text><path
     d="m 341.62056,63.984938 c 4.73408,-4.181769 11.9141,-4.181769 16.72707,0 l 67.38171,59.491572 v -18.4629 c 0,-10.493878 8.44243,-18.936314 18.9363,-18.936314 h 63.12103 c 10.49387,0 18.93632,8.442436 18.93632,18.936314 v 107.54246 l 46.23615,40.79196 c 5.20749,4.57627 5.75979,12.6242 1.10462,17.83169 -4.65518,5.20749 -12.6242,5.7598 -17.83169,1.10462 l -29.50908,-26.03742 v 155.43553 c 0,34.87438 -28.24666,63.12104 -63.12104,63.12104 H 236.36624 c -34.87436,0 -63.12103,-28.24666 -63.12103,-63.12104 V 246.24692 l -29.50909,26.03742 c -5.20747,4.57628 -13.25541,4.10287 -17.83169,-1.10462 -4.57627,-5.20749 -4.10286,-13.25542 1.10463,-17.83169 z M 501.47458,190.3059 v -78.98018 h -50.49683 v 34.40096 z m -302.98096,33.61195 v 177.7646 c 0,20.90885 16.96378,37.87263 37.87262,37.87263 h 50.49683 V 313.31302 c 0,-13.96554 11.28288,-25.24842 25.24841,-25.24842 h 75.74524 c 13.96553,0 25.24842,11.28288 25.24842,25.24842 v 126.24206 h 50.49681 c 20.90885,0 37.87263,-16.96378 37.87263,-37.87263 V 223.91785 L 349.9841,90.259067 Z m 189.3631,89.39517 h -75.74524 v 126.24206 h 75.74524 z"
     id="path1"
     style="stroke-width:0.789013" /></svg>
