<?xml version="1.0" encoding="UTF-8" standalone="no"?>
<svg
   viewBox="0 0 700 700"
   version="1.1"
   id="svg1"
   sodipodi:docname="censor_desk_pink.svg"
   width="700"
   height="700"
   inkscape:version="1.3.2 (091e20ef0f, 2023-11-25)"
   xml:space="preserve"
   xmlns:inkscape="http://www.inkscape.org/namespaces/inkscape"
   xmlns:sodipodi="http://sodipodi.sourceforge.net/DTD/sodipodi-0.dtd"
   xmlns="http://www.w3.org/2000/svg"
   xmlns:svg="http://www.w3.org/2000/svg"><defs
     id="defs1"><inkscape:path-effect
       effect="powerclip"
       id="path-effect2"
       is_visible="true"
       lpeversion="1"
       inverse="true"
       flatten="false"
       hide_clip="false"
       message="Use fill-rule evenodd on &lt;b&gt;fill and stroke&lt;/b&gt; dialog if no flatten result after convert clip to paths." /><clipPath
       clipPathUnits="userSpaceOnUse"
       id="clipPath1"><path
         d="m 59.575207,152.8452 c -10.4,-8.2 -25.5,-6.3 -33.7,4.1 -8.2,10.4 -6.3,25.5 4.1,33.7 l 592.000013,464 c 10.4,8.2 25.5,6.3 33.7,-4.1 8.2,-10.4 6.3,-25.5 -4.1,-33.7 -320.91409,-251.31948 20.2836,15.86837 -592.000013,-464 z"
         id="path2"
         sodipodi:nodetypes="csccscc"
         style="display:none;fill:#ffffff;fill-opacity:1" /><path
         id="lpe_path-effect2"
         style="fill:#ffffff;fill-opacity:1"
         class="powerclip"
         d="M 24.994379,88.994379 H 675.00562 V 611.00562 H 24.994379 Z M 59.575207,152.8452 c -10.4,-8.2 -25.5,-6.3 -33.7,4.1 -8.2,10.4 -6.3,25.5 4.1,33.7 l 592.000013,464 c 10.4,8.2 25.5,6.3 33.7,-4.1 8.2,-10.4 6.3,-25.5 -4.1,-33.7 -320.91409,-251.31948 20.2836,15.86837 -592.000013,-464 z" /></clipPath></defs><sodipodi:namedview
     id="namedview1"
     pagecolor="#ffffff"
     bordercolor="#000000"
     borderopacity="0.25"
     inkscape:showpageshadow="2"
     inkscape:pageopacity="0.0"
     inkscape:pagecheckerboard="0"
     inkscape:deskcolor="#d1d1d1"
     inkscape:zoom="1"
     inkscape:cx="161.5"
     inkscape:cy="377.5"
     inkscape:window-width="1895"
     inkscape:window-height="1347"
     inkscape:window-x="0"
     inkscape:window-y="0"
     inkscape:window-maximized="1"
     inkscape:current-layer="svg1" /><!--! Font Awesome Pro 6.4.2 by @fontawesome - https://fontawesome.com License - https://fontawesome.com/license (Commercial License) Copyright 2023 Fonticons, Inc. --><g
     id="g1"
     clip-path="url(#clipPath1)"
     inkscape:path-effect="#path-effect2"
     style="fill:#ff62b6;fill-opacity:1"><path
       d="m 414,126 c 17.7,0 32,14.3 32,32 v 160 h 32 V 158 C 478,122.7 449.3,94 414,94 H 286 c -35.3,0 -64,28.7 -64,64 v 160 h 32 V 158 c 0,-17.7 14.3,-32 32,-32 z M 190,238 c 0,-8.8 -7.2,-16 -16,-16 -8.8,0 -16,7.2 -16,16 v 80 c 0,8.8 7.2,16 16,16 8.8,0 16,-7.2 16,-16 z m 352,0 c 0,-8.8 -7.2,-16 -16,-16 -8.8,0 -16,7.2 -16,16 v 80 c 0,8.8 7.2,16 16,16 8.8,0 16,-7.2 16,-16 z m -64,144 32,64 H 350 190 l 32,-64 z m -112,96 h 144 c 11.1,0 21.4,-5.7 27.2,-15.2 5.8,-9.5 6.4,-21.2 1.4,-31.1 l -32,-64 C 501.2,356.8 490.1,350 478,350 H 222 c -12.1,0 -23.2,6.8 -28.6,17.7 l -32,64 c -5,9.9 -4.4,21.7 1.4,31.1 5.8,9.4 16.1,15.2 27.2,15.2 h 144 v 48 h -16 c -35.3,0 -64,28.7 -64,64 0,8.8 7.2,16 16,16 8.8,0 16,-7.2 16,-16 0,-17.7 14.3,-32 32,-32 h 16 v 32 c 0,8.8 7.2,16 16,16 8.8,0 16,-7.2 16,-16 v -32 h 16 c 17.7,0 32,14.3 32,32 0,8.8 7.2,16 16,16 8.8,0 16,-7.2 16,-16 0,-35.3 -28.7,-64 -64,-64 h -16 z"
       id="path1-53"
       inkscape:original-d="m 414,126 c 17.7,0 32,14.3 32,32 v 160 h 32 V 158 C 478,122.7 449.3,94 414,94 H 286 c -35.3,0 -64,28.7 -64,64 v 160 h 32 V 158 c 0,-17.7 14.3,-32 32,-32 z M 190,238 c 0,-8.8 -7.2,-16 -16,-16 -8.8,0 -16,7.2 -16,16 v 80 c 0,8.8 7.2,16 16,16 8.8,0 16,-7.2 16,-16 z m 352,0 c 0,-8.8 -7.2,-16 -16,-16 -8.8,0 -16,7.2 -16,16 v 80 c 0,8.8 7.2,16 16,16 8.8,0 16,-7.2 16,-16 z m -64,144 32,64 H 350 190 l 32,-64 z m -112,96 h 144 c 11.1,0 21.4,-5.7 27.2,-15.2 5.8,-9.5 6.4,-21.2 1.4,-31.1 l -32,-64 C 501.2,356.8 490.1,350 478,350 H 222 c -12.1,0 -23.2,6.8 -28.6,17.7 l -32,64 c -5,9.9 -4.4,21.7 1.4,31.1 5.8,9.4 16.1,15.2 27.2,15.2 h 144 v 48 h -16 c -35.3,0 -64,28.7 -64,64 0,8.8 7.2,16 16,16 8.8,0 16,-7.2 16,-16 0,-17.7 14.3,-32 32,-32 h 16 v 32 c 0,8.8 7.2,16 16,16 8.8,0 16,-7.2 16,-16 v -32 h 16 c 17.7,0 32,14.3 32,32 0,8.8 7.2,16 16,16 8.8,0 16,-7.2 16,-16 0,-35.3 -28.7,-64 -64,-64 h -16 z"
       style="fill:#ff62b6;fill-opacity:1" /><path
       d="m 68.8,99.1 c -10.4,-8.2 -25.5,-6.3 -33.7,4.1 -8.2,10.4 -6.3,25.5 4.1,33.7 l 592,464 c 10.4,8.2 25.5,6.3 33.7,-4.1 8.2,-10.4 6.3,-25.5 -4.1,-33.7 -320.91411,-251.31948 20.28359,15.86837 -592,-464 z"
       id="path1"
       sodipodi:nodetypes="csccscc"
       inkscape:original-d="m 68.8,99.1 c -10.4,-8.2 -25.5,-6.3 -33.7,4.1 -8.2,10.4 -6.3,25.5 4.1,33.7 l 592,464 c 10.4,8.2 25.5,6.3 33.7,-4.1 8.2,-10.4 6.3,-25.5 -4.1,-33.7 -320.91411,-251.31948 20.28359,15.86837 -592,-464 z"
       style="fill:#ff62b6;fill-opacity:1" /></g></svg>
