<?xml version="1.0" encoding="UTF-8" standalone="no"?>
<svg
   viewBox="0 0 700 700"
   version="1.1"
   id="svg1"
   sodipodi:docname="input_desk_black.svg"
   width="700"
   height="700"
   xml:space="preserve"
   inkscape:version="1.3.2 (091e20ef0f, 2023-11-25)"
   xmlns:inkscape="http://www.inkscape.org/namespaces/inkscape"
   xmlns:sodipodi="http://sodipodi.sourceforge.net/DTD/sodipodi-0.dtd"
   xmlns="http://www.w3.org/2000/svg"
   xmlns:svg="http://www.w3.org/2000/svg"><defs
     id="defs1" /><sodipodi:namedview
     id="namedview1"
     pagecolor="#ffffff"
     bordercolor="#000000"
     borderopacity="0.25"
     inkscape:showpageshadow="2"
     inkscape:pageopacity="0.0"
     inkscape:pagecheckerboard="0"
     inkscape:deskcolor="#d1d1d1"
     inkscape:zoom="0.9375"
     inkscape:cx="412.26667"
     inkscape:cy="357.86667"
     inkscape:window-width="1895"
     inkscape:window-height="1347"
     inkscape:window-x="0"
     inkscape:window-y="0"
     inkscape:window-maximized="1"
     inkscape:current-layer="svg1" /><!--! Font Awesome Pro 6.4.2 by @fontawesome - https://fontawesome.com License - https://fontawesome.com/license (Commercial License) Copyright 2023 Fonticons, Inc. --><path
     d="m 550.20312,151.03854 v 22.0013 h -22.0013 c -6.05036,0 -11.00065,4.9503 -11.00065,11.00066 0,6.05035 4.95029,11.00064 11.00065,11.00064 h 22.0013 v 22.00131 h -22.0013 c -6.05036,0 -11.00065,4.9503 -11.00065,11.00064 0,6.05037 4.95029,11.00066 11.00065,11.00066 h 22.0013 c 0,18.21983 -14.78213,33.00195 -33.00195,33.00195 -18.21984,0 -33.00196,-14.78212 -33.00196,-33.00195 V 129.03723 c 0,-18.21981 14.78212,-33.00194 33.00196,-33.00194 18.21982,0 33.00195,14.78213 33.00195,33.00194 h -22.0013 c -6.05036,0 -11.00065,4.9503 -11.00065,11.00066 0,6.05036 4.95029,11.00065 11.00065,11.00065 z m -99.00585,-22.00131 v 110.00652 c 0,36.43967 29.56425,66.0039 66.0039,66.0039 36.43965,0 66.00391,-29.56423 66.00391,-66.0039 V 129.03723 c 0,-36.439643 -29.56426,-66.003894 -66.00391,-66.003894 -36.43965,0 -66.0039,29.564251 -66.0039,66.003894 z m -22.00131,82.5049 c 0,-9.1443 -7.35669,-16.50099 -16.50099,-16.50099 -9.14428,0 -16.50096,7.35669 -16.50096,16.50099 v 27.50162 c 0,61.25988 45.51519,111.86286 104.50618,119.90709 v 23.10137 h -33.00196 c -9.14428,0 -16.50096,7.35669 -16.50096,16.50098 0,9.1443 7.35668,16.50097 16.50096,16.50097 h 49.50294 49.50292 c 9.1443,0 16.50099,-7.35667 16.50099,-16.50097 0,-9.14429 -7.35669,-16.50098 -16.50099,-16.50098 h -33.00195 v -23.10137 c 58.991,-8.04423 104.50619,-58.64721 104.50619,-119.90709 v -27.50162 c 0,-9.1443 -7.35669,-16.50099 -16.50098,-16.50099 -9.14428,0 -16.50097,7.35669 -16.50097,16.50099 v 27.50162 c 0,48.60913 -39.39609,88.00521 -88.00521,88.00521 -48.60913,0 -88.00521,-39.39608 -88.00521,-88.00521 z"
     id="path1-9"
     style="stroke-width:0.68754" /><path
     d="m 262.32531,303.64872 c 6.36343,0 11.56987,5.20644 11.56987,11.56987 V 430.91731 H 308.6048 V 315.21859 c 0,-25.52603 -20.75345,-46.27949 -46.27949,-46.27949 h -92.55898 c -25.52603,0 -46.27948,20.75346 -46.27948,46.27949 v 115.69872 h 34.70962 V 315.21859 c 0,-6.36343 5.20644,-11.56987 11.56986,-11.56987 z M 100.3471,378.85289 c 0,-9.61746 -7.737337,-17.35481 -17.354797,-17.35481 -9.61745,0 -17.354807,7.73735 -17.354807,17.35481 v 46.27948 c 0,9.61745 7.737357,17.35481 17.354807,17.35481 9.61746,0 17.354797,-7.73736 17.354797,-17.35481 z m 266.10706,0 c 0,-9.61746 -7.73736,-17.35481 -17.35481,-17.35481 -9.61746,0 -17.3548,7.73735 -17.3548,17.35481 v 46.27948 c 0,9.61745 7.73734,17.35481 17.3548,17.35481 9.61745,0 17.35481,-7.73736 17.35481,-17.35481 z M 233.40063,558.1859 h 88.58183 c 18.22255,0 32.90183,-14.75159 32.90183,-32.90182 0,-3.97715 -0.72312,-7.88198 -2.09704,-11.56988 L 338.9034,476.6183 c -5.06182,-13.52229 -18.00561,-22.48893 -32.46795,-22.48893 H 125.72851 c -14.46234,0 -27.406127,8.96664 -32.467947,22.48893 l -13.956157,37.0959 c -1.37392,3.6879 -2.097035,7.59273 -2.097035,11.56988 0,18.15023 14.751584,32.90182 32.901819,32.90182 h 88.58182 v 46.27949 H 163.9814 c -9.61745,0 -17.35481,7.73734 -17.35481,17.3548 0,9.61745 7.73736,17.35481 17.35481,17.35481 h 52.06442 52.06443 c 9.61745,0 17.35481,-7.73736 17.35481,-17.35481 0,-9.61746 -7.73736,-17.3548 -17.35481,-17.3548 H 233.40063 Z M 125.72851,488.76667 h 180.63462 l 13.01612,34.70961 H 216.04582 112.7124 Z"
     id="path1"
     style="stroke-width:0.723117" /></svg>
