<?xml version="1.0" encoding="UTF-8" standalone="no"?>
<svg
   viewBox="0 0 700 700"
   version="1.1"
   id="svg1"
   sodipodi:docname="input_bathroom_black.svg"
   width="700"
   height="700"
   xml:space="preserve"
   inkscape:version="1.3.2 (091e20ef0f, 2023-11-25)"
   xmlns:inkscape="http://www.inkscape.org/namespaces/inkscape"
   xmlns:sodipodi="http://sodipodi.sourceforge.net/DTD/sodipodi-0.dtd"
   xmlns="http://www.w3.org/2000/svg"
   xmlns:svg="http://www.w3.org/2000/svg"><defs
     id="defs1" /><sodipodi:namedview
     id="namedview1"
     pagecolor="#ffffff"
     bordercolor="#000000"
     borderopacity="0.25"
     inkscape:showpageshadow="2"
     inkscape:pageopacity="0.0"
     inkscape:pagecheckerboard="0"
     inkscape:deskcolor="#d1d1d1"
     inkscape:zoom="0.9375"
     inkscape:cx="412.26667"
     inkscape:cy="357.86667"
     inkscape:window-width="1895"
     inkscape:window-height="1347"
     inkscape:window-x="0"
     inkscape:window-y="0"
     inkscape:window-maximized="1"
     inkscape:current-layer="svg1" /><!--! Font Awesome Pro 6.4.2 by @fontawesome - https://fontawesome.com License - https://fontawesome.com/license (Commercial License) Copyright 2023 Fonticons, Inc. --><path
     d="m 136.07972,315.99244 c -8.25404,0 -14.89926,6.64521 -14.89926,14.89925 V 461.4875 h 246.2224 33.57579 5.59595 c 9.30329,0 16.7879,7.4846 16.7879,16.78789 0,9.30328 -7.48461,16.78789 -16.7879,16.78789 h -5.59595 -33.57579 -246.2224 -33.575781 -5.595956 c -9.303287,0 -16.787893,-7.48461 -16.787893,-16.78789 0,-9.30329 7.484606,-16.78789 16.787893,-16.78789 h 5.595956 V 330.89169 c 0,-26.79068 21.684361,-48.47503 48.475041,-48.47503 12.87072,0 25.18184,5.10631 34.27527,14.19976 l 3.35758,3.35758 c 7.7644,-4.05707 16.57804,-6.36542 25.88134,-6.36542 16.71794,0 31.75709,7.34471 42.03967,19.02628 6.43536,-3.70731 14.75936,-2.79798 20.21542,2.72804 6.57526,6.57525 6.57526,17.20758 0,23.7129 l -72.81748,72.74753 c -6.57526,6.57524 -17.20759,6.57524 -23.71289,0 -5.45607,-5.45606 -6.36541,-13.78006 -2.72802,-20.21543 -11.68159,-10.28258 -19.02629,-25.32173 -19.02629,-42.03967 0,-9.37323 2.30833,-18.11693 6.3654,-25.88134 l -3.35757,-3.35757 c -2.79798,-2.79799 -6.57526,-4.33688 -10.49243,-4.33688 z M 87.604679,517.44713 h 33.575781 v 22.38385 c 0,18.53662 15.03915,33.57578 33.57578,33.57578 h 179.07083 c 18.53664,0 33.57579,-15.03916 33.57579,-33.57578 v -22.38385 h 33.57579 v 22.38385 c 0,19.86568 -8.67375,37.77277 -22.38387,50.08388 v 33.85557 c 0,9.3033 -7.48459,16.7879 -16.78788,16.7879 -9.3033,0 -16.78789,-7.4846 -16.78789,-16.7879 v -17.69722 c -3.63738,0.62953 -7.3447,0.90934 -11.19194,0.90934 H 154.75624 c -3.84722,0 -7.55454,-0.34975 -11.19192,-0.90934 v 17.69722 c 0,9.3033 -7.4846,16.7879 -16.78788,16.7879 -9.3033,0 -16.7879,-7.4846 -16.7879,-16.7879 V 589.91486 C 96.278428,577.60375 87.604679,559.69666 87.604679,539.83098 Z M 199.52395,327.18438 c -12.38107,0 -22.38385,10.00278 -22.38385,22.38385 0,7.27475 3.42752,13.71011 8.81364,17.83713 l 31.3374,-31.3374 c -4.05707,-5.45606 -10.49243,-8.88358 -17.76719,-8.88358 z"
     id="path1-53"
     style="stroke-width:0.699495" /><path
     d="m 550.20312,151.03854 v 22.0013 h -22.0013 c -6.05036,0 -11.00065,4.9503 -11.00065,11.00066 0,6.05035 4.95029,11.00064 11.00065,11.00064 h 22.0013 v 22.00131 h -22.0013 c -6.05036,0 -11.00065,4.9503 -11.00065,11.00064 0,6.05037 4.95029,11.00066 11.00065,11.00066 h 22.0013 c 0,18.21983 -14.78213,33.00195 -33.00195,33.00195 -18.21984,0 -33.00196,-14.78212 -33.00196,-33.00195 V 129.03723 c 0,-18.21981 14.78212,-33.00194 33.00196,-33.00194 18.21982,0 33.00195,14.78213 33.00195,33.00194 h -22.0013 c -6.05036,0 -11.00065,4.9503 -11.00065,11.00066 0,6.05036 4.95029,11.00065 11.00065,11.00065 z m -99.00585,-22.00131 v 110.00652 c 0,36.43967 29.56425,66.0039 66.0039,66.0039 36.43965,0 66.00391,-29.56423 66.00391,-66.0039 V 129.03723 c 0,-36.439643 -29.56426,-66.003894 -66.00391,-66.003894 -36.43965,0 -66.0039,29.564251 -66.0039,66.003894 z m -22.00131,82.5049 c 0,-9.1443 -7.35669,-16.50099 -16.50099,-16.50099 -9.14428,0 -16.50096,7.35669 -16.50096,16.50099 v 27.50162 c 0,61.25988 45.51519,111.86286 104.50618,119.90709 v 23.10137 h -33.00196 c -9.14428,0 -16.50096,7.35669 -16.50096,16.50098 0,9.1443 7.35668,16.50097 16.50096,16.50097 h 49.50294 49.50292 c 9.1443,0 16.50099,-7.35667 16.50099,-16.50097 0,-9.14429 -7.35669,-16.50098 -16.50099,-16.50098 h -33.00195 v -23.10137 c 58.991,-8.04423 104.50619,-58.64721 104.50619,-119.90709 v -27.50162 c 0,-9.1443 -7.35669,-16.50099 -16.50098,-16.50099 -9.14428,0 -16.50097,7.35669 -16.50097,16.50099 v 27.50162 c 0,48.60913 -39.39609,88.00521 -88.00521,88.00521 -48.60913,0 -88.00521,-39.39608 -88.00521,-88.00521 z"
     id="path1-9"
     style="stroke-width:0.68754" /></svg>
