<?xml version="1.0" encoding="UTF-8" standalone="no"?>
<svg
   viewBox="0 0 700 700"
   version="1.1"
   id="svg1"
   sodipodi:docname="input_kitchen_black.svg"
   width="700"
   height="700"
   xml:space="preserve"
   inkscape:version="1.3.2 (091e20ef0f, 2023-11-25)"
   xmlns:inkscape="http://www.inkscape.org/namespaces/inkscape"
   xmlns:sodipodi="http://sodipodi.sourceforge.net/DTD/sodipodi-0.dtd"
   xmlns="http://www.w3.org/2000/svg"
   xmlns:svg="http://www.w3.org/2000/svg"><defs
     id="defs1" /><sodipodi:namedview
     id="namedview1"
     pagecolor="#ffffff"
     bordercolor="#000000"
     borderopacity="0.25"
     inkscape:showpageshadow="2"
     inkscape:pageopacity="0.0"
     inkscape:pagecheckerboard="0"
     inkscape:deskcolor="#d1d1d1"
     inkscape:zoom="0.9375"
     inkscape:cx="412.26667"
     inkscape:cy="357.86667"
     inkscape:window-width="1895"
     inkscape:window-height="1347"
     inkscape:window-x="0"
     inkscape:window-y="0"
     inkscape:window-maximized="1"
     inkscape:current-layer="svg1" /><!--! Font Awesome Pro 6.4.2 by @fontawesome - https://fontawesome.com License - https://fontawesome.com/license (Commercial License) Copyright 2023 Fonticons, Inc. --><path
     d="m 550.20312,151.03854 v 22.0013 h -22.0013 c -6.05036,0 -11.00065,4.9503 -11.00065,11.00066 0,6.05035 4.95029,11.00064 11.00065,11.00064 h 22.0013 v 22.00131 h -22.0013 c -6.05036,0 -11.00065,4.9503 -11.00065,11.00064 0,6.05037 4.95029,11.00066 11.00065,11.00066 h 22.0013 c 0,18.21983 -14.78213,33.00195 -33.00195,33.00195 -18.21984,0 -33.00196,-14.78212 -33.00196,-33.00195 V 129.03723 c 0,-18.21981 14.78212,-33.00194 33.00196,-33.00194 18.21982,0 33.00195,14.78213 33.00195,33.00194 h -22.0013 c -6.05036,0 -11.00065,4.9503 -11.00065,11.00066 0,6.05036 4.95029,11.00065 11.00065,11.00065 z m -99.00585,-22.00131 v 110.00652 c 0,36.43967 29.56425,66.0039 66.0039,66.0039 36.43965,0 66.00391,-29.56423 66.00391,-66.0039 V 129.03723 c 0,-36.439643 -29.56426,-66.003894 -66.00391,-66.003894 -36.43965,0 -66.0039,29.564251 -66.0039,66.003894 z m -22.00131,82.5049 c 0,-9.1443 -7.35669,-16.50099 -16.50099,-16.50099 -9.14428,0 -16.50096,7.35669 -16.50096,16.50099 v 27.50162 c 0,61.25988 45.51519,111.86286 104.50618,119.90709 v 23.10137 h -33.00196 c -9.14428,0 -16.50096,7.35669 -16.50096,16.50098 0,9.1443 7.35668,16.50097 16.50096,16.50097 h 49.50294 49.50292 c 9.1443,0 16.50099,-7.35667 16.50099,-16.50097 0,-9.14429 -7.35669,-16.50098 -16.50099,-16.50098 h -33.00195 v -23.10137 c 58.991,-8.04423 104.50619,-58.64721 104.50619,-119.90709 v -27.50162 c 0,-9.1443 -7.35669,-16.50099 -16.50098,-16.50099 -9.14428,0 -16.50097,7.35669 -16.50097,16.50099 v 27.50162 c 0,48.60913 -39.39609,88.00521 -88.00521,88.00521 -48.60913,0 -88.00521,-39.39608 -88.00521,-88.00521 z"
     id="path1-9"
     style="stroke-width:0.68754" /><path
     d="m 299.28017,328.8822 c 17.72288,0 32.10184,14.37894 32.10184,32.10184 v 42.80245 H 95.96851 v -42.80245 c 0,-17.7229 14.37895,-32.10184 32.10183,-32.10184 z m 32.10184,107.00614 v 160.5092 c 0,5.88534 -4.81528,10.70061 -10.70062,10.70061 H 106.66912 c -5.88533,0 -10.70061,-4.81527 -10.70061,-10.70061 V 435.88834 Z M 128.07034,296.78036 c -35.445782,0 -64.203677,28.75789 -64.203677,64.20368 v 235.4135 c 0,23.60824 19.194223,42.80246 42.802457,42.80246 h 214.01227 c 23.60823,0 42.80246,-19.19422 42.80246,-42.80246 v -235.4135 c 0,-35.44579 -28.75791,-64.20368 -64.20368,-64.20368 z m 21.40122,69.55398 a 16.050922,16.050922 0 1 0 -32.10182,0 16.050922,16.050922 0 1 0 32.10182,0 z m 37.45215,16.05092 a 16.050923,16.050923 0 1 0 0,-32.10184 16.050923,16.050923 0 1 0 0,32.10184 z m 69.554,-16.05092 a 16.050922,16.050922 0 1 0 -32.10183,0 16.050922,16.050922 0 1 0 32.10183,0 z m 37.45214,16.05092 a 16.050923,16.050923 0 1 0 0,-32.10184 16.050923,16.050923 0 1 0 0,32.10184 z m -155.1589,74.90431 c -11.83754,0 -21.40121,9.56367 -21.40121,21.40121 v 85.60493 c 0,11.83754 9.56367,21.40121 21.40121,21.40121 h 149.80861 c 11.83755,0 21.40122,-9.56367 21.40122,-21.40121 v -85.60493 c 0,-11.83754 -9.56367,-21.40121 -21.40122,-21.40121 z m 21.40124,32.10184 h 107.00613 c 5.88534,0 10.70061,4.81527 10.70061,10.70061 0,5.88534 -4.81527,10.70061 -10.70061,10.70061 H 160.17219 c -5.88535,0 -10.70063,-4.81527 -10.70063,-10.70061 0,-5.88534 4.81528,-10.70061 10.70063,-10.70061 z"
     id="path1-6"
     style="stroke-width:0.668788" /></svg>
