<?xml version="1.0" encoding="UTF-8" standalone="no"?>
<svg
   viewBox="0 0 700 700"
   version="1.1"
   id="svg1"
   sodipodi:docname="input_desk_black.svg"
   width="700"
   height="700"
   inkscape:version="1.3.2 (091e20ef0f, 2023-11-25)"
   xml:space="preserve"
   xmlns:inkscape="http://www.inkscape.org/namespaces/inkscape"
   xmlns:sodipodi="http://sodipodi.sourceforge.net/DTD/sodipodi-0.dtd"
   xmlns="http://www.w3.org/2000/svg"
   xmlns:svg="http://www.w3.org/2000/svg"><defs
     id="defs1" /><sodipodi:namedview
     id="namedview1"
     pagecolor="#ffffff"
     bordercolor="#000000"
     borderopacity="0.25"
     inkscape:showpageshadow="2"
     inkscape:pageopacity="0.0"
     inkscape:pagecheckerboard="0"
     inkscape:deskcolor="#d1d1d1"
     inkscape:zoom="1.40625"
     inkscape:cx="276.97778"
     inkscape:cy="336"
     inkscape:window-width="1895"
     inkscape:window-height="1347"
     inkscape:window-x="0"
     inkscape:window-y="0"
     inkscape:window-maximized="1"
     inkscape:current-layer="g1" /><!--! Font Awesome Pro 6.4.2 by @fontawesome - https://fontawesome.com License - https://fontawesome.com/license (Commercial License) Copyright 2023 Fonticons, Inc. --><g
     id="g1"
     transform="translate(54.43217,-5.5711238)"><text
       xml:space="preserve"
       style="font-weight:bold;font-size:72.8165px;font-family:'Noto Sans';-inkscape-font-specification:'Noto Sans, Bold';text-align:center;text-anchor:middle;fill:#000000;fill-opacity:1;stroke-width:0.758506"
       x="295.56778"
       y="637.68591"
       id="text1"><tspan
         sodipodi:role="line"
         id="tspan1"
         x="295.56778"
         y="637.68591"
         style="font-style:normal;font-variant:normal;font-weight:bold;font-stretch:normal;font-size:145.633px;font-family:'Noto Sans';-inkscape-font-specification:'Noto Sans, Bold';font-variant-ligatures:normal;font-variant-caps:normal;font-variant-numeric:normal;font-variant-east-asian:normal;fill:#000000;fill-opacity:1;stroke-width:0.758506">DESK</tspan></text><path
       d="m 345.35507,192.31334 v -24.89362 h -37.34043 c -6.84574,0 -12.44681,-5.60107 -12.44681,-12.44682 0,-6.84574 5.60107,-12.44681 12.44681,-12.44681 h 37.34043 c 0,-27.46077 -22.32647,-49.787236 -49.78724,-49.787236 -27.46077,0 -49.78725,22.326466 -49.78725,49.787236 V 266.9942 c 0,27.46077 22.32648,49.78725 49.78725,49.78725 27.46077,0 49.78724,-22.32648 49.78724,-49.78725 h -37.34043 c -6.84574,0 -12.44681,-5.60106 -12.44681,-12.44681 0,-6.84575 5.60107,-12.44681 12.44681,-12.44681 h 37.34043 v -24.89362 h -37.34043 c -6.84574,0 -12.44681,-5.60106 -12.44681,-12.44681 0,-6.84575 5.60107,-12.44681 12.44681,-12.44681 z m 24.89362,12.44681 v 49.78724 12.44681 c 0,41.23006 -33.4508,74.68087 -74.68086,74.68087 -41.23006,0 -74.68086,-33.45081 -74.68086,-74.68087 V 142.52609 c 0,-41.23005 33.4508,-74.680858 74.68086,-74.680858 41.23006,0 74.68086,33.450808 74.68086,74.680858 v 12.44681 z m -186.70215,12.44681 c 6.84574,0 12.44681,5.60107 12.44681,12.4468 v 37.34044 c 0,54.99934 44.57514,99.57448 99.57448,99.57448 54.99934,0 99.57448,-44.57514 99.57448,-99.57448 v -37.34044 c 0,-6.84573 5.60107,-12.4468 12.44681,-12.4468 6.84575,0 12.44682,5.60107 12.44682,12.4468 v 37.34044 c 0,64.56783 -49.08712,117.62236 -112.0213,123.84577 v 50.40958 h 49.78724 c 6.84574,0 12.44681,5.60107 12.44681,12.44682 0,6.84573 -5.60107,12.4468 -12.44681,12.4468 h -62.23405 -62.23406 c -6.84573,0 -12.4468,-5.60107 -12.4468,-12.4468 0,-6.84575 5.60107,-12.44682 12.4468,-12.44682 h 49.78725 V 390.83997 C 220.18683,384.61656 171.09972,331.56203 171.09972,266.9942 v -37.34044 c 0,-6.84573 5.60107,-12.4468 12.44682,-12.4468 z"
       id="path1"
       style="stroke-width:0.777926" /></g></svg>
