<?xml version="1.0" encoding="UTF-8" standalone="no"?>
<svg
   viewBox="0 0 700 700"
   version="1.1"
   id="svg1"
   sodipodi:docname="input_lock_kitchen_black.svg"
   width="700"
   height="700"
   inkscape:version="1.3.2 (091e20ef0f, 2023-11-25)"
   xml:space="preserve"
   xmlns:inkscape="http://www.inkscape.org/namespaces/inkscape"
   xmlns:sodipodi="http://sodipodi.sourceforge.net/DTD/sodipodi-0.dtd"
   xmlns="http://www.w3.org/2000/svg"
   xmlns:svg="http://www.w3.org/2000/svg"><defs
     id="defs1" /><sodipodi:namedview
     id="namedview1"
     pagecolor="#ffffff"
     bordercolor="#000000"
     borderopacity="0.25"
     inkscape:showpageshadow="2"
     inkscape:pageopacity="0.0"
     inkscape:pagecheckerboard="0"
     inkscape:deskcolor="#d1d1d1"
     inkscape:zoom="0.99436891"
     inkscape:cx="171.46554"
     inkscape:cy="330.36029"
     inkscape:window-width="1895"
     inkscape:window-height="1347"
     inkscape:window-x="0"
     inkscape:window-y="0"
     inkscape:window-maximized="1"
     inkscape:current-layer="g1" /><!--! Font Awesome Pro 6.4.2 by @fontawesome - https://fontawesome.com License - https://fontawesome.com/license (Commercial License) Copyright 2023 Fonticons, Inc. --><g
     id="g1"
     transform="translate(54.43217,-5.5711238)"><text
       xml:space="preserve"
       style="font-weight:bold;font-size:72.8165px;font-family:'Noto Sans';-inkscape-font-specification:'Noto Sans, Bold';text-align:center;text-anchor:middle;fill:#000000;fill-opacity:1;stroke-width:0.758506"
       x="295.56778"
       y="637.68591"
       id="text1"><tspan
         sodipodi:role="line"
         id="tspan1"
         x="295.56778"
         y="637.68591"
         style="font-style:normal;font-variant:normal;font-weight:bold;font-stretch:normal;font-size:145.633px;font-family:'Noto Sans';-inkscape-font-specification:'Noto Sans, Bold';font-variant-ligatures:normal;font-variant-caps:normal;font-variant-numeric:normal;font-variant-east-asian:normal;fill:#000000;fill-opacity:1;stroke-width:0.758506">KITCHEN</tspan></text><path
       d="m 220.96084,167.30544 c 0,-41.18926 33.41771,-74.606983 74.60699,-74.606983 33.80629,0 62.32792,22.459813 71.49837,53.312913 1.94288,6.60582 8.85958,10.33617 15.4654,8.39329 6.60584,-1.9429 10.33618,-8.85959 8.39329,-15.46541 -12.20135,-41.111563 -50.282,-71.109791 -95.35706,-71.109791 -54.94494,0 -99.476,44.531041 -99.476,99.475981 v 49.738 h -12.4345 c -34.3503,0 -62.17249,27.82219 -62.17249,62.1725 v 124.34499 c 0,34.3503 27.82219,62.17249 62.17249,62.17249 h 223.82099 c 34.3503,0 62.1725,-27.82219 62.1725,-62.17249 V 279.21594 c 0,-34.35031 -27.8222,-62.1725 -62.1725,-62.1725 H 220.96084 Z m -74.607,111.9105 c 0,-20.59465 16.70886,-37.3035 37.30349,-37.3035 h 223.82099 c 20.59464,0 37.30349,16.70885 37.30349,37.3035 v 124.34499 c 0,20.59463 -16.70885,37.30349 -37.30349,37.30349 H 183.65733 c -20.59463,0 -37.30349,-16.70886 -37.30349,-37.30349 z"
       id="path1-1"
       style="stroke-width:0.777156" /></g></svg>
