<?xml version="1.0" encoding="UTF-8" standalone="no"?>
<svg
   viewBox="0 0 700 700"
   version="1.1"
   id="svg1"
   sodipodi:docname="microphone-stand.svg"
   width="700"
   height="700"
   inkscape:version="1.3.2 (091e20ef0f, 2023-11-25)"
   xmlns:inkscape="http://www.inkscape.org/namespaces/inkscape"
   xmlns:sodipodi="http://sodipodi.sourceforge.net/DTD/sodipodi-0.dtd"
   xmlns="http://www.w3.org/2000/svg"
   xmlns:svg="http://www.w3.org/2000/svg">
  <defs
     id="defs1" />
  <sodipodi:namedview
     id="namedview1"
     pagecolor="#ffffff"
     bordercolor="#000000"
     borderopacity="0.25"
     inkscape:showpageshadow="2"
     inkscape:pageopacity="0.0"
     inkscape:pagecheckerboard="0"
     inkscape:deskcolor="#d1d1d1"
     inkscape:zoom="1.40625"
     inkscape:cx="255.64444"
     inkscape:cy="255.64444"
     inkscape:window-width="1895"
     inkscape:window-height="1347"
     inkscape:window-x="0"
     inkscape:window-y="0"
     inkscape:window-maximized="1"
     inkscape:current-layer="svg1" />
  <!--! Font Awesome Pro 6.4.2 by @fontawesome - https://fontawesome.com License - https://fontawesome.com/license (Commercial License) Copyright 2023 Fonticons, Inc. -->
  <path
     d="m 543.5125,280.89376 -124.4,-124.4 4.7,-4.7 c 34.4,-34.4 90.1,-34.4 124.4,0 34.3,34.4 34.4,90.1 0,124.5 l -4.7,4.7 z m -22.6,22.6 -4.7,4.7 c -17.5,17.5 -40.6,26.1 -63.6,25.8 l -86.6,-86.6 c -0.4,-23 8.2,-46.1 25.8,-63.6 l 4.7,-4.7 z m -68.6,62.5 c 31.3,0.4 62.7,-11.3 86.5,-35.1 l 4.7,-4.7 11.3,-11.3 11.3,-11.3 4.7,-4.7 c 46.9,-46.9 46.9,-122.8 0,-169.7 -46.9,-46.900005 -122.8,-46.900005 -169.7,-0.1 l -4.7,4.7 -11.3,11.3 -11.3,11.4 -4.7,4.7 c -23.8,23.8 -35.5,55.2 -35.1,86.5 l -225,240 c -9.6,10.3 -15,23.9 -15,38 0,14.7 5.8,28.8 16.3,39.3 l 24.8,24.8 c 10.4,10.4 24.5,16.2 39.3,16.2 14.1,0 27.7,-5.4 38,-15 l 137.6,-129.1 v 128.1 c 0,8.8 7.2,16 16,16 8.8,0 16,-7.2 16,-16 v -158.1 z m -261.8,201.6 c -4.4,4.1 -10.1,6.4 -16.1,6.4 -6.2,0 -12.2,-2.5 -16.6,-6.9 l -24.9,-24.8 c -4.4,-4.4 -6.9,-10.4 -6.9,-16.6 0,-6 2.3,-11.7 6.4,-16.1 l 218,-232.6 72.6,72.6 z"
     id="path1" />
</svg>
