<?xml version="1.0" encoding="UTF-8" standalone="no"?>
<svg
   viewBox="0 0 700 700"
   version="1.1"
   id="svg1"
   sodipodi:docname="light_off.svg"
   width="700"
   height="700"
   inkscape:version="1.3.2 (091e20ef0f, 2023-11-25)"
   xmlns:inkscape="http://www.inkscape.org/namespaces/inkscape"
   xmlns:sodipodi="http://sodipodi.sourceforge.net/DTD/sodipodi-0.dtd"
   xmlns="http://www.w3.org/2000/svg"
   xmlns:svg="http://www.w3.org/2000/svg">
  <defs
     id="defs1" />
  <sodipodi:namedview
     id="namedview1"
     pagecolor="#ffffff"
     bordercolor="#000000"
     borderopacity="0.25"
     inkscape:showpageshadow="2"
     inkscape:pageopacity="0.0"
     inkscape:pagecheckerboard="0"
     inkscape:deskcolor="#d1d1d1"
     inkscape:zoom="1.125"
     inkscape:cx="319.55556"
     inkscape:cy="255.55556"
     inkscape:window-width="1895"
     inkscape:window-height="1347"
     inkscape:window-x="0"
     inkscape:window-y="0"
     inkscape:window-maximized="1"
     inkscape:current-layer="svg1" />
  <!--! Font Awesome Pro 6.4.2 by @fontawesome - https://fontawesome.com License - https://fontawesome.com/license (Commercial License) Copyright 2023 Fonticons, Inc. -->
  <path
     d="m 468.28081,352.07064 c -3.3,4.7 -6.9,9.7 -10.7,15 l 25.2,19.9 c 4,-5.5 8,-11 11.8,-16.6 19.8,-28.5 31.4,-63 31.4,-100.3 0,-97.3 -78.8,-176.100004 -176,-176.100004 -59.4,0 -112,29.400004 -143.8,74.500004 l 25.2,19.9 c 25.9,-37.7 69.4,-62.4 118.6,-62.4 79.5,0 144,64.5 144,144 0,30.6 -9.5,58.8 -25.7,82.1 z m -211.8,-143.8 25.2,19.9 c 14.1,-22.9 39.4,-38.2 68.3,-38.2 8.8,0 16,-7.2 16,-16 0,-8.8 -7.2,-16 -16,-16 -39,0 -73.4,20 -93.5,50.3 z m -25.4,143 -52.6,-41.6 c 5.1,22.1 14.3,42.5 26.9,60.5 5,7.2 10.2,14.3 15.4,21.4 v 0 0 0 0 c 12.3,16.8 24.6,33.7 34.5,51.8 5.9,10.8 9.6,22.5 11.8,34.5 h 32.4 c -2.5,-16.6 -7.3,-33.7 -16.2,-49.9 -10.9,-20 -25.3,-39.7 -38,-57.1 v 0 c -4.9,-6.7 -9.5,-13 -13.6,-19 l -0.5,-0.7 z m 73.6,190.7 h 90.5 c -6.6,18.6 -24.4,32 -45.3,32 -20.9,0 -38.7,-13.4 -45.3,-32 z m -34.7,-16 c 0,44.2 35.8,80 80,80 44.2,0 80,-35.8 80,-80 v -5.3 c 0,-5.9 -4.8,-10.7 -10.7,-10.7 h -138.6 c -5.9,0 -10.7,4.8 -10.7,10.7 z M 55.880809,97.370636 c -6.9,-5.4 -17,-4.2 -22.5,2.700004 -5.5,6.9 -4.2,17 2.7,22.5 l 608.000001,480 c 6.9,5.5 17,4.3 22.5,-2.6 5.5,-6.9 4.3,-17 -2.6,-22.5 z"
     id="path1" />
</svg>
