<?xml version="1.0" encoding="UTF-8" standalone="no"?>
<svg
   viewBox="0 0 700 700"
   version="1.1"
   id="svg1"
   sodipodi:docname="light_medium.svg"
   width="700"
   height="700"
   inkscape:version="1.3.2 (091e20ef0f, 2023-11-25)"
   xmlns:inkscape="http://www.inkscape.org/namespaces/inkscape"
   xmlns:sodipodi="http://sodipodi.sourceforge.net/DTD/sodipodi-0.dtd"
   xmlns="http://www.w3.org/2000/svg"
   xmlns:svg="http://www.w3.org/2000/svg">
  <defs
     id="defs1" />
  <sodipodi:namedview
     id="namedview1"
     pagecolor="#ffffff"
     bordercolor="#000000"
     borderopacity="0.25"
     inkscape:showpageshadow="2"
     inkscape:pageopacity="0.0"
     inkscape:pagecheckerboard="0"
     inkscape:deskcolor="#d1d1d1"
     inkscape:zoom="1.125"
     inkscape:cx="319.55556"
     inkscape:cy="362.22222"
     inkscape:window-width="1895"
     inkscape:window-height="1347"
     inkscape:window-x="0"
     inkscape:window-y="0"
     inkscape:window-maximized="1"
     inkscape:current-layer="svg1" />
  <!--! Font Awesome Pro 6.4.2 by @fontawesome - https://fontawesome.com License - https://fontawesome.com/license (Commercial License) Copyright 2023 Fonticons, Inc. -->
  <path
     d="m 493.95,270 c 0,30.6 -9.5,58.8 -25.7,82.1 -4.1,5.9 -8.7,12.3 -13.6,19 -12.7,17.5 -27.1,37.2 -38,57.1 -8.9,16.2 -13.7,33.3 -16.2,49.9 h 32.5 c 2.2,-12 5.9,-23.7 11.8,-34.5 9.9,-18 22.2,-34.9 34.5,-51.8 v 0 0 0 c 5.2,-7.1 10.4,-14.2 15.4,-21.4 19.8,-28.5 31.4,-63 31.4,-100.3 C 525.95,172.8 447.15,94 349.95,94 c -97.2,0 -176,78.8 -176,176 0,37.3 11.6,71.9 31.4,100.3 5,7.2 10.2,14.3 15.4,21.4 v 0 0 0 c 12.3,16.8 24.6,33.7 34.5,51.8 5.9,10.8 9.6,22.5 11.8,34.5 h 32.4 c -2.5,-16.6 -7.3,-33.7 -16.2,-49.9 -10.9,-20 -25.3,-39.7 -38,-57.1 v 0 c -4.9,-6.7 -9.5,-13 -13.6,-19 -16.2,-23.2 -25.7,-51.4 -25.7,-82 0,-79.5 64.5,-144 144,-144 79.5,0 144,64.5 144,144 z m -224,0 c 0,-44.2 35.8,-80 80,-80 8.8,0 16,-7.2 16,-16 0,-8.8 -7.2,-16 -16,-16 -61.9,0 -112,50.1 -112,112 0,8.8 7.2,16 16,16 8.8,0 16,-7.2 16,-16 z m 80,304 c -20.9,0 -38.7,-13.4 -45.3,-32 h 90.5 c -6.6,18.6 -24.4,32 -45.3,32 z m -80,-53.3 v 5.3 c 0,44.2 35.8,80 80,80 44.2,0 80,-35.8 80,-80 v -5.3 c 0,-5.9 -4.8,-10.7 -10.7,-10.7 h -138.6 c -5.9,0 -10.7,4.8 -10.7,10.7 z"
     id="path1"
     sodipodi:nodetypes="sccccccsccsccsscsccsccccsscsssssssssscccccssssssss" />
  <path
     d="m 89.902642,208.26331 c -3.703125,-1.875 -8.203125,-0.32812 -10.078125,3.375 -1.875,3.70313 -0.328125,8.20313 3.375,10.07813 l 30.000003,15 c 3.70312,1.875 8.20312,0.32812 10.07812,-3.375 1.875,-3.70313 0.32813,-8.20313 -3.375,-10.07813 z m -18.375,74.20313 c -4.125,0 -7.5,3.375 -7.5,7.5 0,4.125 3.375,7.5 7.5,7.5 h 29.999998 c 4.125,0 7.5,-3.375 7.5,-7.5 0,-4.125 -3.375,-7.5 -7.5,-7.5 z m 48.374998,74.20312 c 3.70313,-1.875 5.20313,-6.375 3.375,-10.07812 -1.82812,-3.70313 -6.375,-5.20313 -10.07812,-3.375 l -30.000003,15 c -3.703125,1.875 -5.203125,6.375 -3.375,10.07812 1.828125,3.70313 6.375,5.20313 10.078125,3.375 z"
     id="path1-2"
     sodipodi:nodetypes="csccsccssssssscsccscc"
     style="stroke-width:0.46875" />
  <path
     d="m 616.87392,221.69285 c 3.70312,-1.875 5.20312,-6.375 3.375,-10.07813 -1.82813,-3.70312 -6.375,-5.20312 -10.07813,-3.375 l -30,15 c -3.70312,1.875 -5.20312,6.375 -3.375,10.07813 1.82813,3.70312 6.375,5.20312 10.07813,3.375 z m -18.375,60.79687 c -4.125,0 -7.5,3.375 -7.5,7.5 0,4.125 3.375,7.5 7.5,7.5 h 30 c 4.125,0 7.5,-3.375 7.5,-7.5 0,-4.125 -3.375,-7.5 -7.5,-7.5 z m -11.625,60.79688 c -3.70313,-1.875 -8.20313,-0.32813 -10.07813,3.375 -1.875,3.70312 -0.32812,8.20312 3.375,10.07812 l 30,15 c 3.70313,1.875 8.20313,0.32813 10.07813,-3.375 1.875,-3.70312 0.32812,-8.20312 -3.375,-10.07812 z"
     id="path1-4"
     style="stroke-width:0.46875" />
</svg>
