<?xml version="1.0" encoding="UTF-8" standalone="no"?>
<!-- Uploaded to: SVG Repo, www.svgrepo.com, Generator: SVG Repo Mixer Tools -->

<svg
   width="800px"
   height="800px"
   viewBox="0 0 24 24"
   fill="none"
   version="1.1"
   id="svg1"
   sodipodi:docname="logo_discord_light_black.svg"
   inkscape:version="1.3.2 (091e20ef0f, 2023-11-25)"
   xmlns:inkscape="http://www.inkscape.org/namespaces/inkscape"
   xmlns:sodipodi="http://sodipodi.sourceforge.net/DTD/sodipodi-0.dtd"
   xmlns="http://www.w3.org/2000/svg"
   xmlns:svg="http://www.w3.org/2000/svg">
  <defs
     id="defs1" />
  <sodipodi:namedview
     id="namedview1"
     pagecolor="#ffffff"
     bordercolor="#000000"
     borderopacity="0.25"
     inkscape:showpageshadow="2"
     inkscape:pageopacity="0.0"
     inkscape:pagecheckerboard="0"
     inkscape:deskcolor="#d1d1d1"
     inkscape:zoom="0.9"
     inkscape:cx="399.44444"
     inkscape:cy="399.44444"
     inkscape:window-width="1895"
     inkscape:window-height="1347"
     inkscape:window-x="0"
     inkscape:window-y="0"
     inkscape:window-maximized="1"
     inkscape:current-layer="svg1" />
  <path
     d="m 17.505411,7.0079935 c -1.032,-0.47199 -2.127975,-0.8159925 -3.27195,-1.0079925 -0.144075,0.2480025 -0.30405,0.583995 -0.416025,0.8480025 -1.2168,-0.17601 -2.424825,-0.17601 -3.624817,0 -0.112005,-0.2640075 -0.2800126,-0.6 -0.4160176,-0.8480025 -1.1519775,0.192 -2.2479825,0.5360025 -3.272775,1.0079925 -2.071995,3.0559945 -2.631999,6.0399825 -2.352,8.9839575 1.375995,0.999975 2.704005,1.608 4.00881,2.00805 0.319995,-0.432 0.6080025,-0.896025 0.856005,-1.38405 -0.472005,-0.17595 -0.9200025,-0.39195 -1.3520025,-0.648 0.1119975,-0.07995 0.2240025,-0.167925 0.328005,-0.255975 2.6079891,1.19205 5.4327671,1.19205 8.0087921,0 0.111975,0.08805 0.216,0.176025 0.327975,0.255975 -0.432,0.25605 -0.879975,0.47205 -1.352025,0.648 0.248025,0.488025 0.536025,0.95205 0.85605,1.38405 1.30395,-0.40005 2.64,-1.008075 4.00875,-2.00805 0.344025,-3.407925 -0.5448,-6.367935 -2.336775,-8.9839575 z M 9.3766339,14.175976 c -0.7840125,0 -1.42401,-0.711975 -1.42401,-1.584 0,-0.87195 0.624,-1.583993 1.42401,-1.583993 0.7919851,0 1.4399621,0.712043 1.4239571,1.583993 0,0.872025 -0.631972,1.584 -1.4239571,1.584 z m 5.2568021,0 c -0.78405,0 -1.42485,-0.711975 -1.42485,-1.584 0,-0.87195 0.624825,-1.583993 1.42485,-1.583993 0.792,0 1.44,0.712043 1.42395,1.583993 0,0.872025 -0.623925,1.584 -1.42395,1.584 z"
     stroke="#000000"
     stroke-linejoin="round"
     id="path1"
     style="stroke-width:0.75" />
</svg>
