<?xml version="1.0" encoding="UTF-8" standalone="no"?>
<svg
   viewBox="0 0 512 512"
   version="1.1"
   id="svg2"
   sodipodi:docname="logo_link.bio_plain_black.svg"
   inkscape:version="1.3.2 (091e20ef0f, 2023-11-25)"
   xmlns:inkscape="http://www.inkscape.org/namespaces/inkscape"
   xmlns:sodipodi="http://sodipodi.sourceforge.net/DTD/sodipodi-0.dtd"
   xmlns="http://www.w3.org/2000/svg"
   xmlns:svg="http://www.w3.org/2000/svg">
  <defs
     id="defs2" />
  <sodipodi:namedview
     id="namedview2"
     pagecolor="#ffffff"
     bordercolor="#000000"
     borderopacity="0.25"
     inkscape:showpageshadow="2"
     inkscape:pageopacity="0.0"
     inkscape:pagecheckerboard="0"
     inkscape:deskcolor="#d1d1d1"
     inkscape:zoom="1.40625"
     inkscape:cx="255.64444"
     inkscape:cy="255.64444"
     inkscape:window-width="1895"
     inkscape:window-height="1347"
     inkscape:window-x="0"
     inkscape:window-y="0"
     inkscape:window-maximized="1"
     inkscape:current-layer="svg2" />
  <path
     fill="#ffffff66"
     d="m 137.85023,253.35 20.6,-20.6 c 5.5,-5.5 14.9,-1.9 15.2,5.9 0.4,10 2.1,19.8 5.4,29.3 1.1,3.2 0.3,6.8 -2.1,9.2 l -7.3,7.3 c -15.6,15.6 -16.1,41 -0.6,56.7 a 40.1,40.1 0 0 0 56.7,0.5 l 37.5,-37.6 a 40.08,40.08 0 0 0 -5.8,-61.4 8.74,8.74 0 0 1 -3.9,-7 c -0.2,-6.2 2.1,-12.2 6.5,-16.6 l 11.7,-11.7 c 3.1,-3.1 7.9,-3.5 11.4,-1 38.3,26.7 47.6,79.5 20.9,117.7 -2.8,4 -5.9,7.7 -7.7,9.5 l -39.1,39.1 c -33,33 -86.6,33 -119.6,0 -33,-33 -32.8,-86.3 0.2,-119.3 z"
     id="path1"
     style="fill:#1a1a1a;fill-opacity:1" />
  <path
     fill="#ffffff"
     d="m 341.15023,226.05 c 15.6,-15.6 16.1,-41 0.6,-56.7 a 40.1,40.1 0 0 0 -56.7,-0.5 l -0.2,0.2 -37.3,37.3 a 40.08,40.08 0 0 0 5.8,61.4 c 2.4,1.6 3.8,4.2 3.9,7 0.2,6.2 -2.1,12.2 -6.5,16.6 l -11.8,11.7 a 8.83,8.83 0 0 1 -11.4,1 c -38.3,-26.7 -47.7,-79.5 -20.9,-117.7 2.8,-4 5.9,-7.7 9.4,-11.1 l 0.2,-0.2 37.3,-37.3 c 33,-33 86.6,-33 119.6,0 33,33 33,86.6 0,119.6 l -20.7,20.5 c -5.5,5.5 -14.9,1.9 -15.2,-5.9 -0.4,-10 -2.1,-19.8 -5.4,-29.3 -1.1,-3.2 -0.3,-6.8 2.1,-9.2 z"
     id="path2"
     style="fill:#1a1a1a" />
</svg>
