<?xml version="1.0" encoding="UTF-8" standalone="no"?>
<svg
   version="1.1"
   width="256"
   height="256"
   viewBox="0 0 256 256"
   xml:space="preserve"
   id="svg1"
   sodipodi:docname="logo_youtube_plain_white.svg"
   inkscape:version="1.3.2 (091e20ef0f, 2023-11-25)"
   xmlns:inkscape="http://www.inkscape.org/namespaces/inkscape"
   xmlns:sodipodi="http://sodipodi.sourceforge.net/DTD/sodipodi-0.dtd"
   xmlns="http://www.w3.org/2000/svg"
   xmlns:svg="http://www.w3.org/2000/svg"><sodipodi:namedview
   id="namedview1"
   pagecolor="#ffffff"
   bordercolor="#000000"
   borderopacity="0.25"
   inkscape:showpageshadow="2"
   inkscape:pageopacity="0.0"
   inkscape:pagecheckerboard="0"
   inkscape:deskcolor="#d1d1d1"
   inkscape:zoom="2.8125"
   inkscape:cx="127.82222"
   inkscape:cy="127.82222"
   inkscape:window-width="1895"
   inkscape:window-height="1347"
   inkscape:window-x="0"
   inkscape:window-y="0"
   inkscape:window-maximized="1"
   inkscape:current-layer="svg1" />

<defs
   id="defs1">
</defs>
<g
   style="opacity:1;fill:#ffffff;fill-opacity:1;fill-rule:nonzero;stroke:none;stroke-width:0;stroke-linecap:butt;stroke-linejoin:miter;stroke-miterlimit:10;stroke-dasharray:none"
   transform="matrix(2.1075,0,0,2.1075,33.019093,33.019093)"
   id="g1">
	<path
   d="M 88.119,23.338 C 87.084,19.466 84.034,16.416 80.162,15.381 73.144,13.5 45,13.5 45,13.5 c 0,0 -28.144,0 -35.162,1.881 C 5.966,16.416 2.916,19.466 1.881,23.338 0,30.356 0,45 0,45 0,45 0,59.644 1.881,66.662 2.916,70.534 5.966,73.584 9.838,74.619 16.856,76.5 45,76.5 45,76.5 c 0,0 28.144,0 35.162,-1.881 3.872,-1.035 6.922,-4.085 7.957,-7.957 C 90,59.644 90,45 90,45 90,45 90,30.356 88.119,23.338 Z M 36,58.5 v -27 L 59.382,45 Z"
   style="opacity:1;fill:#ffffff;fill-opacity:1;fill-rule:nonzero;stroke:none;stroke-width:1;stroke-linecap:butt;stroke-linejoin:miter;stroke-miterlimit:10;stroke-dasharray:none"
   stroke-linecap="round"
   id="path1" />
</g>
</svg>
