<?xml version="1.0" encoding="UTF-8" standalone="no"?>
<svg
   version="1.1"
   width="256"
   height="256"
   viewBox="0 0 256 256"
   xml:space="preserve"
   id="svg1"
   sodipodi:docname="logo_github_plain_black.svg"
   inkscape:version="1.3.2 (091e20ef0f, 2023-11-25)"
   xmlns:inkscape="http://www.inkscape.org/namespaces/inkscape"
   xmlns:sodipodi="http://sodipodi.sourceforge.net/DTD/sodipodi-0.dtd"
   xmlns="http://www.w3.org/2000/svg"
   xmlns:svg="http://www.w3.org/2000/svg"><sodipodi:namedview
   id="namedview1"
   pagecolor="#ffffff"
   bordercolor="#000000"
   borderopacity="0.25"
   inkscape:showpageshadow="2"
   inkscape:pageopacity="0.0"
   inkscape:pagecheckerboard="0"
   inkscape:deskcolor="#d1d1d1"
   inkscape:zoom="2.8125"
   inkscape:cx="127.82222"
   inkscape:cy="127.82222"
   inkscape:window-width="1895"
   inkscape:window-height="1347"
   inkscape:window-x="0"
   inkscape:window-y="0"
   inkscape:window-maximized="1"
   inkscape:current-layer="svg1" />

<defs
   id="defs1">
</defs>
<g
   style="opacity:1;fill:none;fill-rule:nonzero;stroke:none;stroke-width:0;stroke-linecap:butt;stroke-linejoin:miter;stroke-miterlimit:10;stroke-dasharray:none"
   transform="matrix(2.1075,0,0,2.1075,33.019118,33.020329)"
   id="g1">
	<path
   d="M 60.394,90.002 H 35.32 c -2.149,0 -3.912,-1.746 -3.93,-3.892 l -0.007,-0.874 c -0.012,-1.419 -0.027,-3.12 -0.04,-4.937 -14.895,2.2 -19.076,-7.408 -19.513,-8.541 v 0 C 9.552,65.971 6.376,64.311 6.343,64.295 L 6.09,64.147 c -1.12,-0.765 -3.741,-2.558 -3,-4.903 0.669,-2.112 3.422,-2.297 4.553,-2.291 l 0.114,0.005 c 6.86,0.481 10.4,6.77 10.547,7.037 3.84,6.579 9.715,5.793 13.424,4.386 0.361,-1.812 0.959,-3.458 1.762,-4.872 C 21.946,61.561 8.658,55.605 8.658,33.204 c 0,-6.118 1.926,-11.522 5.73,-16.078 -0.843,-2.7 -1.892,-8.441 0.981,-15.727 L 15.717,0.516 16.62,0.227 c 0.583,-0.188 5.912,-1.57 16.999,5.714 4.514,-1.169 9.294,-1.773 14.225,-1.796 4.948,0.022 9.733,0.626 14.254,1.796 11.072,-7.284 16.398,-5.9 16.982,-5.713 l 0.901,0.289 0.349,0.881 c 2.877,7.282 1.83,13.025 0.988,15.726 3.798,4.544 5.722,9.948 5.722,16.08 0,22.406 -13.303,28.34 -24.869,30.265 1.426,2.496 2.207,5.712 2.207,9.29 0,5.203 -0.03,9.727 -0.05,12.736 l -0.004,0.608 c -0.014,2.15 -1.777,3.899 -3.93,3.899 z m -25.004,-4 h 24.934 l 0.003,-0.533 c 0.02,-3.002 0.05,-7.517 0.05,-12.71 0,-5.829 -2.281,-8.432 -3.263,-9.281 l -3.462,-2.994 4.55,-0.506 c 12.282,-1.366 24.837,-5.616 24.837,-26.774 0,-5.519 -1.842,-10.328 -5.474,-14.295 l -0.857,-0.937 0.483,-1.175 C 77.589,15.831 79.358,10.868 77.023,3.995 75.322,4.04 70.976,4.75 63.578,9.764 l -0.766,0.519 -0.891,-0.247 C 57.544,8.822 52.675,8.169 47.844,8.147 43.03,8.169 38.167,8.822 33.798,10.036 L 32.907,10.284 32.141,9.765 C 24.77,4.774 20.424,4.047 18.673,4.005 16.347,10.876 18.116,15.831 18.514,16.796 l 0.484,1.174 -0.856,0.938 c -3.638,3.983 -5.483,8.793 -5.483,14.297 0,21.148 12.528,25.425 24.784,26.82 l 4.505,0.513 -3.415,2.982 c -0.902,0.787 -2.497,2.688 -3.035,6.563 l -0.152,1.098 -1.011,0.452 c -3.016,1.35 -13.329,4.928 -19.508,-5.662 -0.042,-0.073 -2.133,-3.725 -5.872,-4.765 1.476,0.993 4.416,3.542 6.598,9.089 l 0.039,0.107 c 0.118,0.337 3.196,8.616 17.313,5.548 l 2.412,-0.524 0.013,2.468 c 0.014,2.687 0.037,5.286 0.054,7.31 z"
   style="opacity:1;fill:#24292e;fill-rule:nonzero;stroke:none;stroke-width:1;stroke-linecap:butt;stroke-linejoin:miter;stroke-miterlimit:10;stroke-dasharray:none"
   stroke-linecap="round"
   id="path1" />
</g>
</svg>
