<?xml version="1.0" encoding="UTF-8" standalone="no"?>
<svg
   version="1.1"
   width="256"
   height="256"
   viewBox="0 0 256 256"
   xml:space="preserve"
   id="svg1"
   sodipodi:docname="onlyfans-logo-15227.svg"
   inkscape:version="1.3.2 (091e20ef0f, 2023-11-25)"
   xmlns:inkscape="http://www.inkscape.org/namespaces/inkscape"
   xmlns:sodipodi="http://sodipodi.sourceforge.net/DTD/sodipodi-0.dtd"
   xmlns="http://www.w3.org/2000/svg"
   xmlns:svg="http://www.w3.org/2000/svg"><sodipodi:namedview
   id="namedview1"
   pagecolor="#ffffff"
   bordercolor="#000000"
   borderopacity="0.25"
   inkscape:showpageshadow="2"
   inkscape:pageopacity="0.0"
   inkscape:pagecheckerboard="0"
   inkscape:deskcolor="#d1d1d1"
   inkscape:zoom="2.8125"
   inkscape:cx="127.82222"
   inkscape:cy="127.82222"
   inkscape:window-width="1895"
   inkscape:window-height="1347"
   inkscape:window-x="0"
   inkscape:window-y="0"
   inkscape:window-maximized="1"
   inkscape:current-layer="svg1" />

<defs
   id="defs1">
</defs>
<path
   d="m 10.678,41.285 c 1.994,-8.404 8.688,-15.038 17.105,-16.979 6.925,-1.596 13.498,-0.108 18.62,3.362 -2.685,3.121 -4.914,7.905 -7.419,15.211 -1.52,-2.081 -4.152,-3.298 -7.029,-2.748 -2.74,0.524 -4.953,2.725 -5.485,5.464 C 25.599,50.077 29.008,54 33.333,54 h 0.019 c 0.76,-10e-4 1.489,-0.127 2.173,-0.352 L 30.338,70.135 C 17.068,68.433 7.283,55.594 10.678,41.285 Z M 59.56,41.167 c 5.929,1.706 12.927,0 12.927,0 -2.031,8.867 -8.471,14.42 -17.758,15.096 -3.681,8.543 -12.093,14.076 -21.396,14.071 l 7,-22.249 C 47.529,25.216 51.218,23.667 68.283,23.667 H 80 c -1.96,8.633 -8.715,15.228 -20.44,17.5 z"
   style="opacity:1;fill:#ffffff;fill-rule:nonzero;stroke:none;stroke-width:1;stroke-linecap:butt;stroke-linejoin:miter;stroke-miterlimit:10;stroke-dasharray:none;fill-opacity:1"
   transform="matrix(2.81,0,0,2.81,1.4065934,1.4065934)"
   stroke-linecap="round"
   id="path1"
   sodipodi:nodetypes="ccccccscccccccccscc" />
</svg>
