<?xml version="1.0" encoding="UTF-8" standalone="no"?>
<svg
   viewBox="0 0 448 512"
   version="1.1"
   id="svg1"
   sodipodi:docname="logo_mastodon_plain_black.svg"
   inkscape:version="1.3.2 (091e20ef0f, 2023-11-25)"
   xmlns:inkscape="http://www.inkscape.org/namespaces/inkscape"
   xmlns:sodipodi="http://sodipodi.sourceforge.net/DTD/sodipodi-0.dtd"
   xmlns="http://www.w3.org/2000/svg"
   xmlns:svg="http://www.w3.org/2000/svg">
  <defs
     id="defs1" />
  <sodipodi:namedview
     id="namedview1"
     pagecolor="#ffffff"
     bordercolor="#000000"
     borderopacity="0.25"
     inkscape:showpageshadow="2"
     inkscape:pageopacity="0.0"
     inkscape:pagecheckerboard="0"
     inkscape:deskcolor="#d1d1d1"
     inkscape:zoom="1.6071429"
     inkscape:cx="223.68889"
     inkscape:cy="256.04444"
     inkscape:window-width="1895"
     inkscape:window-height="1347"
     inkscape:window-x="0"
     inkscape:window-y="0"
     inkscape:window-maximized="1"
     inkscape:current-layer="svg1" />
  <!--! Font Awesome Pro 6.4.2 by @fontawesome - https://fontawesome.com License - https://fontawesome.com/license (Commercial License) Copyright 2023 Fonticons, Inc. -->
  <path
     d="m 380.75408,198.3408 c 0,-72.9 -47.7825,-94.275 -47.7825,-94.275 -46.89,-21.524996 -171.42,-21.299996 -217.86,0 0,0 -47.789997,21.375 -47.789997,94.275 0,86.775 -4.95,194.55 79.222497,216.825 30.3825,8.025 56.49,9.75 77.4975,8.55 38.1075,-2.1 59.49,-13.575 59.49,-13.575 l -1.275,-27.675 c 0,0 -27.2325,8.55 -57.84,7.575 -30.3075,-1.05 -62.25,-3.3 -67.2225,-40.5 a 76.905,76.905 0 0 1 -0.675,-10.425 c 64.2225,15.675 118.9875,6.825 134.0625,5.025 42.09,-5.025 78.75,-30.975 83.4225,-54.675 7.35,-37.35 6.75,-91.125 6.75,-91.125 z m -56.34,93.9 h -34.9725 v -85.65 c 0,-37.275 -48,-38.7 -48,5.175 v 46.875 h -34.7475 v -46.8825 c 0,-43.875 -48,-42.45 -48,-5.175 v 85.65 h -35.0475 c 0,-91.575 -3.9,-110.925 13.8075,-131.25 19.425,-21.675 59.865,-23.1 77.8725,4.575 l 8.7,14.625 8.7,-14.625 c 18.0825,-27.825 58.59,-26.1 77.8725,-4.575 17.7825,20.475 13.8,39.75 13.8,131.25 z"
     id="path1"
     style="stroke-width:0.75" />
</svg>
