<?xml version="1.0" encoding="UTF-8" standalone="no"?>
<svg
   version="1.1"
   width="256"
   height="256"
   viewBox="0 0 256 256"
   xml:space="preserve"
   id="svg4"
   sodipodi:docname="logo_reddit_plain_white.svg"
   inkscape:version="1.3.2 (091e20ef0f, 2023-11-25)"
   xmlns:inkscape="http://www.inkscape.org/namespaces/inkscape"
   xmlns:sodipodi="http://sodipodi.sourceforge.net/DTD/sodipodi-0.dtd"
   xmlns="http://www.w3.org/2000/svg"
   xmlns:svg="http://www.w3.org/2000/svg"><sodipodi:namedview
   id="namedview4"
   pagecolor="#ffffff"
   bordercolor="#000000"
   borderopacity="0.25"
   inkscape:showpageshadow="2"
   inkscape:pageopacity="0.0"
   inkscape:pagecheckerboard="0"
   inkscape:deskcolor="#d1d1d1"
   inkscape:zoom="2.8125"
   inkscape:cx="127.82222"
   inkscape:cy="127.82222"
   inkscape:window-width="1895"
   inkscape:window-height="1347"
   inkscape:window-x="0"
   inkscape:window-y="0"
   inkscape:window-maximized="1"
   inkscape:current-layer="svg4" />

<defs
   id="defs1">
</defs>
<g
   style="opacity:1;fill:#ffffff;fill-rule:nonzero;stroke:none;stroke-width:0;stroke-linecap:butt;stroke-linejoin:miter;stroke-miterlimit:10;stroke-dasharray:none;fill-opacity:1"
   transform="matrix(2.1075,0,0,2.1075,33.049641,32.071421)"
   id="g4">
	<path
   d="M 45.19,84.802 C 23.369,84.802 5.61,72.185 5.56,56.662 5.522,56.078 5.507,55.492 5.514,54.905 4.86,54.507 4.234,54.029 3.644,53.478 1.421,51.396 0.146,48.576 0.05,45.535 c -0.096,-3.045 1,-5.944 3.086,-8.162 2.077,-2.217 4.897,-3.493 7.938,-3.589 2.517,-0.08 4.933,0.655 6.948,2.09 7.07,-4.481 15.131,-7.034 23.485,-7.437 L 45.936,7.619 C 45.943,7.565 45.952,7.512 45.963,7.463 46.191,6.426 46.81,5.54 47.705,4.971 48.598,4.402 49.662,4.217 50.696,4.448 L 66.49,7.604 c 1.059,0.212 1.747,1.242 1.535,2.302 -0.211,1.059 -1.244,1.745 -2.301,1.535 L 49.799,8.259 C 49.795,8.28 49.791,8.302 49.787,8.322 l -4.292,20.175 c 8.266,0.582 19.14,3.267 26.48,7.764 1.829,-1.32 4.002,-2.075 6.258,-2.154 6.28,-0.203 11.576,4.711 11.808,10.976 0.07,3.952 -1.928,7.647 -5.176,9.771 0.009,0.604 -0.007,1.208 -0.046,1.808 C 84.767,72.184 67.01,84.802 45.19,84.802 Z M 11.44,37.691 c -0.081,0 -0.162,10e-4 -0.243,0.004 -1.995,0.063 -3.845,0.9 -5.208,2.356 -1.372,1.459 -2.091,3.362 -2.028,5.361 0.063,1.995 0.9,3.845 2.356,5.208 0.623,0.582 1.294,1.034 1.99,1.341 0.753,0.333 1.218,1.102 1.162,1.923 -0.058,0.855 -0.058,1.722 0,2.578 0.003,0.044 0.004,0.089 0.004,0.133 0,13.396 16.022,24.294 35.717,24.294 19.694,0 35.717,-10.898 35.717,-24.294 0,-0.045 0.002,-0.089 0.005,-0.134 0.058,-0.855 0.058,-1.722 0,-2.577 -0.054,-0.787 0.371,-1.53 1.077,-1.884 2.566,-1.283 4.192,-3.957 4.141,-6.812 -0.151,-4.077 -3.647,-7.294 -7.762,-7.172 -1.817,0.063 -3.559,0.802 -4.901,2.08 -0.667,0.635 -1.688,0.72 -2.45,0.2 -7.27,-4.952 -19.8,-7.814 -27.92,-7.998 -8.622,0.146 -16.957,2.78 -24.104,7.616 -0.759,0.512 -1.771,0.432 -2.437,-0.195 -1.399,-1.312 -3.207,-2.028 -5.116,-2.028 z m 32.564,37.688 c -5.779,0 -11.464,-1.896 -16.12,-5.396 -0.864,-0.649 -1.037,-1.875 -0.388,-2.739 0.65,-0.865 1.875,-1.037 2.739,-0.389 4.232,3.181 9.455,4.818 14.712,4.59 0.054,-0.002 0.109,-0.002 0.164,0 5.261,0.205 10.484,-1.411 14.713,-4.59 0.593,-0.445 1.386,-0.519 2.05,-0.186 0.663,0.331 1.082,1.009 1.082,1.75 v 0.257 c 0,0.975 -0.715,1.785 -1.649,1.933 -4.765,3.292 -10.51,4.961 -16.277,4.75 -0.342,0.013 -0.685,0.02 -1.026,0.02 z"
   style="opacity:1;fill:#ffffff;fill-rule:nonzero;stroke:none;stroke-width:1;stroke-linecap:butt;stroke-linejoin:miter;stroke-miterlimit:10;stroke-dasharray:none;fill-opacity:1"
   stroke-linecap="round"
   id="path1" />
	<path
   d="m 23.453,51.63 c 0,-3.566 2.908,-6.475 6.475,-6.475 3.566,0 6.475,2.908 6.475,6.475 0,3.566 -2.908,6.475 -6.475,6.475 -3.582,-0.034 -6.475,-2.909 -6.475,-6.475 z"
   style="opacity:1;fill:#ffffff;fill-rule:nonzero;stroke:none;stroke-width:1;stroke-linecap:butt;stroke-linejoin:miter;stroke-miterlimit:10;stroke-dasharray:none;fill-opacity:1"
   stroke-linecap="round"
   id="path2" />
	<path
   d="m 60.115,58.57 c -0.112,0 -0.208,0 -0.322,0 l 0.049,-0.241 c -3.566,0 -6.475,-2.908 -6.475,-6.475 0,-3.566 2.908,-6.475 6.475,-6.475 3.567,0 6.475,2.908 6.475,6.475 0.144,3.567 -2.636,6.571 -6.202,6.716 z"
   style="opacity:1;fill:#ffffff;fill-rule:nonzero;stroke:none;stroke-width:1;stroke-linecap:butt;stroke-linejoin:miter;stroke-miterlimit:10;stroke-dasharray:none;fill-opacity:1"
   stroke-linecap="round"
   id="path3" />
	<path
   d="m 72.514,18.796 c -4.493,0 -8.148,-3.655 -8.148,-8.148 0,-4.493 3.655,-8.148 8.148,-8.148 4.493,0 8.148,3.655 8.148,8.148 0,4.493 -3.656,8.148 -8.148,8.148 z m 0,-12.382 c -2.335,0 -4.235,1.9 -4.235,4.235 0,2.335 1.9,4.235 4.235,4.235 2.335,0 4.235,-1.9 4.235,-4.235 0,-2.335 -1.901,-4.235 -4.235,-4.235 z"
   style="opacity:1;fill:#ffffff;fill-rule:nonzero;stroke:none;stroke-width:1;stroke-linecap:butt;stroke-linejoin:miter;stroke-miterlimit:10;stroke-dasharray:none;fill-opacity:1"
   stroke-linecap="round"
   id="path4" />
</g>
</svg>
