<?xml version="1.0" encoding="UTF-8" standalone="no"?>
<svg
   version="1.1"
   width="256"
   height="256"
   viewBox="0 0 256 256"
   xml:space="preserve"
   id="svg3"
   sodipodi:docname="logo_instagram_plain_black.svg"
   inkscape:version="1.3.2 (091e20ef0f, 2023-11-25)"
   xmlns:inkscape="http://www.inkscape.org/namespaces/inkscape"
   xmlns:sodipodi="http://sodipodi.sourceforge.net/DTD/sodipodi-0.dtd"
   xmlns="http://www.w3.org/2000/svg"
   xmlns:svg="http://www.w3.org/2000/svg"><sodipodi:namedview
   id="namedview3"
   pagecolor="#ffffff"
   bordercolor="#000000"
   borderopacity="0.25"
   inkscape:showpageshadow="2"
   inkscape:pageopacity="0.0"
   inkscape:pagecheckerboard="0"
   inkscape:deskcolor="#d1d1d1"
   inkscape:zoom="2.8125"
   inkscape:cx="127.82222"
   inkscape:cy="127.82222"
   inkscape:window-width="1895"
   inkscape:window-height="1347"
   inkscape:window-x="0"
   inkscape:window-y="0"
   inkscape:window-maximized="1"
   inkscape:current-layer="svg3" />

<defs
   id="defs1">
</defs>
<g
   style="opacity:1;fill:#1a1a1a;fill-rule:nonzero;stroke:none;stroke-width:0;stroke-linecap:butt;stroke-linejoin:miter;stroke-miterlimit:10;stroke-dasharray:none;fill-opacity:1"
   transform="matrix(2.1075,0,0,2.1075,33.019861,33.020845)"
   id="g3">
	<path
   d="M 31.336,8.741 C 31.258,7.031 30.986,5.863 30.589,4.841 30.186,3.769 29.553,2.798 28.736,1.995 27.934,1.178 26.962,0.545 25.89,0.141 c -1.022,-0.397 -2.19,-0.668 -3.9,-0.746 -1.713,-0.078 -2.261,-0.097 -6.624,-0.097 -4.363,0 -4.911,0.019 -6.624,0.097 -1.71,0.078 -2.878,0.35 -3.9,0.747 C 3.769,0.546 2.798,1.178 1.996,1.996 1.179,2.798 0.546,3.769 0.142,4.842 c -0.397,1.022 -0.668,2.19 -0.746,3.9 -0.079,1.714 -0.097,2.261 -0.097,6.625 0,4.364 0.019,4.911 0.097,6.625 0.078,1.71 0.35,2.878 0.747,3.9 0.403,1.072 1.036,2.043 1.853,2.846 0.802,0.817 1.774,1.45 2.846,1.853 1.022,0.397 2.19,0.669 3.9,0.747 1.713,0.078 2.261,0.097 6.624,0.097 4.363,0 4.911,-0.018 6.624,-0.097 1.71,-0.078 2.878,-0.35 3.9,-0.747 2.158,-0.834 3.864,-2.541 4.699,-4.699 0.397,-1.022 0.669,-2.19 0.747,-3.9 0.078,-1.714 0.097,-2.261 0.097,-6.625 0,-4.364 -0.019,-4.912 -0.097,-6.626 z m -2.892,13.117 c -0.071,1.567 -0.333,2.417 -0.553,2.983 -0.541,1.401 -1.648,2.509 -3.049,3.049 -0.566,0.22 -1.417,0.482 -2.983,0.553 -1.694,0.077 -2.202,0.094 -6.492,0.094 -4.291,0 -4.799,-0.016 -6.492,-0.094 C 7.309,28.372 6.458,28.11 5.892,27.89 5.194,27.632 4.563,27.222 4.045,26.688 3.511,26.17 3.101,25.539 2.843,24.841 2.623,24.275 2.361,23.424 2.29,21.858 2.213,20.164 2.196,19.656 2.196,15.366 2.196,11.076 2.212,10.568 2.29,8.874 2.359,7.306 2.62,6.456 2.84,5.89 3.098,5.192 3.509,4.56 4.042,4.042 4.561,3.508 5.192,3.098 5.89,2.84 6.456,2.62 7.307,2.358 8.873,2.287 10.567,2.21 11.075,2.194 15.365,2.194 v 0 c 4.29,0 4.798,0.016 6.492,0.094 1.567,0.071 2.417,0.333 2.983,0.553 0.698,0.258 1.329,0.668 1.847,1.202 0.534,0.518 0.944,1.15 1.202,1.848 0.22,0.566 0.482,1.417 0.553,2.983 0.077,1.694 0.094,2.202 0.094,6.492 0,4.29 -0.015,4.798 -0.092,6.492 z"
   style="opacity:1;fill:#1a1a1a;fill-rule:nonzero;stroke:none;stroke-width:1;stroke-linecap:butt;stroke-linejoin:miter;stroke-miterlimit:10;stroke-dasharray:none;fill-opacity:1"
   transform="matrix(2.8008,0,0,2.8008,1.964,1.964)"
   stroke-linecap="round"
   id="path1" />
	<path
   d="m 15.365,7.115 c -4.557,0 -8.25,3.694 -8.25,8.25 0,4.556 3.694,8.251 8.25,8.251 4.557,0 8.251,-3.694 8.251,-8.251 0,-4.557 -3.694,-8.25 -8.251,-8.25 z m 0,13.606 c -2.957,0 -5.355,-2.398 -5.355,-5.356 0,-2.958 2.398,-5.356 5.356,-5.356 2.958,0 5.356,2.398 5.356,5.356 0,2.958 -2.399,5.356 -5.357,5.356 z"
   style="opacity:1;fill:#1a1a1a;fill-rule:nonzero;stroke:none;stroke-width:1;stroke-linecap:butt;stroke-linejoin:miter;stroke-miterlimit:10;stroke-dasharray:none;fill-opacity:1"
   transform="matrix(2.8008,0,0,2.8008,1.964,1.964)"
   stroke-linecap="round"
   id="path2" />
	<path
   d="m 25.87,6.789 c 0,1.065 -0.863,1.928 -1.928,1.928 -1.065,0 -1.928,-0.863 -1.928,-1.928 0,-1.065 0.863,-1.928 1.928,-1.928 1.065,0 1.928,0.863 1.928,1.928 z"
   style="opacity:1;fill:#1a1a1a;fill-rule:nonzero;stroke:none;stroke-width:1;stroke-linecap:butt;stroke-linejoin:miter;stroke-miterlimit:10;stroke-dasharray:none;fill-opacity:1"
   transform="matrix(2.8008,0,0,2.8008,1.964,1.964)"
   stroke-linecap="round"
   id="path3" />
</g>
</svg>
