<?xml version="1.0" encoding="UTF-8" standalone="no"?>
<svg
   viewBox="0 0 700 700"
   version="1.1"
   id="svg1"
   sodipodi:docname="output_cycle.svg"
   width="700"
   height="700"
   inkscape:version="1.3.2 (091e20ef0f, 2023-11-25)"
   xmlns:inkscape="http://www.inkscape.org/namespaces/inkscape"
   xmlns:sodipodi="http://sodipodi.sourceforge.net/DTD/sodipodi-0.dtd"
   xmlns="http://www.w3.org/2000/svg"
   xmlns:svg="http://www.w3.org/2000/svg">
  <defs
     id="defs1" />
  <sodipodi:namedview
     id="namedview1"
     pagecolor="#ffffff"
     bordercolor="#000000"
     borderopacity="0.25"
     inkscape:showpageshadow="2"
     inkscape:pageopacity="0.0"
     inkscape:pagecheckerboard="0"
     inkscape:deskcolor="#d1d1d1"
     inkscape:zoom="1.125"
     inkscape:cx="319.55556"
     inkscape:cy="255.55556"
     inkscape:window-width="1895"
     inkscape:window-height="1347"
     inkscape:window-x="0"
     inkscape:window-y="0"
     inkscape:window-maximized="1"
     inkscape:current-layer="svg1" />
  <!--! Font Awesome Pro 6.4.2 by @fontawesome - https://fontawesome.com License - https://fontawesome.com/license (Commercial License) Copyright 2023 Fonticons, Inc. -->
  <path
     d="M 286,351.6 V 430 508.4 C 265.7,529.1 237.3,542 206,542 144.1,542 94,491.9 94,430 c 0,-61.9 50.1,-112 112,-112 31.3,0 59.7,12.9 80,33.6 z m 0,78.4 a 80,80 0 1 0 -160,0 80,80 0 1 0 160,0 z m 5.5,144 c 4.2,11.9 10.7,22.8 19,32 H 94 C 58.7,606 30,577.3 30,542 V 158 C 30,122.7 58.7,94 94,94 h 216.4 c -8.3,9.2 -14.8,20.1 -19,32 H 94 c -17.7,0 -32,14.3 -32,32 v 384 c 0,17.7 14.3,32 32,32 z M 206,254 a 32,32 0 1 0 0,-64 32,32 0 1 0 0,64 z m 0,-96 a 64,64 0 1 1 0,128 64,64 0 1 1 0,-128 z m -24,272 a 24,24 0 1 1 48,0 24,24 0 1 1 -48,0 z M 382,126 c -17.7,0 -32,14.3 -32,32 v 384 c 0,17.7 14.3,32 32,32 h 224 c 17.7,0 32,-14.3 32,-32 V 158 c 0,-17.7 -14.3,-32 -32,-32 z m -64,32 c 0,-35.3 28.7,-64 64,-64 h 224 c 35.3,0 64,28.7 64,64 v 384 c 0,35.3 -28.7,64 -64,64 H 382 c -35.3,0 -64,-28.7 -64,-64 z m 176,96 a 32,32 0 1 0 0,-64 32,32 0 1 0 0,64 z m 0,-96 a 64,64 0 1 1 0,128 64,64 0 1 1 0,-128 z m 0,352 a 80,80 0 1 0 0,-160 80,80 0 1 0 0,160 z m 0,-192 a 112,112 0 1 1 0,224 112,112 0 1 1 0,-224 z m -24,112 a 24,24 0 1 1 48,0 24,24 0 1 1 -48,0 z"
     id="path1" />
</svg>
