<?xml version="1.0" encoding="UTF-8" standalone="no"?>
<svg
   viewBox="0 0 700 700"
   version="1.1"
   id="svg1"
   sodipodi:docname="output_link_reset_black.svg"
   width="700"
   height="700"
   inkscape:version="1.3.2 (091e20ef0f, 2023-11-25)"
   xmlns:inkscape="http://www.inkscape.org/namespaces/inkscape"
   xmlns:sodipodi="http://sodipodi.sourceforge.net/DTD/sodipodi-0.dtd"
   xmlns="http://www.w3.org/2000/svg"
   xmlns:svg="http://www.w3.org/2000/svg">
  <defs
     id="defs1" />
  <sodipodi:namedview
     id="namedview1"
     pagecolor="#ffffff"
     bordercolor="#000000"
     borderopacity="0.25"
     inkscape:showpageshadow="2"
     inkscape:pageopacity="0.0"
     inkscape:pagecheckerboard="0"
     inkscape:deskcolor="#d1d1d1"
     inkscape:zoom="1.125"
     inkscape:cx="319.55556"
     inkscape:cy="255.55556"
     inkscape:window-width="1895"
     inkscape:window-height="1347"
     inkscape:window-x="0"
     inkscape:window-y="0"
     inkscape:window-maximized="1"
     inkscape:current-layer="svg1" />
  <!--! Font Awesome Pro 6.4.2 by @fontawesome - https://fontawesome.com License - https://fontawesome.com/license (Commercial License) Copyright 2023 Fonticons, Inc. -->
  <path
     d="m 621.5,350 c 50,-50 50,-131 0,-181 -50,-50 -131,-50 -181,0 l -22.6,22.6 c -6.2,6.2 -6.2,16.4 0,22.6 6.2,6.2 16.4,6.2 22.6,0 l 22.6,-22.6 c 37.5,-37.5 98.3,-37.5 135.8,0 37.5,37.5 37.5,98.3 0,135.8 L 474.3,451.9 c -37.4,37.4 -98.1,37.4 -135.6,0 -35.6,-35.6 -37.6,-92.6 -4.7,-130.6 l 5.3,-6.1 c 5.8,-6.7 5.1,-16.8 -1.6,-22.6 -6.7,-5.8 -16.8,-5.1 -22.6,1.6 l -5.3,6.1 C 265.9,351 268.6,427 316,474.4 c 49.9,49.9 130.9,49.9 180.8,0 z m -543,0 c -50,50 -50,131 0,181 50,50 131,50 181,0 l 22.6,-22.6 c 6.2,-6.2 6.2,-16.4 0,-22.6 -6.2,-6.2 -16.4,-6.2 -22.6,0 l -22.6,22.6 c -37.5,37.5 -98.3,37.5 -135.8,0 -37.5,-37.5 -37.5,-98.3 0,-135.8 L 225.7,248.1 c 37.4,-37.4 98.1,-37.4 135.6,0 35.6,35.6 37.6,92.6 4.7,130.6 l -5.3,6.1 c -5.8,6.7 -5.1,16.8 1.6,22.6 6.7,5.8 16.8,5.1 22.6,-1.6 l 5.3,-6.1 C 434.1,349 431.4,273 384,225.6 333.9,175.5 253,175.5 203,225.4 Z"
     id="path1" />
</svg>
