<?xml version="1.0" encoding="UTF-8" standalone="no"?>
<svg
   viewBox="0 0 700 700"
   version="1.1"
   id="svg1"
   sodipodi:docname="circle-a.svg"
   width="700"
   height="700"
   inkscape:version="1.3.2 (091e20ef0f, 2023-11-25)"
   xmlns:inkscape="http://www.inkscape.org/namespaces/inkscape"
   xmlns:sodipodi="http://sodipodi.sourceforge.net/DTD/sodipodi-0.dtd"
   xmlns="http://www.w3.org/2000/svg"
   xmlns:svg="http://www.w3.org/2000/svg">
  <defs
     id="defs1" />
  <sodipodi:namedview
     id="namedview1"
     pagecolor="#ffffff"
     bordercolor="#000000"
     borderopacity="0.25"
     inkscape:showpageshadow="2"
     inkscape:pageopacity="0.0"
     inkscape:pagecheckerboard="0"
     inkscape:deskcolor="#d1d1d1"
     inkscape:zoom="1.40625"
     inkscape:cx="255.64444"
     inkscape:cy="255.64444"
     inkscape:window-width="1895"
     inkscape:window-height="1347"
     inkscape:window-x="0"
     inkscape:window-y="0"
     inkscape:window-maximized="1"
     inkscape:current-layer="svg1" />
  <!--! Font Awesome Pro 6.4.2 by @fontawesome - https://fontawesome.com License - https://fontawesome.com/license (Commercial License) Copyright 2023 Fonticons, Inc. -->
  <path
     d="m 350,126 a 224,224 0 1 1 0,448 224,224 0 1 1 0,-448 z m 0,480 a 256,256 0 1 0 0,-512 256,256 0 1 0 0,512 z m 0,-400 c -6.1,0 -11.6,3.4 -14.3,8.8 l -112,224 c -4,7.9 -0.7,17.5 7.2,21.5 7.9,4 17.5,0.7 21.5,-7.2 L 279.9,398 h 140.2 l 27.6,55.2 c 4,7.9 13.6,11.1 21.5,7.2 7.9,-3.9 11.1,-13.6 7.2,-21.5 l -112,-224 c -2.7,-5.4 -8.3,-8.8 -14.3,-8.8 z m 0,51.8 54.1,108.2 H 295.9 Z"
     id="path1" />
</svg>
