<?xml version="1.0" encoding="UTF-8" standalone="no"?>
<svg
   viewBox="0 0 700 700"
   version="1.1"
   id="svg1"
   sodipodi:docname="page_lights2.svg"
   width="700"
   height="700"
   inkscape:version="1.3.2 (091e20ef0f, 2023-11-25)"
   xml:space="preserve"
   xmlns:inkscape="http://www.inkscape.org/namespaces/inkscape"
   xmlns:sodipodi="http://sodipodi.sourceforge.net/DTD/sodipodi-0.dtd"
   xmlns="http://www.w3.org/2000/svg"
   xmlns:svg="http://www.w3.org/2000/svg"><defs
     id="defs1" /><sodipodi:namedview
     id="namedview1"
     pagecolor="#ffffff"
     bordercolor="#000000"
     borderopacity="0.25"
     inkscape:showpageshadow="2"
     inkscape:pageopacity="0.0"
     inkscape:pagecheckerboard="0"
     inkscape:deskcolor="#d1d1d1"
     inkscape:zoom="1.40625"
     inkscape:cx="254.22222"
     inkscape:cy="255.64444"
     inkscape:window-width="1895"
     inkscape:window-height="1347"
     inkscape:window-x="0"
     inkscape:window-y="0"
     inkscape:window-maximized="1"
     inkscape:current-layer="svg1" /><!--! Font Awesome Pro 6.4.2 by @fontawesome - https://fontawesome.com License - https://fontawesome.com/license (Commercial License) Copyright 2023 Fonticons, Inc. --><path
     d="m 350,126 a 224,224 0 1 1 0,448 224,224 0 1 1 0,-448 z m 0,480 a 256,256 0 1 0 0,-512 256,256 0 1 0 0,512 z"
     id="path1" /><path
     d="m 405.90925,346.22667 c 7.65297,-10.948 12.11721,-24.28756 12.11721,-38.74318 0,-37.57399 -30.45247,-68.02646 -68.02645,-68.02646 -37.57398,0 -68.02645,30.45247 -68.02645,68.02646 0,14.45562 4.46423,27.79518 12.11721,38.74318 1.96638,2.81671 4.3048,6.00547 6.80264,9.40679 v 0 c 6.85579,9.40677 15.04021,20.67365 21.15197,31.78109 5.52714,10.09769 8.34387,20.62052 9.72564,30.55877 h -25.88193 c -1.16921,-6.37748 -3.1356,-12.59551 -6.27118,-18.33527 -5.26143,-9.56621 -11.79834,-18.54784 -18.33527,-27.52945 v 0 0 c -2.76357,-3.77334 -5.52715,-7.54669 -8.18443,-11.37317 -10.46968,-15.04023 -16.63458,-33.42863 -16.63458,-53.25196 0,-51.65759 41.87878,-93.53638 93.53637,-93.53638 51.65757,0 93.53636,41.87879 93.53636,93.53638 0,19.82333 -6.16489,38.21173 -16.68774,53.3051 -2.65729,3.82649 -5.42084,7.59983 -8.18444,11.37317 v 0 0 c -6.5369,8.92847 -13.07381,17.9101 -18.33523,27.52945 -3.13559,5.73974 -5.10199,11.95778 -6.27119,18.33526 h -25.77565 c 1.3818,-9.93824 4.19851,-20.51423 9.72565,-30.55874 6.11176,-11.10745 14.29619,-22.37433 21.15197,-31.78112 v 0 0 0 c 2.49784,-3.40132 4.78312,-6.59005 6.74951,-9.40679 z m -55.90924,-64.25311 c -14.08361,0 -25.50991,11.42631 -25.50991,25.50991 0,4.67681 -3.82651,8.50331 -8.50332,8.50331 -4.67683,0 -8.50331,-3.82649 -8.50331,-8.50331 0,-23.49039 19.02614,-42.51653 42.51654,-42.51653 4.67682,0 8.5033,3.82651 8.5033,8.50331 0,4.67681 -3.82648,8.50331 -8.5033,8.50331 z m 0,204.07934 c -23.4904,0 -42.51654,-19.02614 -42.51654,-42.51652 v -8.50331 h 85.03306 v 8.50331 c 0,23.49038 -19.02614,42.51652 -42.51652,42.51652 z"
     id="path1-5"
     style="stroke-width:0.531457" /></svg>
