<?xml version="1.0" encoding="UTF-8" standalone="no"?>
<svg
   viewBox="0 0 700 700"
   version="1.1"
   id="svg1"
   sodipodi:docname="page_stream_black.svg"
   width="700"
   height="700"
   inkscape:version="1.3.2 (091e20ef0f, 2023-11-25)"
   xml:space="preserve"
   xmlns:inkscape="http://www.inkscape.org/namespaces/inkscape"
   xmlns:sodipodi="http://sodipodi.sourceforge.net/DTD/sodipodi-0.dtd"
   xmlns="http://www.w3.org/2000/svg"
   xmlns:svg="http://www.w3.org/2000/svg"><defs
     id="defs1" /><sodipodi:namedview
     id="namedview1"
     pagecolor="#ffffff"
     bordercolor="#000000"
     borderopacity="0.25"
     inkscape:showpageshadow="2"
     inkscape:pageopacity="0.0"
     inkscape:pagecheckerboard="0"
     inkscape:deskcolor="#d1d1d1"
     inkscape:zoom="1.40625"
     inkscape:cx="253.51111"
     inkscape:cy="255.64444"
     inkscape:window-width="1895"
     inkscape:window-height="1347"
     inkscape:window-x="0"
     inkscape:window-y="0"
     inkscape:window-maximized="1"
     inkscape:current-layer="svg1" /><!--! Font Awesome Pro 6.4.2 by @fontawesome - https://fontawesome.com License - https://fontawesome.com/license (Commercial License) Copyright 2023 Fonticons, Inc. --><path
     d="m 350,126 a 224,224 0 1 1 0,448 224,224 0 1 1 0,-448 z m 0,480 a 256,256 0 1 0 0,-512 256,256 0 1 0 0,512 z"
     id="path1" /><path
     d="m 223.71638,320.85762 h 252.56724 v 126.28362 c 0,5.34277 -4.37135,9.71413 -9.71413,9.71413 H 233.4305 c -5.34276,0 -9.71412,-4.37136 -9.71412,-9.71413 z m 213.71075,-29.14238 h -38.85651 l 48.57062,-48.57062 h 19.42825 c 5.34278,0 9.71413,4.37137 9.71413,9.71413 z m -48.57064,-48.57062 -48.57062,48.57062 H 301.42938 L 350,243.14462 Z m -97.14124,0 -48.57062,48.57062 H 223.71638 V 272.287 l 29.14238,-29.14238 z m 213.71074,48.57062 v -38.85649 c 0,-21.43179 -17.42471,-38.85649 -38.8565,-38.85649 H 233.4305 c -21.43177,0 -38.85649,17.4247 -38.85649,38.85649 v 38.85649 14.57119 14.57119 126.28362 c 0,21.43179 17.42472,38.8565 38.85649,38.8565 h 233.13899 c 21.43179,0 38.8565,-17.42471 38.8565,-38.8565 V 320.85762 306.28643 Z"
     id="path1-61"
     style="stroke-width:0.607132" /></svg>
