<?xml version="1.0" encoding="UTF-8" standalone="no"?>
<svg
   viewBox="0 0 700 700"
   version="1.1"
   id="svg1"
   sodipodi:docname="camera_desk_black.svg"
   width="700"
   height="700"
   inkscape:version="1.3.2 (091e20ef0f, 2023-11-25)"
   xml:space="preserve"
   xmlns:inkscape="http://www.inkscape.org/namespaces/inkscape"
   xmlns:sodipodi="http://sodipodi.sourceforge.net/DTD/sodipodi-0.dtd"
   xmlns="http://www.w3.org/2000/svg"
   xmlns:svg="http://www.w3.org/2000/svg"><defs
     id="defs1" /><sodipodi:namedview
     id="namedview1"
     pagecolor="#ffffff"
     bordercolor="#000000"
     borderopacity="0.25"
     inkscape:showpageshadow="2"
     inkscape:pageopacity="0.0"
     inkscape:pagecheckerboard="0"
     inkscape:deskcolor="#d1d1d1"
     inkscape:zoom="1.40625"
     inkscape:cx="393.6"
     inkscape:cy="338.84444"
     inkscape:window-width="1895"
     inkscape:window-height="1347"
     inkscape:window-x="0"
     inkscape:window-y="0"
     inkscape:window-maximized="1"
     inkscape:current-layer="svg1" /><!--! Font Awesome Pro 6.4.2 by @fontawesome - https://fontawesome.com License - https://fontawesome.com/license (Commercial License) Copyright 2023 Fonticons, Inc. --><text
     xml:space="preserve"
     style="font-weight:bold;font-size:72.8165px;font-family:'Noto Sans';-inkscape-font-specification:'Noto Sans, Bold';text-align:center;text-anchor:middle;fill:#000000;fill-opacity:1;stroke-width:0.758506"
     x="343.44647"
     y="632.11481"
     id="text1"><tspan
       sodipodi:role="line"
       id="tspan1"
       x="343.44647"
       y="632.11481"
       style="font-style:normal;font-variant:normal;font-weight:bold;font-stretch:normal;font-size:145.633px;font-family:'Noto Sans';-inkscape-font-specification:'Noto Sans, Bold';font-variant-ligatures:normal;font-variant-caps:normal;font-variant-numeric:normal;font-variant-east-asian:normal;fill:#000000;fill-opacity:1;stroke-width:0.758506">DESK</tspan></text><path
     d="m 400.4309,86.173781 c 13.9473,0 25.21545,11.26816 25.21545,25.215459 V 237.4665 H 450.8618 V 111.38924 c 0,-27.815799 -22.61511,-50.430906 -50.4309,-50.430906 H 299.5691 c -27.8158,0 -50.43091,22.615107 -50.43091,50.430906 V 237.4665 h 25.21545 V 111.38924 c 0,-13.947299 11.26817,-25.215459 25.21546,-25.215459 z M 223.92274,174.42787 c 0,-6.93425 -5.67348,-12.60773 -12.60772,-12.60773 -6.93425,0 -12.60773,5.67348 -12.60773,12.60773 v 63.03863 c 0,6.93424 5.67348,12.60772 12.60773,12.60772 6.93424,0 12.60772,-5.67348 12.60772,-12.60772 z m 277.36997,0 c 0,-6.93425 -5.67348,-12.60773 -12.60773,-12.60773 -6.93426,0 -12.60772,5.67348 -12.60772,12.60773 v 63.03863 c 0,6.93424 5.67346,12.60772 12.60772,12.60772 6.93425,0 12.60773,-5.67348 12.60773,-12.60772 z M 450.8618,287.8974 476.07726,338.3283 H 350 223.92274 l 25.21545,-50.4309 z m -88.25408,75.64635 h 113.46954 c 8.7466,0 16.86282,-4.49149 21.43312,-11.97733 4.57031,-7.48584 5.04309,-16.70525 1.10319,-24.50627 l -25.21545,-50.4309 c -4.25511,-8.58902 -13.00172,-13.9473 -22.53632,-13.9473 H 249.13819 c -9.53459,0 -18.2812,5.35828 -22.5363,13.9473 l -25.21545,50.4309 c -3.93992,7.80102 -3.46714,17.09922 1.10316,24.50627 4.57031,7.40704 12.68653,11.97733 21.43314,11.97733 h 113.46953 v 37.82318 h -12.60772 c -27.8158,0 -50.43091,22.61511 -50.43091,50.4309 0,6.93426 5.67348,12.60773 12.60773,12.60773 6.93425,0 12.60773,-5.67347 12.60773,-12.60773 0,-13.9473 11.26816,-25.21545 25.21545,-25.21545 h 12.60772 v 25.21545 c 0,6.93426 5.67347,12.60773 12.60773,12.60773 6.93424,0 12.60772,-5.67347 12.60772,-12.60773 v -25.21545 h 12.60773 c 13.9473,0 25.21545,11.26815 25.21545,25.21545 0,6.93426 5.67348,12.60773 12.60773,12.60773 6.93424,0 12.60772,-5.67347 12.60772,-12.60773 0,-27.81579 -22.61511,-50.4309 -50.4309,-50.4309 h -12.60773 z"
     id="path1-2"
     style="stroke-width:0.787983" /></svg>
