<?xml version="1.0" encoding="UTF-8" standalone="no"?>
<svg
   viewBox="0 0 700 700"
   version="1.1"
   id="svg1"
   sodipodi:docname="page_input_pink.svg"
   width="700"
   height="700"
   inkscape:version="1.3.2 (091e20ef0f, 2023-11-25)"
   xml:space="preserve"
   xmlns:inkscape="http://www.inkscape.org/namespaces/inkscape"
   xmlns:sodipodi="http://sodipodi.sourceforge.net/DTD/sodipodi-0.dtd"
   xmlns="http://www.w3.org/2000/svg"
   xmlns:svg="http://www.w3.org/2000/svg"><defs
     id="defs1" /><sodipodi:namedview
     id="namedview1"
     pagecolor="#ffffff"
     bordercolor="#000000"
     borderopacity="0.25"
     inkscape:showpageshadow="2"
     inkscape:pageopacity="0.0"
     inkscape:pagecheckerboard="0"
     inkscape:deskcolor="#d1d1d1"
     inkscape:zoom="1.40625"
     inkscape:cx="254.93333"
     inkscape:cy="255.64444"
     inkscape:window-width="1895"
     inkscape:window-height="1347"
     inkscape:window-x="0"
     inkscape:window-y="0"
     inkscape:window-maximized="1"
     inkscape:current-layer="svg1" /><!--! Font Awesome Pro 6.4.2 by @fontawesome - https://fontawesome.com License - https://fontawesome.com/license (Commercial License) Copyright 2023 Fonticons, Inc. --><path
     d="m 350,126 a 224,224 0 1 1 0,448 224,224 0 1 1 0,-448 z m 0,480 a 256,256 0 1 0 0,-512 256,256 0 1 0 0,512 z m 0,-416 c -35.3,0 -64,28.7 -64,64 v 96 c 0,35.3 28.7,64 64,64 35.3,0 64,-28.7 64,-64 v -16 -64 -16 c 0,-35.3 -28.7,-64 -64,-64 z m 32,64 h -16 c -8.8,0 -16,7.2 -16,16 0,8.8 7.2,16 16,16 h 16 v 32 h -16 c -8.8,0 -16,7.2 -16,16 0,8.8 7.2,16 16,16 h 16 c 0,17.7 -14.3,32 -32,32 -17.7,0 -32,-14.3 -32,-32 v -96 c 0,-17.7 14.3,-32 32,-32 17.7,0 32,14.3 32,32 z m -128,80 c 0,-8.8 -7.2,-16 -16,-16 -8.8,0 -16,7.2 -16,16 v 16 c 0,65.3 48.9,119.1 112,127 v 17 c 0,8.8 7.2,16 16,16 8.8,0 16,-7.2 16,-16 v -17 c 63.1,-7.9 112,-61.7 112,-127 v -16 c 0,-8.8 -7.2,-16 -16,-16 -8.8,0 -16,7.2 -16,16 v 16 c 0,53 -43,96 -96,96 -53,0 -96,-43 -96,-96 z"
     id="path1"
     style="fill:#ff62b6;fill-opacity:1" /></svg>
