<?xml version="1.0" encoding="UTF-8" standalone="no"?>
<svg
   viewBox="0 0 700 700"
   version="1.1"
   id="svg1"
   sodipodi:docname="page_camera_black.svg"
   width="700"
   height="700"
   inkscape:version="1.3.2 (091e20ef0f, 2023-11-25)"
   xmlns:inkscape="http://www.inkscape.org/namespaces/inkscape"
   xmlns:sodipodi="http://sodipodi.sourceforge.net/DTD/sodipodi-0.dtd"
   xmlns="http://www.w3.org/2000/svg"
   xmlns:svg="http://www.w3.org/2000/svg">
  <defs
     id="defs1" />
  <sodipodi:namedview
     id="namedview1"
     pagecolor="#ffffff"
     bordercolor="#000000"
     borderopacity="0.25"
     inkscape:showpageshadow="2"
     inkscape:pageopacity="0.0"
     inkscape:pagecheckerboard="0"
     inkscape:deskcolor="#d1d1d1"
     inkscape:zoom="1.40625"
     inkscape:cx="255.64444"
     inkscape:cy="340.97778"
     inkscape:window-width="1895"
     inkscape:window-height="1347"
     inkscape:window-x="0"
     inkscape:window-y="0"
     inkscape:window-maximized="1"
     inkscape:current-layer="svg1" />
  <!--! Font Awesome Pro 6.4.2 by @fontawesome - https://fontawesome.com License - https://fontawesome.com/license (Commercial License) Copyright 2023 Fonticons, Inc. -->
  <path
     d="m 350,126 a 224,224 0 1 1 0,448 224,224 0 1 1 0,-448 z m 0,480 a 256,256 0 1 0 0,-512 256,256 0 1 0 0,512 z M 293.2,236.5 285.7,254 H 278 c -30.9,0 -56,25.1 -56,56 v 80 c 0,30.9 25.1,56 56,56 h 144 c 30.9,0 56,-25.1 56,-56 v -80 c 0,-30.9 -25.1,-56 -56,-56 h -7.7 l -7.5,-17.5 C 403,227.7 394.3,222 384.7,222 h -69.4 c -9.6,0 -18.3,5.7 -22.1,14.5 z m 27.4,17.5 h 58.9 l 9.6,22.3 c 2.5,5.9 8.3,9.7 14.7,9.7 H 422 c 13.3,0 24,10.7 24,24 v 80 c 0,13.3 -10.7,24 -24,24 H 278 c -13.3,0 -24,-10.7 -24,-24 v -80 c 0,-13.3 10.7,-24 24,-24 h 18.3 c 6.4,0 12.2,-3.8 14.7,-9.7 z M 350,382 a 32,32 0 1 0 0,-64 32,32 0 1 0 0,64 z"
     id="path1" />
</svg>
