<?xml version="1.0" encoding="UTF-8" standalone="no"?>
<svg
   viewBox="0 0 700 700"
   version="1.1"
   id="svg1"
   sodipodi:docname="page_scene_single_black.svg"
   width="700"
   height="700"
   inkscape:version="1.3.2 (091e20ef0f, 2023-11-25)"
   xml:space="preserve"
   xmlns:inkscape="http://www.inkscape.org/namespaces/inkscape"
   xmlns:sodipodi="http://sodipodi.sourceforge.net/DTD/sodipodi-0.dtd"
   xmlns="http://www.w3.org/2000/svg"
   xmlns:svg="http://www.w3.org/2000/svg"><defs
     id="defs1" /><sodipodi:namedview
     id="namedview1"
     pagecolor="#ffffff"
     bordercolor="#000000"
     borderopacity="0.25"
     inkscape:showpageshadow="2"
     inkscape:pageopacity="0.0"
     inkscape:pagecheckerboard="0"
     inkscape:deskcolor="#d1d1d1"
     inkscape:zoom="1.40625"
     inkscape:cx="254.93333"
     inkscape:cy="257.06667"
     inkscape:window-width="1895"
     inkscape:window-height="1347"
     inkscape:window-x="0"
     inkscape:window-y="0"
     inkscape:window-maximized="1"
     inkscape:current-layer="svg1" /><!--! Font Awesome Pro 6.4.2 by @fontawesome - https://fontawesome.com License - https://fontawesome.com/license (Commercial License) Copyright 2023 Fonticons, Inc. --><path
     d="m 532.23492,158.16389 c 20.1917,0 36.50476,14.3 36.50476,32 v 320 c 0,17.7 -16.31306,32 -36.50476,32 H 167.1873 c -20.19169,0 -36.50476,-14.3 -36.50476,-32 v -320 c 0,-17.7 16.31307,-32 36.50476,-32 z m -365.04762,-32 c -40.26931,0 -73.009522,28.7 -73.009522,64 v 320 c 0,35.3 32.740212,64 73.009522,64 h 365.04762 c 40.26932,0 73.00953,-28.7 73.00953,-64 v -320 c 0,-35.3 -32.74021,-64 -73.00953,-64 z"
     id="path1-5"
     style="stroke-width:1.06807" /></svg>
