<?xml version="1.0" encoding="UTF-8" standalone="no"?>
<svg
   viewBox="0 0 700 700"
   version="1.1"
   id="svg1"
   sodipodi:docname="page_camera_quad_1_black.svg"
   width="700"
   height="700"
   inkscape:version="1.3.2 (091e20ef0f, 2023-11-25)"
   xmlns:inkscape="http://www.inkscape.org/namespaces/inkscape"
   xmlns:sodipodi="http://sodipodi.sourceforge.net/DTD/sodipodi-0.dtd"
   xmlns="http://www.w3.org/2000/svg"
   xmlns:svg="http://www.w3.org/2000/svg">
  <defs
     id="defs1" />
  <sodipodi:namedview
     id="namedview1"
     pagecolor="#ffffff"
     bordercolor="#000000"
     borderopacity="0.25"
     inkscape:showpageshadow="2"
     inkscape:pageopacity="0.0"
     inkscape:pagecheckerboard="0"
     inkscape:deskcolor="#d1d1d1"
     inkscape:zoom="1.6071429"
     inkscape:cx="223.68889"
     inkscape:cy="256.04444"
     inkscape:window-width="1895"
     inkscape:window-height="1347"
     inkscape:window-x="0"
     inkscape:window-y="0"
     inkscape:window-maximized="1"
     inkscape:current-layer="svg1" />
  <!--! Font Awesome Pro 6.4.2 by @fontawesome - https://fontawesome.com License - https://fontawesome.com/license (Commercial License) Copyright 2023 Fonticons, Inc. -->
  <path
     d="m 510,158 c 17.7,0 32,14.3 32,32 v 320 c 0,17.7 -14.3,32 -32,32 H 190 c -17.7,0 -32,-14.3 -32,-32 V 190 c 0,-17.7 14.3,-32 32,-32 z M 190,126 c -35.3,0 -64,28.7 -64,64 v 320 c 0,35.3 28.7,64 64,64 h 320 c 35.3,0 64,-28.7 64,-64 V 190 c 0,-35.3 -28.7,-64 -64,-64 z m 168,98.2 c -4.9,-2.9 -11,-2.9 -16,-0.1 l -56,32 c -7.7,4.4 -10.3,14.2 -6,21.8 4.3,7.6 14.2,10.3 21.8,6 L 334,265.6 V 446 h -48 c -8.8,0 -16,7.2 -16,16 0,8.8 7.2,16 16,16 h 64 64 c 8.8,0 16,-7.2 16,-16 0,-8.8 -7.2,-16 -16,-16 H 366 V 238 c 0,-5.7 -3,-11 -8,-13.8 z"
     id="path1" />
</svg>
