<?xml version="1.0" encoding="UTF-8" standalone="no"?>
<svg
   viewBox="0 0 700 700"
   version="1.1"
   id="svg1"
   sodipodi:docname="page_activity_black.svg"
   width="700"
   height="700"
   inkscape:version="1.3.2 (091e20ef0f, 2023-11-25)"
   xmlns:inkscape="http://www.inkscape.org/namespaces/inkscape"
   xmlns:sodipodi="http://sodipodi.sourceforge.net/DTD/sodipodi-0.dtd"
   xmlns="http://www.w3.org/2000/svg"
   xmlns:svg="http://www.w3.org/2000/svg">
  <defs
     id="defs1" />
  <sodipodi:namedview
     id="namedview1"
     pagecolor="#ffffff"
     bordercolor="#000000"
     borderopacity="0.25"
     inkscape:showpageshadow="2"
     inkscape:pageopacity="0.0"
     inkscape:pagecheckerboard="0"
     inkscape:deskcolor="#d1d1d1"
     inkscape:zoom="1.40625"
     inkscape:cx="255.64444"
     inkscape:cy="255.64444"
     inkscape:window-width="1895"
     inkscape:window-height="1347"
     inkscape:window-x="0"
     inkscape:window-y="0"
     inkscape:window-maximized="1"
     inkscape:current-layer="svg1" />
  <!--! Font Awesome Pro 6.4.2 by @fontawesome - https://fontawesome.com License - https://fontawesome.com/license (Commercial License) Copyright 2023 Fonticons, Inc. -->
  <path
     d="m 574,350 a 224,224 0 1 0 -448,0 224,224 0 1 0 448,0 z m -480,0 a 256,256 0 1 1 512,0 256,256 0 1 1 -512,0 z m 127.7,27 c -11.7,0 -21.9,-8.3 -24.2,-19.8 -2.4,-11.4 3.7,-23.1 14.5,-27.7 L 432.5,235 c 9.5,-3.9 20.2,-1.9 27.3,5.3 7.2,7.1 9.2,17.8 5.2,27.2 L 370.5,488 c -3.9,9.1 -12.9,15 -22.8,15 -1.6,0 -3.3,-0.1 -4.9,-0.5 C 331.3,500.2 323,490 323,478.2 V 409 377 H 291 Z M 257,345 h 66 c 17.7,0 32,14.3 32,32 v 66 L 428.5,271.6 257.1,345 Z"
     id="path1" />
</svg>
