<?xml version="1.0" encoding="UTF-8" standalone="no"?>
<svg
   viewBox="0 0 700 700"
   version="1.1"
   id="svg1"
   sodipodi:docname="page_light_black.svg"
   width="700"
   height="700"
   inkscape:version="1.3.2 (091e20ef0f, 2023-11-25)"
   xml:space="preserve"
   xmlns:inkscape="http://www.inkscape.org/namespaces/inkscape"
   xmlns:sodipodi="http://sodipodi.sourceforge.net/DTD/sodipodi-0.dtd"
   xmlns="http://www.w3.org/2000/svg"
   xmlns:svg="http://www.w3.org/2000/svg"><defs
     id="defs1" /><sodipodi:namedview
     id="namedview1"
     pagecolor="#ffffff"
     bordercolor="#000000"
     borderopacity="0.25"
     inkscape:showpageshadow="2"
     inkscape:pageopacity="0.0"
     inkscape:pagecheckerboard="0"
     inkscape:deskcolor="#d1d1d1"
     inkscape:zoom="1.40625"
     inkscape:cx="419.91111"
     inkscape:cy="306.13333"
     inkscape:window-width="1895"
     inkscape:window-height="1347"
     inkscape:window-x="0"
     inkscape:window-y="0"
     inkscape:window-maximized="1"
     inkscape:current-layer="svg1" /><!--! Font Awesome Pro 6.4.2 by @fontawesome - https://fontawesome.com License - https://fontawesome.com/license (Commercial License) Copyright 2023 Fonticons, Inc. --><path
     d="m 350,126 a 224,224 0 1 1 0,448 224,224 0 1 1 0,-448 z m 0,480 a 256,256 0 1 0 0,-512 256,256 0 1 0 0,512 z"
     id="path1"
     style="fill:#000000;fill-opacity:1" /><path
     d="m 412.77647,345.76318 c 8.59298,-12.29273 13.60554,-27.27076 13.60554,-43.50194 0,-42.18913 -34.19288,-76.38202 -76.38202,-76.38202 -42.18912,0 -76.382,34.19289 -76.382,76.38202 0,16.23118 5.01257,31.20921 13.60554,43.50194 2.20793,3.16269 4.83356,6.7431 7.6382,10.56219 v 0 c 7.69788,10.56221 16.8876,23.21298 23.75003,35.68472 6.20604,11.33796 9.36874,23.1533 10.92025,34.31224 h -29.06098 c -1.31281,-7.16082 -3.52072,-14.14261 -7.04146,-20.58734 -5.90768,-10.74121 -13.24749,-20.82603 -20.58733,-30.91085 v 0 0 c -3.10303,-4.23681 -6.20604,-8.47362 -9.18972,-12.77011 -11.75566,-16.88759 -18.67779,-37.5346 -18.67779,-59.79278 0,-58.00259 47.02267,-105.02526 105.02526,-105.02526 58.00261,0 105.02528,47.02267 105.02528,105.02526 0,22.25819 -6.92212,42.90519 -18.73747,59.85244 -2.98366,4.2965 -6.08669,8.53332 -9.1897,12.77015 v 0 0 c -7.33984,10.02513 -14.67968,20.10995 -20.58735,30.91084 -3.52073,6.44473 -5.72865,13.42652 -7.04146,20.58734 h -28.94163 c 1.55152,-11.15894 4.71421,-23.03396 10.92024,-34.31224 6.86245,-12.47175 16.05216,-25.12252 23.75004,-35.68471 v 0 0 0 c 2.80466,-3.81911 5.37061,-7.39952 7.57853,-10.56221 z m -62.77648,-72.1452 c -15.81345,0 -28.64325,12.8298 -28.64325,28.64326 0,5.25126 -4.29648,9.54774 -9.54775,9.54774 -5.25126,0 -9.54775,-4.29648 -9.54775,-9.54774 0,-26.37567 21.36309,-47.73876 47.73875,-47.73876 5.25128,0 9.54776,4.29649 9.54776,9.54775 0,5.25127 -4.29648,9.54775 -9.54776,9.54775 z m 0,229.14603 c -26.37566,0 -47.73875,-21.36308 -47.73875,-47.73876 v -9.54774 h 95.47753 v 9.54774 c 0,26.37568 -21.36311,47.73876 -47.73878,47.73876 z"
     id="path1-8"
     style="fill:#000000;fill-opacity:1;stroke-width:0.596734" /></svg>
