<?xml version="1.0" encoding="UTF-8" standalone="no"?>
<svg
   viewBox="0 0 700 700"
   version="1.1"
   id="svg1"
   sodipodi:docname="page_camera_single_bedroom_black.svg"
   width="700"
   height="700"
   inkscape:version="1.3.2 (091e20ef0f, 2023-11-25)"
   xml:space="preserve"
   xmlns:inkscape="http://www.inkscape.org/namespaces/inkscape"
   xmlns:sodipodi="http://sodipodi.sourceforge.net/DTD/sodipodi-0.dtd"
   xmlns="http://www.w3.org/2000/svg"
   xmlns:svg="http://www.w3.org/2000/svg"><defs
     id="defs1" /><sodipodi:namedview
     id="namedview1"
     pagecolor="#ffffff"
     bordercolor="#000000"
     borderopacity="0.25"
     inkscape:showpageshadow="2"
     inkscape:pageopacity="0.0"
     inkscape:pagecheckerboard="0"
     inkscape:deskcolor="#d1d1d1"
     inkscape:zoom="1.40625"
     inkscape:cx="394.31111"
     inkscape:cy="338.84444"
     inkscape:window-width="1895"
     inkscape:window-height="1347"
     inkscape:window-x="0"
     inkscape:window-y="0"
     inkscape:window-maximized="1"
     inkscape:current-layer="svg1" /><!--! Font Awesome Pro 6.4.2 by @fontawesome - https://fontawesome.com License - https://fontawesome.com/license (Commercial License) Copyright 2023 Fonticons, Inc. --><text
     xml:space="preserve"
     style="font-weight:bold;font-size:72.8165px;font-family:'Noto Sans';-inkscape-font-specification:'Noto Sans, Bold';text-align:center;text-anchor:middle;fill:#000000;fill-opacity:1;stroke-width:0.758506"
     x="347.66983"
     y="632.11481"
     id="text1"><tspan
       sodipodi:role="line"
       id="tspan1"
       x="347.66983"
       y="632.11481"
       style="font-style:normal;font-variant:normal;font-weight:bold;font-stretch:normal;font-size:145.633px;font-family:'Noto Sans';-inkscape-font-specification:'Noto Sans, Bold';font-variant-ligatures:normal;font-variant-caps:normal;font-variant-numeric:normal;font-variant-east-asian:normal;fill:#000000;fill-opacity:1;stroke-width:0.758506">BEDROO</tspan></text><path
     d="m 176.71786,118.53015 v 36.64196 c 8.48361,-4.87356 18.32098,-7.7616 28.88036,-7.7616 h 101.08125 c 17.23796,0 32.76116,7.5811 43.32054,19.58449 10.55938,-12.00339 26.08257,-19.58449 43.32053,-19.58449 h 101.08125 c 10.55938,0 20.39675,2.79779 28.88036,7.7616 v -36.64196 c 0,-15.97444 -12.90591,-28.880353 -28.88036,-28.880353 H 205.59822 c -15.97445,0 -28.88036,12.905913 -28.88036,28.880353 z m 375.44465,86.64108 v 43.32053 c 17.50871,13.17666 28.88035,34.11492 28.88035,57.76072 v 86.64107 57.76071 c 0,7.9421 -6.49808,14.44018 -14.44017,14.44018 -7.9421,0 -14.44018,-6.49808 -14.44018,-14.44018 v -43.32053 h -404.325 v 43.32053 c 0,7.9421 -6.49808,14.44018 -14.44018,14.44018 -7.9421,0 -14.44019,-6.49808 -14.44019,-14.44018 v -57.76071 -86.64107 c 0,-23.6458 11.37165,-44.58406 28.88037,-57.76072 v -43.32053 -86.64108 c 0,-31.85864 25.90207,-57.76071 57.76071,-57.76071 h 288.80357 c 31.85865,0 57.76072,25.90207 57.76072,57.76071 z m -28.88036,30.32437 v -30.32437 c 0,-15.97445 -12.90591,-28.88036 -28.88036,-28.88036 H 393.32054 c -15.97445,0 -28.88035,12.90591 -28.88035,28.88036 v 28.88035 h 144.40178 c 4.96381,0 9.74712,0.54151 14.44018,1.44402 z m -187.72232,-1.44402 v -28.88035 c 0,-15.97445 -12.90591,-28.88036 -28.88036,-28.88036 H 205.59822 c -15.97445,0 -28.88036,12.90591 -28.88036,28.88036 v 30.32437 c 4.69306,-0.90251 9.47637,-1.44402 14.44018,-1.44402 z m 216.60268,72.2009 c 0,-23.91655 -19.40399,-43.32054 -43.32054,-43.32054 H 191.15804 c -23.91654,0 -43.32053,19.40399 -43.32053,43.32054 v 72.20089 h 404.325 z"
     id="path1"
     style="stroke-width:0.902511" /></svg>
