<?xml version="1.0" encoding="UTF-8" standalone="no"?>
<svg
   viewBox="0 0 700 700"
   version="1.1"
   id="svg1"
   sodipodi:docname="page_camera_quad_2_black.svg"
   width="700"
   height="700"
   inkscape:version="1.3.2 (091e20ef0f, 2023-11-25)"
   xmlns:inkscape="http://www.inkscape.org/namespaces/inkscape"
   xmlns:sodipodi="http://sodipodi.sourceforge.net/DTD/sodipodi-0.dtd"
   xmlns="http://www.w3.org/2000/svg"
   xmlns:svg="http://www.w3.org/2000/svg">
  <defs
     id="defs1" />
  <sodipodi:namedview
     id="namedview1"
     pagecolor="#ffffff"
     bordercolor="#000000"
     borderopacity="0.25"
     inkscape:showpageshadow="2"
     inkscape:pageopacity="0.0"
     inkscape:pagecheckerboard="0"
     inkscape:deskcolor="#d1d1d1"
     inkscape:zoom="1.6071429"
     inkscape:cx="223.68889"
     inkscape:cy="256.04444"
     inkscape:window-width="1895"
     inkscape:window-height="1347"
     inkscape:window-x="0"
     inkscape:window-y="0"
     inkscape:window-maximized="1"
     inkscape:current-layer="svg1" />
  <!--! Font Awesome Pro 6.4.2 by @fontawesome - https://fontawesome.com License - https://fontawesome.com/license (Commercial License) Copyright 2023 Fonticons, Inc. -->
  <path
     d="m 190,158 c -17.7,0 -32,14.3 -32,32 v 320 c 0,17.7 14.3,32 32,32 h 320 c 17.7,0 32,-14.3 32,-32 V 190 c 0,-17.7 -14.3,-32 -32,-32 z m -64,32 c 0,-35.3 28.7,-64 64,-64 h 320 c 35.3,0 64,28.7 64,64 v 320 c 0,35.3 -28.7,64 -64,64 H 190 c -35.3,0 -64,-28.7 -64,-64 z m 185,78.4 -14,13.3 c -6.4,6.1 -16.6,5.7 -22.6,-0.7 -6,-6.4 -5.7,-16.6 0.7,-22.6 l 14.1,-13.2 c 15.8,-14.9 36.8,-23 58.5,-22.7 45.6,0.5 82.3,37.8 82.3,83.5 0,22.2 -8.8,43.4 -24.5,59.1 L 324.6,446 H 430 c 8.8,0 16,7.2 16,16 0,8.8 -7.2,16 -16,16 H 286 c -6.5,0 -12.3,-3.9 -14.8,-9.9 -2.5,-6 -1.1,-12.9 3.5,-17.4 L 382.9,342.5 c 9.7,-9.7 15.1,-22.8 15.1,-36.5 0,-28.2 -22.7,-51.2 -50.9,-51.6 -13.4,-0.2 -26.3,4.8 -36.1,14 z"
     id="path1" />
</svg>
