<?xml version="1.0" encoding="UTF-8" standalone="no"?>
<svg
   viewBox="0 0 700 700"
   version="1.1"
   id="svg1"
   sodipodi:docname="page_censor3.svg"
   width="700"
   height="700"
   inkscape:version="1.3.2 (091e20ef0f, 2023-11-25)"
   xml:space="preserve"
   xmlns:inkscape="http://www.inkscape.org/namespaces/inkscape"
   xmlns:sodipodi="http://sodipodi.sourceforge.net/DTD/sodipodi-0.dtd"
   xmlns="http://www.w3.org/2000/svg"
   xmlns:svg="http://www.w3.org/2000/svg"><defs
     id="defs1" /><sodipodi:namedview
     id="namedview1"
     pagecolor="#ffffff"
     bordercolor="#000000"
     borderopacity="0.25"
     inkscape:showpageshadow="2"
     inkscape:pageopacity="0.0"
     inkscape:pagecheckerboard="0"
     inkscape:deskcolor="#d1d1d1"
     inkscape:zoom="0.49718446"
     inkscape:cx="67.379419"
     inkscape:cy="-69.390745"
     inkscape:window-width="1895"
     inkscape:window-height="1347"
     inkscape:window-x="0"
     inkscape:window-y="0"
     inkscape:window-maximized="1"
     inkscape:current-layer="svg1" /><!--! Font Awesome Pro 6.4.2 by @fontawesome - https://fontawesome.com License - https://fontawesome.com/license (Commercial License) Copyright 2023 Fonticons, Inc. --><path
     d="m 350,126 a 224,224 0 1 1 0,448 224,224 0 1 1 0,-448 z m 0,480 a 256,256 0 1 0 0,-512 256,256 0 1 0 0,512 z"
     id="path1"
     style="fill:#ff62b6;fill-opacity:1" /><path
     d="m 164.70559,184.94374 c -7.11346,-5.60868 -6.24384,3.57906 -11.85253,10.69252 -5.60869,7.11347 -16.97074,6.52717 -9.85728,12.13586 l 390.78984,305.30122 c 7.11346,5.60868 4.16666,-4.68256 9.77535,-11.79602 5.60868,-7.11346 21.69383,-2.64027 14.58037,-8.24896 l -67.51371,-53.63131 c 27.08586,-27.76986 45.4167,-58.89124 54.65052,-80.98401 2.25716,-5.40349 2.25716,-11.42257 0,-16.82607 -10.1914,-24.41831 -31.60018,-59.98562 -63.61074,-89.67063 C 449.52004,221.95773 405.26611,196.78703 350,196.78703 c -46.64788,0 -85.49831,17.98884 -115.79892,41.58638 z m 96.23937,74.35966 C 285.70527,241.72494 315.45868,229.61838 350,229.61838 c 44.59592,0 81.2576,20.246 109.36945,46.30589 26.33348,24.48672 44.52752,53.55614 53.82973,74.07574 -8.61823,19.15162 -25.0339,45.6903 -48.49464,69.01424 l -36.79847,-28.86423 c 6.22427,-12.03817 9.7126,-25.6495 9.7126,-40.15001 0,-48.35785 -39.19242,-87.55028 -87.55027,-87.55028 -22.02437,0 -42.20197,8.13944 -57.59166,21.54558 z m 140.28563,109.98503 -55.7449,-43.70675 C 348.35843,319.7678 350,313.13314 350,306.22487 c 0,-3.76192 -0.47879,-7.45545 -1.36797,-10.94378 H 350 c 30.23221,0 54.71892,24.48671 54.71892,54.71891 0,6.77146 -1.23117,13.26934 -3.48833,19.28843 z m 6.42947,89.12344 c -17.44165,7.45545 -36.66167,11.96977 -57.66006,11.96977 -44.59592,0 -81.2576,-20.24602 -109.36944,-46.30589 -26.33348,-24.48672 -44.52752,-53.55615 -53.82974,-74.07574 5.67709,-12.58535 14.70571,-28.38544 26.94907,-44.32233 l -25.78629,-20.3144 c -15.59489,20.3144 -26.74387,40.5604 -33.24175,56.22369 -2.25715,5.4035 -2.25715,11.42257 0,16.82607 10.1914,24.41832 31.60018,59.98562 63.61075,89.67063 32.14736,29.95861 76.40129,55.12932 131.6674,55.12932 32.69456,0 61.49039,-8.82343 86.3191,-22.22956 z M 262.44973,350.00001 c 0,48.35784 39.19242,87.55027 87.55027,87.55027 9.09702,0 17.85205,-1.36797 26.12829,-3.96712 l -38.44005,-30.2322 c -16.07368,-3.69353 -29.47981,-14.50052 -36.73007,-28.93263 l -38.37165,-30.23221 c -0.13679,1.91517 -0.20519,3.83033 -0.20519,5.81389 z"
     id="path1-5"
     style="stroke-width:0.683987;fill:#ff62b6;fill-opacity:1"
     sodipodi:nodetypes="csccscccccscccsccccssccccscssccscccccccscccscccccc" /></svg>
