<?xml version="1.0" encoding="UTF-8" standalone="no"?>
<svg
   viewBox="0 0 700 700"
   version="1.1"
   id="svg1"
   sodipodi:docname="page_scene_quad_black.svg"
   width="700"
   height="700"
   inkscape:version="1.3.2 (091e20ef0f, 2023-11-25)"
   xmlns:inkscape="http://www.inkscape.org/namespaces/inkscape"
   xmlns:sodipodi="http://sodipodi.sourceforge.net/DTD/sodipodi-0.dtd"
   xmlns="http://www.w3.org/2000/svg"
   xmlns:svg="http://www.w3.org/2000/svg">
  <defs
     id="defs1" />
  <sodipodi:namedview
     id="namedview1"
     pagecolor="#ffffff"
     bordercolor="#000000"
     borderopacity="0.25"
     inkscape:showpageshadow="2"
     inkscape:pageopacity="0.0"
     inkscape:pagecheckerboard="0"
     inkscape:deskcolor="#d1d1d1"
     inkscape:zoom="1.40625"
     inkscape:cx="255.64444"
     inkscape:cy="257.06667"
     inkscape:window-width="1895"
     inkscape:window-height="1347"
     inkscape:window-x="0"
     inkscape:window-y="0"
     inkscape:window-maximized="1"
     inkscape:current-layer="svg1" />
  <!--! Font Awesome Pro 6.4.2 by @fontawesome - https://fontawesome.com License - https://fontawesome.com/license (Commercial License) Copyright 2023 Fonticons, Inc. -->
  <path
     d="M 366,158 V 334 H 574 V 190 c 0,-17.7 -14.3,-32 -32,-32 z m -32,0 H 158 c -17.7,0 -32,14.3 -32,32 V 334 H 334 Z M 126,366 v 144 c 0,17.7 14.3,32 32,32 H 334 V 366 Z m 240,176 h 176 c 17.7,0 32,-14.3 32,-32 V 366 H 366 Z M 94,190 c 0,-35.3 28.7,-64 64,-64 h 384 c 35.3,0 64,28.7 64,64 v 320 c 0,35.3 -28.7,64 -64,64 H 158 c -35.3,0 -64,-28.7 -64,-64 z"
     id="path1" />
</svg>
