<?xml version="1.0" encoding="UTF-8" standalone="no"?>
<svg
   viewBox="0 0 700 700"
   version="1.1"
   id="svg1"
   sodipodi:docname="page_scene_pink.svg"
   width="700"
   height="700"
   inkscape:version="1.3.2 (091e20ef0f, 2023-11-25)"
   xml:space="preserve"
   xmlns:inkscape="http://www.inkscape.org/namespaces/inkscape"
   xmlns:sodipodi="http://sodipodi.sourceforge.net/DTD/sodipodi-0.dtd"
   xmlns="http://www.w3.org/2000/svg"
   xmlns:svg="http://www.w3.org/2000/svg"><defs
     id="defs1" /><sodipodi:namedview
     id="namedview1"
     pagecolor="#ffffff"
     bordercolor="#000000"
     borderopacity="0.25"
     inkscape:showpageshadow="2"
     inkscape:pageopacity="0.0"
     inkscape:pagecheckerboard="0"
     inkscape:deskcolor="#d1d1d1"
     inkscape:zoom="1.40625"
     inkscape:cx="252.8"
     inkscape:cy="255.64444"
     inkscape:window-width="1895"
     inkscape:window-height="1347"
     inkscape:window-x="0"
     inkscape:window-y="0"
     inkscape:window-maximized="1"
     inkscape:current-layer="svg1" /><!--! Font Awesome Pro 6.4.2 by @fontawesome - https://fontawesome.com License - https://fontawesome.com/license (Commercial License) Copyright 2023 Fonticons, Inc. --><path
     d="m 350,126 a 224,224 0 1 1 0,448 224,224 0 1 1 0,-448 z m 0,480 a 256,256 0 1 0 0,-512 256,256 0 1 0 0,512 z"
     id="path1"
     style="fill:#ff62b6;fill-opacity:1" /><path
     d="m 364.57099,243.14613 v 92.28288 h 111.71086 v -82.56889 c 0,-5.34269 -4.3713,-9.71399 -9.71399,-9.71399 z m -29.14197,0 H 233.43214 c -5.34269,0 -9.71399,4.3713 -9.71399,9.71399 v 82.56889 H 335.42902 Z M 223.71815,364.57098 v 82.56889 c 0,5.3427 4.3713,9.71399 9.71399,9.71399 h 101.99688 v -92.28288 z m 140.85284,92.28288 h 101.99687 c 5.34269,0 9.71399,-4.37129 9.71399,-9.71399 V 364.57098 H 364.57099 Z M 194.57619,252.86012 c 0,-21.43148 17.42447,-38.85595 38.85595,-38.85595 h 233.13572 c 21.43148,0 38.85595,17.42447 38.85595,38.85595 v 194.27975 c 0,21.43149 -17.42447,38.85596 -38.85595,38.85596 H 233.43214 c -21.43148,0 -38.85595,-17.42447 -38.85595,-38.85596 z"
     id="path1-2"
     style="stroke-width:0.607124;fill:#ff62b6;fill-opacity:1" /></svg>
