<?xml version="1.0" encoding="UTF-8" standalone="no"?>
<svg
   viewBox="0 0 700 700"
   version="1.1"
   id="svg1"
   sodipodi:docname="page_camera_pink.svg"
   width="700"
   height="700"
   inkscape:version="1.3.2 (091e20ef0f, 2023-11-25)"
   xml:space="preserve"
   xmlns:inkscape="http://www.inkscape.org/namespaces/inkscape"
   xmlns:sodipodi="http://sodipodi.sourceforge.net/DTD/sodipodi-0.dtd"
   xmlns="http://www.w3.org/2000/svg"
   xmlns:svg="http://www.w3.org/2000/svg"><defs
     id="defs1" /><sodipodi:namedview
     id="namedview1"
     pagecolor="#ffffff"
     bordercolor="#000000"
     borderopacity="0.25"
     inkscape:showpageshadow="2"
     inkscape:pageopacity="0.0"
     inkscape:pagecheckerboard="0"
     inkscape:deskcolor="#d1d1d1"
     inkscape:zoom="0.49718446"
     inkscape:cx="928.22693"
     inkscape:cy="338.90842"
     inkscape:window-width="1895"
     inkscape:window-height="1347"
     inkscape:window-x="0"
     inkscape:window-y="0"
     inkscape:window-maximized="1"
     inkscape:current-layer="svg1" /><!--! Font Awesome Pro 6.4.2 by @fontawesome - https://fontawesome.com License - https://fontawesome.com/license (Commercial License) Copyright 2023 Fonticons, Inc. --><path
     d="m 350,126 a 224,224 0 1 1 0,448 224,224 0 1 1 0,-448 z m 0,480 a 256,256 0 1 0 0,-512 256,256 0 1 0 0,512 z"
     id="path1"
     style="fill:#ff62b6;fill-opacity:1" /><path
     d="m 315.39478,203.76858 c -14.65704,0 -27.67201,9.36591 -32.29414,23.29314 l 13.86641,4.62213 -13.86641,-4.62213 -5.23032,15.63012 h -44.64011 c -21.46862,0 -38.92327,17.45465 -38.92327,38.92326 v 155.69306 c 0,21.46861 17.45465,38.92326 38.92327,38.92326 h 233.53958 c 21.46861,0 38.92327,-17.45465 38.92327,-38.92326 V 281.6151 c 0,-21.46861 -17.45466,-38.92326 -38.92327,-38.92326 h -44.64012 l -5.23032,-15.63012 c -4.62213,-13.92723 -17.6371,-23.29314 -32.29414,-23.29314 z m -4.62214,32.53741 c 0.669,-2.00698 2.49353,-3.34497 4.62214,-3.34497 h 69.21043 c 2.0678,0 3.95314,1.33799 4.62214,3.34497 l 8.51446,25.60421 c 2.00698,5.96012 7.54138,9.97409 13.86641,9.97409 h 55.16157 c 5.35195,0 9.73081,4.37886 9.73081,9.73081 v 155.69306 c 0,5.35195 -4.37886,9.73081 -9.73081,9.73081 H 233.23021 c -5.35195,0 -9.73082,-4.37886 -9.73082,-9.73081 V 281.6151 c 0,-5.35195 4.37887,-9.73081 9.73082,-9.73081 h 55.16156 c 6.26421,0 11.85943,-4.01397 13.86641,-9.97409 z M 350,427.57734 a 68.115711,68.115711 0 1 0 0,-136.23142 68.115711,68.115711 0 1 0 0,136.23142 z m -38.92327,-68.11571 a 38.923265,38.923265 0 1 1 77.84653,0 38.923265,38.923265 0 1 1 -77.84653,0 z"
     id="path1-6"
     style="fill:#ff62b6;fill-opacity:1;stroke-width:0.608176" /></svg>
