<?xml version="1.0" encoding="UTF-8" standalone="no"?>
<svg
   viewBox="0 0 700 700"
   version="1.1"
   id="svg1"
   sodipodi:docname="camera_studio_black.svg"
   width="700"
   height="700"
   inkscape:version="1.3.2 (091e20ef0f, 2023-11-25)"
   xml:space="preserve"
   xmlns:inkscape="http://www.inkscape.org/namespaces/inkscape"
   xmlns:sodipodi="http://sodipodi.sourceforge.net/DTD/sodipodi-0.dtd"
   xmlns="http://www.w3.org/2000/svg"
   xmlns:svg="http://www.w3.org/2000/svg"><defs
     id="defs1" /><sodipodi:namedview
     id="namedview1"
     pagecolor="#ffffff"
     bordercolor="#000000"
     borderopacity="0.25"
     inkscape:showpageshadow="2"
     inkscape:pageopacity="0.0"
     inkscape:pagecheckerboard="0"
     inkscape:deskcolor="#d1d1d1"
     inkscape:zoom="1.40625"
     inkscape:cx="394.31111"
     inkscape:cy="338.84444"
     inkscape:window-width="1895"
     inkscape:window-height="1347"
     inkscape:window-x="0"
     inkscape:window-y="0"
     inkscape:window-maximized="1"
     inkscape:current-layer="svg1" /><!--! Font Awesome Pro 6.4.2 by @fontawesome - https://fontawesome.com License - https://fontawesome.com/license (Commercial License) Copyright 2023 Fonticons, Inc. --><text
     xml:space="preserve"
     style="font-weight:bold;font-size:72.8165px;font-family:'Noto Sans';-inkscape-font-specification:'Noto Sans, Bold';text-align:center;text-anchor:middle;fill:#000000;fill-opacity:1;stroke-width:0.758506"
     x="345.45447"
     y="632.11481"
     id="text1"><tspan
       sodipodi:role="line"
       id="tspan1"
       x="345.45447"
       y="632.11481"
       style="font-style:normal;font-variant:normal;font-weight:bold;font-stretch:normal;font-size:145.633px;font-family:'Noto Sans';-inkscape-font-specification:'Noto Sans, Bold';font-variant-ligatures:normal;font-variant-caps:normal;font-variant-numeric:normal;font-variant-east-asian:normal;fill:#000000;fill-opacity:1;stroke-width:0.758506">STUDIO</tspan></text><path
     d="M 274.57959,86.310588 224.28064,212.05799 H 475.77543 L 425.47647,86.310588 Z m -23.34186,-9.352463 c 3.77243,-9.509645 13.0463,-15.797014 23.34186,-15.797014 h 150.89688 c 10.29557,0 19.56944,6.287369 23.34186,15.797014 l 50.29896,125.747405 c 3.0651,7.78061 2.12198,16.50434 -2.51495,23.42045 -4.63693,6.91611 -12.49614,11.08149 -20.82691,11.08149 H 224.28064 c -8.33076,0 -16.11138,-4.16538 -20.82691,-11.08149 -4.71553,-6.91611 -5.65864,-15.71843 -2.51495,-23.42045 z M 262.00486,438.4033 H 337.4533 V 262.35694 h 25.14948 V 438.4033 h 75.44843 c 6.91611,0 12.57474,5.65863 12.57474,12.57474 0,6.9161 -5.65863,12.57474 -12.57474,12.57474 h -88.02317 -88.02318 c -6.9161,0 -12.57474,-5.65864 -12.57474,-12.57474 0,-6.91611 5.65864,-12.57474 12.57474,-12.57474 z"
     id="path1"
     style="stroke-width:0.785921" /></svg>
