<?xml version="1.0" encoding="UTF-8" standalone="no"?>
<svg
   viewBox="0 0 700 700"
   version="1.1"
   id="svg1"
   sodipodi:docname="page_settings_black.svg"
   width="700"
   height="700"
   inkscape:version="1.3.2 (091e20ef0f, 2023-11-25)"
   xml:space="preserve"
   xmlns:inkscape="http://www.inkscape.org/namespaces/inkscape"
   xmlns:sodipodi="http://sodipodi.sourceforge.net/DTD/sodipodi-0.dtd"
   xmlns="http://www.w3.org/2000/svg"
   xmlns:svg="http://www.w3.org/2000/svg"><defs
     id="defs1" /><sodipodi:namedview
     id="namedview1"
     pagecolor="#ffffff"
     bordercolor="#000000"
     borderopacity="0.25"
     inkscape:showpageshadow="2"
     inkscape:pageopacity="0.0"
     inkscape:pagecheckerboard="0"
     inkscape:deskcolor="#d1d1d1"
     inkscape:zoom="0.49718446"
     inkscape:cx="499.8145"
     inkscape:cy="405.28218"
     inkscape:window-width="1895"
     inkscape:window-height="1347"
     inkscape:window-x="0"
     inkscape:window-y="0"
     inkscape:window-maximized="1"
     inkscape:current-layer="svg1" /><!--! Font Awesome Pro 6.4.2 by @fontawesome - https://fontawesome.com License - https://fontawesome.com/license (Commercial License) Copyright 2023 Fonticons, Inc. --><path
     d="M 574,350 C 574,226.28813 473.71178,126.0001 350,126.0001 226.28822,126.0001 126,226.28813 126,350 126,473.71187 226.28822,573.9999 350,573.9999 473.71178,573.9999 574,473.71187 574,350 Z M 94,350 C 94,208.61501 208.61511,94.000111 350,94.000111 491.38489,94.000111 606,208.61501 606,350 606,491.38499 491.38489,605.99989 350,605.99989 208.61511,605.99989 94,491.38499 94,350 Z"
     id="path1"
     sodipodi:nodetypes="ssssssssss" /><path
     d="m 350.05741,294.95255 a 55.104862,55.104862 0 1 0 0,110.20972 55.104862,55.104862 0 1 0 0,-110.20972 z m 27.55241,55.10484 a 27.552431,27.552431 0 1 1 -55.10486,0 27.552431,27.552431 0 1 1 55.10486,0 z M 337.9458,203.11112 c -12.74299,0 -23.82137,8.72492 -26.80621,21.06613 l -4.70688,19.68849 -0.6314,0.22961 -17.22026,-10.56175 c -10.84877,-6.65852 -24.8546,-4.99389 -33.86654,4.01805 l -17.10547,17.16287 c -9.01194,9.01194 -10.67655,23.01775 -4.01804,33.86652 l 10.56174,17.22026 -0.28699,0.63142 -19.63112,4.76429 c -12.39859,2.92743 -21.12352,14.0058 -21.12352,26.74881 V 362.169 c 0,12.743 8.72493,23.82136 21.06613,26.80621 l 19.68851,4.70688 0.2296,0.63141 -10.56176,17.22026 c -6.65851,10.84878 -4.99389,24.85459 4.01806,33.86653 l 17.10545,17.10547 c 9.01195,9.01193 23.01777,10.67656 33.86654,4.01806 l 17.22026,-10.56176 0.63142,0.2296 4.76427,19.6311 c 2.98484,12.39859 14.06322,21.06614 26.80621,21.06614 h 24.22319 c 12.74301,0 23.82137,-8.72495 26.80622,-21.06614 l 4.70688,-19.5737 0.6314,-0.22961 17.22027,10.56175 c 10.84877,6.65852 24.85459,4.99388 33.86653,-4.01804 l 17.10546,-17.10548 c 9.01194,-9.01194 10.67656,-23.01776 4.01806,-33.86653 l -10.56175,-17.22026 0.22958,-0.6314 19.63112,-4.76428 c 12.39858,-2.98485 21.06613,-14.06321 21.06613,-26.80621 v -24.22318 c 0,-12.74301 -8.72495,-23.82138 -21.06613,-26.80622 l -19.57371,-4.70689 -0.2296,-0.63142 10.56177,-17.22026 c 6.6585,-10.84877 4.99387,-24.85458 -4.01806,-33.86653 l -17.16287,-17.10546 c -9.01194,-9.01194 -23.01776,-10.67656 -33.86653,-4.01806 l -17.22027,10.56176 -0.6314,-0.287 -4.76427,-19.63111 C 385.99036,211.83603 374.912,203.1111 362.16899,203.1111 Z m 0,27.55243 h 24.22319 l 6.48631,26.7488 c 1.09061,4.59208 4.53467,8.32313 9.01193,9.81555 3.90326,1.32021 7.74912,2.87004 11.42278,4.70689 4.24766,2.12382 9.29894,1.89423 13.3744,-0.57402 l 23.47696,-14.35022 17.10548,17.16286 -14.35024,23.47697 c -2.46823,4.07546 -2.69783,9.12674 -0.574,13.3744 1.83684,3.67366 3.44405,7.46212 4.70688,11.42279 1.49242,4.53467 5.22348,7.92132 9.81554,9.01193 l 26.80622,6.48631 v 24.22318 l -26.74882,6.4863 c -4.59207,1.09061 -8.32312,4.53467 -9.81555,9.01193 -1.32022,3.90327 -2.87004,7.74913 -4.70686,11.42279 -2.12383,4.24766 -1.89423,9.29894 0.574,13.3744 l 14.35024,23.47696 -17.16289,17.10547 -23.47696,-14.35022 c -4.07546,-2.46824 -9.12675,-2.69784 -13.3744,-0.574 -3.67366,1.83682 -7.46212,3.44404 -11.42278,4.70687 -4.53467,1.49241 -7.92133,5.22347 -9.01193,9.81555 l -6.48631,26.80621 H 337.9458 l -6.48629,-26.74882 c -1.09062,-4.59207 -4.53467,-8.32313 -9.01194,-9.81554 -3.90325,-1.32023 -7.74911,-2.87004 -11.42277,-4.70688 -4.24768,-2.12383 -9.29895,-1.89423 -13.37441,0.574 l -23.47697,14.35023 -17.10546,-17.16287 14.35022,-23.47696 c 2.46824,-4.07546 2.69784,-9.12674 0.57402,-13.3744 -1.83684,-3.67366 -3.44407,-7.46212 -4.70688,-11.42279 -1.49244,-4.53467 -5.22348,-7.92132 -9.81556,-9.01193 l -26.80621,-6.4863 v -24.22318 l 26.74881,-6.48631 c 4.59207,-1.09061 8.32313,-4.53467 9.81556,-9.01193 1.32021,-3.90327 2.87005,-7.74913 4.70687,-11.42279 2.12383,-4.24766 1.89423,-9.29894 -0.57401,-13.3744 l -14.29282,-23.47697 17.10546,-17.10546 23.47697,14.35021 c 4.07546,2.46824 9.12673,2.69784 13.37441,0.57401 3.67366,-1.83682 7.46211,-3.44406 11.42277,-4.70687 4.53468,-1.49242 7.92133,-5.22349 9.01194,-9.81556 z"
     id="path1-5"
     style="stroke-width:0.574009" /></svg>
