<?xml version="1.0" encoding="UTF-8" standalone="no"?>
<svg
   viewBox="0 0 700 700"
   version="1.1"
   id="svg1"
   sodipodi:docname="page_camera_quad_3_black.svg"
   width="700"
   height="700"
   inkscape:version="1.3.2 (091e20ef0f, 2023-11-25)"
   xmlns:inkscape="http://www.inkscape.org/namespaces/inkscape"
   xmlns:sodipodi="http://sodipodi.sourceforge.net/DTD/sodipodi-0.dtd"
   xmlns="http://www.w3.org/2000/svg"
   xmlns:svg="http://www.w3.org/2000/svg">
  <defs
     id="defs1" />
  <sodipodi:namedview
     id="namedview1"
     pagecolor="#ffffff"
     bordercolor="#000000"
     borderopacity="0.25"
     inkscape:showpageshadow="2"
     inkscape:pageopacity="0.0"
     inkscape:pagecheckerboard="0"
     inkscape:deskcolor="#d1d1d1"
     inkscape:zoom="1.6071429"
     inkscape:cx="223.68889"
     inkscape:cy="256.04444"
     inkscape:window-width="1895"
     inkscape:window-height="1347"
     inkscape:window-x="0"
     inkscape:window-y="0"
     inkscape:window-maximized="1"
     inkscape:current-layer="svg1" />
  <!--! Font Awesome Pro 6.4.2 by @fontawesome - https://fontawesome.com License - https://fontawesome.com/license (Commercial License) Copyright 2023 Fonticons, Inc. -->
  <path
     d="m 190,158 c -17.7,0 -32,14.3 -32,32 v 320 c 0,17.7 14.3,32 32,32 h 320 c 17.7,0 32,-14.3 32,-32 V 190 c 0,-17.7 -14.3,-32 -32,-32 z m -64,32 c 0,-35.3 28.7,-64 64,-64 h 320 c 35.3,0 64,28.7 64,64 v 320 c 0,35.3 -28.7,64 -64,64 H 190 c -35.3,0 -64,-28.7 -64,-64 z m 144,32 h 144 c 6.7,0 12.7,4.2 15,10.4 2.3,6.2 0.5,13.3 -4.6,17.7 l -78.9,67.6 19.9,-0.1 c 44.4,-0.2 80.6,35.7 80.6,80.2 0,44.3 -35.9,80.2 -80.2,80.2 h -36 c -27.6,0 -53.5,-13 -70.1,-35 l -2.5,-3.4 c -5.3,-7.1 -3.9,-17.1 3.2,-22.4 7.1,-5.3 17.1,-3.9 22.4,3.2 l 2.5,3.4 c 10.5,14 27,22.2 44.5,22.2 h 36 c 26.6,0 48.2,-21.6 48.2,-48.2 0,-26.7 -21.7,-48.3 -48.4,-48.2 l -63.5,0.3 c -6.7,0 -12.7,-4.1 -15.1,-10.4 -2.4,-6.3 -0.5,-13.4 4.6,-17.7 L 370.7,254 H 270 c -8.8,0 -16,-7.2 -16,-16 0,-8.8 7.2,-16 16,-16 z"
     id="path1" />
</svg>
