<?xml version="1.0" encoding="UTF-8" standalone="no"?>
<svg
   viewBox="0 0 700 700"
   version="1.1"
   id="svg1"
   sodipodi:docname="page_playback_pink.svg"
   width="700"
   height="700"
   inkscape:version="1.3.2 (091e20ef0f, 2023-11-25)"
   xml:space="preserve"
   xmlns:inkscape="http://www.inkscape.org/namespaces/inkscape"
   xmlns:sodipodi="http://sodipodi.sourceforge.net/DTD/sodipodi-0.dtd"
   xmlns="http://www.w3.org/2000/svg"
   xmlns:svg="http://www.w3.org/2000/svg"><defs
     id="defs1" /><sodipodi:namedview
     id="namedview1"
     pagecolor="#ffffff"
     bordercolor="#000000"
     borderopacity="0.25"
     inkscape:showpageshadow="2"
     inkscape:pageopacity="0.0"
     inkscape:pagecheckerboard="0"
     inkscape:deskcolor="#d1d1d1"
     inkscape:zoom="1.40625"
     inkscape:cx="252.8"
     inkscape:cy="255.64444"
     inkscape:window-width="1895"
     inkscape:window-height="1347"
     inkscape:window-x="0"
     inkscape:window-y="0"
     inkscape:window-maximized="1"
     inkscape:current-layer="svg1" /><!--! Font Awesome Pro 6.4.2 by @fontawesome - https://fontawesome.com License - https://fontawesome.com/license (Commercial License) Copyright 2023 Fonticons, Inc. --><path
     d="m 350,126 a 224,224 0 1 1 0,448 224,224 0 1 1 0,-448 z m 0,480 a 256,256 0 1 0 0,-512 256,256 0 1 0 0,512 z"
     id="path1"
     style="fill:#ff62b6;fill-opacity:1" /><path
     d="M 284.64623,456.75476 459.35377,349.98905 284.64623,243.22333 Z M 270.39058,217.80581 c 9.22068,-5.15629 20.44321,-4.91365 29.42123,0.54596 l 174.70754,106.76572 c 8.67471,5.27762 13.95234,14.68028 13.95234,24.87156 0,10.19127 -5.27763,19.53327 -13.95234,24.87156 L 299.81181,481.62632 c -8.97802,5.52028 -20.26122,5.70226 -29.42123,0.54596 -9.16001,-5.1563 -14.86227,-14.86227 -14.86227,-25.41752 V 243.22333 c 0,-10.55524 5.70226,-20.26122 14.86227,-25.41752 z"
     id="path1-0"
     style="fill:#ff62b6;fill-opacity:1;stroke-width:0.606624" /></svg>
