<?xml version="1.0" encoding="UTF-8" standalone="no"?>
<svg
   viewBox="0 0 700 700"
   version="1.1"
   id="svg1"
   sodipodi:docname="page_settings_black.svg"
   width="700"
   height="700"
   inkscape:version="1.3.2 (091e20ef0f, 2023-11-25)"
   xmlns:inkscape="http://www.inkscape.org/namespaces/inkscape"
   xmlns:sodipodi="http://sodipodi.sourceforge.net/DTD/sodipodi-0.dtd"
   xmlns="http://www.w3.org/2000/svg"
   xmlns:svg="http://www.w3.org/2000/svg">
  <defs
     id="defs1" />
  <sodipodi:namedview
     id="namedview1"
     pagecolor="#ffffff"
     bordercolor="#000000"
     borderopacity="0.25"
     inkscape:showpageshadow="2"
     inkscape:pageopacity="0.0"
     inkscape:pagecheckerboard="0"
     inkscape:deskcolor="#d1d1d1"
     inkscape:zoom="1.40625"
     inkscape:cx="255.64444"
     inkscape:cy="255.64444"
     inkscape:window-width="1895"
     inkscape:window-height="1347"
     inkscape:window-x="0"
     inkscape:window-y="0"
     inkscape:window-maximized="1"
     inkscape:current-layer="svg1" />
  <!--! Font Awesome Pro 6.4.2 by @fontawesome - https://fontawesome.com License - https://fontawesome.com/license (Commercial License) Copyright 2023 Fonticons, Inc. -->
  <path
     d="m 574,350 a 224,224 0 1 0 -448,0 224,224 0 1 0 448,0 z m -480,0 a 256,256 0 1 1 512,0 256,256 0 1 1 -512,0 z m 331.5,-92.7 c -6.2,-6.2 -16.4,-6.2 -22.6,0 l -21.4,21.4 40,40 21.4,-21.4 c 6.2,-6.2 6.2,-16.4 0,-22.6 z m -149,126.4 c -2.1,2.1 -3.5,4.6 -4.2,7.4 l -12.3,49 49,-12.3 c 2.8,-0.7 5.4,-2.2 7.4,-4.2 l 82.3,-82.3 -40,-40 -82.3,82.3 z m 103.8,-149 c 18.7,-18.7 49.1,-18.7 67.9,0 l 17.4,17.4 c 18.7,18.7 18.7,49.1 0,67.9 L 339.1,446.3 c -6.2,6.2 -13.9,10.5 -22.3,12.6 l -74.9,18.7 c -5.5,1.4 -11.2,-0.2 -15.2,-4.2 -4,-4 -5.6,-9.7 -4.2,-15.2 l 18.7,-74.9 c 2.1,-8.4 6.5,-16.1 12.6,-22.3 L 380.2,234.7 Z"
     id="path1" />
</svg>
