<?xml version="1.0" encoding="UTF-8" standalone="no"?>
<svg
   viewBox="0 0 700 700"
   version="1.1"
   id="svg1"
   sodipodi:docname="playback_music_toggle_black.svg"
   width="700"
   height="700"
   inkscape:version="1.3.2 (091e20ef0f, 2023-11-25)"
   xmlns:inkscape="http://www.inkscape.org/namespaces/inkscape"
   xmlns:sodipodi="http://sodipodi.sourceforge.net/DTD/sodipodi-0.dtd"
   xmlns="http://www.w3.org/2000/svg"
   xmlns:svg="http://www.w3.org/2000/svg">
  <defs
     id="defs1" />
  <sodipodi:namedview
     id="namedview1"
     pagecolor="#ffffff"
     bordercolor="#000000"
     borderopacity="0.25"
     inkscape:showpageshadow="2"
     inkscape:pageopacity="0.0"
     inkscape:pagecheckerboard="0"
     inkscape:deskcolor="#d1d1d1"
     inkscape:zoom="1.40625"
     inkscape:cx="255.64444"
     inkscape:cy="255.64444"
     inkscape:window-width="1895"
     inkscape:window-height="1347"
     inkscape:window-x="0"
     inkscape:window-y="0"
     inkscape:window-maximized="1"
     inkscape:current-layer="svg1" />
  <!--! Font Awesome Pro 6.4.2 by @fontawesome - https://fontawesome.com License - https://fontawesome.com/license (Commercial License) Copyright 2023 Fonticons, Inc. -->
  <path
     d="m 606,117 c 0,-12.7 -10.3,-23 -23,-23 -2.3,0 -4.6,0.3 -6.8,1 l -311,95.7 C 258.6,192.8 254,199 254,206 V 326 466.4 C 237,453.7 214.6,446 190,446 c -53,0 -96,35.8 -96,80 0,44.2 43,80 96,80 53,0 96,-35.8 96,-80 V 340.3 L 574,251.7 V 402.4 C 557,389.7 534.6,382 510,382 c -53,0 -96,35.8 -96,80 0,44.2 43,80 96,80 53,0 96,-35.8 96,-80 V 230.4 c 0,-0.2 0,-0.5 0,-0.7 z m -32,345 c 0,21.3 -22.9,48 -64,48 -41.1,0 -64,-26.7 -64,-48 0,-21.3 22.9,-48 64,-48 41.1,0 64,26.7 64,48 z m -320,64 c 0,21.3 -22.9,48 -64,48 -41.1,0 -64,-26.7 -64,-48 0,-21.3 22.9,-48 64,-48 41.1,0 64,26.7 64,48 z M 574,218.2 286,306.8 v -89 l 288,-88.6 z"
     id="path1" />
</svg>
