<?xml version="1.0" encoding="UTF-8" standalone="no"?>
<svg
   viewBox="0 0 700 700"
   version="1.1"
   id="svg1"
   sodipodi:docname="volume.svg"
   width="700"
   height="700"
   inkscape:version="1.3.2 (091e20ef0f, 2023-11-25)"
   xmlns:inkscape="http://www.inkscape.org/namespaces/inkscape"
   xmlns:sodipodi="http://sodipodi.sourceforge.net/DTD/sodipodi-0.dtd"
   xmlns="http://www.w3.org/2000/svg"
   xmlns:svg="http://www.w3.org/2000/svg">
  <defs
     id="defs1" />
  <sodipodi:namedview
     id="namedview1"
     pagecolor="#ffffff"
     bordercolor="#000000"
     borderopacity="0.25"
     inkscape:showpageshadow="2"
     inkscape:pageopacity="0.0"
     inkscape:pagecheckerboard="0"
     inkscape:deskcolor="#d1d1d1"
     inkscape:zoom="1.25"
     inkscape:cx="287.6"
     inkscape:cy="255.6"
     inkscape:window-width="1895"
     inkscape:window-height="1347"
     inkscape:window-x="0"
     inkscape:window-y="0"
     inkscape:window-maximized="1"
     inkscape:current-layer="svg1" />
  <!--! Font Awesome Pro 6.4.2 by @fontawesome - https://fontawesome.com License - https://fontawesome.com/license (Commercial License) Copyright 2023 Fonticons, Inc. -->
  <path
     d="M 366,160.7 229.6,282 c -2.9,2.6 -6.7,4 -10.6,4 h -85 c -13.3,0 -24,10.7 -24,24 v 80 c 0,13.3 10.7,24 24,24 h 85 c 3.9,0 7.7,1.4 10.6,4 L 366,539.3 Z m -17.6,-27.2 c 5.5,-4.8 12.5,-7.5 19.8,-7.5 16.5,0 29.8,13.3 29.8,29.8 v 388.4 c 0,16.5 -13.3,29.8 -29.8,29.8 -7.3,0 -14.3,-2.7 -19.8,-7.5 l 10.6,-12 -10.6,12 L 212.9,446 H 134 c -30.9,0 -56,-25.1 -56,-56 v -80 c 0,-30.9 25.1,-56 56,-56 h 78.9 z m 116.8,142.9 c 5.3,-7.1 15.3,-8.5 22.4,-3.2 23.3,17.5 38.4,45.4 38.4,76.8 0,31.4 -15.1,59.3 -38.4,76.8 -7.1,5.3 -17.1,3.9 -22.4,-3.2 -5.3,-7.1 -3.9,-17.1 3.2,-22.4 C 484,389.5 494,370.9 494,350 c 0,-20.9 -10,-39.5 -25.6,-51.2 -7.1,-5.3 -8.5,-15.3 -3.2,-22.4 z m 87,-74.5 c 42.6,35.2 69.8,88.5 69.8,148.1 0,59.6 -27.2,112.9 -69.8,148.1 -6.8,5.6 -16.9,4.7 -22.5,-2.1 -5.6,-6.8 -4.7,-16.9 2.1,-22.5 C 567.4,444.1 590,399.7 590,350 590,300.3 567.4,255.9 531.8,226.6 525,221 524,210.9 529.7,204.1 c 5.7,-6.8 15.7,-7.8 22.5,-2.1 z"
     id="path1" />
</svg>
