<?xml version="1.0" encoding="UTF-8" standalone="no"?>
<svg
   viewBox="0 0 700 700"
   version="1.1"
   id="svg1"
   sodipodi:docname="forward-step.svg"
   width="700"
   height="700"
   inkscape:version="1.3.2 (091e20ef0f, 2023-11-25)"
   xmlns:inkscape="http://www.inkscape.org/namespaces/inkscape"
   xmlns:sodipodi="http://sodipodi.sourceforge.net/DTD/sodipodi-0.dtd"
   xmlns="http://www.w3.org/2000/svg"
   xmlns:svg="http://www.w3.org/2000/svg">
  <defs
     id="defs1" />
  <sodipodi:namedview
     id="namedview1"
     pagecolor="#ffffff"
     bordercolor="#000000"
     borderopacity="0.25"
     inkscape:showpageshadow="2"
     inkscape:pageopacity="0.0"
     inkscape:pagecheckerboard="0"
     inkscape:deskcolor="#d1d1d1"
     inkscape:zoom="2.0292969"
     inkscape:cx="159.9076"
     inkscape:cy="256"
     inkscape:window-width="1895"
     inkscape:window-height="1347"
     inkscape:window-x="0"
     inkscape:window-y="0"
     inkscape:window-maximized="1"
     inkscape:current-layer="svg1" />
  <!--! Font Awesome Pro 6.4.2 by @fontawesome - https://fontawesome.com License - https://fontawesome.com/license (Commercial License) Copyright 2023 Fonticons, Inc. -->
  <path
     d="m 446,174 c 0,-8.8 7.2,-16 16,-16 8.8,0 16,7.2 16,16 V 335.9 364.1 526 c 0,8.8 -7.2,16 -16,16 -8.8,0 -16,-7.2 -16,-16 V 390.2 L 267.4,535.8 c -5,4 -11.2,6.2 -17.6,6.2 C 234.4,542 222,529.6 222,514.2 V 185.8 c 0,-15.4 12.4,-27.8 27.8,-27.8 6.4,0 12.6,2.2 17.6,6.2 L 446,309.8 Z M 254,194.6 V 505.4 L 444.7,350 Z"
     id="path1" />
</svg>
