<?xml version="1.0" encoding="UTF-8" standalone="no"?>
<svg
   viewBox="0 0 700 700"
   version="1.1"
   id="svg1"
   sodipodi:docname="play-pause.svg"
   width="700"
   height="700"
   inkscape:version="1.3.2 (091e20ef0f, 2023-11-25)"
   xmlns:inkscape="http://www.inkscape.org/namespaces/inkscape"
   xmlns:sodipodi="http://sodipodi.sourceforge.net/DTD/sodipodi-0.dtd"
   xmlns="http://www.w3.org/2000/svg"
   xmlns:svg="http://www.w3.org/2000/svg">
  <defs
     id="defs1" />
  <sodipodi:namedview
     id="namedview1"
     pagecolor="#ffffff"
     bordercolor="#000000"
     borderopacity="0.25"
     inkscape:showpageshadow="2"
     inkscape:pageopacity="0.0"
     inkscape:pagecheckerboard="0"
     inkscape:deskcolor="#d1d1d1"
     inkscape:zoom="1.125"
     inkscape:cx="319.55556"
     inkscape:cy="255.55556"
     inkscape:window-width="1895"
     inkscape:window-height="1347"
     inkscape:window-x="0"
     inkscape:window-y="0"
     inkscape:window-maximized="1"
     inkscape:current-layer="svg1" />
  <!--! Font Awesome Pro 6.4.2 by @fontawesome - https://fontawesome.com License - https://fontawesome.com/license (Commercial License) Copyright 2023 Fonticons, Inc. -->
  <path
     d="m 478,173.98634 c 0,-8.8 -7.2,-16 -16,-16 -8.8,0 -16,7.2 -16,16 v 352 c 0,8.8 7.2,16 16,16 8.8,0 16,-7.2 16,-16 z m 128,0 c 0,-8.8 -7.2,-16 -16,-16 -8.8,0 -16,7.2 -16,16 v 352 c 0,8.8 7.2,16 16,16 8.8,0 16,-7.2 16,-16 z m -288,176 -192,160 v -320 z m -171.5,-184.6 c -9.5,-7.9 -22.8,-9.7 -34.1,-4.4 -11.3,5.3 -18.4,16.6 -18.4,29 v 320 c 0,12.4 7.2,23.7 18.4,29 11.2,5.3 24.5,3.6 34.1,-4.4 l 192,-160 c 7.3,-6.1 11.5,-15.1 11.5,-24.6 0,-9.5 -4.2,-18.5 -11.5,-24.6 z"
     id="path1" />
</svg>
