<?xml version="1.0" encoding="UTF-8" standalone="no"?>
<svg
   viewBox="0 0 700 700"
   version="1.1"
   id="svg1"
   sodipodi:docname="playback_volume_kitchen_down_black.svg"
   width="700"
   height="700"
   inkscape:version="1.3.2 (091e20ef0f, 2023-11-25)"
   xml:space="preserve"
   xmlns:inkscape="http://www.inkscape.org/namespaces/inkscape"
   xmlns:sodipodi="http://sodipodi.sourceforge.net/DTD/sodipodi-0.dtd"
   xmlns="http://www.w3.org/2000/svg"
   xmlns:svg="http://www.w3.org/2000/svg"><defs
     id="defs1" /><sodipodi:namedview
     id="namedview1"
     pagecolor="#ffffff"
     bordercolor="#000000"
     borderopacity="0.25"
     inkscape:showpageshadow="2"
     inkscape:pageopacity="0.0"
     inkscape:pagecheckerboard="0"
     inkscape:deskcolor="#d1d1d1"
     inkscape:zoom="1.40625"
     inkscape:cx="252.8"
     inkscape:cy="338.84444"
     inkscape:window-width="1895"
     inkscape:window-height="1347"
     inkscape:window-x="0"
     inkscape:window-y="0"
     inkscape:window-maximized="1"
     inkscape:current-layer="svg1" /><!--! Font Awesome Pro 6.4.2 by @fontawesome - https://fontawesome.com License - https://fontawesome.com/license (Commercial License) Copyright 2023 Fonticons, Inc. --><text
     xml:space="preserve"
     style="font-weight:bold;font-size:72.8165px;font-family:'Noto Sans';-inkscape-font-specification:'Noto Sans, Bold';text-align:center;text-anchor:middle;fill:#000000;fill-opacity:1;stroke-width:0.758506"
     x="350"
     y="632.11481"
     id="text1"><tspan
       sodipodi:role="line"
       id="tspan1"
       x="350"
       y="632.11481"
       style="font-style:normal;font-variant:normal;font-weight:bold;font-stretch:normal;font-size:145.633px;font-family:'Noto Sans';-inkscape-font-specification:'Noto Sans, Bold';font-variant-ligatures:normal;font-variant-caps:normal;font-variant-numeric:normal;font-variant-east-asian:normal;fill:#000000;fill-opacity:1;stroke-width:0.758506">KITCHEN</tspan></text><path
     d="M 407.04841,93.63371 285.46398,201.75828 c -2.585,2.31759 -5.97225,3.56553 -9.44864,3.56553 h -75.76743 c -11.85537,0 -21.39315,9.53779 -21.39315,21.39315 v 71.31052 c 0,11.85537 9.53778,21.39316 21.39315,21.39316 h 75.76743 c 3.47639,0 6.86364,1.24793 9.44864,3.56552 L 407.04841,431.11073 Z M 391.36009,69.388135 c 4.9026,-4.278631 11.14227,-6.685361 17.64936,-6.685361 14.70779,0 26.56317,11.855373 26.56317,26.563168 V 435.4785 c 0,14.7078 -11.85538,26.56317 -26.56317,26.56317 -6.50709,0 -12.74676,-2.40673 -17.64936,-6.68536 l 9.44864,-10.69658 -9.44864,10.69658 -120.78218,-107.41146 h -70.33 c -27.54368,0 -49.91736,-22.37368 -49.91736,-49.91737 v -71.31052 c 0,-27.54368 22.37368,-49.91736 49.91736,-49.91736 h 70.33 z M 495.47345,196.76655 c 4.72432,-6.32881 13.63814,-7.57674 19.96694,-2.85242 20.76919,15.59917 34.22905,40.46872 34.22905,68.4581 0,27.98937 -13.45985,52.85891 -34.22905,68.45809 -6.3288,4.72432 -15.24262,3.47639 -19.96694,-2.85242 -4.72433,-6.32881 -3.47638,-15.24262 2.85242,-19.96694 13.90555,-10.42917 22.81936,-27.00886 22.81936,-45.63873 0,-18.62988 -8.91381,-35.20957 -22.81936,-45.63874 -6.3288,-4.72432 -7.57675,-13.63814 -2.85242,-19.96694 z"
     id="path1-5"
     style="stroke-width:0.891382"
     sodipodi:nodetypes="ccssssssccccssssccccssssccscscscscs" /></svg>
