<?xml version="1.0" encoding="UTF-8" standalone="no"?>
<svg
   viewBox="0 0 700 700"
   version="1.1"
   id="svg1"
   sodipodi:docname="profile_passive_mute_all.svg"
   width="700"
   height="700"
   inkscape:version="1.3.2 (091e20ef0f, 2023-11-25)"
   xmlns:inkscape="http://www.inkscape.org/namespaces/inkscape"
   xmlns:sodipodi="http://sodipodi.sourceforge.net/DTD/sodipodi-0.dtd"
   xmlns="http://www.w3.org/2000/svg"
   xmlns:svg="http://www.w3.org/2000/svg">
  <defs
     id="defs1" />
  <sodipodi:namedview
     id="namedview1"
     pagecolor="#ffffff"
     bordercolor="#000000"
     borderopacity="0.25"
     inkscape:showpageshadow="2"
     inkscape:pageopacity="0.0"
     inkscape:pagecheckerboard="0"
     inkscape:deskcolor="#d1d1d1"
     inkscape:zoom="0.79549513"
     inkscape:cx="241.98765"
     inkscape:cy="327.46901"
     inkscape:window-width="1895"
     inkscape:window-height="1347"
     inkscape:window-x="0"
     inkscape:window-y="0"
     inkscape:window-maximized="1"
     inkscape:current-layer="svg1" />
  <!--! Font Awesome Pro 6.4.2 by @fontawesome - https://fontawesome.com License - https://fontawesome.com/license (Commercial License) Copyright 2023 Fonticons, Inc. -->
  <path
     d="m 272.83857,566.68731 c 7.67546,-13.12911 12.06866,-28.42956 12.06866,-44.79045 v -20.19861 c 0,-6.71605 -5.40313,-12.11918 -12.11917,-12.11918 -6.71604,0 -12.11917,5.40313 -12.11917,12.11918 v 20.19861 c 0,10.70526 -2.57532,20.75408 -7.1705,29.64148 l -13.02811,-10.20031 c 2.62582,-5.95858 4.03971,-12.52315 4.03971,-19.44117 v -80.79448 c 0,-26.76317 -21.71351,-48.47669 -48.47668,-48.47669 -26.76316,0 -48.47669,21.71352 -48.47669,48.47669 v 27.41964 l -93.5196,-73.32101 c -5.25165,-4.14071 -12.87662,-3.18128 -17.01734,2.07036 -4.14073,5.25164 -3.18129,12.87663 2.07035,17.01733 l 298.93957,234.304 c 5.25164,4.14072 12.87662,3.18128 17.01734,-2.07036 4.14071,-5.25165 3.18129,-12.87662 -2.07035,-17.01734 z m -101.0436,-79.1786 v -46.40633 c 0,-13.38159 10.85676,-24.23835 24.23834,-24.23835 13.38158,0 24.23835,10.85676 24.23835,24.23835 h -16.15891 c -4.44369,0 -8.07944,3.63575 -8.07944,8.07945 0,4.4437 3.63575,8.07944 8.07944,8.07944 h 16.15891 v 16.15891 h -16.15891 c -4.44369,0 -8.07944,3.63575 -8.07944,8.07944 0,4.4437 3.63575,8.07945 8.07944,8.07945 h 16.15891 v 32.31779 c 0,1.16142 -0.101,2.32284 -0.2525,3.43377 z m 43.52802,96.09493 c -6.11008,1.91887 -12.57363,2.92881 -19.28968,2.92881 -35.70106,0 -64.63558,-28.93453 -64.63558,-64.63559 v -4.39319 l -23.88487,-18.83523 c -0.25249,0.95944 -0.35348,1.96937 -0.35348,3.02981 v 20.19861 c 0,44.99242 33.42872,82.15789 76.75476,88.06598 v 16.96685 H 159.6758 c -6.71604,0 -12.11918,5.40313 -12.11918,12.11917 0,6.71604 5.40314,12.11917 12.11918,12.11917 h 36.35751 36.35751 c 6.71604,0 12.11917,-5.40313 12.11917,-12.11917 0,-6.71604 -5.40313,-12.11917 -12.11917,-12.11917 h -24.23834 v -16.96685 c 10.30129,-1.41391 20.04713,-4.59519 28.93452,-9.19037 l -21.76401,-17.11833 z"
     id="path1"
     style="stroke-width:0.504966" />
  <path
     d="m 394.91478,61.736242 c -5.19948,-4.09959 -12.74874,-3.14968 -16.84834,2.04979 -4.09959,5.1995 -3.14969,12.74875 2.0498,16.84834 L 676.087,312.61146 c 5.19949,4.09959 12.74874,3.14969 16.84834,-2.0498 4.09958,-5.19948 3.14968,-12.74874 -2.04981,-16.84834 l -52.84478,-41.44589 c 15.79844,-17.09833 25.44749,-39.94607 25.44749,-65.09359 0,-30.04703 -13.84864,-56.89437 -35.4465,-74.49264 -5.14949,-4.19958 -12.69875,-3.39966 -16.89832,1.74982 -4.19959,5.1495 -3.39967,12.69876 1.74982,16.89835 16.24839,13.19868 26.59737,33.2967 26.59737,55.84447 0,19.54807 -7.79923,37.24632 -20.44798,50.24503 l -19.04811,-14.94852 c 9.49906,-8.74912 15.49845,-21.34788 15.49845,-35.29651 0,-15.04851 -6.94931,-28.44718 -17.69825,-37.24632 -5.14948,-4.19958 -12.69873,-3.39966 -16.89831,1.74983 -4.1996,5.14949 -3.39968,12.69874 1.74982,16.89833 5.39946,4.39956 8.84912,11.09891 8.84912,18.59816 0,7.49926 -3.44966,14.1986 -8.84912,18.64816 -0.64994,0.49995 -1.19989,1.0999 -1.69984,1.69984 L 551.4993,184.47411 V 90.083442 c 0,-8.24919 -6.64934,-14.89852 -14.89853,-14.89852 -3.64964,0 -7.14928,1.34986 -9.89901,3.74962 l -51.44493,45.745478 z m 99.54017,77.992288 33.04672,-29.39709 v 55.34453 l -33.04672,-25.89743 z m -102.93983,27.44728 v 39.99606 c 0,15.44847 12.54876,27.99723 27.99722,27.99723 h 39.4461 l 67.74332,60.24406 c 2.74973,2.39976 6.24937,3.74962 9.89901,3.74962 8.24919,0 14.89853,-6.64933 14.89853,-14.89852 v -38.44621 l -23.99763,-18.89813 v 37.09634 l -56.04446,-49.79509 c -2.19977,-1.94981 -5.0495,-3.0497 -7.94922,-3.0497 h -43.99565 c -2.19976,0 -3.99959,-1.79983 -3.99959,-3.9996 v -39.99606 c 0,-2.19978 1.79983,-3.99959 3.99959,-3.99959 h 27.09732 l -30.247,-23.79766 c -13.99861,1.54985 -24.84754,13.39868 -24.84754,27.79725 z"
     id="path2"
     style="stroke-width:0.49995" />
  <path
     d="m 198.33217,98.421753 c -32.83329,0 -59.82509,14.905917 -80.52214,34.092247 -19.387785,18.0281 -32.782955,39.43016 -39.631621,54.53751 6.848666,15.10735 20.243836,36.50942 39.581251,54.53752 20.74742,19.18633 47.73922,34.09224 80.57251,34.09224 32.83329,0 59.82508,-14.90591 80.52214,-34.09224 19.38777,-18.0281 32.78295,-39.43017 39.63162,-54.53752 C 311.63726,171.94416 298.24208,150.5421 278.90467,132.514 258.15725,113.32767 231.16546,98.421753 198.33217,98.421753 Z M 101.34301,114.83841 C 125.06154,92.781677 157.64305,74.25 198.33217,74.25 c 40.68911,0 73.27063,18.531677 96.98916,40.58841 23.56745,21.90564 39.32945,48.04135 46.83276,66.01909 1.66182,3.97826 1.66182,8.40975 0,12.38802 -7.50331,17.97774 -23.26531,44.16381 -46.83276,66.01912 -23.71853,22.05671 -56.30005,40.58838 -96.98916,40.58838 -40.68912,0 -73.27063,-18.53167 -96.98916,-40.58838 -23.56747,-21.85531 -39.32946,-48.04138 -46.782421,-66.01912 -1.661804,-3.97827 -1.661804,-8.40976 0,-12.38802 7.452961,-17.97774 23.214951,-44.16381 46.782421,-66.01909 z m 96.98916,112.49936 c 22.25816,0 40.28625,-18.02811 40.28625,-40.28626 0,-22.25816 -18.02809,-40.28625 -40.28625,-40.28625 -0.3525,0 -0.65465,0 -1.00716,0 0.65466,2.56825 1.00716,5.28757 1.00716,8.05725 0,17.77631 -14.4527,32.229 -32.22901,32.229 -2.76968,0 -5.489,-0.35249 -8.05724,-1.00715 0,0.3525 0,0.65466 0,1.00715 0,22.25815 18.02809,40.28626 40.28625,40.28626 z m 0,-104.74427 a 64.458013,64.458013 0 1 1 0,128.91602 64.458013,64.458013 0 1 1 0,-128.91602 z"
     id="path1-3"
     style="stroke-width:0.503578" />
</svg>
