<?xml version="1.0" encoding="UTF-8" standalone="no"?>
<svg
   viewBox="0 0 700 700"
   version="1.1"
   id="svg1"
   sodipodi:docname="profile_passive_mute_input.svg"
   width="700"
   height="700"
   inkscape:version="1.3.2 (091e20ef0f, 2023-11-25)"
   xml:space="preserve"
   xmlns:inkscape="http://www.inkscape.org/namespaces/inkscape"
   xmlns:sodipodi="http://sodipodi.sourceforge.net/DTD/sodipodi-0.dtd"
   xmlns="http://www.w3.org/2000/svg"
   xmlns:svg="http://www.w3.org/2000/svg"><defs
     id="defs1" /><sodipodi:namedview
     id="namedview1"
     pagecolor="#ffffff"
     bordercolor="#000000"
     borderopacity="0.25"
     inkscape:showpageshadow="2"
     inkscape:pageopacity="0.0"
     inkscape:pagecheckerboard="0"
     inkscape:deskcolor="#d1d1d1"
     inkscape:zoom="1.125"
     inkscape:cx="486.66667"
     inkscape:cy="289.33333"
     inkscape:window-width="1895"
     inkscape:window-height="1347"
     inkscape:window-x="0"
     inkscape:window-y="0"
     inkscape:window-maximized="1"
     inkscape:current-layer="svg1" /><!--! Font Awesome Pro 6.4.2 by @fontawesome - https://fontawesome.com License - https://fontawesome.com/license (Commercial License) Copyright 2023 Fonticons, Inc. --><path
     d="m 272.83857,566.68731 c 7.67546,-13.12911 12.06866,-28.42956 12.06866,-44.79045 v -20.19861 c 0,-6.71605 -5.40313,-12.11918 -12.11917,-12.11918 -6.71604,0 -12.11917,5.40313 -12.11917,12.11918 v 20.19861 c 0,10.70526 -2.57532,20.75408 -7.1705,29.64148 l -13.02811,-10.20031 c 2.62582,-5.95858 4.03971,-12.52315 4.03971,-19.44117 v -80.79448 c 0,-26.76317 -21.71351,-48.47669 -48.47668,-48.47669 -26.76316,0 -48.47669,21.71352 -48.47669,48.47669 v 27.41964 l -93.5196,-73.32101 c -5.25165,-4.14071 -12.87662,-3.18128 -17.01734,2.07036 -4.14073,5.25164 -3.18129,12.87663 2.07035,17.01733 l 298.93957,234.304 c 5.25164,4.14072 12.87662,3.18128 17.01734,-2.07036 4.14071,-5.25165 3.18129,-12.87662 -2.07035,-17.01734 z m -101.0436,-79.1786 v -46.40633 c 0,-13.38159 10.85676,-24.23835 24.23834,-24.23835 13.38158,0 24.23835,10.85676 24.23835,24.23835 h -16.15891 c -4.44369,0 -8.07944,3.63575 -8.07944,8.07945 0,4.4437 3.63575,8.07944 8.07944,8.07944 h 16.15891 v 16.15891 h -16.15891 c -4.44369,0 -8.07944,3.63575 -8.07944,8.07944 0,4.4437 3.63575,8.07945 8.07944,8.07945 h 16.15891 v 32.31779 c 0,1.16142 -0.101,2.32284 -0.2525,3.43377 z m 43.52802,96.09493 c -6.11008,1.91887 -12.57363,2.92881 -19.28968,2.92881 -35.70106,0 -64.63558,-28.93453 -64.63558,-64.63559 v -4.39319 l -23.88487,-18.83523 c -0.25249,0.95944 -0.35348,1.96937 -0.35348,3.02981 v 20.19861 c 0,44.99242 33.42872,82.15789 76.75476,88.06598 v 16.96685 H 159.6758 c -6.71604,0 -12.11918,5.40313 -12.11918,12.11917 0,6.71604 5.40314,12.11917 12.11918,12.11917 h 36.35751 36.35751 c 6.71604,0 12.11917,-5.40313 12.11917,-12.11917 0,-6.71604 -5.40313,-12.11917 -12.11917,-12.11917 h -24.23834 v -16.96685 c 10.30129,-1.41391 20.04713,-4.59519 28.93452,-9.19037 l -21.76401,-17.11833 z"
     id="path1"
     style="stroke-width:0.504966" /><path
     d="m 198.33217,98.421753 c -32.83329,0 -59.82509,14.905917 -80.52214,34.092247 -19.387785,18.0281 -32.782955,39.43016 -39.631621,54.53751 6.848666,15.10735 20.243836,36.50942 39.581251,54.53752 20.74742,19.18633 47.73922,34.09224 80.57251,34.09224 32.83329,0 59.82508,-14.90591 80.52214,-34.09224 19.38777,-18.0281 32.78295,-39.43017 39.63162,-54.53752 C 311.63726,171.94416 298.24208,150.5421 278.90467,132.514 258.15725,113.32767 231.16546,98.421753 198.33217,98.421753 Z M 101.34301,114.83841 C 125.06154,92.781677 157.64305,74.25 198.33217,74.25 c 40.68911,0 73.27063,18.531677 96.98916,40.58841 23.56745,21.90564 39.32945,48.04135 46.83276,66.01909 1.66182,3.97826 1.66182,8.40975 0,12.38802 -7.50331,17.97774 -23.26531,44.16381 -46.83276,66.01912 -23.71853,22.05671 -56.30005,40.58838 -96.98916,40.58838 -40.68912,0 -73.27063,-18.53167 -96.98916,-40.58838 -23.56747,-21.85531 -39.32946,-48.04138 -46.782421,-66.01912 -1.661804,-3.97827 -1.661804,-8.40976 0,-12.38802 7.452961,-17.97774 23.214951,-44.16381 46.782421,-66.01909 z m 96.98916,112.49936 c 22.25816,0 40.28625,-18.02811 40.28625,-40.28626 0,-22.25816 -18.02809,-40.28625 -40.28625,-40.28625 -0.3525,0 -0.65465,0 -1.00716,0 0.65466,2.56825 1.00716,5.28757 1.00716,8.05725 0,17.77631 -14.4527,32.229 -32.22901,32.229 -2.76968,0 -5.489,-0.35249 -8.05724,-1.00715 0,0.3525 0,0.65466 0,1.00715 0,22.25815 18.02809,40.28626 40.28625,40.28626 z m 0,-104.74427 a 64.458013,64.458013 0 1 1 0,128.91602 64.458013,64.458013 0 1 1 0,-128.91602 z"
     id="path1-3"
     style="stroke-width:0.503578" /><path
     d="m 469.9162,160.57561 57.52217,-51.10799 V 267.20456 L 469.9162,216.09655 c -2.25777,-2.00121 -5.18262,-3.13011 -8.15879,-3.13011 h -45.15567 c -2.25778,0 -4.10507,-1.84728 -4.10507,-4.10506 v -41.05059 c 0,-2.25779 1.84729,-4.10507 4.10507,-4.10507 h 45.15567 c 3.02748,0 5.95233,-1.12889 8.15879,-3.13011 z m 66.86118,-87.181213 c -3.74586,0 -7.33779,1.385462 -10.16002,3.848495 L 457.0879,139.07536 h -40.48616 c -15.85579,0 -28.73542,12.87962 -28.73542,28.73543 v 41.05059 c 0,15.8558 12.87963,28.73543 28.73542,28.73543 h 40.48616 l 69.52946,61.83246 c 2.82223,2.46304 6.41416,3.8485 10.16002,3.8485 8.46669,0 15.29136,-6.82467 15.29136,-15.29135 V 88.685745 c 0,-8.466681 -6.82467,-15.291348 -15.29136,-15.291348 z m 93.85195,38.484943 c -5.28528,-4.31031 -13.03358,-3.48931 -17.34387,1.79598 -4.31033,5.28524 -3.48931,13.03355 1.79594,17.34386 16.67682,13.5467 27.29866,34.17463 27.29866,57.31691 0,23.14227 -10.62184,43.77021 -27.29866,57.36822 -5.28525,4.31029 -6.05496,12.05861 -1.79594,17.34387 4.25898,5.28526 12.05859,6.05497 17.34387,1.79597 22.16732,-18.06227 36.38109,-45.61748 36.38109,-76.45675 0,-30.83927 -14.21377,-58.39449 -36.38109,-76.45675 z m -31.04452,38.22837 c -5.28527,-4.31031 -13.03356,-3.48931 -17.3439,1.79596 -4.31029,5.28527 -3.48929,13.03358 1.79598,17.34388 5.54182,4.51556 9.08245,11.39154 9.08245,19.08854 0,7.69697 -3.54063,14.57295 -9.08245,19.13984 -5.28527,4.31031 -6.05496,12.05862 -1.79598,17.34387 4.25903,5.28527 12.05863,6.05497 17.3439,1.79598 11.03235,-9.08245 18.1649,-22.83441 18.1649,-38.27969 0,-15.4453 -7.13255,-29.19725 -18.1649,-38.22838 z"
     id="path1-8"
     style="stroke-width:0.513132" /></svg>
