<?xml version="1.0" encoding="UTF-8" standalone="no"?>
<svg
   viewBox="0 0 700 700"
   version="1.1"
   id="svg1"
   sodipodi:docname="profile_passive_censor_mute_input.svg"
   width="700"
   height="700"
   inkscape:version="1.3.2 (091e20ef0f, 2023-11-25)"
   xmlns:inkscape="http://www.inkscape.org/namespaces/inkscape"
   xmlns:sodipodi="http://sodipodi.sourceforge.net/DTD/sodipodi-0.dtd"
   xmlns="http://www.w3.org/2000/svg"
   xmlns:svg="http://www.w3.org/2000/svg">
  <defs
     id="defs1" />
  <sodipodi:namedview
     id="namedview1"
     pagecolor="#ffffff"
     bordercolor="#000000"
     borderopacity="0.25"
     inkscape:showpageshadow="2"
     inkscape:pageopacity="0.0"
     inkscape:pagecheckerboard="0"
     inkscape:deskcolor="#d1d1d1"
     inkscape:zoom="1.125"
     inkscape:cx="313.33333"
     inkscape:cy="243.11111"
     inkscape:window-width="1895"
     inkscape:window-height="1347"
     inkscape:window-x="0"
     inkscape:window-y="0"
     inkscape:window-maximized="1"
     inkscape:current-layer="svg1" />
  <!--! Font Awesome Pro 6.4.2 by @fontawesome - https://fontawesome.com License - https://fontawesome.com/license (Commercial License) Copyright 2023 Fonticons, Inc. -->
  <path
     d="m 272.83857,566.68731 c 7.67546,-13.12911 12.06866,-28.42956 12.06866,-44.79045 v -20.19861 c 0,-6.71605 -5.40313,-12.11918 -12.11917,-12.11918 -6.71604,0 -12.11917,5.40313 -12.11917,12.11918 v 20.19861 c 0,10.70526 -2.57532,20.75408 -7.1705,29.64148 l -13.02811,-10.20031 c 2.62582,-5.95858 4.03971,-12.52315 4.03971,-19.44117 v -80.79448 c 0,-26.76317 -21.71351,-48.47669 -48.47668,-48.47669 -26.76316,0 -48.47669,21.71352 -48.47669,48.47669 v 27.41964 l -93.5196,-73.32101 c -5.25165,-4.14071 -12.87662,-3.18128 -17.01734,2.07036 -4.14073,5.25164 -3.18129,12.87663 2.07035,17.01733 l 298.93957,234.304 c 5.25164,4.14072 12.87662,3.18128 17.01734,-2.07036 4.14071,-5.25165 3.18129,-12.87662 -2.07035,-17.01734 z m -101.0436,-79.1786 v -46.40633 c 0,-13.38159 10.85676,-24.23835 24.23834,-24.23835 13.38158,0 24.23835,10.85676 24.23835,24.23835 h -16.15891 c -4.44369,0 -8.07944,3.63575 -8.07944,8.07945 0,4.4437 3.63575,8.07944 8.07944,8.07944 h 16.15891 v 16.15891 h -16.15891 c -4.44369,0 -8.07944,3.63575 -8.07944,8.07944 0,4.4437 3.63575,8.07945 8.07944,8.07945 h 16.15891 v 32.31779 c 0,1.16142 -0.101,2.32284 -0.2525,3.43377 z m 43.52802,96.09493 c -6.11008,1.91887 -12.57363,2.92881 -19.28968,2.92881 -35.70106,0 -64.63558,-28.93453 -64.63558,-64.63559 v -4.39319 l -23.88487,-18.83523 c -0.25249,0.95944 -0.35348,1.96937 -0.35348,3.02981 v 20.19861 c 0,44.99242 33.42872,82.15789 76.75476,88.06598 v 16.96685 H 159.6758 c -6.71604,0 -12.11918,5.40313 -12.11918,12.11917 0,6.71604 5.40314,12.11917 12.11918,12.11917 h 36.35751 36.35751 c 6.71604,0 12.11917,-5.40313 12.11917,-12.11917 0,-6.71604 -5.40313,-12.11917 -12.11917,-12.11917 h -24.23834 v -16.96685 c 10.30129,-1.41391 20.04713,-4.59519 28.93452,-9.19037 l -21.76401,-17.11833 z"
     id="path1"
     style="stroke-width:0.504966" />
  <path
     d="M 56.979812,60.204933 C 51.738709,56.072523 44.12902,57.030035 39.9966,62.271139 35.86419,67.512251 36.821702,75.121943 42.062806,79.254357 L 340.40295,313.08852 c 5.24111,4.13241 12.85079,3.1749 16.98321,-2.06621 4.13241,-5.24111 3.1749,-12.85079 -2.0662,-16.9832 L 302.3041,252.51338 c 19.95654,-20.4605 33.46249,-43.39035 40.26585,-59.66803 1.66305,-3.98123 1.66305,-8.41601 0,-12.39724 -7.5089,-17.99112 -23.28263,-44.19667 -46.86762,-66.06823 -23.68579,-22.073142 -56.29155,-40.618611 -97.01095,-40.618611 -34.36959,0 -62.99411,13.253963 -85.31922,30.640341 z m 76.096898,59.617637 c 18.2431,-12.9516 40.16505,-21.871558 65.61467,-21.871558 32.85774,0 59.86962,14.917008 80.58208,34.117628 19.40219,18.0415 32.80733,39.45951 39.66111,54.5781 -6.34982,14.11066 -18.4447,33.66405 -35.73028,50.84884 l -27.11266,-21.26682 c 4.58596,-8.86957 7.15612,-18.89823 7.15612,-29.58202 0,-35.62949 -28.8765,-64.50599 -64.50596,-64.50599 -16.2273,0 -31.0939,5.99705 -42.43285,15.87452 z M 236.43747,200.85819 195.3653,168.6556 c 2.11659,-4.28359 3.32608,-9.17193 3.32608,-14.26186 0,-2.77174 -0.35276,-5.49307 -1.0079,-8.06324 0.35276,0 0.65514,0 1.0079,0 22.27473,0 40.31624,18.04151 40.31624,40.31624 0,4.98912 -0.90713,9.77667 -2.57015,14.21145 z m 4.73715,65.66509 c -12.8508,5.49307 -27.01188,8.81917 -42.48324,8.81917 -32.85774,0 -59.86961,-14.91701 -80.58207,-34.11761 C 98.70711,223.18331 85.30197,201.76533 78.448221,186.64674 82.63103,177.374 89.2832,165.73268 98.30396,153.99059 L 79.304922,139.02317 c -11.490113,14.96742 -19.704554,29.88442 -24.492105,41.42494 -1.663044,3.98123 -1.663044,8.41601 0,12.39724 7.508898,17.99112 23.282633,44.19668 46.867633,66.06824 23.68578,22.07312 56.29154,40.6186 97.01093,40.6186 24.08895,0 45.30538,-6.501 63.59887,-16.37848 z M 134.18541,186.64674 c 0,35.62945 28.87651,64.50596 64.50597,64.50596 6.70258,0 13.15317,-1.0079 19.25102,-2.92292 l -28.32218,-22.27472 c -11.84288,-2.72134 -21.72037,-10.68381 -27.06226,-21.31721 L 134.2862,182.36314 c -0.10075,1.41105 -0.15118,2.82213 -0.15118,4.2836 z"
     id="path1-5"
     style="stroke-width:0.503954" />
  <path
     d="m 470.04988,160.18121 57.52217,-51.10799 v 157.73694 l -57.52217,-51.10801 c -2.25777,-2.00121 -5.18262,-3.13011 -8.15879,-3.13011 h -45.15567 c -2.25778,0 -4.10507,-1.84728 -4.10507,-4.10506 v -41.05059 c 0,-2.25779 1.84729,-4.10507 4.10507,-4.10507 h 45.15567 c 3.02748,0 5.95233,-1.12889 8.15879,-3.13011 z M 536.91106,73 c -3.74586,0 -7.33779,1.385462 -10.16002,3.848495 L 457.22158,138.68096 H 416.73542 C 400.87963,138.68096 388,151.56058 388,167.41639 v 41.05059 c 0,15.8558 12.87963,28.73543 28.73542,28.73543 h 40.48616 l 69.52946,61.83246 c 2.82223,2.46304 6.41416,3.8485 10.16002,3.8485 8.46669,0 15.29136,-6.82467 15.29136,-15.29135 V 88.291348 C 552.20242,79.824667 545.37775,73 536.91106,73 Z m 93.85195,38.48494 c -5.28528,-4.31031 -13.03358,-3.48931 -17.34387,1.79598 -4.31033,5.28524 -3.48931,13.03355 1.79594,17.34386 16.67682,13.5467 27.29866,34.17463 27.29866,57.31691 0,23.14227 -10.62184,43.77021 -27.29866,57.36822 -5.28525,4.31029 -6.05496,12.05861 -1.79594,17.34387 4.25898,5.28526 12.05859,6.05497 17.34387,1.79597 22.16732,-18.06227 36.38109,-45.61748 36.38109,-76.45675 0,-30.83927 -14.21377,-58.39449 -36.38109,-76.45675 z m -31.04452,38.22837 c -5.28527,-4.31031 -13.03356,-3.48931 -17.3439,1.79596 -4.31029,5.28527 -3.48929,13.03358 1.79598,17.34388 5.54182,4.51556 9.08245,11.39154 9.08245,19.08854 0,7.69697 -3.54063,14.57295 -9.08245,19.13984 -5.28527,4.31031 -6.05496,12.05862 -1.79598,17.34387 4.25903,5.28527 12.05863,6.05497 17.3439,1.79598 11.03235,-9.08245 18.1649,-22.83441 18.1649,-38.27969 0,-15.4453 -7.13255,-29.19725 -18.1649,-38.22838 z"
     id="path1-8"
     style="stroke-width:0.513132" />
</svg>
