<?xml version="1.0" encoding="UTF-8" standalone="no"?>
<svg
   viewBox="0 0 700 700"
   version="1.1"
   id="svg1"
   sodipodi:docname="stream_stop.svg"
   width="700"
   height="700"
   inkscape:version="1.3.2 (091e20ef0f, 2023-11-25)"
   xml:space="preserve"
   xmlns:inkscape="http://www.inkscape.org/namespaces/inkscape"
   xmlns:sodipodi="http://sodipodi.sourceforge.net/DTD/sodipodi-0.dtd"
   xmlns="http://www.w3.org/2000/svg"
   xmlns:svg="http://www.w3.org/2000/svg"><defs
     id="defs1" /><sodipodi:namedview
     id="namedview1"
     pagecolor="#ffffff"
     bordercolor="#000000"
     borderopacity="0.25"
     inkscape:showpageshadow="2"
     inkscape:pageopacity="0.0"
     inkscape:pagecheckerboard="0"
     inkscape:deskcolor="#d1d1d1"
     inkscape:zoom="1.40625"
     inkscape:cx="255.64444"
     inkscape:cy="319.64444"
     inkscape:window-width="1895"
     inkscape:window-height="1347"
     inkscape:window-x="0"
     inkscape:window-y="0"
     inkscape:window-maximized="1"
     inkscape:current-layer="svg1" /><!--! Font Awesome Pro 6.4.2 by @fontawesome - https://fontawesome.com License - https://fontawesome.com/license (Commercial License) Copyright 2023 Fonticons, Inc. --><path
     d="m 574,286 v 224 c 0,17.7 -14.3,32 -32,32 H 158 c -17.7,0 -32,-14.3 -32,-32 V 286 Z m 0,-32 h -97.4 l 87.3,-87.3 c 6.2,5.8 10.1,14.1 10.1,23.3 z m -249.4,0 96,-96 h 106.8 l -96,96 z m -45.3,0 H 172.6 l 96,-96 h 106.8 l -96,96 z M 158,158 h 65.4 l -96,96 H 126 v -64 c 0,-17.7 14.3,-32 32,-32 z m 448,96 v -64 c 0,-35.3 -28.7,-64 -64,-64 H 158 c -35.3,0 -64,28.7 -64,64 v 64 16 16 224 c 0,35.3 28.7,64 64,64 h 384 c 35.3,0 64,-28.7 64,-64 V 286 270 Z"
     id="path1"
     sodipodi:nodetypes="csssscccccsccccccccccccscccsscsssscccssssccc" /><path
     d="m 257.54444,350.10279 c 0,-17.7 14.3,-32 32,-32 h 128 c 17.7,0 32,14.3 32,32 v 128 c 0,17.7 -14.3,32 -32,32 h -128 c -17.7,0 -32,-14.3 -32,-32 z m 32,0 v 128 h 128 v -128 z"
     id="path1-2" /></svg>
